<?xml version="1.0" encoding="UTF-8" standalone="no"?>
<!-- Created with Inkscape (http://www.inkscape.org/) -->

<svg
   xmlns:svg="http://www.w3.org/2000/svg"
   xmlns="http://www.w3.org/2000/svg"
   xmlns:xlink="http://www.w3.org/1999/xlink"
   xmlns:inkscape="http://www.inkscape.org/namespaces/inkscape"
   version="1.2"
   width="960"
   height="600"
   id="svg2"
>
  <g
     id="layer3"
     style="display:inline">
    <g
       id="ButtonBook0101" class="book-button button">
      <rect
         width="195"
         height="195"
         ry="35.139885"
         x="102.53645"
         y="102.51155"
         class="background"
		 fill="white"
		 stroke="#330099"
		 stroke-width="5"
		 />
      <g
         transform="matrix(0.78,0,0,0.78,176.83514,-579.26194)"
         id="IconBook0101">
        <path
           d="m -27.51277,938.30416 c -3.34212,0 -6.05263,-2.70462 -6.05263,-6.04133 l -39.67834,6.04133 24.88303,-41.61801 41.6958798,0 24.8830302,41.61801 -39.67834,-6.04133 c 0,3.33671 -2.71052,6.04133 -6.05263,6.04133 z"
           id="path266-6-2-8"
           style="fill:#ffffff;fill-opacity:1;stroke:#330099;stroke-width:6.41025639;stroke-linejoin:round;stroke-miterlimit:4;stroke-opacity:1;stroke-dasharray:none;display:inline" />
        <path
           d="m -27.51277,938.30416 c -4.10794,-19.19799 -23.25975,-4.63728 -43.09892,-1.61662 l 22.25098,-40.00139 c 6.94931,0 17.3405,-5.2554 20.84794,0 l 0,41.61801 z"
           id="path268-2-1-26"
           style="fill:#330099;fill-opacity:1;stroke:#ffffff;stroke-width:1.28205132;stroke-miterlimit:4;stroke-opacity:1;stroke-dasharray:none;display:inline" />
        <path
           d="m -27.51277,938.30416 c 4.10794,-19.19799 23.2597398,-4.63728 43.09892,-1.61662 L -6.6648302,896.68615 c -6.9493098,0 -17.3404998,-5.2554 -20.8479398,0 l 0,41.61801 z"
           id="path270-4-4-2"
           style="fill:#330099;fill-opacity:1;stroke:#ffffff;stroke-width:1.28205132;stroke-miterlimit:4;stroke-opacity:1;stroke-dasharray:none;display:inline" />
        <path
           d="m -27.51277,935.67506 c -3.98885,-18.6414 -22.58583,-4.50302 -41.85029,-1.56907 l 21.60621,-38.84347 c 6.74812,0 16.83835,-5.10156 20.24408,0 l 0,40.41254 z"
           id="path272-5-9-7"
           style="fill:#330099;fill-opacity:1;stroke:#ffffff;stroke-width:1.28205132;stroke-miterlimit:4;stroke-opacity:1;stroke-dasharray:none;display:inline" />
        <path
           d="m -27.51277,935.67506 c 3.98885,-18.6414 22.5861098,-4.50302 41.85056,-1.56907 L -7.2686902,895.26252 c -6.7478398,0 -16.8380798,-5.10156 -20.2437998,0 l -2.8e-4,40.41254 z"
           id="path274-8-8-5"
           style="fill:#330099;fill-opacity:1;stroke:#ffffff;stroke-width:1.28205132;stroke-miterlimit:4;stroke-opacity:1;stroke-dasharray:none;display:inline" />
        <path
           d="m -27.51249,932.84459 c -3.8112,-17.81072 -21.58014,-4.30165 -39.98658,-1.49914 l 20.64395,-37.11219 c 6.44745,0 16.0885,-4.87502 19.34235,0 l 2.8e-4,38.61133 z"
           id="path276-8-2-7"
           style="fill:#330099;fill-opacity:1;stroke:#ffffff;stroke-width:1.28205132;stroke-miterlimit:4;stroke-opacity:1;stroke-dasharray:none;display:inline" />
        <path
           d="m -27.51249,932.84459 c 3.81119,-17.81072 21.5798598,-4.30165 39.9863,-1.49914 L -8.1701402,894.23326 c -6.4474498,0 -16.0882198,-4.87502 -19.3423498,0 l 0,38.61133 z"
           id="path278-1-4-82"
           style="fill:#330099;fill-opacity:1;stroke:#ffffff;stroke-width:1.28205132;stroke-miterlimit:4;stroke-opacity:1;stroke-dasharray:none;display:inline" />
      </g>
      <text
         x="148.98383"
         y="208.27908"
         id="LabelBook01"
         xml:space="preserve"
         style="font-size:25px;font-style:normal;font-weight:bold;line-height:125%;letter-spacing:0px;word-spacing:0px;fill:#000000;fill-opacity:1;stroke:none;display:inline;font-family:Times New Roman;-inkscape-font-specification:'Times New Roman, Bold'"><tspan
           x="148.98383"
           y="208.27908"
           id="tspan3324-3-2">BUCH 01</tspan></text>
      <rect
         width="195"
         height="195"
         ry="35.139885"
         x="102.53645"
         y="102.51155"
         class="overlay"
		 fill="none"
		 stroke="none"
		 />
    </g>
    <g
       id="ButtonBook0202" class="book-button button">
      <rect
         width="195"
         height="195"
         ry="35.139885"
         x="347.47385"
         y="102.57405"
         class="background"
		 fill="white"
		 stroke="#f8c300"
		 stroke-width="5"
		 />
      <g
         transform="matrix(0.78,0,0,0.78,280.77774,-516.9407)"
         id="IconBook0202">
        <path
           d="m 148.07069,858.55762 c -3.34212,0 -6.05263,-2.70462 -6.05263,-6.04133 l -39.67834,6.04133 24.88303,-41.61801 41.69588,0 24.88303,41.61801 -39.67834,-6.04133 c 0,3.33671 -2.71052,6.04133 -6.05263,6.04133 z"
           id="path266-6-2-5"
           style="fill:#ffffff;fill-opacity:1;stroke:#f8c300;stroke-width:6.41025639;stroke-linejoin:round;stroke-miterlimit:4;stroke-opacity:1;stroke-dasharray:none;display:inline" />
        <path
           d="m 148.07069,858.55762 c -4.10794,-19.19799 -23.25975,-4.63728 -43.09892,-1.61662 l 22.25098,-40.00139 c 6.94931,0 17.3405,-5.2554 20.84794,0 l 0,41.61801 z"
           id="path268-2-1-2"
           style="fill:#f8c300;fill-opacity:1;stroke:#ffffff;stroke-width:1.28205132;stroke-miterlimit:4;stroke-opacity:1;stroke-dasharray:none;display:inline" />
        <path
           d="m 148.07069,858.55762 c 4.10794,-19.19799 23.25974,-4.63728 43.09892,-1.61662 l -22.25098,-40.00139 c -6.94931,0 -17.3405,-5.2554 -20.84794,0 l 0,41.61801 z"
           id="path270-4-4-9"
           style="fill:#f8c300;fill-opacity:1;stroke:#ffffff;stroke-width:1.28205132;stroke-miterlimit:4;stroke-opacity:1;stroke-dasharray:none;display:inline" />
        <path
           d="m 148.07069,855.92852 c -3.98885,-18.6414 -22.58583,-4.50302 -41.85029,-1.56907 l 21.60621,-38.84347 c 6.74812,0 16.83835,-5.10156 20.24408,0 l 0,40.41254 z"
           id="path272-5-9-9"
           style="fill:#f8c300;fill-opacity:1;stroke:#ffffff;stroke-width:1.28205132;stroke-miterlimit:4;stroke-opacity:1;stroke-dasharray:none;display:inline" />
        <path
           d="m 148.07069,855.92852 c 3.98885,-18.6414 22.58611,-4.50302 41.85056,-1.56907 l -21.60648,-38.84347 c -6.74784,0 -16.83808,-5.10156 -20.2438,0 l -2.8e-4,40.41254 z"
           id="path274-8-8-8"
           style="fill:#f8c300;fill-opacity:1;stroke:#ffffff;stroke-width:1.28205132;stroke-miterlimit:4;stroke-opacity:1;stroke-dasharray:none;display:inline" />
        <path
           d="m 148.07097,853.09805 c -3.8112,-17.81072 -21.58014,-4.30165 -39.98658,-1.49914 l 20.64395,-37.11219 c 6.44745,0 16.0885,-4.87502 19.34235,0 l 2.8e-4,38.61133 z"
           id="path276-8-2-3"
           style="fill:#f8c300;fill-opacity:1;stroke:#ffffff;stroke-width:1.28205132;stroke-miterlimit:4;stroke-opacity:1;stroke-dasharray:none;display:inline" />
        <path
           d="m 148.07097,853.09805 c 3.81119,-17.81072 21.57986,-4.30165 39.9863,-1.49914 l -20.64395,-37.11219 c -6.44745,0 -16.08822,-4.87502 -19.34235,0 l 0,38.61133 z"
           id="path278-1-4-8"
           style="fill:#f8c300;fill-opacity:1;stroke:#ffffff;stroke-width:1.28205132;stroke-miterlimit:4;stroke-opacity:1;stroke-dasharray:none;display:inline" />
      </g>
      <text
         x="396.85202"
         y="207.79813"
         id="LabelBook02"
         xml:space="preserve"
         style="font-size:27.29999924px;font-style:normal;font-weight:bold;line-height:125%;letter-spacing:0px;word-spacing:0px;fill:#000000;fill-opacity:1;stroke:none;display:inline;font-family:Times New Roman;-inkscape-font-specification:'Times New Roman, Bold'"><tspan
           x="396.85202"
           y="207.79813"
           id="tspan3324-3-2-5"
           style="font-size:23.39999962px">BUCH 02</tspan></text>
      <rect
         width="195"
         height="195"
         ry="35.139885"
         x="347.47385"
         y="102.57405"
         class="overlay"
		 fill="none"
		 stroke="none"
		 />
    </g>
    <g
       id="ButtonBook0303" class="book-button button">
      <rect
         width="195"
         height="195"
         ry="35.139885"
         x="594.89862"
         y="102.57405"
         class="background"
		 fill="white"
		 stroke="#dd1379"
		 stroke-width="5"
		 />
      <g
         transform="matrix(0.78000001,0,0,0.78000001,470.97343,-604.04984)"
         id="IconBook0303"
         style="display:inline">
        <path
           d="m 224.60937,970.16566 c -3.34212,0 -6.05263,-2.70462 -6.05263,-6.04133 l -39.67833,6.04133 24.88303,-41.61801 41.69587,0 24.88303,41.61801 -39.67834,-6.04133 c 0,3.33671 -2.71052,6.04133 -6.05263,6.04133 z"
           id="path266-6-2-7-7-9-4"
           style="fill:#ffffff;fill-opacity:1;stroke:#dd1379;stroke-width:6.41025591;stroke-linejoin:round;stroke-miterlimit:4;stroke-opacity:1;stroke-dasharray:none;display:inline" />
        <path
           d="m 224.60937,970.16566 c -4.10794,-19.19799 -23.25974,-4.63728 -43.09891,-1.61662 l 22.25098,-40.00139 c 6.9493,0 17.34049,-5.25541 20.84793,0 l 0,41.61801 z"
           id="path268-2-1-8-8-5-0"
           style="fill:#dd1379;fill-opacity:1;stroke:#ffffff;stroke-width:1.28205132;stroke-miterlimit:4;stroke-opacity:1;stroke-dasharray:none;display:inline" />
        <path
           d="m 224.60937,970.16566 c 4.10794,-19.19799 23.25974,-4.63728 43.09892,-1.61662 l -22.25098,-40.00139 c -6.94931,0 -17.3405,-5.25541 -20.84794,0 l 0,41.61801 z"
           id="path270-4-4-0-7-8-9"
           style="fill:#dd1379;fill-opacity:1;stroke:#ffffff;stroke-width:1.28205132;stroke-miterlimit:4;stroke-opacity:1;stroke-dasharray:none;display:inline" />
        <path
           d="m 224.60937,967.53656 c -3.98885,-18.6414 -22.58582,-4.50302 -41.85028,-1.56907 l 21.60621,-38.84347 c 6.74811,0 16.83834,-5.10156 20.24407,0 l 0,40.41254 z"
           id="path272-5-9-2-8-9-4"
           style="fill:#dd1379;fill-opacity:1;stroke:#ffffff;stroke-width:1.28205132;stroke-miterlimit:4;stroke-opacity:1;stroke-dasharray:none;display:inline" />
        <path
           d="m 224.60937,967.53656 c 3.98885,-18.6414 22.58611,-4.50302 41.85056,-1.56907 l -21.60648,-38.84347 c -6.74784,0 -16.83808,-5.10156 -20.2438,0 l -2.8e-4,40.41254 z"
           id="path274-8-8-0-1-0-8"
           style="fill:#dd1379;fill-opacity:1;stroke:#ffffff;stroke-width:1.28205132;stroke-miterlimit:4;stroke-opacity:1;stroke-dasharray:none;display:inline" />
        <path
           d="m 224.60965,964.70609 c -3.8112,-17.81072 -21.58013,-4.30165 -39.98657,-1.49914 l 20.64394,-37.11219 c 6.44745,0 16.0885,-4.87502 19.34235,0 l 2.8e-4,38.61133 z"
           id="path276-8-2-8-6-0-8"
           style="fill:#dd1379;fill-opacity:1;stroke:#ffffff;stroke-width:1.28205132;stroke-miterlimit:4;stroke-opacity:1;stroke-dasharray:none;display:inline" />
        <path
           d="m 224.60965,964.70609 c 3.81119,-17.81072 21.57986,-4.30165 39.9863,-1.49914 L 243.952,926.09476 c -6.44745,0 -16.08822,-4.87502 -19.34235,0 l 0,38.61133 z"
           id="path278-1-4-9-0-0-2"
           style="fill:#dd1379;fill-opacity:1;stroke:#ffffff;stroke-width:1.28205132;stroke-miterlimit:4;stroke-opacity:1;stroke-dasharray:none;display:inline" />
      </g>
      <text
         x="643.14948"
         y="207.98953"
         id="LabelBook03"
         xml:space="preserve"
         style="font-size:24px;font-style:normal;font-weight:bold;line-height:125%;letter-spacing:0px;word-spacing:0px;fill:#000000;fill-opacity:1;stroke:none;display:inline;font-family:Times New Roman;-inkscape-font-specification:'Times New Roman, Bold'"><tspan
           x="643.14948"
           y="207.98953"
           id="tspan3324-3-2-8-5">BUCH 03</tspan></text>
      <rect
         width="195"
         height="195"
         ry="35.139885"
         x="594.89862"
         y="102.57405"
         class="overlay"
		 fill="none"
		 stroke="none"
		 />
    </g>
    <flowRoot
       id="flowRoot4266"
       xml:space="preserve"
       style="font-size:22px;font-style:normal;font-weight:normal;line-height:125%;letter-spacing:0px;word-spacing:0px;fill:#000000;fill-opacity:1;stroke:none;font-family:Times New Roman;-inkscape-font-specification:Times New Roman"><flowRegion
         id="flowRegion4268"><rect
           width="384.20432"
           height="487.64392"
           x="-507.34671"
           y="427.60065"
           id="rect4270" /></flowRegion><flowPara
         id="flowPara4272" /></flowRoot>    <flowRoot
       id="flowRoot4274"
       xml:space="preserve"
       style="font-size:22px;font-style:normal;font-weight:normal;line-height:125%;letter-spacing:0px;word-spacing:0px;fill:#000000;fill-opacity:1;stroke:none;font-family:Times New Roman;-inkscape-font-specification:Times New Roman"><flowRegion
         id="flowRegion4276"><rect
           width="243.82196"
           height="539.36371"
           x="-389.13"
           y="476.8576"
           id="rect4278" /></flowRegion><flowPara
         id="flowPara4280" /></flowRoot>    <flowRoot
       id="flowRoot4282"
       xml:space="preserve"
       style="font-size:22px;font-style:normal;font-weight:normal;line-height:125%;letter-spacing:0px;word-spacing:0px;fill:#000000;fill-opacity:1;stroke:none;font-family:Times New Roman;-inkscape-font-specification:Times New Roman"><flowRegion
         id="flowRegion4284"><rect
           width="19.702785"
           height="83.736839"
           x="-108.36532"
           y="858.59906"
           id="rect4286" /></flowRegion><flowPara
         id="flowPara4288" /></flowRoot>    <g
       id="ButtonBook0304" class="book-button button">
      <rect
         width="195"
         height="195"
         ry="35.139885"
         x="102.54907"
         y="350.01337"
         class="background"
		 fill="white"
		 stroke="#dd1379"
		 stroke-width="5"
		 />
      <g
         transform="matrix(0.78000001,0,0,0.78000001,-21.376108,-356.61053)"
         id="IconBook0304"
         style="display:inline">
        <path
           d="m 224.60937,970.16566 c -3.34212,0 -6.05263,-2.70462 -6.05263,-6.04133 l -39.67833,6.04133 24.88303,-41.61801 41.69587,0 24.88303,41.61801 -39.67834,-6.04133 c 0,3.33671 -2.71052,6.04133 -6.05263,6.04133 z"
           id="path266-6-2-7-7-9-4-7"
           style="fill:#ffffff;fill-opacity:1;stroke:#dd1379;stroke-width:6.41025591;stroke-linejoin:round;stroke-miterlimit:4;stroke-opacity:1;stroke-dasharray:none;display:inline" />
        <path
           d="m 224.60937,970.16566 c -4.10794,-19.19799 -23.25974,-4.63728 -43.09891,-1.61662 l 22.25098,-40.00139 c 6.9493,0 17.34049,-5.25541 20.84793,0 l 0,41.61801 z"
           id="path268-2-1-8-8-5-0-1"
           style="fill:#dd1379;fill-opacity:1;stroke:#ffffff;stroke-width:1.28205132;stroke-miterlimit:4;stroke-opacity:1;stroke-dasharray:none;display:inline" />
        <path
           d="m 224.60937,970.16566 c 4.10794,-19.19799 23.25974,-4.63728 43.09892,-1.61662 l -22.25098,-40.00139 c -6.94931,0 -17.3405,-5.25541 -20.84794,0 l 0,41.61801 z"
           id="path270-4-4-0-7-8-9-1"
           style="fill:#dd1379;fill-opacity:1;stroke:#ffffff;stroke-width:1.28205132;stroke-miterlimit:4;stroke-opacity:1;stroke-dasharray:none;display:inline" />
        <path
           d="m 224.60937,967.53656 c -3.98885,-18.6414 -22.58582,-4.50302 -41.85028,-1.56907 l 21.60621,-38.84347 c 6.74811,0 16.83834,-5.10156 20.24407,0 l 0,40.41254 z"
           id="path272-5-9-2-8-9-4-5"
           style="fill:#dd1379;fill-opacity:1;stroke:#ffffff;stroke-width:1.28205132;stroke-miterlimit:4;stroke-opacity:1;stroke-dasharray:none;display:inline" />
        <path
           d="m 224.60937,967.53656 c 3.98885,-18.6414 22.58611,-4.50302 41.85056,-1.56907 l -21.60648,-38.84347 c -6.74784,0 -16.83808,-5.10156 -20.2438,0 l -2.8e-4,40.41254 z"
           id="path274-8-8-0-1-0-8-2"
           style="fill:#dd1379;fill-opacity:1;stroke:#ffffff;stroke-width:1.28205132;stroke-miterlimit:4;stroke-opacity:1;stroke-dasharray:none;display:inline" />
        <path
           d="m 224.60965,964.70609 c -3.8112,-17.81072 -21.58013,-4.30165 -39.98657,-1.49914 l 20.64394,-37.11219 c 6.44745,0 16.0885,-4.87502 19.34235,0 l 2.8e-4,38.61133 z"
           id="path276-8-2-8-6-0-8-7"
           style="fill:#dd1379;fill-opacity:1;stroke:#ffffff;stroke-width:1.28205132;stroke-miterlimit:4;stroke-opacity:1;stroke-dasharray:none;display:inline" />
        <path
           d="m 224.60965,964.70609 c 3.81119,-17.81072 21.57986,-4.30165 39.9863,-1.49914 L 243.952,926.09476 c -6.44745,0 -16.08822,-4.87502 -19.34235,0 l 0,38.61133 z"
           id="path278-1-4-9-0-0-2-6"
           style="fill:#dd1379;fill-opacity:1;stroke:#ffffff;stroke-width:1.28205132;stroke-miterlimit:4;stroke-opacity:1;stroke-dasharray:none;display:inline" />
      </g>
      <text
         x="150.79993"
         y="455.42883"
         id="LabelBook04"
         xml:space="preserve"
         style="font-size:24px;font-style:normal;font-weight:bold;line-height:125%;letter-spacing:0px;word-spacing:0px;fill:#000000;fill-opacity:1;stroke:none;display:inline;font-family:Times New Roman;-inkscape-font-specification:'Times New Roman, Bold'"><tspan
           x="150.79993"
           y="455.42883"
           id="tspan3324-3-2-8-5-4">BUCH 04</tspan></text>
      <rect
         width="195"
         height="195"
         ry="35.139885"
         x="102.54907"
         y="350.01337"
         class="overlay"
		 fill="none"
		 stroke="none"
		 />
    </g>
    <g
       id="ButtonBook0105" class="book-button button">
      <rect
         width="195"
         height="195"
         ry="35.139885"
         x="347.47385"
         y="350.07587"
         class="background"
		 fill="white"
		 stroke="#330099"
		 stroke-width="5"
		 />
      <g
         transform="matrix(0.78,0,0,0.78,421.77254,-331.69762)"
         id="IconBook0105"
         style="display:inline">
        <path
           d="m -27.51277,938.30416 c -3.34212,0 -6.05263,-2.70462 -6.05263,-6.04133 l -39.67834,6.04133 24.88303,-41.61801 41.6958798,0 24.8830302,41.61801 -39.67834,-6.04133 c 0,3.33671 -2.71052,6.04133 -6.05263,6.04133 z"
           id="path266-6-2-8-2"
           style="fill:#ffffff;fill-opacity:1;stroke:#330099;stroke-width:6.41025639;stroke-linejoin:round;stroke-miterlimit:4;stroke-opacity:1;stroke-dasharray:none;display:inline" />
        <path
           d="m -27.51277,938.30416 c -4.10794,-19.19799 -23.25975,-4.63728 -43.09892,-1.61662 l 22.25098,-40.00139 c 6.94931,0 17.3405,-5.2554 20.84794,0 l 0,41.61801 z"
           id="path268-2-1-26-2"
           style="fill:#330099;fill-opacity:1;stroke:#ffffff;stroke-width:1.28205132;stroke-miterlimit:4;stroke-opacity:1;stroke-dasharray:none;display:inline" />
        <path
           d="m -27.51277,938.30416 c 4.10794,-19.19799 23.2597398,-4.63728 43.09892,-1.61662 L -6.6648302,896.68615 c -6.9493098,0 -17.3404998,-5.2554 -20.8479398,0 l 0,41.61801 z"
           id="path270-4-4-2-1"
           style="fill:#330099;fill-opacity:1;stroke:#ffffff;stroke-width:1.28205132;stroke-miterlimit:4;stroke-opacity:1;stroke-dasharray:none;display:inline" />
        <path
           d="m -27.51277,935.67506 c -3.98885,-18.6414 -22.58583,-4.50302 -41.85029,-1.56907 l 21.60621,-38.84347 c 6.74812,0 16.83835,-5.10156 20.24408,0 l 0,40.41254 z"
           id="path272-5-9-7-6"
           style="fill:#330099;fill-opacity:1;stroke:#ffffff;stroke-width:1.28205132;stroke-miterlimit:4;stroke-opacity:1;stroke-dasharray:none;display:inline" />
        <path
           d="m -27.51277,935.67506 c 3.98885,-18.6414 22.5861098,-4.50302 41.85056,-1.56907 L -7.2686902,895.26252 c -6.7478398,0 -16.8380798,-5.10156 -20.2437998,0 l -2.8e-4,40.41254 z"
           id="path274-8-8-5-8"
           style="fill:#330099;fill-opacity:1;stroke:#ffffff;stroke-width:1.28205132;stroke-miterlimit:4;stroke-opacity:1;stroke-dasharray:none;display:inline" />
        <path
           d="m -27.51249,932.84459 c -3.8112,-17.81072 -21.58014,-4.30165 -39.98658,-1.49914 l 20.64395,-37.11219 c 6.44745,0 16.0885,-4.87502 19.34235,0 l 2.8e-4,38.61133 z"
           id="path276-8-2-7-5"
           style="fill:#330099;fill-opacity:1;stroke:#ffffff;stroke-width:1.28205132;stroke-miterlimit:4;stroke-opacity:1;stroke-dasharray:none;display:inline" />
        <path
           d="m -27.51249,932.84459 c 3.81119,-17.81072 21.5798598,-4.30165 39.9863,-1.49914 L -8.1701402,894.23326 c -6.4474498,0 -16.0882198,-4.87502 -19.3423498,0 l 0,38.61133 z"
           id="path278-1-4-82-7"
           style="fill:#330099;fill-opacity:1;stroke:#ffffff;stroke-width:1.28205132;stroke-miterlimit:4;stroke-opacity:1;stroke-dasharray:none;display:inline" />
      </g>
      <text
         x="393.92123"
         y="455.84338"
         id="LabelBook05"
         xml:space="preserve"
         style="font-size:25px;font-style:normal;font-weight:bold;line-height:125%;letter-spacing:0px;word-spacing:0px;fill:#000000;fill-opacity:1;stroke:none;display:inline;font-family:Times New Roman;-inkscape-font-specification:'Times New Roman, Bold'"><tspan
           x="393.92123"
           y="455.84338"
           id="tspan3324-3-2-1">BUCH 05</tspan></text>
      <rect
         width="195"
         height="195"
         ry="35.139885"
         x="347.47385"
         y="350.07587"
         class="overlay"
		 fill="none"
		 stroke="none"
		 />
    </g>
    <g
       id="ButtonBook0206" class="book-button button">
      <rect
         width="195"
         height="195"
         ry="35.139885"
         x="594.89862"
         y="350.07587"
         class="background"
		 fill="white"
		 stroke="#f8c300"
		 stroke-width="5"
		 />
      <g
         transform="matrix(0.78,0,0,0.78,528.20251,-269.43889)"
         id="IconBook0206"
         style="display:inline">
        <path
           d="m 148.07069,858.55762 c -3.34212,0 -6.05263,-2.70462 -6.05263,-6.04133 l -39.67834,6.04133 24.88303,-41.61801 41.69588,0 24.88303,41.61801 -39.67834,-6.04133 c 0,3.33671 -2.71052,6.04133 -6.05263,6.04133 z"
           id="path266-6-2-5-2"
           style="fill:#ffffff;fill-opacity:1;stroke:#f8c300;stroke-width:6.41025639;stroke-linejoin:round;stroke-miterlimit:4;stroke-opacity:1;stroke-dasharray:none;display:inline" />
        <path
           d="m 148.07069,858.55762 c -4.10794,-19.19799 -23.25975,-4.63728 -43.09892,-1.61662 l 22.25098,-40.00139 c 6.94931,0 17.3405,-5.2554 20.84794,0 l 0,41.61801 z"
           id="path268-2-1-2-7"
           style="fill:#f8c300;fill-opacity:1;stroke:#ffffff;stroke-width:1.28205132;stroke-miterlimit:4;stroke-opacity:1;stroke-dasharray:none;display:inline" />
        <path
           d="m 148.07069,858.55762 c 4.10794,-19.19799 23.25974,-4.63728 43.09892,-1.61662 l -22.25098,-40.00139 c -6.94931,0 -17.3405,-5.2554 -20.84794,0 l 0,41.61801 z"
           id="path270-4-4-9-9"
           style="fill:#f8c300;fill-opacity:1;stroke:#ffffff;stroke-width:1.28205132;stroke-miterlimit:4;stroke-opacity:1;stroke-dasharray:none;display:inline" />
        <path
           d="m 148.07069,855.92852 c -3.98885,-18.6414 -22.58583,-4.50302 -41.85029,-1.56907 l 21.60621,-38.84347 c 6.74812,0 16.83835,-5.10156 20.24408,0 l 0,40.41254 z"
           id="path272-5-9-9-5"
           style="fill:#f8c300;fill-opacity:1;stroke:#ffffff;stroke-width:1.28205132;stroke-miterlimit:4;stroke-opacity:1;stroke-dasharray:none;display:inline" />
        <path
           d="m 148.07069,855.92852 c 3.98885,-18.6414 22.58611,-4.50302 41.85056,-1.56907 l -21.60648,-38.84347 c -6.74784,0 -16.83808,-5.10156 -20.2438,0 l -2.8e-4,40.41254 z"
           id="path274-8-8-8-4"
           style="fill:#f8c300;fill-opacity:1;stroke:#ffffff;stroke-width:1.28205132;stroke-miterlimit:4;stroke-opacity:1;stroke-dasharray:none;display:inline" />
        <path
           d="m 148.07097,853.09805 c -3.8112,-17.81072 -21.58014,-4.30165 -39.98658,-1.49914 l 20.64395,-37.11219 c 6.44745,0 16.0885,-4.87502 19.34235,0 l 2.8e-4,38.61133 z"
           id="path276-8-2-3-3"
           style="fill:#f8c300;fill-opacity:1;stroke:#ffffff;stroke-width:1.28205132;stroke-miterlimit:4;stroke-opacity:1;stroke-dasharray:none;display:inline" />
        <path
           d="m 148.07097,853.09805 c 3.81119,-17.81072 21.57986,-4.30165 39.9863,-1.49914 l -20.64395,-37.11219 c -6.44745,0 -16.08822,-4.87502 -19.34235,0 l 0,38.61133 z"
           id="path278-1-4-8-1"
           style="fill:#f8c300;fill-opacity:1;stroke:#ffffff;stroke-width:1.28205132;stroke-miterlimit:4;stroke-opacity:1;stroke-dasharray:none;display:inline" />
      </g>
      <text
         x="644.27686"
         y="455.29993"
         id="LabelBook06"
         xml:space="preserve"
         style="font-size:27.29999924px;font-style:normal;font-weight:bold;line-height:125%;letter-spacing:0px;word-spacing:0px;fill:#000000;fill-opacity:1;stroke:none;display:inline;font-family:Times New Roman;-inkscape-font-specification:'Times New Roman, Bold'"><tspan
           x="644.27686"
           y="455.29993"
           id="tspan3324-3-2-5-3"
           style="font-size:23.39999962px">BUCH 06</tspan></text>
      <rect
         width="195"
         height="195"
         ry="35.139885"
         x="594.89862"
         y="350.07587"
         class="overlay"
		 fill="none"
		 stroke="none"
		 />
    </g>
  </g>
</svg>
