<svg xmlns:osb="http://www.openswatchbook.org/uri/2009/osb" xmlns="http://www.w3.org/2000/svg" xmlns:xlink="http://www.w3.org/1999/xlink" width="960" height="600" enable-background="new">
    <defs>
        <linearGradient>
            <stop offset="0"/>
            <stop offset="1" stop-color="#fff"/>
        </linearGradient>
        <linearGradient>
            <stop offset="0" stop-color="#00f"/>
            <stop offset="1" stop-color="#fff" stop-opacity="0"/>
        </linearGradient>
        <linearGradient id="o">
            <stop offset="0" stop-color="#00f"/>
            <stop offset="1" stop-opacity="0"/>
        </linearGradient>
        <linearGradient osb:paint="solid">
            <stop offset="0"/>
        </linearGradient>
        <marker orient="auto" overflow="visible">
            <path d="M-5.231-2.42l6.556 2.411-6.556 2.411c1.047-1.423 1.041-3.37 0-4.821z" fill-rule="evenodd"/>
        </marker>
        <marker orient="auto" overflow="visible">
            <path d="M.508 0l-3.46 2v-4l3.46 2z" fill-rule="evenodd" fill="#fff" stroke="#000" stroke-width="NaN"/>
        </marker>
        <marker orient="auto" overflow="visible">
            <path d="M-.184 0l-6.92 4v-8l6.92 4z" fill-rule="evenodd" fill="#fff" stroke="#000" stroke-width="NaN"/>
        </marker>
        <marker orient="auto" overflow="visible">
            <path d="M2.308 0l-3.46 2v-4l3.46 2z" fill-rule="evenodd" stroke="#000" stroke-width="NaN"/>
        </marker>
        <marker orient="auto" overflow="visible">
            <path d="M-10.69-4.437l12.018 4.419-12.018 4.419c1.92-2.609 1.909-6.179 0-8.839z" fill-rule="evenodd"/>
        </marker>
        <marker orient="auto" overflow="visible">
            <path d="M-4 0l-2 2 7-2-7-2 2 2z" fill-rule="evenodd" stroke="#000" stroke-width="NaN"/>
        </marker>
        <linearGradient id="l">
            <stop offset="0" stop-color="#c5c7c9"/>
            <stop offset="1" stop-color="#c5c7c9" stop-opacity="0"/>
        </linearGradient>
        <linearGradient id="k">
            <stop offset="0" stop-color="#c5c7c9"/>
            <stop offset="1" stop-color="#c5c7c9" stop-opacity="0"/>
        </linearGradient>
        <linearGradient id="i">
            <stop offset="0" stop-color="#ff0202"/>
            <stop offset="1" stop-color="#ff0202" stop-opacity="0"/>
        </linearGradient>
        <linearGradient id="j">
            <stop offset="0" stop-color="#f00"/>
            <stop offset="1" stop-color="#f00" stop-opacity="0"/>
        </linearGradient>
        <linearGradient osb:paint="gradient">
            <stop offset="0" stop-color="#e7926f"/>
            <stop offset="1" stop-color="#f8f41f" stop-opacity="0"/>
        </linearGradient>
        <linearGradient>
            <stop offset="0" stop-opacity=".55"/>
            <stop offset="1" stop-opacity="0"/>
        </linearGradient>
        <linearGradient>
            <stop offset="0" stop-color="#c5c7c9"/>
            <stop offset="1" stop-color="#fff"/>
        </linearGradient>
        <linearGradient id="c">
            <stop offset="0" stop-color="#0abdff" stop-opacity=".356"/>
            <stop offset="1" stop-color="#0abdff" stop-opacity=".06"/>
        </linearGradient>
        <linearGradient id="b">
            <stop offset="0" stop-color="#c9ff00" stop-opacity=".467"/>
            <stop offset="1" stop-color="#d4aa00" stop-opacity=".033"/>
        </linearGradient>
        <linearGradient osb:paint="solid">
            <stop offset="0" stop-color="#c93900"/>
        </linearGradient>
        <linearGradient id="a">
            <stop offset="0"/>
            <stop offset="1" stop-opacity="0"/>
        </linearGradient>
        <linearGradient>
            <stop offset="0"/>
            <stop offset="1" stop-opacity=".49"/>
        </linearGradient>
        <linearGradient osb:paint="solid">
            <stop offset="0" stop-color="#955c00" stop-opacity="0"/>
        </linearGradient>
        <linearGradient>
            <stop offset="0"/>
            <stop offset="1" stop-opacity="0"/>
        </linearGradient>
        <linearGradient>
            <stop offset="0" stop-color="#fff"/>
            <stop offset="1" stop-color="#28166f"/>
        </linearGradient>
        <linearGradient>
            <stop offset="0" stop-color="#fff"/>
            <stop offset="1" stop-color="#28166f"/>
        </linearGradient>
        <linearGradient>
            <stop offset="0" stop-color="#fff"/>
            <stop offset="1" stop-color="#28166f" stop-opacity="0"/>
        </linearGradient>
        <linearGradient xlink:href="#a" x1="-16564.4" y1="717.054" x2="-16898.5" y2="717.054" gradientUnits="userSpaceOnUse"/>
        <linearGradient xlink:href="#b" x1="179.731" y1="838.037" x2="801.938" y2="969.476" gradientUnits="userSpaceOnUse"/>
        <linearGradient xlink:href="#c" x1="773.658" y1="400.79" x2="697.124" y2="759.172" gradientUnits="userSpaceOnUse"/>
        <linearGradient xlink:href="#b" gradientUnits="userSpaceOnUse" x1="366.075" y1="906.253" x2="876.808" y2="1017.726"/>
        <linearGradient xlink:href="#c" gradientUnits="userSpaceOnUse" x1="773.658" y1="400.79" x2="697.124" y2="759.172"/>
        <linearGradient xlink:href="#b" gradientUnits="userSpaceOnUse" x1="179.731" y1="838.037" x2="801.938" y2="969.476"/>
        <linearGradient xlink:href="#b" gradientUnits="userSpaceOnUse" x1="366.075" y1="906.253" x2="876.808" y2="1017.726"/>
        <linearGradient xlink:href="#b" gradientUnits="userSpaceOnUse" x1="813.632" y1="987.778" x2="620.855" y2="776.804" gradientTransform="translate(4.523 -1.077)"/>
        <linearGradient xlink:href="#b" gradientUnits="userSpaceOnUse" x1="179.731" y1="838.037" x2="801.938" y2="969.476" gradientTransform="translate(4.523 -1.077)"/>
        <linearGradient xlink:href="#c" gradientUnits="userSpaceOnUse" x1="773.658" y1="400.79" x2="697.124" y2="759.172" gradientTransform="translate(4.523 -1.077)"/>
        <linearGradient>
            <stop offset="0" stop-color="#fff"/>
            <stop offset="1" stop-color="#28166f"/>
        </linearGradient>
        <linearGradient>
            <stop offset="0" stop-color="#fff"/>
            <stop offset="1" stop-color="#28166f"/>
        </linearGradient>
        <linearGradient>
            <stop offset="0" stop-color="#fff"/>
            <stop offset="1" stop-color="#28166f"/>
        </linearGradient>
        <linearGradient>
            <stop offset="0" stop-color="#fff"/>
            <stop offset="1" stop-color="#28166f"/>
        </linearGradient>
        <linearGradient>
            <stop offset="0" stop-color="#fff"/>
            <stop offset="1" stop-color="#28166f"/>
        </linearGradient>
        <linearGradient>
            <stop offset="0" stop-color="#fff"/>
            <stop offset="1" stop-color="#28166f"/>
        </linearGradient>
        <linearGradient>
            <stop offset="0" stop-color="#fff"/>
            <stop offset="1" stop-color="#28166f"/>
        </linearGradient>
        <linearGradient>
            <stop offset="0" stop-color="#fff"/>
            <stop offset="1" stop-color="#28166f"/>
        </linearGradient>
        <linearGradient>
            <stop offset="0" stop-color="#fff"/>
            <stop offset="1" stop-color="#28166f"/>
        </linearGradient>
        <linearGradient>
            <stop offset="0" stop-color="#fff"/>
            <stop offset="1" stop-color="#28166f"/>
        </linearGradient>
        <linearGradient>
            <stop offset="0" stop-color="#fff"/>
            <stop offset="1" stop-color="#28166f"/>
        </linearGradient>
        <linearGradient>
            <stop offset="0" stop-color="#fff"/>
            <stop offset="1" stop-color="#28166f"/>
        </linearGradient>
        <linearGradient>
            <stop offset="0" stop-color="#fff"/>
            <stop offset="1" stop-color="#28166f"/>
        </linearGradient>
        <linearGradient>
            <stop offset="0" stop-color="#fff"/>
            <stop offset="1" stop-color="#28166f"/>
        </linearGradient>
        <linearGradient>
            <stop offset="0" stop-color="#fff"/>
            <stop offset="1" stop-color="#28166f"/>
        </linearGradient>
        <linearGradient>
            <stop offset="0" stop-color="#fff"/>
            <stop offset="1" stop-color="#28166f"/>
        </linearGradient>
        <linearGradient>
            <stop offset="0" stop-opacity=".55"/>
            <stop offset="1" stop-opacity="0"/>
        </linearGradient>
        <linearGradient>
            <stop offset="0" stop-opacity=".55"/>
            <stop offset="1" stop-opacity="0"/>
        </linearGradient>
        <linearGradient>
            <stop offset="0" stop-opacity=".55"/>
            <stop offset="1" stop-opacity="0"/>
        </linearGradient>
        <linearGradient>
            <stop offset="0" stop-opacity=".55"/>
            <stop offset="1" stop-opacity="0"/>
        </linearGradient>
        <linearGradient>
            <stop offset="0" stop-opacity=".55"/>
            <stop offset="1" stop-opacity="0"/>
        </linearGradient>
        <linearGradient>
            <stop offset="0" stop-opacity=".55"/>
            <stop offset="1" stop-opacity="0"/>
        </linearGradient>
        <linearGradient>
            <stop offset="0" stop-opacity=".55"/>
            <stop offset="1" stop-opacity="0"/>
        </linearGradient>
        <linearGradient>
            <stop offset="0" stop-opacity=".55"/>
            <stop offset="1" stop-opacity="0"/>
        </linearGradient>
        <linearGradient>
            <stop offset="0" stop-opacity=".55"/>
            <stop offset="1" stop-opacity="0"/>
        </linearGradient>
        <linearGradient>
            <stop offset="0" stop-opacity=".55"/>
            <stop offset="1" stop-opacity="0"/>
        </linearGradient>
        <linearGradient>
            <stop offset="0" stop-opacity=".55"/>
            <stop offset="1" stop-opacity="0"/>
        </linearGradient>
        <linearGradient>
            <stop offset="0" stop-opacity=".55"/>
            <stop offset="1" stop-opacity="0"/>
        </linearGradient>
        <linearGradient>
            <stop offset="0" stop-opacity=".55"/>
            <stop offset="1" stop-opacity="0"/>
        </linearGradient>
        <linearGradient>
            <stop offset="0" stop-opacity=".55"/>
            <stop offset="1" stop-opacity="0"/>
        </linearGradient>
        <linearGradient>
            <stop offset="0" stop-opacity=".55"/>
            <stop offset="1" stop-opacity="0"/>
        </linearGradient>
        <linearGradient>
            <stop offset="0" stop-opacity=".55"/>
            <stop offset="1" stop-opacity="0"/>
        </linearGradient>
        <linearGradient>
            <stop offset="0" stop-opacity=".55"/>
            <stop offset="1" stop-opacity="0"/>
        </linearGradient>
        <linearGradient>
            <stop offset="0" stop-opacity=".55"/>
            <stop offset="1" stop-opacity="0"/>
        </linearGradient>
        <linearGradient>
            <stop offset="0" stop-opacity=".55"/>
            <stop offset="1" stop-opacity="0"/>
        </linearGradient>
        <linearGradient>
            <stop offset="0" stop-opacity=".55"/>
            <stop offset="1" stop-opacity="0"/>
        </linearGradient>
        <linearGradient>
            <stop offset="0" stop-opacity=".55"/>
            <stop offset="1" stop-opacity="0"/>
        </linearGradient>
        <linearGradient>
            <stop offset="0" stop-opacity=".55"/>
            <stop offset="1" stop-opacity="0"/>
        </linearGradient>
        <linearGradient>
            <stop offset="0" stop-opacity=".55"/>
            <stop offset="1" stop-opacity="0"/>
        </linearGradient>
        <linearGradient>
            <stop offset="0" stop-opacity=".55"/>
            <stop offset="1" stop-opacity="0"/>
        </linearGradient>
        <linearGradient>
            <stop offset="0" stop-opacity=".55"/>
            <stop offset="1" stop-opacity="0"/>
        </linearGradient>
        <linearGradient>
            <stop offset="0" stop-opacity=".55"/>
            <stop offset="1" stop-opacity="0"/>
        </linearGradient>
        <linearGradient>
            <stop offset="0" stop-opacity=".55"/>
            <stop offset="1" stop-opacity="0"/>
        </linearGradient>
        <linearGradient>
            <stop offset="0" stop-opacity=".55"/>
            <stop offset="1" stop-opacity="0"/>
        </linearGradient>
        <linearGradient>
            <stop offset="0" stop-opacity=".55"/>
            <stop offset="1" stop-opacity="0"/>
        </linearGradient>
        <linearGradient>
            <stop offset="0" stop-opacity=".55"/>
            <stop offset="1" stop-opacity="0"/>
        </linearGradient>
        <linearGradient>
            <stop offset="0" stop-color="#c5c7c9"/>
            <stop offset="1" stop-color="#fff"/>
        </linearGradient>
        <linearGradient>
            <stop offset="0" stop-color="#fff"/>
            <stop offset="1" stop-color="#28166f" stop-opacity="0"/>
        </linearGradient>
        <linearGradient>
            <stop offset="0" stop-color="#c5c7c9"/>
            <stop offset="1" stop-color="#fff"/>
        </linearGradient>
        <linearGradient>
            <stop offset="0" stop-color="#fff"/>
            <stop offset="1" stop-color="#28166f" stop-opacity="0"/>
        </linearGradient>
        <linearGradient>
            <stop offset="0" stop-color="#c5c7c9"/>
            <stop offset="1" stop-color="#fff"/>
        </linearGradient>
        <linearGradient>
            <stop offset="0" stop-color="#fff"/>
            <stop offset="1" stop-color="#28166f" stop-opacity="0"/>
        </linearGradient>
        <linearGradient>
            <stop offset="0" stop-color="#c5c7c9"/>
            <stop offset="1" stop-color="#fff"/>
        </linearGradient>
        <linearGradient>
            <stop offset="0" stop-color="#fff"/>
            <stop offset="1" stop-color="#28166f" stop-opacity="0"/>
        </linearGradient>
        <linearGradient>
            <stop offset="0" stop-color="#c5c7c9"/>
            <stop offset="1" stop-color="#fff"/>
        </linearGradient>
        <linearGradient>
            <stop offset="0" stop-color="#fff"/>
            <stop offset="1" stop-color="#28166f" stop-opacity="0"/>
        </linearGradient>
        <linearGradient>
            <stop offset="0" stop-color="#c5c7c9"/>
            <stop offset="1" stop-color="#fff"/>
        </linearGradient>
        <linearGradient>
            <stop offset="0" stop-color="#fff"/>
            <stop offset="1" stop-color="#28166f" stop-opacity="0"/>
        </linearGradient>
        <linearGradient>
            <stop offset="0" stop-color="#c5c7c9"/>
            <stop offset="1" stop-color="#fff"/>
        </linearGradient>
        <linearGradient>
            <stop offset="0" stop-color="#fff"/>
            <stop offset="1" stop-color="#28166f" stop-opacity="0"/>
        </linearGradient>
        <linearGradient>
            <stop offset="0" stop-color="#c5c7c9"/>
            <stop offset="1" stop-color="#fff"/>
        </linearGradient>
        <linearGradient>
            <stop offset="0" stop-color="#fff"/>
            <stop offset="1" stop-color="#28166f" stop-opacity="0"/>
        </linearGradient>
        <linearGradient>
            <stop offset="0" stop-color="#c5c7c9"/>
            <stop offset="1" stop-color="#fff"/>
        </linearGradient>
        <linearGradient>
            <stop offset="0" stop-color="#fff"/>
            <stop offset="1" stop-color="#28166f" stop-opacity="0"/>
        </linearGradient>
        <linearGradient>
            <stop offset="0" stop-color="#c5c7c9"/>
            <stop offset="1" stop-color="#fff"/>
        </linearGradient>
        <linearGradient>
            <stop offset="0" stop-color="#fff"/>
            <stop offset="1" stop-color="#28166f" stop-opacity="0"/>
        </linearGradient>
        <linearGradient>
            <stop offset="0" stop-color="#c5c7c9"/>
            <stop offset="1" stop-color="#fff"/>
        </linearGradient>
        <linearGradient>
            <stop offset="0" stop-color="#fff"/>
            <stop offset="1" stop-color="#28166f" stop-opacity="0"/>
        </linearGradient>
        <linearGradient>
            <stop offset="0" stop-color="#c5c7c9"/>
            <stop offset="1" stop-color="#fff"/>
        </linearGradient>
        <linearGradient>
            <stop offset="0" stop-color="#fff"/>
            <stop offset="1" stop-color="#28166f" stop-opacity="0"/>
        </linearGradient>
        <linearGradient>
            <stop offset="0" stop-color="#c5c7c9"/>
            <stop offset="1" stop-color="#fff"/>
        </linearGradient>
        <linearGradient>
            <stop offset="0" stop-color="#fff"/>
            <stop offset="1" stop-color="#28166f" stop-opacity="0"/>
        </linearGradient>
        <linearGradient>
            <stop offset="0" stop-color="#c5c7c9"/>
            <stop offset="1" stop-color="#fff"/>
        </linearGradient>
        <linearGradient>
            <stop offset="0" stop-color="#fff"/>
            <stop offset="1" stop-color="#28166f" stop-opacity="0"/>
        </linearGradient>
        <linearGradient>
            <stop offset="0" stop-color="#c5c7c9"/>
            <stop offset="1" stop-color="#fff"/>
        </linearGradient>
        <linearGradient>
            <stop offset="0" stop-color="#fff"/>
            <stop offset="1" stop-color="#28166f" stop-opacity="0"/>
        </linearGradient>
        <linearGradient>
            <stop offset="0" stop-color="#c5c7c9"/>
            <stop offset="1" stop-color="#fff"/>
        </linearGradient>
        <linearGradient>
            <stop offset="0" stop-color="#fff"/>
            <stop offset="1" stop-color="#28166f" stop-opacity="0"/>
        </linearGradient>
        <linearGradient>
            <stop offset="0" stop-color="#c5c7c9"/>
            <stop offset="1" stop-color="#fff"/>
        </linearGradient>
        <linearGradient>
            <stop offset="0" stop-color="#fff"/>
            <stop offset="1" stop-color="#28166f" stop-opacity="0"/>
        </linearGradient>
        <linearGradient>
            <stop offset="0" stop-color="#c5c7c9"/>
            <stop offset="1" stop-color="#fff"/>
        </linearGradient>
        <linearGradient>
            <stop offset="0" stop-color="#fff"/>
            <stop offset="1" stop-color="#28166f" stop-opacity="0"/>
        </linearGradient>
        <linearGradient>
            <stop offset="0" stop-color="#c5c7c9"/>
            <stop offset="1" stop-color="#fff"/>
        </linearGradient>
        <linearGradient>
            <stop offset="0" stop-color="#fff"/>
            <stop offset="1" stop-color="#28166f" stop-opacity="0"/>
        </linearGradient>
        <linearGradient>
            <stop offset="0" stop-color="#c5c7c9"/>
            <stop offset="1" stop-color="#fff"/>
        </linearGradient>
        <linearGradient>
            <stop offset="0" stop-color="#fff"/>
            <stop offset="1" stop-color="#28166f" stop-opacity="0"/>
        </linearGradient>
        <linearGradient>
            <stop offset="0" stop-color="#c5c7c9"/>
            <stop offset="1" stop-color="#fff"/>
        </linearGradient>
        <linearGradient>
            <stop offset="0" stop-color="#fff"/>
            <stop offset="1" stop-color="#28166f" stop-opacity="0"/>
        </linearGradient>
        <linearGradient>
            <stop offset="0" stop-color="#c5c7c9"/>
            <stop offset="1" stop-color="#fff"/>
        </linearGradient>
        <linearGradient>
            <stop offset="0" stop-color="#fff"/>
            <stop offset="1" stop-color="#28166f" stop-opacity="0"/>
        </linearGradient>
        <linearGradient>
            <stop offset="0" stop-color="#c5c7c9"/>
            <stop offset="1" stop-color="#fff"/>
        </linearGradient>
        <linearGradient>
            <stop offset="0" stop-color="#fff"/>
            <stop offset="1" stop-color="#28166f" stop-opacity="0"/>
        </linearGradient>
        <linearGradient>
            <stop offset="0" stop-color="#c5c7c9"/>
            <stop offset="1" stop-color="#fff"/>
        </linearGradient>
        <linearGradient>
            <stop offset="0" stop-color="#fff"/>
            <stop offset="1" stop-color="#28166f" stop-opacity="0"/>
        </linearGradient>
        <linearGradient>
            <stop offset="0" stop-color="#c5c7c9"/>
            <stop offset="1" stop-color="#fff"/>
        </linearGradient>
        <linearGradient>
            <stop offset="0" stop-color="#fff"/>
            <stop offset="1" stop-color="#28166f" stop-opacity="0"/>
        </linearGradient>
        <linearGradient>
            <stop offset="0" stop-color="#c5c7c9"/>
            <stop offset="1" stop-color="#fff"/>
        </linearGradient>
        <linearGradient>
            <stop offset="0" stop-color="#fff"/>
            <stop offset="1" stop-color="#28166f" stop-opacity="0"/>
        </linearGradient>
        <linearGradient>
            <stop offset="0" stop-color="#c5c7c9"/>
            <stop offset="1" stop-color="#fff"/>
        </linearGradient>
        <linearGradient>
            <stop offset="0" stop-color="#fff"/>
            <stop offset="1" stop-color="#28166f" stop-opacity="0"/>
        </linearGradient>
        <linearGradient>
            <stop offset="0" stop-color="#c5c7c9"/>
            <stop offset="1" stop-color="#fff"/>
        </linearGradient>
        <linearGradient>
            <stop offset="0" stop-color="#fff"/>
            <stop offset="1" stop-color="#28166f" stop-opacity="0"/>
        </linearGradient>
        <linearGradient>
            <stop offset="0" stop-color="#c5c7c9"/>
            <stop offset="1" stop-color="#fff"/>
        </linearGradient>
        <linearGradient>
            <stop offset="0" stop-color="#fff"/>
            <stop offset="1" stop-color="#28166f" stop-opacity="0"/>
        </linearGradient>
        <linearGradient>
            <stop offset="0" stop-color="#c5c7c9"/>
            <stop offset="1" stop-color="#fff"/>
        </linearGradient>
        <linearGradient>
            <stop offset="0" stop-color="#fff"/>
            <stop offset="1" stop-color="#28166f" stop-opacity="0"/>
        </linearGradient>
        <linearGradient xlink:href="#d" x1="-16564.4" y1="717.054" x2="-16898.5" y2="717.054" gradientUnits="userSpaceOnUse"/>
        <linearGradient id="d">
            <stop offset="0"/>
            <stop offset="1" stop-opacity="0"/>
        </linearGradient>
        <linearGradient>
            <stop offset="0" stop-color="#0abdff" stop-opacity=".356"/>
            <stop offset="1" stop-color="#0abdff" stop-opacity=".06"/>
        </linearGradient>
        <linearGradient id="e">
            <stop offset="0" stop-color="#c9ff00" stop-opacity=".467"/>
            <stop offset="1" stop-color="#d4aa00" stop-opacity=".033"/>
        </linearGradient>
        <linearGradient xlink:href="#e" gradientUnits="userSpaceOnUse" x1="813.632" y1="987.778" x2="620.855" y2="776.804" gradientTransform="translate(4.523 -1.077)"/>
        <linearGradient>
            <stop offset="0" stop-color="#c9ff00" stop-opacity=".467"/>
            <stop offset="1" stop-color="#d4aa00" stop-opacity=".033"/>
        </linearGradient>
        <linearGradient xlink:href="#f" x1="-16564.4" y1="717.054" x2="-16898.5" y2="717.054" gradientUnits="userSpaceOnUse"/>
        <linearGradient id="f">
            <stop offset="0"/>
            <stop offset="1" stop-opacity="0"/>
        </linearGradient>
        <linearGradient xlink:href="#f" gradientUnits="userSpaceOnUse" x1="-16564.4" y1="717.054" x2="-16898.5" y2="717.054"/>
        <filter id="p" x="-.12" width="1.24" y="-.12" height="1.24">
            <feGaussianBlur stdDeviation="4.205"/>
        </filter>
        <linearGradient xlink:href="#g" x1="1172.653" y1="104.384" x2="1164.933" y2="84.287" gradientUnits="userSpaceOnUse"/>
        <linearGradient id="g">
            <stop offset="0" stop-color="#ff0202"/>
            <stop offset="1" stop-color="#ff0202" stop-opacity="0"/>
        </linearGradient>
        <linearGradient xlink:href="#h" gradientUnits="userSpaceOnUse" gradientTransform="matrix(.823 0 0 .823 142.94 -33.65)" x1="1178.117" y1="104.384" x2="1147.515" y2="97.073"/>
        <linearGradient id="h">
            <stop offset="0" stop-color="#ff0202"/>
            <stop offset="1" stop-color="#ff0202" stop-opacity="0"/>
        </linearGradient>
        <linearGradient xlink:href="#i" id="q" gradientUnits="userSpaceOnUse" gradientTransform="matrix(.928 0 0 .899 4.384 57.637)" x1="-61.24" y1="1156.202" x2="-59.076" y2="1144.529"/>
        <radialGradient xlink:href="#j" id="r" gradientUnits="userSpaceOnUse" gradientTransform="matrix(.412 -.456 .947 .856 598.095 503.271)" cx="1090.313" cy="45.438" fx="1090.313" fy="45.438" r="29.5"/>
        <linearGradient xlink:href="#g" id="s" gradientUnits="userSpaceOnUse" gradientTransform="matrix(.823 0 0 .823 142.549 -34.009)" x1="1178.117" y1="104.384" x2="1147.515" y2="97.073"/>
        <linearGradient xlink:href="#h" id="t" gradientUnits="userSpaceOnUse" gradientTransform="matrix(-.823 0 0 -.823 2039.138 124.348)" x1="1173.555" y1="104.384" x2="1171.9" y2="89.813"/>
        <filter color-interpolation-filters="sRGB" x="-.12" width="1.24" y="-.12" height="1.24">
            <feGaussianBlur stdDeviation="4.205"/>
        </filter>
        <linearGradient xlink:href="#k" x1="4702.719" y1="99.962" x2="4759.815" y2="99.962" gradientUnits="userSpaceOnUse" gradientTransform="translate(-410.037 -96.248)"/>
        <linearGradient xlink:href="#l" x1="4882.778" y1="103.387" x2="4939.873" y2="103.387" gradientUnits="userSpaceOnUse" gradientTransform="translate(-387.892 -104.926)"/>
        <filter color-interpolation-filters="sRGB" x="-.12" width="1.24" y="-.12" height="1.24">
            <feGaussianBlur stdDeviation="4.205"/>
        </filter>
        <linearGradient xlink:href="#m" id="x" x1="4702.719" y1="99.962" x2="4759.815" y2="99.962" gradientUnits="userSpaceOnUse" gradientTransform="translate(-4919.636 207.388)"/>
        <linearGradient id="m">
            <stop offset="0" stop-color="#c5c7c9"/>
            <stop offset="1" stop-color="#c5c7c9" stop-opacity="0"/>
        </linearGradient>
        <linearGradient xlink:href="#n" id="v" x1="4882.778" y1="103.387" x2="4939.873" y2="103.387" gradientUnits="userSpaceOnUse" gradientTransform="translate(-3818.102 232.392)"/>
        <linearGradient id="n">
            <stop offset="0" stop-color="#c5c7c9"/>
            <stop offset="1" stop-color="#c5c7c9" stop-opacity="0"/>
        </linearGradient>
        <filter id="w">
            <feGaussianBlur stdDeviation="2.102"/>
        </filter>
        <filter id="u">
            <feGaussianBlur stdDeviation="2.102"/>
        </filter>
        <filter color-interpolation-filters="sRGB" id="y">
            <feGaussianBlur stdDeviation="2.102"/>
        </filter>
        <linearGradient xlink:href="#o" id="z" gradientUnits="userSpaceOnUse" gradientTransform="matrix(1 0 0 .655 -10.386 259.621)" x1="663.081" y1="779.103" x2="713.735" y2="806.687"/>
        <filter id="A">
            <feGaussianBlur stdDeviation="4.574"/>
        </filter>
        <filter color-interpolation-filters="sRGB" id="B">
            <feGaussianBlur stdDeviation="4.574"/>
        </filter>
        <filter color-interpolation-filters="sRGB" id="C">
            <feGaussianBlur stdDeviation="4.574"/>
        </filter>
    </defs>
    <g>
        <g>
            <path transform="matrix(1.177 0 0 1.177 -477.152 -16.4)" d="M1203.366 73.402a42.048 42.048 0 1 1-84.095 0 42.048 42.048 0 1 1 84.095 0z" fill="#fff" stroke="#f00" stroke-width=".849" filter="url(#p)"/>
            <path transform="matrix(1.177 0 0 1.177 -477.152 -16.4)" d="M1203.366 73.402a42.048 42.048 0 1 1-84.095 0 42.048 42.048 0 1 1 84.095 0z" fill="#fff" stroke="#f00" stroke-width=".849"/>
            <g transform="matrix(.707 -.707 .707 .707 87.029 808.85)">
                <path d="M1090.313 15.938c-3.878 0-7 3.122-7 7v15.5h-15.5c-3.878 0-7 3.122-7 7s3.122 7 7 7h15.5v15.5c0 3.878 3.122 7 7 7s7-3.122 7-7v-15.5h15.5c3.878 0 7-3.122 7-7s-3.122-7-7-7h-15.5v-15.5c0-3.878-3.122-7-7-7z" fill="#fff" stroke="#f00"/>
                <rect transform="rotate(-90)" width="54.743" height="12.589" x="-72.938" y="1084.473" ry="6.295" fill="url(#q)"/>
                <path d="M1090.313 15.938c-3.878 0-7 3.122-7 7v15.5h-15.5c-3.878 0-7 3.122-7 7s3.122 7 7 7h15.5v15.5c0 3.878 3.122 7 7 7s7-3.122 7-7v-15.5h15.5c3.878 0 7-3.122 7-7s-3.122-7-7-7h-15.5v-15.5c0-3.878-3.122-7-7-7z" fill="url(#r)"/>
                <path d="M1113.66 40.378c2.624.699 5.761 2.569 5.761 5.761s-2.57 5.761-5.761 5.761h-37.036c14.106-2.723 23.364-14.467 37.036-11.522z" fill="url(#s)"/>
                <path d="M1068.026 49.96c-2.624-.699-5.761-2.569-5.761-5.761s2.57-5.761 5.761-5.761h37.036c-14.106 2.723-23.364 14.467-37.036 11.522z" fill="url(#t)"/>
            </g>
        </g>
        <g>
            <path transform="matrix(1.177 0 0 1.177 -477.093 297.632)" d="M1203.366 73.402a42.048 42.048 0 1 1-84.095 0 42.048 42.048 0 1 1 84.095 0z" fill="#fff" stroke="#000" stroke-width=".849" filter="url(#u)"/>
            <path transform="matrix(1.177 0 0 1.177 -477.093 297.632)" d="M1203.366 73.402a42.048 42.048 0 1 1-84.095 0 42.048 42.048 0 1 1 84.095 0z" fill="#fff" stroke="#0f0" stroke-width=".849"/>
            <path d="M881.651 375.675c0-2.751 2.236-4.986 4.987-4.986s4.987 2.235 4.987 4.986v2.493c0-2.751 2.236-4.986 4.987-4.986s4.987 2.235 4.987 4.986v2.493c0-2.751 2.236-4.986 4.987-4.986s4.987 2.235 4.987 4.986v29.917c0 6.582-5.386 11.967-11.968 11.967h-17.553c-6.524-.632-6.939-5.476-10.372-10.903-5.169-8.177-8.411-11.676-15.375-18.158-1.114-.914-1.828-2.302-1.828-3.848 0-2.759 2.236-4.986 4.995-4.986 1.513 0 2.876.673 3.79 1.753l8.419 8.393v-34.072c0-2.759 2.236-4.986 4.987-4.986s4.987 2.227 4.987 4.986v14.95z" fill="#f8f8f8"/>
            <path d="M881.651 375.675c0-2.751 2.236-4.986 4.987-4.986s4.987 2.235 4.987 4.986v2.493c0-2.751 2.236-4.986 4.987-4.986s4.987 2.235 4.987 4.986v2.493c0-2.751 2.236-4.986 4.987-4.986s4.987 2.235 4.987 4.986v29.917c0 6.582-5.386 11.967-11.968 11.967h-17.553c-6.524-.632-6.939-5.476-10.372-10.903-5.169-8.177-8.411-11.676-15.375-18.158-1.114-.914-1.828-2.302-1.828-3.848 0-2.759 2.236-4.986 4.995-4.986 1.513 0 2.876.673 3.79 1.753l8.419 8.393v-34.072c0-2.759 2.236-4.986 4.987-4.986s4.987 2.227 4.987 4.986v14.95z" fill="url(#v)"/>
            <path d="M881.651 375.675c0-2.751 2.236-4.986 4.987-4.986s4.987 2.235 4.987 4.986v2.493c0-2.751 2.236-4.986 4.987-4.986s4.987 2.235 4.987 4.986v2.493c0-2.751 2.236-4.986 4.987-4.986s4.987 2.235 4.987 4.986v29.917c0 6.582-5.385 11.967-11.968 11.967h-17.553c-6.524-.632-6.939-5.476-10.372-10.903-5.169-8.177-8.411-11.676-15.375-18.158-1.114-.914-1.828-2.302-1.828-3.848 0-2.759 2.236-4.986 4.995-4.986 1.512 0 2.876.673 3.79 1.753l8.419 8.393v-34.072c0-2.759 2.236-4.986 4.987-4.986s4.987 2.227 4.987 4.986v14.95z" stroke="#000" stroke-width="1.772" fill="none"/>
            <path d="M881.651 375.675v12.964" stroke="#000" stroke-width="1.772" stroke-linecap="round" fill="none"/>
            <path d="M901.597 380.661v7.978" stroke="#000" stroke-width="1.772" stroke-linecap="round" fill="none"/>
            <path d="M891.624 378.168v7.978" stroke="#000" stroke-width="1.772" stroke-linecap="round" fill="none"/>
            <path d="M871.678 390.807v7.978" stroke="#000" stroke-width="1.772" stroke-linecap="round" fill="none"/>
            <path d="M862.287 372.008c-1.114-2.327-1.737-4.928-1.737-7.679 0-9.815 7.97-17.785 17.785-17.785 6.981 0 13.023 4.031 15.94 9.882" stroke="#0f0" stroke-width="5" stroke-linecap="round" fill="none"/>
            <path d="M894.276 356.425h12.351" stroke="#0f0" stroke-width="5" stroke-linecap="round" stroke-miterlimit="2" fill="none"/>
            <path transform="matrix(.212 0 0 .151 21.931 340.625)" d="M4263.303 106.265l-82.059 45.255 1.837-93.693z" fill="#0f0" stroke="#0f0" stroke-width="27.98" stroke-linecap="round" stroke-linejoin="round" stroke-miterlimit="2"/>
        </g>
        <g>
            <path transform="matrix(1.177 0 0 1.177 -1297.166 297.632)" d="M1203.366 73.402a42.048 42.048 0 1 1-84.095 0 42.048 42.048 0 1 1 84.095 0z" fill="#fff" stroke="#000" stroke-width=".849" filter="url(#w)"/>
            <path transform="matrix(1.177 0 0 1.177 -1297.166 297.632)" d="M1203.366 73.402a42.048 42.048 0 1 1-84.095 0 42.048 42.048 0 1 1 84.095 0z" fill="#fff" stroke="#0f0" stroke-width=".849"/>
            <path d="M78.375 375.67c0-2.751-2.227-4.987-4.987-4.987-2.751 0-4.987 2.236-4.987 4.987v2.493c0-2.751-2.227-4.987-4.987-4.987-2.751 0-4.987 2.236-4.987 4.987v2.493c0-2.751-2.227-4.987-4.987-4.987-2.751 0-4.987 2.236-4.987 4.987v29.919c0 6.582 5.385 11.968 11.968 11.968h17.553c6.532-.632 6.939-5.477 10.372-10.904 5.169-8.178 8.419-11.677 15.375-18.159 1.114-.914 1.828-2.302 1.828-3.856 0-2.751-2.236-4.987-4.987-4.987-1.521 0-2.884.681-3.798 1.754l-8.419 8.402v-34.083c0-2.751-2.227-4.987-4.987-4.987-2.751 0-4.987 2.236-4.987 4.987v14.96z" fill="#f8f8f8"/>
            <path d="M78.375 375.67c0-2.751-2.227-4.987-4.987-4.987-2.751 0-4.987 2.236-4.987 4.987v2.493c0-2.751-2.227-4.987-4.987-4.987-2.751 0-4.987 2.236-4.987 4.987v2.493c0-2.751-2.227-4.987-4.987-4.987-2.751 0-4.987 2.236-4.987 4.987v29.919c0 6.582 5.385 11.968 11.968 11.968h17.553c6.532-.632 6.939-5.477 10.372-10.904 5.169-8.178 8.419-11.677 15.375-18.159 1.114-.914 1.828-2.302 1.828-3.856 0-2.751-2.236-4.987-4.987-4.987-1.521 0-2.884.681-3.798 1.754l-8.419 8.402v-34.083c0-2.751-2.227-4.987-4.987-4.987-2.751 0-4.987 2.236-4.987 4.987v14.96z" fill="url(#x)"/>
            <g stroke="#000" stroke-width="2.132" fill="none">
                <path d="M78.003 375.564c0-2.751-2.227-4.986-4.986-4.986-2.751 0-4.986 2.235-4.986 4.986v2.493c0-2.751-2.227-4.986-4.986-4.986-2.751 0-4.986 2.235-4.986 4.986v2.493c0-2.751-2.227-4.986-4.986-4.986-2.751 0-4.986 2.235-4.986 4.986v29.916c0 6.582 5.385 11.966 11.966 11.966h17.551c6.532-.632 6.939-5.476 10.371-10.903 5.169-8.177 8.418-11.676 15.373-18.157 1.114-.914 1.828-2.302 1.828-3.856 0-2.751-2.235-4.986-4.986-4.986-1.521 0-2.884.681-3.798 1.753l-8.418 8.401v-34.079c0-2.751-2.227-4.986-4.986-4.986-2.751 0-4.986 2.235-4.986 4.986v14.958z"/>
                <path d="M78.003 375.564v12.964" stroke-linecap="round"/>
                <path d="M58.059 380.55v7.978" stroke-linecap="round"/>
                <path d="M68.031 378.057v7.978" stroke-linecap="round"/>
                <path d="M87.975 390.696v7.978" stroke-linecap="round"/>
            </g>
            <path d="M97.739 372.006c1.114-2.327 1.737-4.928 1.737-7.679 0-9.814-7.97-17.784-17.785-17.784-6.981 0-13.023 4.03-15.94 9.881" stroke="#0f0" stroke-width="5" stroke-linecap="round" fill="none"/>
            <path d="M65.751 356.424h-12.351" stroke="#0f0" stroke-width="5" stroke-linecap="round" stroke-miterlimit="2" fill="none"/>
            <path transform="matrix(-.212 0 0 .151 938.095 340.623)" d="M4263.303 106.265l-82.059 45.255 1.837-93.693z" fill="#0f0" stroke="#0f0" stroke-width="27.98" stroke-linecap="round" stroke-linejoin="round" stroke-miterlimit="2"/>
        </g>
        <g>
            <path transform="matrix(1.177 0 0 1.177 -1297.167 -16.46)" d="M1203.366 73.402a42.048 42.048 0 1 1-84.095 0 42.048 42.048 0 1 1 84.095 0z" fill="#fff" stroke="#000" stroke-width=".849" filter="url(#y)"/>
            <path transform="matrix(1.177 0 0 1.177 -1297.167 -16.46)" d="M1203.366 73.402a42.048 42.048 0 1 1-84.095 0 42.048 42.048 0 1 1 84.095 0z" fill="#fff" stroke="#00f" stroke-width=".849"/>
            <g stroke="#00f" stroke-linecap="round" stroke-linejoin="round" transform="translate(-604.382 -692.04)">
                <rect width="58" height="38" x="645.348" y="750.14" ry=".185" fill="url(#z)" stroke-width="2"/>
                <path d="M713.735 748.688l-87 50.229v-100.459z" transform="matrix(0 -.207 .776 0 93.04 879.81)" fill="#00f" stroke-width="4.99"/>
                <rect width="22.82" height="30.164" x="662.938" y="757.977" ry=".185" fill="#fff" stroke-width="2"/>
                <path d="M677.14 763.882l8.547-5.902c.038-.026.071.082.071.185v29.795c0 .102-.032.185-.071.185h-8.597z" fill="#00f" stroke-width="2"/>
            </g>
        </g>
        <g transform="translate(-672.234 387.619)" stroke="#000" stroke-linecap="round" stroke-linejoin="round">
            <path transform="matrix(.507 0 0 .507 577.302 84.521)" d="M1190.814 135.74a57.18 57.18 0 1 1-114.36 0 57.18 57.18 0 1 1 114.36 0z" fill="#fff" stroke-width="3.943"/>
            <path transform="matrix(.42 0 0 .42 676.358 96.391)" d="M1190.814 135.74a57.18 57.18 0 1 1-114.36 0 57.18 57.18 0 1 1 114.36 0z" fill="#fff" stroke-width="4.765" filter="url(#A)"/>
            <rect ry="6.649" y="139.388" x="1138.165" height="28" width="28" stroke-width="2"/>
        </g>
        <g transform="translate(-762.243 309.244)" stroke="#000" stroke-linecap="round" stroke-linejoin="round">
            <path transform="matrix(.507 0 0 .507 577.312 162.896)" d="M1190.814 135.74a57.18 57.18 0 1 1-114.36 0 57.18 57.18 0 1 1 114.36 0z" fill="#fff" stroke-width="3.943"/>
            <path transform="matrix(.42 0 0 .42 676.368 174.766)" d="M1190.814 135.74a57.18 57.18 0 1 1-114.36 0 57.18 57.18 0 1 1 114.36 0z" fill="#fff" stroke-width="4.765" filter="url(#B)"/>
            <rect ry="6.649" y="217.763" x="1138.175" height="28" width="10.5" stroke-width="2"/>
            <rect ry="6.649" y="217.763" x="1156.175" height="28" width="10.5" stroke-width="2"/>
        </g>
        <g stroke="#000" stroke-linecap="round" stroke-linejoin="round">
            <path transform="matrix(.507 0 0 .507 -4.932 472.14)" d="M1190.814 135.74a57.18 57.18 0 1 1-114.36 0 57.18 57.18 0 1 1 114.36 0z" fill="#fff" stroke-width="3.943"/>
            <path transform="matrix(.42 0 0 .42 94.124 484.01)" d="M1190.814 135.74a57.18 57.18 0 1 1-114.36 0 57.18 57.18 0 1 1 114.36 0z" fill="#fff" stroke-width="4.765" filter="url(#C)"/>
            <path d="M562.58 527.008c7.36.161 22.189 9.682 22.203 13.976.014 4.117-14.843 13.913-22.203 14.024-3.684 0-6.649-2.965-6.649-6.649v-14.702c0-3.684 2.966-6.73 6.649-6.649z" stroke-width="2"/>
        </g>
    </g>
</svg>
