<svg xmlns:osb="http://www.openswatchbook.org/uri/2009/osb" xmlns="http://www.w3.org/2000/svg" xmlns:xlink="http://www.w3.org/1999/xlink" width="960" height="600">
    <g>
        <g class="login-button button" style="display:none;">
            <rect ry="34.959" y="49.603" x="233.079" height="200" width="150" class="background" fill="#fff" stroke="#00c800" stroke-width="5"/>
            <text y="221.08" x="257.886" style="line-height:125%;-inkscape-font-specification:'Times New Roman, Bold'" font-size="22" font-weight="bold" letter-spacing="0" word-spacing="0" font-family="Times New Roman">
                <tspan y="221.08" x="257.886">
                    SENIOR 1
                </tspan>
            </text>
            <g>
                <path d="M1173.958 123.587a50.405 50.405 0 1 1-100.811 0 50.405 50.405 0 1 1 100.811 0z" transform="translate(446.448 -227.654) translate(-1261.922 228.503)" fill="#ff0"/>
                <path d="M-148.777 344.721a9.756 9.756 0 1 1-19.512 0 9.756 9.756 0 1 1 19.512 0z" transform="translate(446.448 -227.654) translate(2.233 3.162)" fill="#fff"/>
                <path transform="translate(446.448 -227.654) translate(37.745 3.162)" d="M-148.777 344.721a9.756 9.756 0 1 1-19.512 0 9.756 9.756 0 1 1 19.512 0z" fill="#fff"/>
                <path d="M-212.451 395.192a23.993 22.995 0 1 1-47.931-.643l23.95 1.372z" transform="matrix(1 0 0 .595 544.369 -86.19)" fill="#fff"/>
            </g>
            <rect ry="34.959" y="49.603" x="233.079" height="200" width="150" class="overlay" fill="none"/>
        </g>
        <g class="login-button button user" name="tzlogin" transform="translate(-202)">
            <rect ry="34.959" y="49.603" x="245.079" height="200" width="150" class="background" fill="#fff" stroke="#ffd940" stroke-width="5"/>
            <text y="221.08" x="305.175" style="line-height:125%;-inkscape-font-specification:'Times New Roman, Bold'" font-size="22" font-weight="bold" letter-spacing="0" word-spacing="0" font-family="Times New Roman">
                <tspan y="221.08" x="305.175">
                    TZ
                </tspan>
            </text>
            <g>
                <path d="M586.369-332.441a106.926 93.129 0 1 1-213.852 0 106.926 93.129 0 1 1 213.852 0z" transform="matrix(.2 0 0 .053 194.784 146.809)" fill="#c8ffff" fill-opacity=".992"/>
                <path d="M613.962-254.259a40.241 40.241 0 1 1-80.482 0 40.241 40.241 0 1 1 80.482 0z" transform="matrix(.2 0 0 .194 205.36 178.627)" fill="#ff0"/>
                <path d="M586.369-332.441a106.926 93.129 0 1 1-213.852 0 106.926 93.129 0 1 1 213.852 0z" transform="matrix(.2 0 0 .053 253.638 146.809)" fill="#c8ffff"/>
                <path d="M586.369-332.441a106.926 93.129 0 1 1-213.852 0 106.926 93.129 0 1 1 213.852 0z" transform="matrix(0 .194 -.054 0 302.024 64.809)" fill="#c8ffff"/>
                <path d="M586.369-332.441a106.926 93.129 0 1 1-213.852 0 106.926 93.129 0 1 1 213.852 0z" transform="matrix(0 .194 -.054 0 302.024 7.694)" fill="#c8ffff"/>
                <path d="M586.369-332.441a106.926 93.129 0 1 1-213.852 0 106.926 93.129 0 1 1 213.852 0z" transform="matrix(.145 .133 -.037 .038 216.721 58.7)" fill="#c8ffff"/>
                <path d="M586.369-332.441a106.926 93.129 0 1 1-213.852 0 106.926 93.129 0 1 1 213.852 0z" transform="matrix(.145 .133 -.037 .038 259.545 97.88)" fill="#c8ffff"/>
                <path d="M586.369-332.441a106.926 93.129 0 1 1-213.852 0 106.926 93.129 0 1 1 213.852 0z" transform="matrix(-.137 .141 -.04 -.036 352.713 70.425)" fill="#c8ffff"/>
                <path d="M586.369-332.441a106.926 93.129 0 1 1-213.852 0 106.926 93.129 0 1 1 213.852 0z" transform="matrix(-.137 .141 -.04 -.036 393.085 28.866)" fill="#c8ffff"/>
            </g>
            <rect ry="34.959" y="49.603" x="245.079" height="200" width="150" class="overlay" fill="none"/>
        </g>
        <g class="login-button button admin" name="adminlogin" transform="matrix(.73 0 0 .73 831.565 622.42)">
            <rect ry="34.959" y="-280.675" x="-32.46" height="200" width="150" class="background" fill="#fff" stroke="#f00" stroke-width="6.853"/>
            <text y="-109.225" x="4.213" style="line-height:125%;-inkscape-font-specification:'Times New Roman, Bold'" font-size="22" font-weight="bold" letter-spacing="0" word-spacing="0" font-family="Times New Roman">
                <tspan y="-109.225" x="4.213">
                    ADMIN
                </tspan>
            </text>
            <g>
                <path d="M1173.958 123.587a50.405 50.405 0 1 1-100.811 0 50.405 50.405 0 1 1 100.811 0z" transform="translate(180.91 -557.933) translate(-1261.922 228.503)" fill="#ff0"/>
                <path d="M-148.777 344.721a9.756 9.756 0 1 1-19.512 0 9.756 9.756 0 1 1 19.512 0z" transform="translate(180.91 -557.933) translate(2.233 3.162)" fill="#fff"/>
                <path transform="translate(180.91 -557.933) translate(37.745 3.162)" d="M-148.777 344.721a9.756 9.756 0 1 1-19.512 0 9.756 9.756 0 1 1 19.512 0z" fill="#fff"/>
                <path d="M-212.451 395.192a23.993 22.995 0 1 1-47.931-.643l23.95 1.372z" transform="matrix(1 0 0 .595 278.831 -416.469)" fill="#fff"/>
            </g>
            <rect ry="34.959" y="-280.675" x="-32.46" height="200" width="150" class="overlay" fill="none"/>
        </g>
        <g class="login-button button" style="display:none;">
            <rect ry="34.959" y="49.603" x="421.079" height="200" width="150" class="background" fill="#fff" stroke="#00c800" stroke-width="5"/>
            <text y="221.08" x="445.886" style="line-height:125%;-inkscape-font-specification:'Times New Roman, Bold'" font-size="22" font-weight="bold" letter-spacing="0" word-spacing="0" font-family="Times New Roman">
                <tspan y="221.08" x="445.886">
                    SENIOR 2
                </tspan>
            </text>
            <g>
                <path d="M1173.958 123.587a50.405 50.405 0 1 1-100.811 0 50.405 50.405 0 1 1 100.811 0z" transform="translate(634.448 -227.654) translate(-1261.922 228.503)" fill="#ff0"/>
                <path d="M-148.777 344.721a9.756 9.756 0 1 1-19.512 0 9.756 9.756 0 1 1 19.512 0z" transform="translate(634.448 -227.654) translate(2.233 3.162)" fill="#fff"/>
                <path transform="translate(634.448 -227.654) translate(37.745 3.162)" d="M-148.777 344.721a9.756 9.756 0 1 1-19.512 0 9.756 9.756 0 1 1 19.512 0z" fill="#fff"/>
                <path d="M-212.451 395.192a23.993 22.995 0 1 1-47.931-.643l23.95 1.372z" transform="matrix(1 0 0 .595 732.369 -86.19)" fill="#fff"/>
            </g>
            <rect ry="34.959" y="49.603" x="421.079" height="200" width="150" class="overlay" fill="none"/>
        </g>
        <g class="login-button button" style="display:none;">
            <rect ry="34.959" y="289.603" x="43.079" height="200" width="150" class="background" fill="#fff" stroke="#00c800" stroke-width="5"/>
            <text y="461.08" x="67.886" style="line-height:125%;-inkscape-font-specification:'Times New Roman, Bold'" font-size="22" font-weight="bold" letter-spacing="0" word-spacing="0" font-family="Times New Roman">
                <tspan y="461.08" x="67.886">
                    SENIOR 3
                </tspan>
            </text>
            <g>
                <path d="M1173.958 123.587a50.405 50.405 0 1 1-100.811 0 50.405 50.405 0 1 1 100.811 0z" transform="translate(256.448 12.346) translate(-1261.922 228.503)" fill="#ff0"/>
                <path d="M-148.777 344.721a9.756 9.756 0 1 1-19.512 0 9.756 9.756 0 1 1 19.512 0z" transform="translate(256.448 12.346) translate(2.233 3.162)" fill="#fff"/>
                <path transform="translate(256.448 12.346) translate(37.745 3.162)" d="M-148.777 344.721a9.756 9.756 0 1 1-19.512 0 9.756 9.756 0 1 1 19.512 0z" fill="#fff"/>
                <path d="M-212.451 395.192a23.993 22.995 0 1 1-47.931-.643l23.95 1.372z" transform="matrix(1 0 0 .595 354.369 153.81)" fill="#fff"/>
            </g>
            <rect ry="34.959" y="289.603" x="43.079" height="200" width="150" class="overlay" fill="none"/>
        </g>
    </g>
</svg>
