<svg xmlns:osb="http://www.openswatchbook.org/uri/2009/osb" xmlns="http://www.w3.org/2000/svg" xmlns:xlink="http://www.w3.org/1999/xlink" width="960" height="600">
    <g>
        <g class="radio-button button" transform="translate(1416.32 -535.457)">
            <rect ry="35.14" y="747.441" x="-1278.198" height="195" width="195" class="background" fill="#fff" stroke="#309" stroke-width="5"/>
            <text y="889.208" x="-1231.751" style="line-height:125%;-inkscape-font-specification:'Times New Roman, Bold'" font-size="25" font-weight="bold" letter-spacing="0" word-spacing="0" font-family="Times New Roman">
                <tspan y="889.208" x="-1231.751">
                    RADIO 01
                </tspan>
            </text>
            <g>
                <path d="M-1248.358 843.483h59.447c7.456 0 13.51-6.054 13.51-13.513v-27.019c0-7.456-6.054-13.51-13.513-13.51h-59.443c-7.456 0-13.51 6.054-13.51 13.51v27.019c0 7.46 6.054 13.513 13.51 13.513z" fill="#309" stroke="#309" stroke-width="2.168622"/>
                <path d="M-1245.115 840.24c7.158 0 12.971-5.813 12.971-12.971s-5.813-12.971-12.971-12.971-12.971 5.813-12.971 12.971 5.813 12.971 12.971 12.971z" fill="#fff"/>
                <path d="M-1245.115 811.881c3.579 0 6.486-2.907 6.486-6.486 0-3.579-2.907-6.486-6.486-6.486-3.579 0-6.486 2.907-6.486 6.486 0 3.579 2.907 6.486 6.486 6.486z" fill="#fff"/>
                <path d="M-1188.911 789.441l-59.447-25.938" stroke="#309" stroke-width="2.168622" stroke-linecap="round" fill="none"/>
                <path d="M-1227.404 800.25h48.634" stroke="#fff" stroke-width="2.168622" fill="none"/>
                <path d="M-1227.404 800.25h48.634" stroke="#fff" stroke-width="2.168622" fill="none"/>
                <path d="M-1227.404 838.396h39.597" stroke="#fff" stroke-width="2.168622" fill="none"/>
                <path d="M-1227.404 819.321h48.634" stroke="#fff" stroke-width="2.168622" fill="none"/>
                <path d="M-1227.404 809.787h48.634" stroke="#fff" stroke-width="2.168622" fill="none"/>
                <path d="M-1227.404 828.858h47.106" stroke="#fff" stroke-width="2.168622" fill="none"/>
                <path d="M-1227.404 824.092h48.634" stroke="#fff" stroke-width="2.168622" fill="none"/>
                <path d="M-1227.404 814.554h48.634" stroke="#fff" stroke-width="2.168622" fill="none"/>
                <path d="M-1227.404 805.017h48.634" stroke="#fff" stroke-width="2.168622" fill="none"/>
                <path d="M-1227.404 833.629h44.043" stroke="#fff" stroke-width="2.168622" fill="none"/>
            </g>
            <rect ry="35.14" y="747.441" x="-1278.198" height="195" width="195" class="overlay" fill="none"/>
        </g>
        <g class="radio-button button" transform="translate(1416.32 -535.457)">
            <rect ry="35.14" y="747.441" x="-1033.806" height="195" width="195" class="background" fill="#fff" stroke="#f8c300" stroke-width="5"/>
            <text y="888.665" x="-984.428" style="line-height:125%;-inkscape-font-specification:'Times New Roman, Bold'" font-size="27.3" font-weight="bold" letter-spacing="0" word-spacing="0" font-family="Times New Roman">
                <tspan y="888.665" x="-984.428" font-size="23.4">
                    RADIO 02
                </tspan>
            </text>
            <g>
                <path d="M-1003.965 843.483h59.447c7.456 0 13.51-6.054 13.51-13.513v-27.019c0-7.456-6.054-13.51-13.513-13.51h-59.443c-7.456 0-13.51 6.054-13.51 13.51v27.019c0 7.46 6.054 13.513 13.51 13.513z" fill="#f8c300" stroke="#f8c300" stroke-width="2.165"/>
                <path d="M-1000.723 840.24c7.158 0 12.971-5.813 12.971-12.971s-5.813-12.971-12.971-12.971-12.971 5.813-12.971 12.971 5.813 12.971 12.971 12.971z" fill="#fff"/>
                <path d="M-1000.723 811.881c3.579 0 6.486-2.907 6.486-6.486 0-3.579-2.907-6.486-6.486-6.486-3.579 0-6.486 2.907-6.486 6.486 0 3.579 2.907 6.486 6.486 6.486z" fill="#fff"/>
                <path d="M-944.518 789.441l-59.447-25.938" stroke="#f8c300" stroke-width="2.165" stroke-linecap="round" fill="none"/>
                <path d="M-983.011 800.25h48.634" stroke="#fff" stroke-width="2.165" fill="none"/>
                <path d="M-983.011 800.25h48.634" stroke="#fff" stroke-width="2.165" fill="none"/>
                <path d="M-983.011 838.396h39.597" stroke="#fff" stroke-width="2.165" fill="none"/>
                <path d="M-983.011 819.321h48.634" stroke="#fff" stroke-width="2.165" fill="none"/>
                <path d="M-983.011 809.787h48.634" stroke="#fff" stroke-width="2.165" fill="none"/>
                <path d="M-983.011 828.858h47.106" stroke="#fff" stroke-width="2.165" fill="none"/>
                <path d="M-983.011 824.092h48.634" stroke="#fff" stroke-width="2.165" fill="none"/>
                <path d="M-983.011 814.554h48.634" stroke="#fff" stroke-width="2.165" fill="none"/>
                <path d="M-983.011 805.017h48.634" stroke="#fff" stroke-width="2.165" fill="none"/>
                <path d="M-983.011 833.629h44.043" stroke="#fff" stroke-width="2.165" fill="none"/>
            </g>
            <rect ry="35.14" y="747.441" x="-1033.806" height="195" width="195" class="overlay" fill="none"/>
        </g>
        <g class="radio-button button" transform="translate(1416.32 -535.457)">
            <rect ry="35.14" y="747.441" x="-789.414" height="195" width="195" class="background" fill="#fff" stroke="#dd1379" stroke-width="5"/>
            <text y="888.856" x="-741.163" style="line-height:125%;-inkscape-font-specification:'Times New Roman, Bold'" font-size="24" font-weight="bold" letter-spacing="0" word-spacing="0" font-family="Times New Roman">
                <tspan y="888.856" x="-741.163">
                    RADIO 03
                </tspan>
            </text>
            <g>
                <path d="M-759.573 843.483h59.447c7.456 0 13.51-6.054 13.51-13.513v-27.019c0-7.456-6.054-13.51-13.513-13.51h-59.443c-7.456 0-13.51 6.054-13.51 13.51v27.019c0 7.46 6.054 13.513 13.51 13.513z" fill="#dd1379" stroke="#dd1379" stroke-width="2.165"/>
                <path d="M-756.33 840.24c7.158 0 12.971-5.813 12.971-12.971s-5.813-12.971-12.971-12.971-12.971 5.813-12.971 12.971 5.813 12.971 12.971 12.971z" fill="#fff"/>
                <path d="M-756.33 811.881c3.579 0 6.486-2.907 6.486-6.486 0-3.579-2.907-6.486-6.486-6.486-3.579 0-6.486 2.907-6.486 6.486 0 3.579 2.907 6.486 6.486 6.486z" fill="#fff"/>
                <path d="M-700.126 789.441l-59.447-25.938" stroke="#dd1379" stroke-width="2.165" stroke-linecap="round" fill="none"/>
                <path d="M-738.619 800.25h48.634" stroke="#fff" stroke-width="2.165" fill="none"/>
                <path d="M-738.619 800.25h48.634" stroke="#fff" stroke-width="2.165" fill="none"/>
                <path d="M-738.619 838.396h39.597" stroke="#fff" stroke-width="2.165" fill="none"/>
                <path d="M-738.619 819.321h48.634" stroke="#fff" stroke-width="2.165" fill="none"/>
                <path d="M-738.619 809.787h48.634" stroke="#fff" stroke-width="2.165" fill="none"/>
                <path d="M-738.619 828.858h47.106" stroke="#fff" stroke-width="2.165" fill="none"/>
                <path d="M-738.619 824.092h48.634" stroke="#fff" stroke-width="2.165" fill="none"/>
                <path d="M-738.619 814.554h48.634" stroke="#fff" stroke-width="2.165" fill="none"/>
                <path d="M-738.619 805.017h48.634" stroke="#fff" stroke-width="2.165" fill="none"/>
                <path d="M-738.619 833.629h44.043" stroke="#fff" stroke-width="2.165" fill="none"/>
            </g>
            <rect ry="35.14" y="747.441" x="-789.414" height="195" width="195" class="overlay" fill="none"/>
        </g>
    </g>
</svg>
