<?xml version="1.0" encoding="UTF-8" standalone="no"?>
<!-- Created with Inkscape (http://www.inkscape.org/) -->

<svg
   xmlns:dc="http://purl.org/dc/elements/1.1/"
   xmlns:cc="http://creativecommons.org/ns#"
   xmlns:rdf="http://www.w3.org/1999/02/22-rdf-syntax-ns#"
   xmlns:svg="http://www.w3.org/2000/svg"
   xmlns="http://www.w3.org/2000/svg"
   xmlns:xlink="http://www.w3.org/1999/xlink"
   xmlns:sodipodi="http://sodipodi.sourceforge.net/DTD/sodipodi-0.dtd"
   xmlns:inkscape="http://www.inkscape.org/namespaces/inkscape"
   version="1.1"
   width="960"
   height="600"
   id="svg4185"
   inkscape:version="0.48.3.1 r9886"
   sodipodi:docname="waves.svg">
  <defs
     id="defs4187">
    <linearGradient
       id="linearGradient4731-8-4-5-5-81">
      <stop
         id="stop4733-6-8-8-5-40"
         style="stop-color:#009b00;stop-opacity:1"
         offset="0" />
      <stop
         id="stop4735-5-6-4-1-7"
         style="stop-color:#c5c7c9;stop-opacity:0"
         offset="1" />
    </linearGradient>
    <linearGradient
       x1="5135.4976"
       y1="-2410.6077"
       x2="5451.7153"
       y2="-2410.6077"
       id="linearGradient5547-4-4"
       xlink:href="#linearGradient5072-27-8"
       gradientUnits="userSpaceOnUse" />
    <linearGradient
       id="linearGradient5072-27-8">
      <stop
         id="stop5074-7-8"
         style="stop-color:#009b00;stop-opacity:0.27777779"
         offset="0" />
      <stop
         id="stop5076-9-1"
         style="stop-color:#ffffff;stop-opacity:1"
         offset="1" />
    </linearGradient>
    <linearGradient
       id="linearGradient4282">
      <stop
         id="stop4284"
         style="stop-color:#009b00;stop-opacity:0.27777779"
         offset="0" />
      <stop
         id="stop4286"
         style="stop-color:#ffffff;stop-opacity:1"
         offset="1" />
    </linearGradient>
    <linearGradient
       id="linearGradient4289">
      <stop
         id="stop4291"
         style="stop-color:#009b00;stop-opacity:0.27777779"
         offset="0" />
      <stop
         id="stop4293"
         style="stop-color:#ffffff;stop-opacity:1"
         offset="1" />
    </linearGradient>
    <linearGradient
       id="linearGradient4296">
      <stop
         id="stop4298"
         style="stop-color:#009b00;stop-opacity:0.27777779"
         offset="0" />
      <stop
         id="stop4300"
         style="stop-color:#ffffff;stop-opacity:1"
         offset="1" />
    </linearGradient>
    <filter
       color-interpolation-filters="sRGB"
       id="filter4596-1-2-1-3-2">
      <feGaussianBlur
         id="feGaussianBlur4598-8-3-6-0-7"
         stdDeviation="2.1023861" />
    </filter>
    <linearGradient
       x1="727.81799"
       y1="928.98138"
       x2="762.26111"
       y2="928.98138"
       id="linearGradient7834"
       xlink:href="#linearGradient5294-5-5"
       gradientUnits="userSpaceOnUse"
       gradientTransform="matrix(0.60562787,0.02283951,0.02283951,-0.60562787,-617.4891,1388.238)" />
    <linearGradient
       id="linearGradient5294-5-5">
      <stop
         id="stop5296-5-8"
         style="stop-color:#f6ffff;stop-opacity:1"
         offset="0" />
      <stop
         id="stop5298-1-4"
         style="stop-color:#f6ffff;stop-opacity:0"
         offset="1" />
    </linearGradient>
    <linearGradient
       x1="727.81799"
       y1="928.98138"
       x2="762.26111"
       y2="928.98138"
       id="linearGradient4449"
       xlink:href="#linearGradient5294-5-5"
       gradientUnits="userSpaceOnUse"
       gradientTransform="matrix(0.60562787,0.02283951,0.02283951,-0.60562787,-617.4891,1388.238)" />
    <linearGradient
       x1="773.65802"
       y1="400.78952"
       x2="697.12408"
       y2="759.172"
       id="linearGradient3884"
       xlink:href="#linearGradient5460-5"
       gradientUnits="userSpaceOnUse"
       gradientTransform="translate(0.49345196,0.50698227)" />
    <linearGradient
       id="linearGradient5460-5">
      <stop
         id="stop5462-9"
         style="stop-color:#0a1cff;stop-opacity:0.35555556"
         offset="0" />
      <stop
         id="stop5464-9"
         style="stop-color:#0abdff;stop-opacity:0.06048387"
         offset="1" />
    </linearGradient>
    <linearGradient
       x1="179.73131"
       y1="838.03748"
       x2="801.93768"
       y2="969.4762"
       id="linearGradient6117-7"
       xlink:href="#linearGradient5430-6-77"
       gradientUnits="userSpaceOnUse"
       gradientTransform="translate(0.49345196,0.50701227)" />
    <linearGradient
       id="linearGradient5430-6-77">
      <stop
         id="stop5432-6-7"
         style="stop-color:#0000d0;stop-opacity:0.84444445"
         offset="0" />
      <stop
         id="stop5434-2-3"
         style="stop-color:#0000fa;stop-opacity:0.03333334"
         offset="1" />
    </linearGradient>
    <linearGradient
       x1="179.73131"
       y1="838.03748"
       x2="801.93768"
       y2="969.4762"
       id="linearGradient4752-6"
       xlink:href="#linearGradient5430-6-7-0"
       gradientUnits="userSpaceOnUse"
       gradientTransform="matrix(-1,0,0,1,960.53328,0.50700227)" />
    <linearGradient
       id="linearGradient5430-6-7-0">
      <stop
         id="stop5432-6-4-7"
         style="stop-color:#0000d0;stop-opacity:0.84444445"
         offset="0" />
      <stop
         id="stop5434-2-0-1"
         style="stop-color:#00bffa;stop-opacity:0.03333334"
         offset="1" />
    </linearGradient>
    <linearGradient
       x1="25.410887"
       y1="-82.705307"
       x2="308.16885"
       y2="-82.705307"
       id="linearGradient6022-2"
       xlink:href="#linearGradient6016-00"
       gradientUnits="userSpaceOnUse"
       gradientTransform="matrix(0.2989786,0,0,0.20593913,33.046092,653.04416)" />
    <linearGradient
       id="linearGradient6016-00">
      <stop
         id="stop6018-1"
         style="stop-color:#000000;stop-opacity:1"
         offset="0" />
      <stop
         id="stop6020-4"
         style="stop-color:#000000;stop-opacity:0"
         offset="1" />
    </linearGradient>
    <linearGradient
       x1="179.73131"
       y1="838.03748"
       x2="801.93768"
       y2="969.4762"
       id="linearGradient6009-1"
       xlink:href="#linearGradient5430-65"
       gradientUnits="userSpaceOnUse"
       gradientTransform="matrix(1,0,0,0.65661261,0.49345196,361.86688)" />
    <linearGradient
       id="linearGradient5430-65">
      <stop
         id="stop5432-75"
         style="stop-color:#0063d7;stop-opacity:0.69444442"
         offset="0" />
      <stop
         id="stop5434-41"
         style="stop-color:#006fcb;stop-opacity:0.03333334"
         offset="1" />
    </linearGradient>
    <linearGradient
       x1="179.73131"
       y1="838.03748"
       x2="801.93768"
       y2="969.4762"
       id="linearGradient4786-3"
       xlink:href="#linearGradient5430-8-7"
       gradientUnits="userSpaceOnUse"
       gradientTransform="matrix(-1,0,0,0.38551869,960.53328,647.14953)" />
    <linearGradient
       id="linearGradient5430-8-7">
      <stop
         id="stop5432-8-2"
         style="stop-color:#00e5d7;stop-opacity:0.5"
         offset="0" />
      <stop
         id="stop5434-24-60"
         style="stop-color:#00b2cb;stop-opacity:0.23333333"
         offset="1" />
    </linearGradient>
    <linearGradient
       x1="25.410887"
       y1="-82.705307"
       x2="308.16885"
       y2="-82.705307"
       id="linearGradient4856-2"
       xlink:href="#linearGradient6016-1-0"
       gradientUnits="userSpaceOnUse"
       gradientTransform="matrix(0.10049845,-0.04435272,0.08462946,0.19176117,56.613032,759.82912)" />
    <linearGradient
       id="linearGradient6016-1-0">
      <stop
         id="stop6018-7-9"
         style="stop-color:#000000;stop-opacity:1"
         offset="0" />
      <stop
         id="stop6020-1-7"
         style="stop-color:#000000;stop-opacity:0"
         offset="1" />
    </linearGradient>
    <linearGradient
       x1="25.410887"
       y1="-82.705307"
       x2="308.16885"
       y2="-82.705307"
       id="linearGradient4873-3"
       xlink:href="#linearGradient6016-7-61"
       gradientUnits="userSpaceOnUse"
       gradientTransform="matrix(0.13006779,0.0774673,-0.06931034,0.11637224,5.200822,696.72412)" />
    <linearGradient
       id="linearGradient6016-7-61">
      <stop
         id="stop6018-6-5"
         style="stop-color:#000000;stop-opacity:1"
         offset="0" />
      <stop
         id="stop6020-14-4"
         style="stop-color:#000000;stop-opacity:0"
         offset="1" />
    </linearGradient>
    <linearGradient
       x1="25.410887"
       y1="-82.705307"
       x2="308.16885"
       y2="-82.705307"
       id="linearGradient4574"
       xlink:href="#linearGradient6016-7-61"
       gradientUnits="userSpaceOnUse"
       gradientTransform="matrix(0.13006779,0.0774673,-0.06931034,0.11637224,5.200822,696.72412)" />
  </defs>
  <g
     id="layer1"
     transform="matrix(1.0000481,0,0,1.0000464,82.838058,-118.09586)">
    <g
       transform="translate(-83.370519,-334.78333)"
       id="BackgroundSearchYouTube"
       style="display:inline">
      <rect
         width="959.95386"
         height="599.97217"
         rx="0"
         ry="0"
         x="0.53645325"
         y="452.87372"
         id="rect5993"
         style="fill:url(#linearGradient3884);fill-opacity:1;stroke:none;display:inline" />
      <path
         d="M 0.53644196,777.31102 C 375.36608,701.39192 373.34088,898.67272 645.80518,842.55082 c 104.9229,-21.6119 121.519,-18.1492 313.3603,-20.1958 l 1.3248,230.49078 -959.95383804,0 z"
         id="rect5418-0"
         style="fill:url(#linearGradient6117-7);fill-opacity:1;stroke:none;display:inline"
         inkscape:connector-curvature="0" />
      <path
         d="m 960.49028,786.58472 c -645.26873,65.2398 -36.299,-125.05562 -645.26873,55.966 -102.68484,30.524 -122.8438,-63.1931 -314.68510804,-65.2397 l 0,275.53478 959.95383804,0 z"
         id="rect5418-0-9"
         style="fill:url(#linearGradient4752-6);fill-opacity:1;stroke:none;display:inline"
         inkscape:connector-curvature="0" />
      <path
         d="m 45.339902,631.59485 c 1.90063,-0.25441 3.83767,-0.2976 5.76703,-0.34064 3.03854,-0.0366 6.07758,-0.0418 9.11644,-0.0555 2.16878,-0.0231 4.34761,-0.006 6.49944,0.19701 1.25109,0.13149 2.50862,0.27997 3.72323,0.52855 1.04569,0.23301 2.02271,0.56961 2.97372,0.94499 0.82515,0.41913 1.56741,0.89851 2.39249,1.31834 0.77995,0.48451 1.61608,0.92288 2.41441,1.39133 0.78496,0.45234 1.3731,1.01937 1.80287,1.65467 0.39399,0.67856 0.77098,1.35777 1.11444,2.04937 0.32871,0.35481 0.3698,1.17271 1.11781,1.19164 1.61292,-0.98172 0.13275,-0.0602 -4.55695,1.68821 -0.14911,0.0556 0.28777,-0.12492 0.41757,-0.20006 0.52563,-0.30428 0.97122,-0.69288 1.42586,-1.04449 0.9609,-0.80232 1.88561,-1.61786 2.92986,-2.37052 1.03269,-0.6924 2.1589,-1.31413 3.31081,-1.909 2.2781,-1.16468 4.79076,-2.05138 7.25244,-3.03075 0.18908,-0.0752 0.76353,-0.29202 0.57463,-0.2166 -1.48747,0.59389 -2.9803,1.18137 -4.47045,1.77205 2.53717,-1.74362 5.56125,-1.99471 8.47351,-2.96996 1.07475,-0.26767 2.20063,-0.45194 3.323778,-0.60014 1.06907,-0.16258 2.16538,-0.2478 3.23141,-0.41604 1.20871,-0.12732 2.39227,-0.30832 3.58567,-0.4922 1.62818,-0.17647 3.2489,-0.38201 4.84252,-0.67462 1.36927,-0.24221 2.7632,-0.4092 4.15761,-0.56273 1.3277,-0.1383 2.66743,-0.17879 4.00758,-0.20324 1.47135,-0.009 2.94292,-0.005 4.41436,-0.005 0,0 -4.72274,2.3631 -4.72274,2.3631 l 0,0 c -1.47455,-0.002 -2.94932,-0.006 -4.42342,0.0249 -1.32298,0.0299 -2.64694,0.0888 -3.95273,0.24596 -1.37085,0.17402 -2.75237,0.31309 -4.09835,0.56985 -1.6142,0.26197 -3.24193,0.46869 -4.87083,0.67993 -1.20253,0.19729 -2.41488,0.33951 -3.628178,0.5003 -1.07842,0.13023 -2.15266,0.27253 -3.22736,0.41666 -1.10084,0.16954 -2.21286,0.34672 -3.24397,0.66864 -2.18543,0.61888 -7.43553,2.15209 1.60374,-0.99442 -1.85384,0.73703 -3.70645,1.47553 -5.56152,2.21109 -0.18782,0.0745 -0.75404,0.29454 -0.56711,0.219 1.47114,-0.59453 2.93752,-1.19484 4.41987,-1.77602 0.19562,-0.0767 -0.37084,0.17582 -0.55805,0.26192 -1.03327,0.4752 -0.11365,0.0352 -1.12725,0.52749 -1.17509,0.5628 -2.27126,1.19533 -3.34746,1.84454 -1.06848,0.73789 -2.03971,1.52092 -2.95481,2.35077 -1.84744,1.5244 -4.44756,3.71679 -7.5931,3.40166 -0.86246,-0.37267 -0.93474,-0.91084 -1.35082,-1.50787 -0.33882,-0.67829 -0.64927,-1.36102 -1.08266,-2.01577 -0.38245,-0.58847 -0.94714,-1.09198 -1.67137,-1.503 -0.78668,-0.46396 -1.60033,-0.90621 -2.38618,-1.37113 -0.80125,-0.41271 -1.52285,-0.88992 -2.35484,-1.2735 -0.92461,-0.35002 -1.86772,-0.67404 -2.89095,-0.86647 -1.19375,-0.21458 -2.40293,-0.38751 -3.62465,-0.5077 -2.10334,-0.1913 -4.22777,-0.21756 -6.34706,-0.20619 -3.03948,-0.008 -6.08056,-0.01 -9.11805,0.076 -1.96451,0.0699 -3.956,0.13299 -5.85874,0.50654 0,0 4.6965,-2.49079 4.6965,-2.49079 z"
         id="path6014"
         style="fill:url(#linearGradient6022-2);fill-opacity:1;stroke:none;display:inline"
         inkscape:connector-curvature="0" />
      <path
         d="M 0.53644196,871.92612 C 209.76305,779.68232 272.70626,950.91972 441.78228,913.43862 c 180.6799,-40.0534 326.8667,-40.1686 518.708,-41.5125 l 0,180.91968 -959.95383804,0 z"
         id="path5995"
         style="fill:url(#linearGradient6009-1);fill-opacity:1;stroke:none;display:inline"
         inkscape:connector-curvature="0" />
      <path
         d="m 960.49028,946.62192 c -68.7952,47.8522 -178.1992,72.38968 -209.4016,23.0486 -45.3803,-71.7612 -301.3117,62.89188 -503.11391,1.5742 C 104.41999,927.62552 54.694702,1008.9769 0.53644196,946.62192 l 0,106.22388 959.95383804,0 z"
         id="path5995-5"
         style="fill:url(#linearGradient4786-3);fill-opacity:1;stroke:none;display:inline"
         inkscape:connector-curvature="0" />
      <path
         d="m 51.931002,738.03272 c 0.53433,-0.5188 1.16769,-0.8464 1.79854,-1.1727 1.00631,-0.4849 2.02575,-0.9405 3.04158,-1.4041 0.71952,-0.3432 1.45898,-0.6504 2.26568,-0.7807 0.47457,-0.063 0.95829,-0.1115 1.46872,-0.06 0.44726,0.062 0.914,0.2303 1.38793,0.4388 0.4496,0.2678 0.8961,0.6041 1.34597,0.8726 0.46128,0.3355 0.92248,0.6197 1.38334,0.9374 0.44974,0.3048 0.88045,0.7455 1.28599,1.2733 0.41129,0.5734 0.81712,1.1499 1.21678,1.743 0.2563,0.2816 0.60623,1.0371 0.86544,0.9437 0.13873,-1.1534 0.0199,-0.076 -0.83801,2.2481 -0.0273,0.074 0.0454,-0.1591 0.0581,-0.2483 0.0516,-0.3613 0.0417,-0.7892 0.0501,-1.1841 -0.007,-0.8896 -0.031,-1.7862 0.0107,-2.6419 0.0626,-0.798 0.18566,-1.544 0.32841,-2.2688 0.28714,-1.4224 0.76735,-2.6208 1.19236,-3.8979 0.0327,-0.098 0.13665,-0.3852 0.10414,-0.287 -0.25594,0.7737 -0.51632,1.5422 -0.77448,2.3133 0.13631,-2 1.04964,-2.6824 1.6278,-4.0226 0.25126,-0.4086 0.55399,-0.7472 0.87062,-1.0519 0.29255,-0.3099 0.62604,-0.5519 0.91524,-0.8667 0.35397,-0.2979 0.67744,-0.642 1.00302,-0.9903 0.47477,-0.4058 0.9351,-0.8376 1.35053,-1.3465 0.36073,-0.4287 0.76066,-0.791 1.16628,-1.1408 0.38946,-0.3257 0.82316,-0.5622 1.26359,-0.7837 0.49094,-0.2265 0.98721,-0.4412 1.48182,-0.6595 l -0.6164,2.901 0,0 c -0.49646,0.217 -0.9938,0.4321 -1.47667,0.6794 -0.43243,0.2241 -0.85324,0.4754 -1.22759,0.8154 -0.38928,0.3654 -0.79651,0.6998 -1.14344,1.1386 -0.43493,0.4834 -0.89713,0.9174 -1.35786,1.3557 -0.32315,0.3621 -0.67222,0.6744 -1.01398,1.0041 -0.30898,0.2812 -0.6116,0.5731 -0.91362,0.8667 -0.30036,0.3212 -0.60134,0.6512 -0.81565,1.1039 -0.48028,0.9004 -1.61498,3.1069 0.13043,-1.1639 -0.32027,0.9613 -0.63952,1.9238 -0.96081,2.8839 -0.0325,0.097 -0.13242,0.3861 -0.10063,0.2881 0.25019,-0.7719 0.4964,-1.5484 0.75584,-2.3095 0.0342,-0.1004 -0.0524,0.2188 -0.0799,0.3267 -0.15204,0.5958 -0.0237,0.05 -0.16214,0.6584 -0.16371,0.6984 -0.27225,1.45 -0.36721,2.2142 -0.0559,0.8455 -0.0606,1.7187 -0.0272,2.6272 0.005,1.6935 0.0324,4.1207 -1.15445,4.2939 -0.44305,-0.2191 -0.6885,-0.7095 -1.07371,-1.2037 -0.39263,-0.5813 -0.77755,-1.171 -1.19229,-1.7163 -0.37039,-0.4913 -0.76712,-0.8764 -1.17946,-1.1516 -0.4551,-0.3153 -0.91034,-0.6065 -1.36555,-0.9228 -0.43893,-0.2654 -0.8776,-0.6027 -1.31489,-0.8365 -0.45464,-0.1887 -0.90481,-0.3505 -1.32783,-0.3779 -0.48945,-0.023 -0.96697,0 -1.42703,0.065 -0.78563,0.1339 -1.51053,0.4246 -2.21823,0.7496 -1.02492,0.4435 -2.04803,0.8927 -3.03372,1.4233 -0.6316,0.3566 -1.34317,0.5565 -1.82925,1.1866 l 0.62316,-2.8618 z"
         id="path6014-1"
         style="fill:url(#linearGradient4856-2);fill-opacity:1;stroke:none;display:inline"
         inkscape:connector-curvature="0" />
      <path
         d="m 17.768042,687.78892 c 0.91248,0.3487 1.76971,0.8262 2.62354,1.3018 1.33422,0.7666 2.65806,1.5511 3.9847,2.3308 0.95128,0.5489 1.89343,1.1231 2.76121,1.7954 0.50001,0.3985 0.99713,0.8082 1.44187,1.2634 0.37649,0.4026 0.68825,0.8459 0.97564,1.3045 0.21792,0.4506 0.37949,0.9138 0.59713,1.3648 0.17625,0.4759 0.39246,0.9403 0.58211,1.4118 0.18925,0.459 0.25428,0.9319 0.22743,1.4022 -0.057,0.4855 -0.12156,0.967 -0.2049,1.4468 0.0236,0.2857 -0.23381,0.7585 0.0852,0.963 1.03209,-0.1368 0.078,4e-4 -2.55064,-0.2267 -0.0836,-0.01 0.16725,0 0.24899,-0.01 0.33108,-0.036 0.65571,-0.1399 0.97184,-0.2208 0.68806,-0.2044 1.36482,-0.4256 2.07242,-0.5804 0.6823,-0.1237 1.3815,-0.1832 2.08283,-0.2209 1.38305,-0.068 2.77458,0.082 4.17512,0.1666 0.10759,0.01 0.43045,0.033 0.32289,0.026 -0.84699,-0.05 -1.69415,-0.1047 -2.54123,-0.157 1.69061,-0.3279 3.09071,0.3138 4.68589,0.5173 0.55765,0.1272 1.10946,0.3148 1.64796,0.5221 0.51981,0.1851 1.02543,0.421 1.54581,0.6021 0.56867,0.2413 1.14451,0.4457 1.72557,0.651 0.76772,0.3221 1.54197,0.6259 2.33374,0.8735 0.67721,0.2179 1.33982,0.4847 1.99812,0.7593 0.62417,0.2658 1.22061,0.5901 1.81186,0.9235 0.64317,0.3761 1.28182,0.76 1.92196,1.1412 0,0 -2.8499,0.1117 -2.8499,0.1117 l 0,0 c -0.64098,-0.3829 -1.28103,-0.7676 -1.93276,-1.1321 -0.58563,-0.3258 -1.18141,-0.6356 -1.80237,-0.8852 -0.65494,-0.2568 -1.30277,-0.5362 -1.97474,-0.7399 -0.79041,-0.2702 -1.56811,-0.5751 -2.34785,-0.8778 -0.58954,-0.2001 -1.16483,-0.4339 -1.74678,-0.6574 -0.51296,-0.2059 -1.02822,-0.4037 -1.54426,-0.6008 -0.53597,-0.1894 -1.07937,-0.3774 -1.6363,-0.4627 -1.15903,-0.2165 -3.95905,-0.7105 1.03238,-0.1464 -1.05455,-0.064 -2.10906,-0.1265 -3.16365,-0.1915 -0.10678,-0.01 -0.42717,-0.029 -0.32042,-0.023 0.8401,0.045 1.68007,0.086 2.52056,0.1416 0.11089,0.01 -0.22051,0 -0.33093,0 -0.60945,8e-4 -0.0613,-0.01 -0.66793,0.01 -0.70063,0.014 -1.39039,0.087 -2.07708,0.175 -0.71317,0.1401 -1.39923,0.3309 -2.07663,0.5627 -1.31676,0.3827 -3.18578,0.9479 -4.44816,-0.045 -0.24978,-0.434 -0.1001,-0.7569 -0.0802,-1.2021 0.0809,-0.471 0.1756,-0.9373 0.20742,-1.4196 0.0317,-0.4316 -0.0445,-0.8624 -0.22126,-1.2823 -0.1861,-0.466 -0.39122,-0.9268 -0.57663,-1.3931 -0.20967,-0.4408 -0.36299,-0.8975 -0.59584,-1.3298 -0.28444,-0.4374 -0.58568,-0.8648 -0.96606,-1.2387 -0.44712,-0.4305 -0.91496,-0.8416 -1.406,-1.226 -0.85066,-0.6531 -1.76603,-1.2184 -2.69184,-1.7611 -1.31974,-0.7919 -2.64171,-1.5815 -3.9923,-2.3196 -0.87818,-0.4695 -1.7658,-0.9499 -2.71927,-1.2318 0,0 2.88146,-0.1906 2.88146,-0.1906 z"
         id="path6014-2"
         style="fill:url(#linearGradient4574);fill-opacity:1;stroke:none;display:inline"
         inkscape:connector-curvature="0" />
    </g>
  </g>
</svg>
