<svg xmlns="http://www.w3.org/2000/svg" xmlns:xlink="http://www.w3.org/1999/xlink" width="960" height="600" enable-background="new">
    <g>
        <g class="book-button button">
            <rect width="250" height="250" ry="45.051" x="210.002" y="29.998" class="background" fill="#fff" stroke="#309" stroke-width="5"/>
            <g>
                <path d="M277.744 94.235c-3.342 0-6.053-2.705-6.053-6.041l-39.678 6.041 24.883-41.618h41.696l24.883 41.618-39.678-6.041c0 3.337-2.711 6.041-6.053 6.041z" fill="#fff" stroke="#309" stroke-width="5" stroke-linejoin="round"/>
                <path d="M277.744 94.235c-4.108-19.198-23.26-4.637-43.099-1.617l22.251-40.001c6.949 0 17.34-5.255 20.848 0v41.618z" fill="#309" stroke="#fff"/>
                <path d="M277.744 94.235c4.108-19.198 23.26-4.637 43.099-1.617l-22.251-40.001c-6.949 0-17.34-5.255-20.848 0v41.618z" fill="#309" stroke="#fff"/>
                <path d="M277.744 91.606c-3.989-18.641-22.586-4.503-41.85-1.569l21.606-38.843c6.748 0 16.838-5.102 20.244 0v40.413z" fill="#309" stroke="#fff"/>
                <path d="M277.744 91.606c3.989-18.641 22.586-4.503 41.851-1.569l-21.606-38.843c-6.748 0-16.838-5.102-20.244 0v40.413z" fill="#309" stroke="#fff"/>
                <path d="M277.745 88.776c-3.811-17.811-21.58-4.302-39.987-1.499l20.644-37.112c6.447 0 16.088-4.875 19.342 0v38.611z" fill="#309" stroke="#fff"/>
                <path d="M277.745 88.776c3.811-17.811 21.58-4.302 39.986-1.499l-20.644-37.112c-6.447 0-16.088-4.875-19.342 0v38.611z" fill="#309" stroke="#fff"/>
            </g>
            <text x="269.505" y="165.134" style="line-height:125%;-inkscape-font-specification:'Times New Roman, Bold'" font-size="30" font-weight="bold" letter-spacing="0" word-spacing="0" font-family="Times New Roman">
                <tspan x="269.505" y="165.134">
                    FAMILIE
                </tspan>
            </text>
            <rect width="250" height="250" ry="45.051" x="210.002" y="29.998" class="overlay" fill="none"/>
        </g>
        <g class="book-button button">
            <rect width="250" height="250" ry="45.051" x="207.513" y="322.498" class="background" fill="#fff" stroke="#f8c300" stroke-width="5"/>
            <g>
                <path d="M273.244 386.735c-3.342 0-6.053-2.705-6.053-6.041l-39.678 6.041 24.883-41.618h41.696l24.883 41.618-39.678-6.041c0 3.337-2.711 6.041-6.053 6.041z" fill="#fff" stroke="#f8c300" stroke-width="5" stroke-linejoin="round"/>
                <path d="M273.244 386.735c-4.108-19.198-23.26-4.637-43.099-1.617l22.251-40.001c6.949 0 17.34-5.255 20.848 0v41.618z" fill="#f8c300" stroke="#fff"/>
                <path d="M273.244 386.735c4.108-19.198 23.26-4.637 43.099-1.617l-22.251-40.001c-6.949 0-17.34-5.255-20.848 0v41.618z" fill="#f8c300" stroke="#fff"/>
                <path d="M273.244 384.106c-3.989-18.641-22.586-4.503-41.85-1.569l21.606-38.843c6.748 0 16.838-5.102 20.244 0v40.413z" fill="#f8c300" stroke="#fff"/>
                <path d="M273.244 384.106c3.989-18.641 22.586-4.503 41.851-1.569l-21.606-38.843c-6.748 0-16.838-5.102-20.244 0v40.413z" fill="#f8c300" stroke="#fff"/>
                <path d="M273.245 381.276c-3.811-17.811-21.58-4.302-39.987-1.499l20.644-37.112c6.447 0 16.088-4.875 19.342 0v38.611z" fill="#f8c300" stroke="#fff"/>
                <path d="M273.245 381.276c3.811-17.811 21.58-4.302 39.986-1.499l-20.644-37.112c-6.447 0-16.088-4.875-19.342 0v38.611z" fill="#f8c300" stroke="#fff"/>
            </g>
            <text x="253.843" y="460.122" style="line-height:125%;-inkscape-font-specification:'Times New Roman, Bold'" font-size="35" font-weight="bold" letter-spacing="0" word-spacing="0" font-family="Times New Roman">
                <tspan x="253.843" y="460.122" font-size="30">
                    AUSFLÜGE
                </tspan>
            </text>
            <rect width="250" height="250" ry="45.051" x="207.513" y="322.498" class="overlay" fill="none"/>
        </g>
        <g class="book-button button">
            <rect width="250" height="250" ry="45.051" x="500.013" y="29.998" class="background" fill="#fff" stroke="#84c223" stroke-width="5"/>
            <g>
                <path d="M565.744 94.235c-3.342 0-6.053-2.705-6.053-6.041l-39.678 6.041 24.883-41.618h41.696l24.883 41.618-39.678-6.041c0 3.337-2.711 6.041-6.053 6.041z" fill="#fff" stroke="#84c223" stroke-width="5" stroke-linejoin="round"/>
                <path d="M565.744 94.235c-4.108-19.198-23.26-4.637-43.099-1.617l22.251-40.001c6.949 0 17.34-5.255 20.848 0v41.618z" fill="#84c223" stroke="#fff"/>
                <path d="M565.744 94.235c4.108-19.198 23.26-4.637 43.099-1.617l-22.251-40.001c-6.949 0-17.34-5.255-20.848 0v41.618z" fill="#84c223" stroke="#fff"/>
                <path d="M565.744 91.606c-3.989-18.641-22.586-4.503-41.85-1.569l21.606-38.843c6.748 0 16.838-5.102 20.244 0v40.413z" fill="#84c223" stroke="#fff"/>
                <path d="M565.744 91.606c3.989-18.641 22.586-4.503 41.851-1.569l-21.606-38.843c-6.748 0-16.838-5.102-20.244 0v40.413z" fill="#84c223" stroke="#fff"/>
                <path d="M565.745 88.776c-3.811-17.811-21.58-4.302-39.987-1.499l20.644-37.112c6.447 0 16.088-4.875 19.342 0v38.611z" fill="#84c223" stroke="#fff"/>
                <path d="M565.745 88.776c3.811-17.811 21.58-4.302 39.986-1.499l-20.644-37.112c-6.447 0-16.088-4.875-19.342 0v38.611z" fill="#84c223" stroke="#fff"/>
            </g>
            <text x="577.788" y="164.919" style="line-height:125%;-inkscape-font-specification:'Times New Roman, Bold'" font-size="30" font-weight="bold" letter-spacing="0" word-spacing="0" font-family="Times New Roman">
                <tspan x="577.788" y="164.919">
                    FESTE
                </tspan>
            </text>
            <rect width="250" height="250" ry="45.051" x="500.013" y="29.998" class="overlay" fill="none"/>
        </g>
        <g class="book-button button">
            <rect width="250" height="250" ry="45.051" x="500.013" y="319.998" class="background" fill="#fff" stroke="#dd1379" stroke-width="5"/>
            <g>
                <path d="M565.744 384.235c-3.342 0-6.053-2.705-6.053-6.041l-39.678 6.041 24.883-41.618h41.696l24.883 41.618-39.678-6.041c0 3.337-2.711 6.041-6.053 6.041z" fill="#fff" stroke="#dd1379" stroke-width="5" stroke-linejoin="round"/>
                <path d="M565.744 384.235c-4.108-19.198-23.26-4.637-43.099-1.617l22.251-40.001c6.949 0 17.34-5.255 20.848 0v41.618z" fill="#dd1379" stroke="#fff"/>
                <path d="M565.744 384.235c4.108-19.198 23.26-4.637 43.099-1.617l-22.251-40.001c-6.949 0-17.34-5.255-20.848 0v41.618z" fill="#dd1379" stroke="#fff"/>
                <path d="M565.744 381.606c-3.989-18.641-22.586-4.503-41.85-1.569l21.606-38.843c6.748 0 16.838-5.102 20.244 0v40.413z" fill="#dd1379" stroke="#fff"/>
                <path d="M565.744 381.606c3.989-18.641 22.586-4.503 41.851-1.569l-21.606-38.843c-6.748 0-16.838-5.102-20.244 0v40.413z" fill="#dd1379" stroke="#fff"/>
                <path d="M565.745 378.776c-3.811-17.811-21.58-4.302-39.987-1.499l20.644-37.112c6.447 0 16.088-4.875 19.342 0v38.611z" fill="#dd1379" stroke="#fff"/>
                <path d="M565.745 378.776c3.811-17.811 21.58-4.302 39.986-1.499l-20.644-37.112c-6.447 0-16.088-4.875-19.342 0v38.611z" fill="#dd1379" stroke="#fff"/>
            </g>
            <text x="519.948" y="457.633" style="line-height:125%;-inkscape-font-specification:'Times New Roman, Bold'" font-size="30" font-weight="bold" letter-spacing="0" word-spacing="0" font-family="Times New Roman">
                <tspan x="519.948" y="457.633">
                    LIEBHABEREI
                </tspan>
            </text>
            <rect width="250" height="250" ry="45.051" x="500.013" y="319.998" class="overlay" fill="none"/>
        </g>
    </g>
</svg>
