<svg xmlns="http://www.w3.org/2000/svg" xmlns:xlink="http://www.w3.org/1999/xlink" width="960" height="600" enable-background="new">
    <defs>
        <linearGradient id="i">
            <stop offset="0" stop-color="#ff0202"/>
            <stop offset="1" stop-color="#ff0202" stop-opacity="0"/>
        </linearGradient>
        <linearGradient id="j">
            <stop offset="0" stop-color="#f00"/>
            <stop offset="1" stop-color="#f00" stop-opacity="0"/>
        </linearGradient>
        <linearGradient>
            <stop offset="0" stop-color="#e7926f"/>
            <stop offset="1" stop-color="#f8f41f" stop-opacity="0"/>
        </linearGradient>
        <linearGradient>
            <stop offset="0" stop-opacity=".55"/>
            <stop offset="1" stop-opacity="0"/>
        </linearGradient>
        <linearGradient>
            <stop offset="0" stop-color="#c5c7c9"/>
            <stop offset="1" stop-color="#fff"/>
        </linearGradient>
        <linearGradient id="c">
            <stop offset="0" stop-color="#0abdff" stop-opacity=".356"/>
            <stop offset="1" stop-color="#0abdff" stop-opacity=".06"/>
        </linearGradient>
        <linearGradient id="b">
            <stop offset="0" stop-color="#c9ff00" stop-opacity=".467"/>
            <stop offset="1" stop-color="#d4aa00" stop-opacity=".033"/>
        </linearGradient>
        <linearGradient>
            <stop offset="0" stop-color="#c93900"/>
        </linearGradient>
        <linearGradient id="a">
            <stop offset="0"/>
            <stop offset="1" stop-opacity="0"/>
        </linearGradient>
        <linearGradient>
            <stop offset="0"/>
            <stop offset="1" stop-opacity=".49"/>
        </linearGradient>
        <linearGradient>
            <stop offset="0" stop-color="#955c00" stop-opacity="0"/>
        </linearGradient>
        <linearGradient>
            <stop offset="0"/>
            <stop offset="1" stop-opacity="0"/>
        </linearGradient>
        <linearGradient>
            <stop offset="0" stop-color="#fff"/>
            <stop offset="1" stop-color="#28166f"/>
        </linearGradient>
        <linearGradient>
            <stop offset="0" stop-color="#fff"/>
            <stop offset="1" stop-color="#28166f"/>
        </linearGradient>
        <linearGradient>
            <stop offset="0" stop-color="#fff"/>
            <stop offset="1" stop-color="#28166f" stop-opacity="0"/>
        </linearGradient>
        <linearGradient x1="-16564.4" y1="717.054" x2="-16898.5" y2="717.054" xlink:href="#a" gradientUnits="userSpaceOnUse"/>
        <linearGradient x1="179.731" y1="838.037" x2="801.938" y2="969.476" xlink:href="#b" gradientUnits="userSpaceOnUse"/>
        <linearGradient x1="773.658" y1="400.79" x2="697.124" y2="759.172" xlink:href="#c" gradientUnits="userSpaceOnUse"/>
        <linearGradient x1="366.075" y1="906.253" x2="876.808" y2="1017.726" xlink:href="#b" gradientUnits="userSpaceOnUse"/>
        <linearGradient x1="773.658" y1="400.79" x2="697.124" y2="759.172" xlink:href="#c" gradientUnits="userSpaceOnUse"/>
        <linearGradient x1="179.731" y1="838.037" x2="801.938" y2="969.476" xlink:href="#b" gradientUnits="userSpaceOnUse"/>
        <linearGradient x1="366.075" y1="906.253" x2="876.808" y2="1017.726" xlink:href="#b" gradientUnits="userSpaceOnUse"/>
        <linearGradient x1="813.632" y1="987.778" x2="620.855" y2="776.804" xlink:href="#b" gradientUnits="userSpaceOnUse" gradientTransform="translate(4.523 -1.077)"/>
        <linearGradient x1="179.731" y1="838.037" x2="801.938" y2="969.476" xlink:href="#b" gradientUnits="userSpaceOnUse" gradientTransform="translate(4.523 -1.077)"/>
        <linearGradient x1="773.658" y1="400.79" x2="697.124" y2="759.172" xlink:href="#c" gradientUnits="userSpaceOnUse" gradientTransform="translate(4.523 -1.077)"/>
        <linearGradient>
            <stop offset="0" stop-color="#fff"/>
            <stop offset="1" stop-color="#28166f"/>
        </linearGradient>
        <linearGradient>
            <stop offset="0" stop-color="#fff"/>
            <stop offset="1" stop-color="#28166f"/>
        </linearGradient>
        <linearGradient>
            <stop offset="0" stop-color="#fff"/>
            <stop offset="1" stop-color="#28166f"/>
        </linearGradient>
        <linearGradient>
            <stop offset="0" stop-color="#fff"/>
            <stop offset="1" stop-color="#28166f"/>
        </linearGradient>
        <linearGradient>
            <stop offset="0" stop-color="#fff"/>
            <stop offset="1" stop-color="#28166f"/>
        </linearGradient>
        <linearGradient>
            <stop offset="0" stop-color="#fff"/>
            <stop offset="1" stop-color="#28166f"/>
        </linearGradient>
        <linearGradient>
            <stop offset="0" stop-color="#fff"/>
            <stop offset="1" stop-color="#28166f"/>
        </linearGradient>
        <linearGradient>
            <stop offset="0" stop-color="#fff"/>
            <stop offset="1" stop-color="#28166f"/>
        </linearGradient>
        <linearGradient>
            <stop offset="0" stop-color="#fff"/>
            <stop offset="1" stop-color="#28166f"/>
        </linearGradient>
        <linearGradient>
            <stop offset="0" stop-color="#fff"/>
            <stop offset="1" stop-color="#28166f"/>
        </linearGradient>
        <linearGradient>
            <stop offset="0" stop-color="#fff"/>
            <stop offset="1" stop-color="#28166f"/>
        </linearGradient>
        <linearGradient>
            <stop offset="0" stop-color="#fff"/>
            <stop offset="1" stop-color="#28166f"/>
        </linearGradient>
        <linearGradient>
            <stop offset="0" stop-color="#fff"/>
            <stop offset="1" stop-color="#28166f"/>
        </linearGradient>
        <linearGradient>
            <stop offset="0" stop-color="#fff"/>
            <stop offset="1" stop-color="#28166f"/>
        </linearGradient>
        <linearGradient>
            <stop offset="0" stop-color="#fff"/>
            <stop offset="1" stop-color="#28166f"/>
        </linearGradient>
        <linearGradient>
            <stop offset="0" stop-color="#fff"/>
            <stop offset="1" stop-color="#28166f"/>
        </linearGradient>
        <linearGradient>
            <stop offset="0" stop-opacity=".55"/>
            <stop offset="1" stop-opacity="0"/>
        </linearGradient>
        <linearGradient>
            <stop offset="0" stop-opacity=".55"/>
            <stop offset="1" stop-opacity="0"/>
        </linearGradient>
        <linearGradient>
            <stop offset="0" stop-opacity=".55"/>
            <stop offset="1" stop-opacity="0"/>
        </linearGradient>
        <linearGradient>
            <stop offset="0" stop-opacity=".55"/>
            <stop offset="1" stop-opacity="0"/>
        </linearGradient>
        <linearGradient>
            <stop offset="0" stop-opacity=".55"/>
            <stop offset="1" stop-opacity="0"/>
        </linearGradient>
        <linearGradient>
            <stop offset="0" stop-opacity=".55"/>
            <stop offset="1" stop-opacity="0"/>
        </linearGradient>
        <linearGradient>
            <stop offset="0" stop-opacity=".55"/>
            <stop offset="1" stop-opacity="0"/>
        </linearGradient>
        <linearGradient>
            <stop offset="0" stop-opacity=".55"/>
            <stop offset="1" stop-opacity="0"/>
        </linearGradient>
        <linearGradient>
            <stop offset="0" stop-opacity=".55"/>
            <stop offset="1" stop-opacity="0"/>
        </linearGradient>
        <linearGradient>
            <stop offset="0" stop-opacity=".55"/>
            <stop offset="1" stop-opacity="0"/>
        </linearGradient>
        <linearGradient>
            <stop offset="0" stop-opacity=".55"/>
            <stop offset="1" stop-opacity="0"/>
        </linearGradient>
        <linearGradient>
            <stop offset="0" stop-opacity=".55"/>
            <stop offset="1" stop-opacity="0"/>
        </linearGradient>
        <linearGradient>
            <stop offset="0" stop-opacity=".55"/>
            <stop offset="1" stop-opacity="0"/>
        </linearGradient>
        <linearGradient>
            <stop offset="0" stop-opacity=".55"/>
            <stop offset="1" stop-opacity="0"/>
        </linearGradient>
        <linearGradient>
            <stop offset="0" stop-opacity=".55"/>
            <stop offset="1" stop-opacity="0"/>
        </linearGradient>
        <linearGradient>
            <stop offset="0" stop-opacity=".55"/>
            <stop offset="1" stop-opacity="0"/>
        </linearGradient>
        <linearGradient>
            <stop offset="0" stop-opacity=".55"/>
            <stop offset="1" stop-opacity="0"/>
        </linearGradient>
        <linearGradient>
            <stop offset="0" stop-opacity=".55"/>
            <stop offset="1" stop-opacity="0"/>
        </linearGradient>
        <linearGradient>
            <stop offset="0" stop-opacity=".55"/>
            <stop offset="1" stop-opacity="0"/>
        </linearGradient>
        <linearGradient>
            <stop offset="0" stop-opacity=".55"/>
            <stop offset="1" stop-opacity="0"/>
        </linearGradient>
        <linearGradient>
            <stop offset="0" stop-opacity=".55"/>
            <stop offset="1" stop-opacity="0"/>
        </linearGradient>
        <linearGradient>
            <stop offset="0" stop-opacity=".55"/>
            <stop offset="1" stop-opacity="0"/>
        </linearGradient>
        <linearGradient>
            <stop offset="0" stop-opacity=".55"/>
            <stop offset="1" stop-opacity="0"/>
        </linearGradient>
        <linearGradient>
            <stop offset="0" stop-opacity=".55"/>
            <stop offset="1" stop-opacity="0"/>
        </linearGradient>
        <linearGradient>
            <stop offset="0" stop-opacity=".55"/>
            <stop offset="1" stop-opacity="0"/>
        </linearGradient>
        <linearGradient>
            <stop offset="0" stop-opacity=".55"/>
            <stop offset="1" stop-opacity="0"/>
        </linearGradient>
        <linearGradient>
            <stop offset="0" stop-opacity=".55"/>
            <stop offset="1" stop-opacity="0"/>
        </linearGradient>
        <linearGradient>
            <stop offset="0" stop-opacity=".55"/>
            <stop offset="1" stop-opacity="0"/>
        </linearGradient>
        <linearGradient>
            <stop offset="0" stop-opacity=".55"/>
            <stop offset="1" stop-opacity="0"/>
        </linearGradient>
        <linearGradient>
            <stop offset="0" stop-opacity=".55"/>
            <stop offset="1" stop-opacity="0"/>
        </linearGradient>
        <linearGradient>
            <stop offset="0" stop-color="#c5c7c9"/>
            <stop offset="1" stop-color="#fff"/>
        </linearGradient>
        <linearGradient>
            <stop offset="0" stop-color="#fff"/>
            <stop offset="1" stop-color="#28166f" stop-opacity="0"/>
        </linearGradient>
        <linearGradient>
            <stop offset="0" stop-color="#c5c7c9"/>
            <stop offset="1" stop-color="#fff"/>
        </linearGradient>
        <linearGradient>
            <stop offset="0" stop-color="#fff"/>
            <stop offset="1" stop-color="#28166f" stop-opacity="0"/>
        </linearGradient>
        <linearGradient>
            <stop offset="0" stop-color="#c5c7c9"/>
            <stop offset="1" stop-color="#fff"/>
        </linearGradient>
        <linearGradient>
            <stop offset="0" stop-color="#fff"/>
            <stop offset="1" stop-color="#28166f" stop-opacity="0"/>
        </linearGradient>
        <linearGradient>
            <stop offset="0" stop-color="#c5c7c9"/>
            <stop offset="1" stop-color="#fff"/>
        </linearGradient>
        <linearGradient>
            <stop offset="0" stop-color="#fff"/>
            <stop offset="1" stop-color="#28166f" stop-opacity="0"/>
        </linearGradient>
        <linearGradient>
            <stop offset="0" stop-color="#c5c7c9"/>
            <stop offset="1" stop-color="#fff"/>
        </linearGradient>
        <linearGradient>
            <stop offset="0" stop-color="#fff"/>
            <stop offset="1" stop-color="#28166f" stop-opacity="0"/>
        </linearGradient>
        <linearGradient>
            <stop offset="0" stop-color="#c5c7c9"/>
            <stop offset="1" stop-color="#fff"/>
        </linearGradient>
        <linearGradient>
            <stop offset="0" stop-color="#fff"/>
            <stop offset="1" stop-color="#28166f" stop-opacity="0"/>
        </linearGradient>
        <linearGradient>
            <stop offset="0" stop-color="#c5c7c9"/>
            <stop offset="1" stop-color="#fff"/>
        </linearGradient>
        <linearGradient>
            <stop offset="0" stop-color="#fff"/>
            <stop offset="1" stop-color="#28166f" stop-opacity="0"/>
        </linearGradient>
        <linearGradient>
            <stop offset="0" stop-color="#c5c7c9"/>
            <stop offset="1" stop-color="#fff"/>
        </linearGradient>
        <linearGradient>
            <stop offset="0" stop-color="#fff"/>
            <stop offset="1" stop-color="#28166f" stop-opacity="0"/>
        </linearGradient>
        <linearGradient>
            <stop offset="0" stop-color="#c5c7c9"/>
            <stop offset="1" stop-color="#fff"/>
        </linearGradient>
        <linearGradient>
            <stop offset="0" stop-color="#fff"/>
            <stop offset="1" stop-color="#28166f" stop-opacity="0"/>
        </linearGradient>
        <linearGradient>
            <stop offset="0" stop-color="#c5c7c9"/>
            <stop offset="1" stop-color="#fff"/>
        </linearGradient>
        <linearGradient>
            <stop offset="0" stop-color="#fff"/>
            <stop offset="1" stop-color="#28166f" stop-opacity="0"/>
        </linearGradient>
        <linearGradient>
            <stop offset="0" stop-color="#c5c7c9"/>
            <stop offset="1" stop-color="#fff"/>
        </linearGradient>
        <linearGradient>
            <stop offset="0" stop-color="#fff"/>
            <stop offset="1" stop-color="#28166f" stop-opacity="0"/>
        </linearGradient>
        <linearGradient>
            <stop offset="0" stop-color="#c5c7c9"/>
            <stop offset="1" stop-color="#fff"/>
        </linearGradient>
        <linearGradient>
            <stop offset="0" stop-color="#fff"/>
            <stop offset="1" stop-color="#28166f" stop-opacity="0"/>
        </linearGradient>
        <linearGradient>
            <stop offset="0" stop-color="#c5c7c9"/>
            <stop offset="1" stop-color="#fff"/>
        </linearGradient>
        <linearGradient>
            <stop offset="0" stop-color="#fff"/>
            <stop offset="1" stop-color="#28166f" stop-opacity="0"/>
        </linearGradient>
        <linearGradient>
            <stop offset="0" stop-color="#c5c7c9"/>
            <stop offset="1" stop-color="#fff"/>
        </linearGradient>
        <linearGradient>
            <stop offset="0" stop-color="#fff"/>
            <stop offset="1" stop-color="#28166f" stop-opacity="0"/>
        </linearGradient>
        <linearGradient>
            <stop offset="0" stop-color="#c5c7c9"/>
            <stop offset="1" stop-color="#fff"/>
        </linearGradient>
        <linearGradient>
            <stop offset="0" stop-color="#fff"/>
            <stop offset="1" stop-color="#28166f" stop-opacity="0"/>
        </linearGradient>
        <linearGradient>
            <stop offset="0" stop-color="#c5c7c9"/>
            <stop offset="1" stop-color="#fff"/>
        </linearGradient>
        <linearGradient>
            <stop offset="0" stop-color="#fff"/>
            <stop offset="1" stop-color="#28166f" stop-opacity="0"/>
        </linearGradient>
        <linearGradient>
            <stop offset="0" stop-color="#c5c7c9"/>
            <stop offset="1" stop-color="#fff"/>
        </linearGradient>
        <linearGradient>
            <stop offset="0" stop-color="#fff"/>
            <stop offset="1" stop-color="#28166f" stop-opacity="0"/>
        </linearGradient>
        <linearGradient>
            <stop offset="0" stop-color="#c5c7c9"/>
            <stop offset="1" stop-color="#fff"/>
        </linearGradient>
        <linearGradient>
            <stop offset="0" stop-color="#fff"/>
            <stop offset="1" stop-color="#28166f" stop-opacity="0"/>
        </linearGradient>
        <linearGradient>
            <stop offset="0" stop-color="#c5c7c9"/>
            <stop offset="1" stop-color="#fff"/>
        </linearGradient>
        <linearGradient>
            <stop offset="0" stop-color="#fff"/>
            <stop offset="1" stop-color="#28166f" stop-opacity="0"/>
        </linearGradient>
        <linearGradient>
            <stop offset="0" stop-color="#c5c7c9"/>
            <stop offset="1" stop-color="#fff"/>
        </linearGradient>
        <linearGradient>
            <stop offset="0" stop-color="#fff"/>
            <stop offset="1" stop-color="#28166f" stop-opacity="0"/>
        </linearGradient>
        <linearGradient>
            <stop offset="0" stop-color="#c5c7c9"/>
            <stop offset="1" stop-color="#fff"/>
        </linearGradient>
        <linearGradient>
            <stop offset="0" stop-color="#fff"/>
            <stop offset="1" stop-color="#28166f" stop-opacity="0"/>
        </linearGradient>
        <linearGradient>
            <stop offset="0" stop-color="#c5c7c9"/>
            <stop offset="1" stop-color="#fff"/>
        </linearGradient>
        <linearGradient>
            <stop offset="0" stop-color="#fff"/>
            <stop offset="1" stop-color="#28166f" stop-opacity="0"/>
        </linearGradient>
        <linearGradient>
            <stop offset="0" stop-color="#c5c7c9"/>
            <stop offset="1" stop-color="#fff"/>
        </linearGradient>
        <linearGradient>
            <stop offset="0" stop-color="#fff"/>
            <stop offset="1" stop-color="#28166f" stop-opacity="0"/>
        </linearGradient>
        <linearGradient>
            <stop offset="0" stop-color="#c5c7c9"/>
            <stop offset="1" stop-color="#fff"/>
        </linearGradient>
        <linearGradient>
            <stop offset="0" stop-color="#fff"/>
            <stop offset="1" stop-color="#28166f" stop-opacity="0"/>
        </linearGradient>
        <linearGradient>
            <stop offset="0" stop-color="#c5c7c9"/>
            <stop offset="1" stop-color="#fff"/>
        </linearGradient>
        <linearGradient>
            <stop offset="0" stop-color="#fff"/>
            <stop offset="1" stop-color="#28166f" stop-opacity="0"/>
        </linearGradient>
        <linearGradient>
            <stop offset="0" stop-color="#c5c7c9"/>
            <stop offset="1" stop-color="#fff"/>
        </linearGradient>
        <linearGradient>
            <stop offset="0" stop-color="#fff"/>
            <stop offset="1" stop-color="#28166f" stop-opacity="0"/>
        </linearGradient>
        <linearGradient>
            <stop offset="0" stop-color="#c5c7c9"/>
            <stop offset="1" stop-color="#fff"/>
        </linearGradient>
        <linearGradient>
            <stop offset="0" stop-color="#fff"/>
            <stop offset="1" stop-color="#28166f" stop-opacity="0"/>
        </linearGradient>
        <linearGradient>
            <stop offset="0" stop-color="#c5c7c9"/>
            <stop offset="1" stop-color="#fff"/>
        </linearGradient>
        <linearGradient>
            <stop offset="0" stop-color="#fff"/>
            <stop offset="1" stop-color="#28166f" stop-opacity="0"/>
        </linearGradient>
        <linearGradient>
            <stop offset="0" stop-color="#c5c7c9"/>
            <stop offset="1" stop-color="#fff"/>
        </linearGradient>
        <linearGradient>
            <stop offset="0" stop-color="#fff"/>
            <stop offset="1" stop-color="#28166f" stop-opacity="0"/>
        </linearGradient>
        <linearGradient>
            <stop offset="0" stop-color="#c5c7c9"/>
            <stop offset="1" stop-color="#fff"/>
        </linearGradient>
        <linearGradient>
            <stop offset="0" stop-color="#fff"/>
            <stop offset="1" stop-color="#28166f" stop-opacity="0"/>
        </linearGradient>
        <linearGradient x1="-16564.4" y1="717.054" x2="-16898.5" y2="717.054" xlink:href="#d" gradientUnits="userSpaceOnUse"/>
        <linearGradient id="d">
            <stop offset="0"/>
            <stop offset="1" stop-opacity="0"/>
        </linearGradient>
        <linearGradient>
            <stop offset="0" stop-color="#0abdff" stop-opacity=".356"/>
            <stop offset="1" stop-color="#0abdff" stop-opacity=".06"/>
        </linearGradient>
        <linearGradient id="e">
            <stop offset="0" stop-color="#c9ff00" stop-opacity=".467"/>
            <stop offset="1" stop-color="#d4aa00" stop-opacity=".033"/>
        </linearGradient>
        <linearGradient x1="813.632" y1="987.778" x2="620.855" y2="776.804" xlink:href="#e" gradientUnits="userSpaceOnUse" gradientTransform="translate(4.523 -1.077)"/>
        <linearGradient>
            <stop offset="0" stop-color="#c9ff00" stop-opacity=".467"/>
            <stop offset="1" stop-color="#d4aa00" stop-opacity=".033"/>
        </linearGradient>
        <linearGradient x1="-16564.4" y1="717.054" x2="-16898.5" y2="717.054" xlink:href="#f" gradientUnits="userSpaceOnUse"/>
        <linearGradient id="f">
            <stop offset="0"/>
            <stop offset="1" stop-opacity="0"/>
        </linearGradient>
        <linearGradient x1="-16564.4" y1="717.054" x2="-16898.5" y2="717.054" xlink:href="#f" gradientUnits="userSpaceOnUse"/>
        <filter x="-.12" y="-.12" width="1.24" height="1.24" color-interpolation-filters="sRGB">
            <feGaussianBlur stdDeviation="4.205"/>
        </filter>
        <linearGradient x1="1172.653" y1="104.384" x2="1164.933" y2="84.287" xlink:href="#g" gradientUnits="userSpaceOnUse"/>
        <linearGradient id="g">
            <stop offset="0" stop-color="#ff0202"/>
            <stop offset="1" stop-color="#ff0202" stop-opacity="0"/>
        </linearGradient>
        <linearGradient x1="1178.117" y1="104.384" x2="1147.515" y2="97.073" xlink:href="#h" gradientUnits="userSpaceOnUse" gradientTransform="matrix(.823 0 0 .823 142.94 -33.65)"/>
        <linearGradient id="h">
            <stop offset="0" stop-color="#ff0202"/>
            <stop offset="1" stop-color="#ff0202" stop-opacity="0"/>
        </linearGradient>
        <linearGradient x1="-61.24" y1="1156.202" x2="-59.076" y2="1144.529" id="k" xlink:href="#i" gradientUnits="userSpaceOnUse" gradientTransform="matrix(.928 0 0 .899 4.384 57.637)"/>
        <radialGradient cx="1090.313" cy="45.438" r="29.5" fx="1090.313" fy="45.438" id="l" xlink:href="#j" gradientUnits="userSpaceOnUse" gradientTransform="matrix(.412 -.456 .947 .856 598.095 503.271)"/>
        <linearGradient x1="1178.117" y1="104.384" x2="1147.515" y2="97.073" id="m" xlink:href="#g" gradientUnits="userSpaceOnUse" gradientTransform="matrix(.823 0 0 .823 142.549 -34.009)"/>
        <linearGradient x1="1173.555" y1="104.384" x2="1171.9" y2="89.813" id="n" xlink:href="#h" gradientUnits="userSpaceOnUse" gradientTransform="matrix(-.823 0 0 -.823 2039.138 124.348)"/>
    </defs>
    <g>
        <g id="QuitButton" class="action-button button">
            <path d="M1203.366 73.402a42.048 42.048 0 1 1-84.095 0 42.048 42.048 0 1 1 84.095 0z" transform="matrix(1.177 0 0 1.177 -477.152 -16.4)" class="background" fill="#fff" stroke="#f00" stroke-width=".849"/>
            <g transform="matrix(.707 -.707 .707 .707 87.029 808.85)">
                <path d="M1090.313 15.938c-3.878 0-7 3.122-7 7v15.5h-15.5c-3.878 0-7 3.122-7 7s3.122 7 7 7h15.5v15.5c0 3.878 3.122 7 7 7s7-3.122 7-7v-15.5h15.5c3.878 0 7-3.122 7-7s-3.122-7-7-7h-15.5v-15.5c0-3.878-3.122-7-7-7z" fill="#fff" stroke="#f00"/>
                <rect width="54.743" height="12.589" ry="6.295" x="-72.938" y="1084.473" transform="rotate(-90)" fill="url(#k)"/>
                <path d="M1090.313 15.938c-3.878 0-7 3.122-7 7v15.5h-15.5c-3.878 0-7 3.122-7 7s3.122 7 7 7h15.5v15.5c0 3.878 3.122 7 7 7s7-3.122 7-7v-15.5h15.5c3.878 0 7-3.122 7-7s-3.122-7-7-7h-15.5v-15.5c0-3.878-3.122-7-7-7z" fill="url(#l)"/>
                <path d="M1113.66 40.378c2.624.699 5.761 2.569 5.761 5.761s-2.57 5.761-5.761 5.761h-37.036c14.106-2.723 23.364-14.467 37.036-11.522z" fill="url(#m)"/>
                <path d="M1068.026 49.96c-2.624-.699-5.761-2.569-5.761-5.761s2.57-5.761 5.761-5.761h37.036c-14.106 2.723-23.364 14.467-37.036 11.522z" fill="url(#n)"/>
            </g>
            <path d="M1203.366 73.402a42.048 42.048 0 1 1-84.095 0 42.048 42.048 0 1 1 84.095 0z" transform="matrix(1.177 0 0 1.177 -477.152 -16.4)" class="overlay" fill="none"/>
        </g>
        <g class="book-button button">
            <rect width="250" height="250" ry="45.051" x="210.002" y="29.998" class="background" fill="#fff" stroke="#309" stroke-width="5"/>
            <g>
                <path d="M277.744 94.235c-3.342 0-6.053-2.705-6.053-6.041l-39.678 6.041 24.883-41.618h41.696l24.883 41.618-39.678-6.041c0 3.337-2.711 6.041-6.053 6.041z" fill="#fff" stroke="#309" stroke-width="5" stroke-linejoin="round"/>
                <path d="M277.744 94.235c-4.108-19.198-23.26-4.637-43.099-1.617l22.251-40.001c6.949 0 17.34-5.255 20.848 0v41.618z" fill="#309" stroke="#fff"/>
                <path d="M277.744 94.235c4.108-19.198 23.26-4.637 43.099-1.617l-22.251-40.001c-6.949 0-17.34-5.255-20.848 0v41.618z" fill="#309" stroke="#fff"/>
                <path d="M277.744 91.606c-3.989-18.641-22.586-4.503-41.85-1.569l21.606-38.843c6.748 0 16.838-5.102 20.244 0v40.413z" fill="#309" stroke="#fff"/>
                <path d="M277.744 91.606c3.989-18.641 22.586-4.503 41.851-1.569l-21.606-38.843c-6.748 0-16.838-5.102-20.244 0v40.413z" fill="#309" stroke="#fff"/>
                <path d="M277.745 88.776c-3.811-17.811-21.58-4.302-39.987-1.499l20.644-37.112c6.447 0 16.088-4.875 19.342 0v38.611z" fill="#309" stroke="#fff"/>
                <path d="M277.745 88.776c3.811-17.811 21.58-4.302 39.986-1.499l-20.644-37.112c-6.447 0-16.088-4.875-19.342 0v38.611z" fill="#309" stroke="#fff"/>
            </g>
            <text x="269.505" y="165.134" style="line-height:125%;-inkscape-font-specification:'Times New Roman, Bold'" font-size="30" font-weight="bold" letter-spacing="0" word-spacing="0" font-family="Times New Roman">
                <tspan x="269.505" y="165.134">
                    FAMILIE
                </tspan>
            </text>
            <rect width="250" height="250" ry="45.051" x="210.002" y="29.998" class="overlay" fill="none"/>
        </g>
        <g class="book-button button">
            <rect width="250" height="250" ry="45.051" x="207.513" y="322.498" class="background" fill="#fff" stroke="#f8c300" stroke-width="5"/>
            <g>
                <path d="M273.244 386.735c-3.342 0-6.053-2.705-6.053-6.041l-39.678 6.041 24.883-41.618h41.696l24.883 41.618-39.678-6.041c0 3.337-2.711 6.041-6.053 6.041z" fill="#fff" stroke="#f8c300" stroke-width="5" stroke-linejoin="round"/>
                <path d="M273.244 386.735c-4.108-19.198-23.26-4.637-43.099-1.617l22.251-40.001c6.949 0 17.34-5.255 20.848 0v41.618z" fill="#f8c300" stroke="#fff"/>
                <path d="M273.244 386.735c4.108-19.198 23.26-4.637 43.099-1.617l-22.251-40.001c-6.949 0-17.34-5.255-20.848 0v41.618z" fill="#f8c300" stroke="#fff"/>
                <path d="M273.244 384.106c-3.989-18.641-22.586-4.503-41.85-1.569l21.606-38.843c6.748 0 16.838-5.102 20.244 0v40.413z" fill="#f8c300" stroke="#fff"/>
                <path d="M273.244 384.106c3.989-18.641 22.586-4.503 41.851-1.569l-21.606-38.843c-6.748 0-16.838-5.102-20.244 0v40.413z" fill="#f8c300" stroke="#fff"/>
                <path d="M273.245 381.276c-3.811-17.811-21.58-4.302-39.987-1.499l20.644-37.112c6.447 0 16.088-4.875 19.342 0v38.611z" fill="#f8c300" stroke="#fff"/>
                <path d="M273.245 381.276c3.811-17.811 21.58-4.302 39.986-1.499l-20.644-37.112c-6.447 0-16.088-4.875-19.342 0v38.611z" fill="#f8c300" stroke="#fff"/>
            </g>
            <text x="253.843" y="460.122" style="line-height:125%;-inkscape-font-specification:'Times New Roman, Bold'" font-size="35" font-weight="bold" letter-spacing="0" word-spacing="0" font-family="Times New Roman">
                <tspan x="253.843" y="460.122" font-size="30">
                    AUSFLÜGE
                </tspan>
            </text>
            <rect width="250" height="250" ry="45.051" x="207.513" y="322.498" class="overlay" fill="none"/>
        </g>
        <g class="book-button button">
            <rect width="250" height="250" ry="45.051" x="500.013" y="29.998" class="background" fill="#fff" stroke="#84c223" stroke-width="5"/>
            <g>
                <path d="M565.744 94.235c-3.342 0-6.053-2.705-6.053-6.041l-39.678 6.041 24.883-41.618h41.696l24.883 41.618-39.678-6.041c0 3.337-2.711 6.041-6.053 6.041z" fill="#fff" stroke="#84c223" stroke-width="5" stroke-linejoin="round"/>
                <path d="M565.744 94.235c-4.108-19.198-23.26-4.637-43.099-1.617l22.251-40.001c6.949 0 17.34-5.255 20.848 0v41.618z" fill="#84c223" stroke="#fff"/>
                <path d="M565.744 94.235c4.108-19.198 23.26-4.637 43.099-1.617l-22.251-40.001c-6.949 0-17.34-5.255-20.848 0v41.618z" fill="#84c223" stroke="#fff"/>
                <path d="M565.744 91.606c-3.989-18.641-22.586-4.503-41.85-1.569l21.606-38.843c6.748 0 16.838-5.102 20.244 0v40.413z" fill="#84c223" stroke="#fff"/>
                <path d="M565.744 91.606c3.989-18.641 22.586-4.503 41.851-1.569l-21.606-38.843c-6.748 0-16.838-5.102-20.244 0v40.413z" fill="#84c223" stroke="#fff"/>
                <path d="M565.745 88.776c-3.811-17.811-21.58-4.302-39.987-1.499l20.644-37.112c6.447 0 16.088-4.875 19.342 0v38.611z" fill="#84c223" stroke="#fff"/>
                <path d="M565.745 88.776c3.811-17.811 21.58-4.302 39.986-1.499l-20.644-37.112c-6.447 0-16.088-4.875-19.342 0v38.611z" fill="#84c223" stroke="#fff"/>
            </g>
            <text x="577.788" y="164.919" style="line-height:125%;-inkscape-font-specification:'Times New Roman, Bold'" font-size="30" font-weight="bold" letter-spacing="0" word-spacing="0" font-family="Times New Roman">
                <tspan x="577.788" y="164.919">
                    FESTE
                </tspan>
            </text>
            <rect width="250" height="250" ry="45.051" x="500.013" y="29.998" class="overlay" fill="none"/>
        </g>
        <g class="book-button button">
            <rect width="250" height="250" ry="45.051" x="500.013" y="319.998" class="background" fill="#fff" stroke="#dd1379" stroke-width="5"/>
            <g>
                <path d="M565.744 384.235c-3.342 0-6.053-2.705-6.053-6.041l-39.678 6.041 24.883-41.618h41.696l24.883 41.618-39.678-6.041c0 3.337-2.711 6.041-6.053 6.041z" fill="#fff" stroke="#dd1379" stroke-width="5" stroke-linejoin="round"/>
                <path d="M565.744 384.235c-4.108-19.198-23.26-4.637-43.099-1.617l22.251-40.001c6.949 0 17.34-5.255 20.848 0v41.618z" fill="#dd1379" stroke="#fff"/>
                <path d="M565.744 384.235c4.108-19.198 23.26-4.637 43.099-1.617l-22.251-40.001c-6.949 0-17.34-5.255-20.848 0v41.618z" fill="#dd1379" stroke="#fff"/>
                <path d="M565.744 381.606c-3.989-18.641-22.586-4.503-41.85-1.569l21.606-38.843c6.748 0 16.838-5.102 20.244 0v40.413z" fill="#dd1379" stroke="#fff"/>
                <path d="M565.744 381.606c3.989-18.641 22.586-4.503 41.851-1.569l-21.606-38.843c-6.748 0-16.838-5.102-20.244 0v40.413z" fill="#dd1379" stroke="#fff"/>
                <path d="M565.745 378.776c-3.811-17.811-21.58-4.302-39.987-1.499l20.644-37.112c6.447 0 16.088-4.875 19.342 0v38.611z" fill="#dd1379" stroke="#fff"/>
                <path d="M565.745 378.776c3.811-17.811 21.58-4.302 39.986-1.499l-20.644-37.112c-6.447 0-16.088-4.875-19.342 0v38.611z" fill="#dd1379" stroke="#fff"/>
            </g>
            <text x="519.948" y="457.633" style="line-height:125%;-inkscape-font-specification:'Times New Roman, Bold'" font-size="30" font-weight="bold" letter-spacing="0" word-spacing="0" font-family="Times New Roman">
                <tspan x="519.948" y="457.633">
                    LIEBHABEREI
                </tspan>
            </text>
            <rect width="250" height="250" ry="45.051" x="500.013" y="319.998" class="overlay" fill="none"/>
        </g>
    </g>
</svg>
