<svg xmlns:osb="http://www.openswatchbook.org/uri/2009/osb" xmlns="http://www.w3.org/2000/svg" xmlns:xlink="http://www.w3.org/1999/xlink" width="960" height="600">
    <path d="M91.826 470.984c-4.6 0-8.313 3.713-8.313 8.313v81.406c0 .287.034.564.063.844.028.28.07.542.125.813.056.28.104.543.188.813.081.26.176.502.281.75.834 1.997 2.413 3.597 4.406 4.438h.031c.737.308 1.516.51 2.344.594h.031c.27.026.567.031.844.031h587.406c4.592 0 8.281-3.689 8.281-8.281v-29.406c0-4.592-3.689-8.313-8.281-8.313h-399.407c-4.592 0-8.313-3.689-8.313-8.281v-35.407c0-4.6-3.682-8.313-8.281-8.313h-171.406z" fill="#fff" stroke="#000" stroke-width="2" filter="url(#A)"/>
    <path d="M873.214 568.999c4.6 0 8.313-3.713 8.313-8.313v-81.406c0-.287-.034-.564-.063-.844-.028-.28-.07-.542-.125-.813-.056-.28-.104-.543-.188-.813-.081-.26-.176-.502-.281-.75-.834-1.997-2.413-3.597-4.406-4.438h-.031c-.737-.308-1.516-.51-2.344-.594h-.031c-.27-.026-.567-.031-.844-.031h-587.406c-4.592 0-8.281 3.689-8.281 8.281v29.406c0 4.592 3.689 8.313 8.281 8.313h399.407c4.592 0 8.313 3.689 8.313 8.281v35.407c0 4.6 3.682 8.313 8.281 8.313h171.406z" fill="#fff" stroke="#000" stroke-width="2" filter="url(#B)"/>
    <path d="M91.826 472.984c-4.6 0-8.313 3.713-8.313 8.313v81.406c0 .287.034.564.063.844.028.28.07.542.125.813.056.28.104.543.188.813.081.26.176.501.281.75.834 1.997 2.413 3.597 4.406 4.438h.031c.737.308 1.516.51 2.344.594h.031c.27.026.567.031.844.031h587.406c4.592 0 8.281-3.689 8.281-8.281v-29.406c0-4.592-3.689-8.313-8.281-8.313h-399.407c-4.592 0-8.313-3.689-8.313-8.281v-35.407c0-4.6-3.682-8.313-8.281-8.313h-171.406z" fill="#fff" stroke="#dd1379" stroke-width="2"/>
    <text y="526.924" x="92.055" style="text-align:start;line-height:125%;-inkscape-font-specification:'Times New Roman, Bold'" font-size="22" font-weight="bold" letter-spacing="0" word-spacing="0" font-family="Times New Roman">
        <tspan style="text-align:start;line-height:125%;-inkscape-font-specification:'Times New Roman, Bold'" y="526.924" x="92.055" font-size="18.5" font-weight="bold" font-family="Times New Roman">
            NAME ODER TITEL
        </tspan>
        <tspan y="552.886" x="92.055">
            HIER EINGEBEN:
        </tspan>
    </text>
    <rect ry="6.307" y="530.422" x="282.277" height="35" width="397.5" fill="#fff" stroke="#000" stroke-width="4"/>
    <path d="M873.214 570.999c4.6 0 8.313-3.713 8.313-8.313v-81.406c0-.287-.034-.564-.063-.844-.028-.28-.07-.542-.125-.813-.056-.28-.104-.543-.188-.813-.081-.26-.176-.502-.281-.75-.834-1.997-2.413-3.597-4.406-4.438h-.031c-.737-.308-1.516-.51-2.344-.594h-.031c-.27-.026-.567-.031-.844-.031h-587.406c-4.592 0-8.281 3.689-8.281 8.281v29.406c0 4.592 3.689 8.313 8.281 8.313h399.407c4.592 0 8.313 3.689 8.313 8.281v35.407c0 4.6 3.682 8.313 8.281 8.313h171.406z" fill="#fff" stroke="#dd1379" stroke-width="2"/>
    <text y="504.614" x="281.399" style="text-align:start;line-height:125%;-inkscape-font-specification:'Times New Roman, Bold'" font-size="27.5" font-weight="bold" letter-spacing="0" word-spacing="0" font-family="Times New Roman">
        <tspan y="504.614" x="281.399">
            ANDERE MUSIK ODER VIDEO
        </tspan>
    </text>
    <text y="552.886" x="750.846" style="text-align:center;line-height:125%;-inkscape-font-specification:'Times New Roman, Bold'" font-size="22" font-weight="bold" letter-spacing="0" word-spacing="0" text-anchor="middle" font-family="Times New Roman">
        <tspan y="552.886" x="750.846">
            SUCHEN
        </tspan>
    </text>

</svg>
