<?xml version="1.0" encoding="UTF-8" standalone="no"?>
<!-- Created with Inkscape (http://www.inkscape.org/) -->

<svg
   xmlns:dc="http://purl.org/dc/elements/1.1/"
   xmlns:cc="http://creativecommons.org/ns#"
   xmlns:rdf="http://www.w3.org/1999/02/22-rdf-syntax-ns#"
   xmlns:svg="http://www.w3.org/2000/svg"
   xmlns="http://www.w3.org/2000/svg"
   xmlns:xlink="http://www.w3.org/1999/xlink"
   xmlns:sodipodi="http://sodipodi.sourceforge.net/DTD/sodipodi-0.dtd"
   xmlns:inkscape="http://www.inkscape.org/namespaces/inkscape"
   version="1.1"
   width="960"
   height="600"
   id="svg4185"
   inkscape:version="0.48.3.1 r9886"
   sodipodi:docname="night.svg">
  <defs
     id="defs4187">
    <linearGradient
       id="linearGradient4731-8-4-5-5-81">
      <stop
         id="stop4733-6-8-8-5-40"
         style="stop-color:#009b00;stop-opacity:1"
         offset="0" />
      <stop
         id="stop4735-5-6-4-1-7"
         style="stop-color:#c5c7c9;stop-opacity:0"
         offset="1" />
    </linearGradient>
    <linearGradient
       x1="5135.4976"
       y1="-2410.6077"
       x2="5451.7153"
       y2="-2410.6077"
       id="linearGradient5547-4-4"
       xlink:href="#linearGradient5072-27-8"
       gradientUnits="userSpaceOnUse" />
    <linearGradient
       id="linearGradient5072-27-8">
      <stop
         id="stop5074-7-8"
         style="stop-color:#009b00;stop-opacity:0.27777779"
         offset="0" />
      <stop
         id="stop5076-9-1"
         style="stop-color:#ffffff;stop-opacity:1"
         offset="1" />
    </linearGradient>
    <linearGradient
       id="linearGradient4282">
      <stop
         id="stop4284"
         style="stop-color:#009b00;stop-opacity:0.27777779"
         offset="0" />
      <stop
         id="stop4286"
         style="stop-color:#ffffff;stop-opacity:1"
         offset="1" />
    </linearGradient>
    <linearGradient
       id="linearGradient4289">
      <stop
         id="stop4291"
         style="stop-color:#009b00;stop-opacity:0.27777779"
         offset="0" />
      <stop
         id="stop4293"
         style="stop-color:#ffffff;stop-opacity:1"
         offset="1" />
    </linearGradient>
    <linearGradient
       id="linearGradient4296">
      <stop
         id="stop4298"
         style="stop-color:#009b00;stop-opacity:0.27777779"
         offset="0" />
      <stop
         id="stop4300"
         style="stop-color:#ffffff;stop-opacity:1"
         offset="1" />
    </linearGradient>
    <linearGradient
       x1="727.81799"
       y1="928.98138"
       x2="762.26111"
       y2="928.98138"
       id="linearGradient7834"
       xlink:href="#linearGradient5294-5-5"
       gradientUnits="userSpaceOnUse"
       gradientTransform="matrix(0.60562787,0.02283951,0.02283951,-0.60562787,-617.4891,1388.238)" />
    <linearGradient
       id="linearGradient5294-5-5">
      <stop
         id="stop5296-5-8"
         style="stop-color:#f6ffff;stop-opacity:1"
         offset="0" />
      <stop
         id="stop5298-1-4"
         style="stop-color:#f6ffff;stop-opacity:0"
         offset="1" />
    </linearGradient>
    <linearGradient
       x1="773.65802"
       y1="400.78952"
       x2="697.12408"
       y2="759.172"
       id="linearGradient3884"
       xlink:href="#linearGradient5460-5"
       gradientUnits="userSpaceOnUse"
       gradientTransform="translate(0.49345196,0.50698227)" />
    <linearGradient
       id="linearGradient5460-5">
      <stop
         id="stop5462-9"
         style="stop-color:#0a1cff;stop-opacity:0.35555556"
         offset="0" />
      <stop
         id="stop5464-9"
         style="stop-color:#0abdff;stop-opacity:0.06048387"
         offset="1" />
    </linearGradient>
    <linearGradient
       x1="179.73131"
       y1="838.03748"
       x2="801.93768"
       y2="969.4762"
       id="linearGradient6117-7"
       xlink:href="#linearGradient5430-6-77"
       gradientUnits="userSpaceOnUse"
       gradientTransform="translate(0.49345196,0.50701227)" />
    <linearGradient
       id="linearGradient5430-6-77">
      <stop
         id="stop5432-6-7"
         style="stop-color:#0000d0;stop-opacity:0.84444445"
         offset="0" />
      <stop
         id="stop5434-2-3"
         style="stop-color:#0000fa;stop-opacity:0.03333334"
         offset="1" />
    </linearGradient>
    <linearGradient
       x1="179.73131"
       y1="838.03748"
       x2="801.93768"
       y2="969.4762"
       id="linearGradient4752-6"
       xlink:href="#linearGradient5430-6-7-0"
       gradientUnits="userSpaceOnUse"
       gradientTransform="matrix(-1,0,0,1,960.53328,0.50700227)" />
    <linearGradient
       id="linearGradient5430-6-7-0">
      <stop
         id="stop5432-6-4-7"
         style="stop-color:#0000d0;stop-opacity:0.84444445"
         offset="0" />
      <stop
         id="stop5434-2-0-1"
         style="stop-color:#00bffa;stop-opacity:0.03333334"
         offset="1" />
    </linearGradient>
    <linearGradient
       x1="25.410887"
       y1="-82.705307"
       x2="308.16885"
       y2="-82.705307"
       id="linearGradient6022-2"
       xlink:href="#linearGradient6016-00"
       gradientUnits="userSpaceOnUse"
       gradientTransform="matrix(0.2989786,0,0,0.20593913,33.046092,653.04416)" />
    <linearGradient
       id="linearGradient6016-00">
      <stop
         id="stop6018-1"
         style="stop-color:#000000;stop-opacity:1"
         offset="0" />
      <stop
         id="stop6020-4"
         style="stop-color:#000000;stop-opacity:0"
         offset="1" />
    </linearGradient>
    <linearGradient
       x1="179.73131"
       y1="838.03748"
       x2="801.93768"
       y2="969.4762"
       id="linearGradient6009-1"
       xlink:href="#linearGradient5430-65"
       gradientUnits="userSpaceOnUse"
       gradientTransform="matrix(1,0,0,0.65661261,0.49345196,361.86688)" />
    <linearGradient
       id="linearGradient5430-65">
      <stop
         id="stop5432-75"
         style="stop-color:#0063d7;stop-opacity:0.69444442"
         offset="0" />
      <stop
         id="stop5434-41"
         style="stop-color:#006fcb;stop-opacity:0.03333334"
         offset="1" />
    </linearGradient>
    <linearGradient
       x1="179.73131"
       y1="838.03748"
       x2="801.93768"
       y2="969.4762"
       id="linearGradient4786-3"
       xlink:href="#linearGradient5430-8-7"
       gradientUnits="userSpaceOnUse"
       gradientTransform="matrix(-1,0,0,0.38551869,960.53328,647.14953)" />
    <linearGradient
       id="linearGradient5430-8-7">
      <stop
         id="stop5432-8-2"
         style="stop-color:#00e5d7;stop-opacity:0.5"
         offset="0" />
      <stop
         id="stop5434-24-60"
         style="stop-color:#00b2cb;stop-opacity:0.23333333"
         offset="1" />
    </linearGradient>
    <linearGradient
       x1="25.410887"
       y1="-82.705307"
       x2="308.16885"
       y2="-82.705307"
       id="linearGradient4856-2"
       xlink:href="#linearGradient6016-1-0"
       gradientUnits="userSpaceOnUse"
       gradientTransform="matrix(0.10049845,-0.04435272,0.08462946,0.19176117,56.613032,759.82912)" />
    <linearGradient
       id="linearGradient6016-1-0">
      <stop
         id="stop6018-7-9"
         style="stop-color:#000000;stop-opacity:1"
         offset="0" />
      <stop
         id="stop6020-1-7"
         style="stop-color:#000000;stop-opacity:0"
         offset="1" />
    </linearGradient>
    <linearGradient
       x1="25.410887"
       y1="-82.705307"
       x2="308.16885"
       y2="-82.705307"
       id="linearGradient4873-3"
       xlink:href="#linearGradient6016-7-61"
       gradientUnits="userSpaceOnUse"
       gradientTransform="matrix(0.13006779,0.0774673,-0.06931034,0.11637224,5.200822,696.72412)" />
    <linearGradient
       id="linearGradient6016-7-61">
      <stop
         id="stop6018-6-5"
         style="stop-color:#000000;stop-opacity:1"
         offset="0" />
      <stop
         id="stop6020-14-4"
         style="stop-color:#000000;stop-opacity:0"
         offset="1" />
    </linearGradient>
    <linearGradient
       x1="25.410887"
       y1="-82.705307"
       x2="308.16885"
       y2="-82.705307"
       id="linearGradient4574"
       xlink:href="#linearGradient6016-7-61"
       gradientUnits="userSpaceOnUse"
       gradientTransform="matrix(0.13006779,0.0774673,-0.06931034,0.11637224,5.200822,696.72412)" />
    <linearGradient
       x1="372.54987"
       y1="625.82892"
       x2="255.15909"
       y2="1120.8398"
       id="linearGradient6311"
       xlink:href="#linearGradient5460-8-1"
       gradientUnits="userSpaceOnUse"
       gradientTransform="translate(-0.0378037,0.02327137)" />
    <linearGradient
       id="linearGradient5460-8-1">
      <stop
         id="stop5462-6-8"
         style="stop-color:#030658;stop-opacity:1"
         offset="0" />
      <stop
         id="stop5464-5-2"
         style="stop-color:#0000b5;stop-opacity:0.57222223"
         offset="1" />
    </linearGradient>
    <linearGradient
       x1="179.73131"
       y1="838.03748"
       x2="801.93768"
       y2="969.4762"
       id="linearGradient6427"
       xlink:href="#linearGradient5460-8-1"
       gradientUnits="userSpaceOnUse"
       gradientTransform="matrix(1,0,0,0.28448396,-0.0378037,752.98864)" />
    <linearGradient
       id="linearGradient4699">
      <stop
         id="stop4701"
         style="stop-color:#030658;stop-opacity:1"
         offset="0" />
      <stop
         id="stop4703"
         style="stop-color:#0000b5;stop-opacity:0.57222223"
         offset="1" />
    </linearGradient>
  </defs>
  <g
     id="layer1"
     transform="matrix(1.0000326,0,0,1.0000464,302.85138,-209.52867)">
    <g
       transform="translate(-302.84152,-242.87106)"
       id="BackgroundFavouritYouTube"
       style="display:inline">
      <rect
         width="959.95386"
         height="599.97217"
         rx="0"
         ry="0"
         x="0.0051880479"
         y="452.39001"
         id="rect5416-1"
         style="fill:url(#linearGradient6311);fill-opacity:1;stroke:none" />
      <path
         d="m 878.93194,966.10032 c 0,1.68296 -0.11829,3.33662 -0.34654,4.95217 -0.50081,3.54471 -12.13014,5.17794 -21.62025,11.22146 -4.91352,3.12904 -10.6327,1.95887 -19.02468,4.98187 -7.54479,2.71781 -15.06078,6.50149 -24.63398,7.23951 -7.73304,0.59616 -15.83367,3.98362 -23.66,2.27661 -10.04551,-2.19104 -10.14453,1.18754 -15.15026,1.82943 -9.92249,1.27241 -28.51421,3.96263 -28.51421,3.96263 -6.66272,7.7061 -18.65786,2.63 -26.69844,4.0321 -9.62847,1.6789 -16.59086,2.4192 -19.27412,2.4192 -6.77434,0 12.37133,-2.5688 36.50617,-9.04862 5.11845,-1.37427 7.56107,-4.02926 15.8289,-4.66327 6.10829,-0.46839 6.72918,-3.96293 14.18184,-3.72627 7.1315,0.22647 9.45463,-5.77515 19.75886,-5.8397 4.08789,-0.0256 13.90927,-2.67549 10.90594,-3.81892 -2.17978,-0.82988 4.22228,-1.6691 6.10476,-2.50423 8.28241,-3.6743 13.44116,-7.33813 13.19518,-10.7572 -0.0607,-0.84381 -0.0916,-1.69646 -0.0916,-2.55677 0,-18.30788 13.99836,-33.14935 31.26622,-33.14935 17.26786,0 31.26622,14.84147 31.26622,33.14935"
         id="path7365"
         style="fill:#ffffff;fill-opacity:1;stroke:none"
         inkscape:connector-curvature="0" />
      <path
         d="m 340.15625,904.2222 c -3.81767,15.17014 -8.38556,27.41436 -13.25,36 l -0.0312,0 0,0.0312 c -1.25409,2.21036 -2.53016,4.19959 -3.8125,5.90625 l 3.8125,0 0,37.96875 c -8.45225,-1.03316 -16.88124,-2.12926 -25.3125,-3.21875 l 0,-12 2.3125,0 -15.43755,-10.0312 -15.59375,9.96875 2.6875,0 0,8.65625 c -5.34381,-0.70864 -10.6892,-1.38879 -16,-2.09375 l 0,-8.71875 -16.3125,0 0,-5.4375 -16.40625,0 0,9.875 c -16.109,-2.06403 -31.97378,-4.01786 -47.4375,-5.6875 l 0,-20.15625 7.65625,0 -40.09375,-22.96875 -20.25,11.4375 0,-6.59375 -6.5,0 0,10.25 -13.78125,7.78125 4.65625,0 0,14.90625 c -7.19208,-0.27065 -14.22434,-0.406 -21.09375,-0.40625 l 0,-25.3125 6.1875,0 -44.34375,-24.15625 -22.40625,12.03125 0,-6.625 -7.1875,0 0,10.5 L 7,934.2847 l 6.53125,0 0,34.4375 c -4.6984099,1.40876 -9.1855158,3.01868 -13.46875,4.8125 L 0,1052.3472 l 959.96875,0 0,-78.375 c -29.2337,0.0887 -56.48173,-0.51049 -82.04168,-1.56827 C 735.75409,966.52019 645.8092,946.44835 556.875,951.6597 c -43.71257,2.22954 -68.43221,25.2242 -118.9375,34.375 l 0,-15.84375 8.5625,0.21875 c -6.62912,-2.82765 -22.80594,-7.8715 -25.25,-14.625 l -67.9375,0 0,-9.5 3.4375,0 c -0.82054,-0.18606 -1.99204,-1.95493 -3.4375,-5.03125 l 0,-1.03125 -0.46875,0 c -3.15112,-7.0323 -7.53843,-19.72719 -12.6875,-36 z M 356.75,946.2847 c 0.12912,0.0293 0.26281,0.049 0.375,0 z"
         id="rect5418-2"
         style="fill:url(#linearGradient6427);fill-opacity:1;stroke:none"
         inkscape:connector-curvature="0" />
      <rect
         width="9.28125"
         height="17.15625"
         x="24.765625"
         y="938.25348"
         id="rect6433"
         style="fill:#ffff00;fill-opacity:1;stroke:none" />
      <rect
         width="9.28125"
         height="17.15625"
         x="42.046875"
         y="938.25348"
         id="rect6433-5"
         style="fill:#ffff00;fill-opacity:1;stroke:none;display:inline" />
      <rect
         width="6.9375"
         height="13.25"
         x="162.4375"
         y="948.73785"
         id="rect6433-5-5"
         style="fill:#ffff00;fill-opacity:1;stroke:none;display:inline" />
      <rect
         width="2.5917969"
         height="5.828125"
         x="279.28094"
         y="969.75336"
         id="rect6433-5-6"
         style="fill:#ffff00;fill-opacity:1;stroke:none;display:inline" />
      <path
         d="m -115.39601,207.58472 -9.40463,-1.38506 -1.09622,9.44264 -5.67069,-7.62946 -7.45211,5.90182 1.38507,-9.40463 -9.44265,-1.09622 7.62946,-5.67069 -5.90181,-7.45211 9.40462,1.38507 1.09623,-9.44265 5.67068,7.62946 7.45211,-5.90181 -1.38506,9.40462 9.44265,1.09623 -7.62946,5.67068 z"
         transform="matrix(0.27244498,0,0,0.27244498,123.11511,583.44807)"
         id="path6486"
         style="fill:#ffffff;fill-opacity:1;stroke:none"
         inkscape:connector-curvature="0" />
      <path
         d="m -115.39601,207.58472 -9.40463,-1.38506 -1.09622,9.44264 -5.67069,-7.62946 -7.45211,5.90182 1.38507,-9.40463 -9.44265,-1.09622 7.62946,-5.67069 -5.90181,-7.45211 9.40462,1.38507 1.09623,-9.44265 5.67068,7.62946 7.45211,-5.90181 -1.38506,9.40462 9.44265,1.09623 -7.62946,5.67068 z"
         transform="matrix(0.0988239,0,0,0.0988239,329.76494,649.6309)"
         id="path6486-0"
         style="fill:#ffffff;fill-opacity:1;stroke:none;display:inline"
         inkscape:connector-curvature="0" />
      <path
         d="m -107.17087,151.98156 -17.80276,-15.05008 -15.8953,17.81221 15.05008,-17.80275 -17.81222,-15.89531 17.80276,15.05008 15.8953,-17.81221 -15.05008,17.80275 z"
         transform="translate(213.2048,501.36468)"
         id="path6506"
         style="fill:#ffffff;fill-opacity:1;stroke:none"
         inkscape:connector-curvature="0" />
      <path
         d="m -115.39601,207.58472 -9.40463,-1.38506 -1.09622,9.44264 -5.67069,-7.62946 -7.45211,5.90182 1.38507,-9.40463 -9.44265,-1.09622 7.62946,-5.67069 -5.90181,-7.45211 9.40462,1.38507 1.09623,-9.44265 5.67068,7.62946 7.45211,-5.90181 -1.38506,9.40462 9.44265,1.09623 -7.62946,5.67068 z"
         transform="matrix(0.0988239,0,0,0.0988239,853.35512,718.92276)"
         id="path6486-0-5"
         style="fill:#ffffff;fill-opacity:1;stroke:none;display:inline"
         inkscape:connector-curvature="0" />
      <path
         d="m -115.39601,207.58472 -9.40463,-1.38506 -1.09622,9.44264 -5.67069,-7.62946 -7.45211,5.90182 1.38507,-9.40463 -9.44265,-1.09622 7.62946,-5.67069 -5.90181,-7.45211 9.40462,1.38507 1.09623,-9.44265 5.67068,7.62946 7.45211,-5.90181 -1.38506,9.40462 9.44265,1.09623 -7.62946,5.67068 z"
         transform="matrix(0.0988239,0,0,0.0988239,865.81095,736.12738)"
         id="path6486-0-9"
         style="fill:#ffffff;fill-opacity:1;stroke:none;display:inline"
         inkscape:connector-curvature="0" />
      <path
         d="m -115.39601,207.58472 -9.40463,-1.38506 -1.09622,9.44264 -5.67069,-7.62946 -7.45211,5.90182 1.38507,-9.40463 -9.44265,-1.09622 7.62946,-5.67069 -5.90181,-7.45211 9.40462,1.38507 1.09623,-9.44265 5.67068,7.62946 7.45211,-5.90181 -1.38506,9.40462 9.44265,1.09623 -7.62946,5.67068 z"
         transform="matrix(0.0988239,0,0,0.0988239,373.75613,690.71664)"
         id="path6486-0-4"
         style="fill:#ffffff;fill-opacity:1;stroke:none;display:inline"
         inkscape:connector-curvature="0" />
      <path
         d="m -115.39601,207.58472 -9.40463,-1.38506 -1.09622,9.44264 -5.67069,-7.62946 -7.45211,5.90182 1.38507,-9.40463 -9.44265,-1.09622 7.62946,-5.67069 -5.90181,-7.45211 9.40462,1.38507 1.09623,-9.44265 5.67068,7.62946 7.45211,-5.90181 -1.38506,9.40462 9.44265,1.09623 -7.62946,5.67068 z"
         transform="matrix(0.0988239,0,0,0.0988239,131.75613,666.71664)"
         id="path6486-0-6"
         style="fill:#ffffff;fill-opacity:1;stroke:none;display:inline"
         inkscape:connector-curvature="0" />
      <path
         d="m -115.39601,207.58472 -9.40463,-1.38506 -1.09622,9.44264 -5.67069,-7.62946 -7.45211,5.90182 1.38507,-9.40463 -9.44265,-1.09622 7.62946,-5.67069 -5.90181,-7.45211 9.40462,1.38507 1.09623,-9.44265 5.67068,7.62946 7.45211,-5.90181 -1.38506,9.40462 9.44265,1.09623 -7.62946,5.67068 z"
         transform="matrix(0.0988239,0,0,0.0988239,52.214836,697.36039)"
         id="path6486-0-3"
         style="fill:#ffffff;fill-opacity:1;stroke:none;display:inline"
         inkscape:connector-curvature="0" />
      <path
         d="m -115.39601,207.58472 -9.40463,-1.38506 -1.09622,9.44264 -5.67069,-7.62946 -7.45211,5.90182 1.38507,-9.40463 -9.44265,-1.09622 7.62946,-5.67069 -5.90181,-7.45211 9.40462,1.38507 1.09623,-9.44265 5.67068,7.62946 7.45211,-5.90181 -1.38506,9.40462 9.44265,1.09623 -7.62946,5.67068 z"
         transform="matrix(0.0988239,0,0,0.0988239,104.30222,718.78757)"
         id="path6486-0-49"
         style="fill:#ffffff;fill-opacity:1;stroke:none;display:inline"
         inkscape:connector-curvature="0" />
      <path
         d="m -115.39601,207.58472 -9.40463,-1.38506 -1.09622,9.44264 -5.67069,-7.62946 -7.45211,5.90182 1.38507,-9.40463 -9.44265,-1.09622 7.62946,-5.67069 -5.90181,-7.45211 9.40462,1.38507 1.09623,-9.44265 5.67068,7.62946 7.45211,-5.90181 -1.38506,9.40462 9.44265,1.09623 -7.62946,5.67068 z"
         transform="matrix(0.0988239,0,0,0.0988239,900.6556,717.33515)"
         id="path6486-0-0"
         style="fill:#ffffff;fill-opacity:1;stroke:none;display:inline"
         inkscape:connector-curvature="0" />
      <path
         d="m -115.39601,207.58472 -9.40463,-1.38506 -1.09622,9.44264 -5.67069,-7.62946 -7.45211,5.90182 1.38507,-9.40463 -9.44265,-1.09622 7.62946,-5.67069 -5.90181,-7.45211 9.40462,1.38507 1.09623,-9.44265 5.67068,7.62946 7.45211,-5.90181 -1.38506,9.40462 9.44265,1.09623 -7.62946,5.67068 z"
         transform="matrix(0.0988239,0,0,0.0988239,595.75613,888.71664)"
         id="path6486-0-53"
         style="fill:#ffffff;fill-opacity:1;stroke:none;display:inline"
         inkscape:connector-curvature="0" />
      <path
         d="m -115.39601,207.58472 -9.40463,-1.38506 -1.09622,9.44264 -5.67069,-7.62946 -7.45211,5.90182 1.38507,-9.40463 -9.44265,-1.09622 7.62946,-5.67069 -5.90181,-7.45211 9.40462,1.38507 1.09623,-9.44265 5.67068,7.62946 7.45211,-5.90181 -1.38506,9.40462 9.44265,1.09623 -7.62946,5.67068 z"
         transform="matrix(-0.0988239,0,0,0.0988239,883.25372,886.21318)"
         id="path6486-0-3-9"
         style="fill:#ffffff;fill-opacity:1;stroke:none;display:inline"
         inkscape:connector-curvature="0" />
      <path
         d="m -115.39601,207.58472 -9.40463,-1.38506 -1.09622,9.44264 -5.67069,-7.62946 -7.45211,5.90182 1.38507,-9.40463 -9.44265,-1.09622 7.62946,-5.67069 -5.90181,-7.45211 9.40462,1.38507 1.09623,-9.44265 5.67068,7.62946 7.45211,-5.90181 -1.38506,9.40462 9.44265,1.09623 -7.62946,5.67068 z"
         transform="matrix(-0.0988239,0,0,0.0988239,831.16634,907.64036)"
         id="path6486-0-49-1"
         style="fill:#ffffff;fill-opacity:1;stroke:none;display:inline"
         inkscape:connector-curvature="0" />
      <path
         d="m -115.39601,207.58472 -9.40463,-1.38506 -1.09622,9.44264 -5.67069,-7.62946 -7.45211,5.90182 1.38507,-9.40463 -9.44265,-1.09622 7.62946,-5.67069 -5.90181,-7.45211 9.40462,1.38507 1.09623,-9.44265 5.67068,7.62946 7.45211,-5.90181 -1.38506,9.40462 9.44265,1.09623 -7.62946,5.67068 z"
         transform="matrix(-0.0988239,0,0,-0.0988239,373.99796,673.92452)"
         id="path6486-0-6-2"
         style="fill:#ffffff;fill-opacity:1;stroke:none;display:inline"
         inkscape:connector-curvature="0" />
      <path
         d="m -115.39601,207.58472 -9.40463,-1.38506 -1.09622,9.44264 -5.67069,-7.62946 -7.45211,5.90182 1.38507,-9.40463 -9.44265,-1.09622 7.62946,-5.67069 -5.90181,-7.45211 9.40462,1.38507 1.09623,-9.44265 5.67068,7.62946 7.45211,-5.90181 -1.38506,9.40462 9.44265,1.09623 -7.62946,5.67068 z"
         transform="matrix(-0.0988239,0,0,-0.0988239,578.78609,942.84646)"
         id="path6486-0-3-8"
         style="fill:#ffffff;fill-opacity:1;stroke:none;display:inline"
         inkscape:connector-curvature="0" />
      <path
         d="m -115.39601,207.58472 -9.40463,-1.38506 -1.09622,9.44264 -5.67069,-7.62946 -7.45211,5.90182 1.38507,-9.40463 -9.44265,-1.09622 7.62946,-5.67069 -5.90181,-7.45211 9.40462,1.38507 1.09623,-9.44265 5.67068,7.62946 7.45211,-5.90181 -1.38506,9.40462 9.44265,1.09623 -7.62946,5.67068 z"
         transform="matrix(-0.0988239,0,0,-0.0988239,486.37151,949.04064)"
         id="path6486-0-49-8"
         style="fill:#ffffff;fill-opacity:1;stroke:none;display:inline"
         inkscape:connector-curvature="0" />
      <path
         d="m -115.39601,207.58472 -9.40463,-1.38506 -1.09622,9.44264 -5.67069,-7.62946 -7.45211,5.90182 1.38507,-9.40463 -9.44265,-1.09622 7.62946,-5.67069 -5.90181,-7.45211 9.40462,1.38507 1.09623,-9.44265 5.67068,7.62946 7.45211,-5.90181 -1.38506,9.40462 9.44265,1.09623 -7.62946,5.67068 z"
         transform="matrix(0.0988239,0,0,0.0988239,62.102699,587.56238)"
         id="path6486-0-3-1"
         style="fill:#ffffff;fill-opacity:1;stroke:none;display:inline"
         inkscape:connector-curvature="0" />
      <path
         d="m -115.39601,207.58472 -9.40463,-1.38506 -1.09622,9.44264 -5.67069,-7.62946 -7.45211,5.90182 1.38507,-9.40463 -9.44265,-1.09622 7.62946,-5.67069 -5.90181,-7.45211 9.40462,1.38507 1.09623,-9.44265 5.67068,7.62946 7.45211,-5.90181 -1.38506,9.40462 9.44265,1.09623 -7.62946,5.67068 z"
         transform="matrix(0.0988239,0,0,0.0988239,604.71732,640.99264)"
         id="path6486-0-3-86"
         style="fill:#ffffff;fill-opacity:1;stroke:none;display:inline"
         inkscape:connector-curvature="0" />
      <path
         d="m -115.39601,207.58472 -9.40463,-1.38506 -1.09622,9.44264 -5.67069,-7.62946 -7.45211,5.90182 1.38507,-9.40463 -9.44265,-1.09622 7.62946,-5.67069 -5.90181,-7.45211 9.40462,1.38507 1.09623,-9.44265 5.67068,7.62946 7.45211,-5.90181 -1.38506,9.40462 9.44265,1.09623 -7.62946,5.67068 z"
         transform="matrix(0.0988239,0,0,0.0988239,846.7522,562.0656)"
         id="path6486-0-3-0"
         style="fill:#ffffff;fill-opacity:1;stroke:none;display:inline"
         inkscape:connector-curvature="0" />
      <path
         d="m -115.39601,207.58472 -9.40463,-1.38506 -1.09622,9.44264 -5.67069,-7.62946 -7.45211,5.90182 1.38507,-9.40463 -9.44265,-1.09622 7.62946,-5.67069 -5.90181,-7.45211 9.40462,1.38507 1.09623,-9.44265 5.67068,7.62946 7.45211,-5.90181 -1.38506,9.40462 9.44265,1.09623 -7.62946,5.67068 z"
         transform="matrix(0.0988239,0,0,0.0988239,381.62673,491.96023)"
         id="path6486-0-3-2"
         style="fill:#ffffff;fill-opacity:1;stroke:none;display:inline"
         inkscape:connector-curvature="0" />
      <path
         d="m -115.39601,207.58472 -9.40463,-1.38506 -1.09622,9.44264 -5.67069,-7.62946 -7.45211,5.90182 1.38507,-9.40463 -9.44265,-1.09622 7.62946,-5.67069 -5.90181,-7.45211 9.40462,1.38507 1.09623,-9.44265 5.67068,7.62946 7.45211,-5.90181 -1.38506,9.40462 9.44265,1.09623 -7.62946,5.67068 z"
         transform="matrix(0.0988239,0,0,0.0988239,844.54685,790.25553)"
         id="path6486-0-3-4"
         style="fill:#ffffff;fill-opacity:1;stroke:none;display:inline"
         inkscape:connector-curvature="0" />
      <path
         d="m -115.39601,207.58472 -9.40463,-1.38506 -1.09622,9.44264 -5.67069,-7.62946 -7.45211,5.90182 1.38507,-9.40463 -9.44265,-1.09622 7.62946,-5.67069 -5.90181,-7.45211 9.40462,1.38507 1.09623,-9.44265 5.67068,7.62946 7.45211,-5.90181 -1.38506,9.40462 9.44265,1.09623 -7.62946,5.67068 z"
         transform="matrix(0.0988239,0,0,0.0988239,950.7604,702.91421)"
         id="path6486-0-3-90"
         style="fill:#ffffff;fill-opacity:1;stroke:none;display:inline"
         inkscape:connector-curvature="0" />
      <path
         d="m -115.39601,207.58472 -9.40463,-1.38506 -1.09622,9.44264 -5.67069,-7.62946 -7.45211,5.90182 1.38507,-9.40463 -9.44265,-1.09622 7.62946,-5.67069 -5.90181,-7.45211 9.40462,1.38507 1.09623,-9.44265 5.67068,7.62946 7.45211,-5.90181 -1.38506,9.40462 9.44265,1.09623 -7.62946,5.67068 z"
         transform="matrix(0.0988239,0,0,0.0988239,600.01891,665.96023)"
         id="path6486-0-3-22"
         style="fill:#ffffff;fill-opacity:1;stroke:none;display:inline"
         inkscape:connector-curvature="0" />
      <path
         d="m -115.39601,207.58472 -9.40463,-1.38506 -1.09622,9.44264 -5.67069,-7.62946 -7.45211,5.90182 1.38507,-9.40463 -9.44265,-1.09622 7.62946,-5.67069 -5.90181,-7.45211 9.40462,1.38507 1.09623,-9.44265 5.67068,7.62946 7.45211,-5.90181 -1.38506,9.40462 9.44265,1.09623 -7.62946,5.67068 z"
         transform="matrix(0.0988239,0,0,0.0988239,612.91109,669.3671)"
         id="path6486-0-3-15"
         style="fill:#ffffff;fill-opacity:1;stroke:none;display:inline"
         inkscape:connector-curvature="0" />
      <path
         d="m -115.39601,207.58472 -9.40463,-1.38506 -1.09622,9.44264 -5.67069,-7.62946 -7.45211,5.90182 1.38507,-9.40463 -9.44265,-1.09622 7.62946,-5.67069 -5.90181,-7.45211 9.40462,1.38507 1.09623,-9.44265 5.67068,7.62946 7.45211,-5.90181 -1.38506,9.40462 9.44265,1.09623 -7.62946,5.67068 z"
         transform="matrix(0.0988239,0,0,0.0988239,896.72775,919.71868)"
         id="path6486-0-3-44"
         style="fill:#ffffff;fill-opacity:1;stroke:none;display:inline"
         inkscape:connector-curvature="0" />
      <path
         d="m -115.39601,207.58472 -9.40463,-1.38506 -1.09622,9.44264 -5.67069,-7.62946 -7.45211,5.90182 1.38507,-9.40463 -9.44265,-1.09622 7.62946,-5.67069 -5.90181,-7.45211 9.40462,1.38507 1.09623,-9.44265 5.67068,7.62946 7.45211,-5.90181 -1.38506,9.40462 9.44265,1.09623 -7.62946,5.67068 z"
         transform="matrix(0.0988239,0,0,0.0988239,151.1652,475.40613)"
         id="path6486-0-3-42"
         style="fill:#ffffff;fill-opacity:1;stroke:none;display:inline"
         inkscape:connector-curvature="0" />
      <path
         d="m -115.39601,207.58472 -9.40463,-1.38506 -1.09622,9.44264 -5.67069,-7.62946 -7.45211,5.90182 1.38507,-9.40463 -9.44265,-1.09622 7.62946,-5.67069 -5.90181,-7.45211 9.40462,1.38507 1.09623,-9.44265 5.67068,7.62946 7.45211,-5.90181 -1.38506,9.40462 9.44265,1.09623 -7.62946,5.67068 z"
         transform="matrix(0.0988239,0,0,0.0988239,959.99381,755.84089)"
         id="path6486-0-3-5"
         style="fill:#ffffff;fill-opacity:1;stroke:none;display:inline"
         inkscape:connector-curvature="0" />
      <path
         d="m -115.39601,207.58472 -9.40463,-1.38506 -1.09622,9.44264 -5.67069,-7.62946 -7.45211,5.90182 1.38507,-9.40463 -9.44265,-1.09622 7.62946,-5.67069 -5.90181,-7.45211 9.40462,1.38507 1.09623,-9.44265 5.67068,7.62946 7.45211,-5.90181 -1.38506,9.40462 9.44265,1.09623 -7.62946,5.67068 z"
         transform="matrix(0.0988239,0,0,0.0988239,504.28909,446.43612)"
         id="path6486-0-3-2-0"
         style="fill:#ffffff;fill-opacity:1;stroke:none;display:inline"
         inkscape:connector-curvature="0" />
      <path
         d="m -115.39601,207.58472 -9.40463,-1.38506 -1.09622,9.44264 -5.67069,-7.62946 -7.45211,5.90182 1.38507,-9.40463 -9.44265,-1.09622 7.62946,-5.67069 -5.90181,-7.45211 9.40462,1.38507 1.09623,-9.44265 5.67068,7.62946 7.45211,-5.90181 -1.38506,9.40462 9.44265,1.09623 -7.62946,5.67068 z"
         transform="matrix(0.0988239,0,0,0.0988239,609.1095,484.21088)"
         id="path6486-0-3-2-4"
         style="fill:#ffffff;fill-opacity:1;stroke:none;display:inline"
         inkscape:connector-curvature="0" />
      <path
         d="m -115.39601,207.58472 -9.40463,-1.38506 -1.09622,9.44264 -5.67069,-7.62946 -7.45211,5.90182 1.38507,-9.40463 -9.44265,-1.09622 7.62946,-5.67069 -5.90181,-7.45211 9.40462,1.38507 1.09623,-9.44265 5.67068,7.62946 7.45211,-5.90181 -1.38506,9.40462 9.44265,1.09623 -7.62946,5.67068 z"
         transform="matrix(0.0988239,0,0,0.0988239,169.62673,683.16372)"
         id="path6486-0-3-2-2"
         style="fill:#ffffff;fill-opacity:1;stroke:none;display:inline"
         inkscape:connector-curvature="0" />
      <path
         d="m -115.39601,207.58472 -9.40463,-1.38506 -1.09622,9.44264 -5.67069,-7.62946 -7.45211,5.90182 1.38507,-9.40463 -9.44265,-1.09622 7.62946,-5.67069 -5.90181,-7.45211 9.40462,1.38507 1.09623,-9.44265 5.67068,7.62946 7.45211,-5.90181 -1.38506,9.40462 9.44265,1.09623 -7.62946,5.67068 z"
         transform="matrix(0.0988239,0,0,0.0988239,958.69219,448.1256)"
         id="path6486-0-3-2-1"
         style="fill:#ffffff;fill-opacity:1;stroke:none;display:inline"
         inkscape:connector-curvature="0" />
      <path
         d="m -115.39601,207.58472 -9.40463,-1.38506 -1.09622,9.44264 -5.67069,-7.62946 -7.45211,5.90182 1.38507,-9.40463 -9.44265,-1.09622 7.62946,-5.67069 -5.90181,-7.45211 9.40462,1.38507 1.09623,-9.44265 5.67068,7.62946 7.45211,-5.90181 -1.38506,9.40462 9.44265,1.09623 -7.62946,5.67068 z"
         transform="matrix(0.0988239,0,0,0.0988239,830.11775,644.74679)"
         id="path6486-0-3-2-27"
         style="fill:#ffffff;fill-opacity:1;stroke:none;display:inline"
         inkscape:connector-curvature="0" />
      <path
         d="m -115.39601,207.58472 -9.40463,-1.38506 -1.09622,9.44264 -5.67069,-7.62946 -7.45211,5.90182 1.38507,-9.40463 -9.44265,-1.09622 7.62946,-5.67069 -5.90181,-7.45211 9.40462,1.38507 1.09623,-9.44265 5.67068,7.62946 7.45211,-5.90181 -1.38506,9.40462 9.44265,1.09623 -7.62946,5.67068 z"
         transform="matrix(0.0988239,0,0,0.0988239,399.22814,451.6896)"
         id="path6486-0-3-2-7"
         style="fill:#ffffff;fill-opacity:1;stroke:none;display:inline"
         inkscape:connector-curvature="0" />
      <path
         d="m -115.39601,207.58472 -9.40463,-1.38506 -1.09622,9.44264 -5.67069,-7.62946 -7.45211,5.90182 1.38507,-9.40463 -9.44265,-1.09622 7.62946,-5.67069 -5.90181,-7.45211 9.40462,1.38507 1.09623,-9.44265 5.67068,7.62946 7.45211,-5.90181 -1.38506,9.40462 9.44265,1.09623 -7.62946,5.67068 z"
         transform="matrix(0.0988239,0,0,0.0988239,861.16625,554.52738)"
         id="path6486-0-3-2-9"
         style="fill:#ffffff;fill-opacity:1;stroke:none;display:inline"
         inkscape:connector-curvature="0" />
      <path
         d="m -115.39601,207.58472 -9.40463,-1.38506 -1.09622,9.44264 -5.67069,-7.62946 -7.45211,5.90182 1.38507,-9.40463 -9.44265,-1.09622 7.62946,-5.67069 -5.90181,-7.45211 9.40462,1.38507 1.09623,-9.44265 5.67068,7.62946 7.45211,-5.90181 -1.38506,9.40462 9.44265,1.09623 -7.62946,5.67068 z"
         transform="matrix(0.0988239,0,0,0.0988239,836.90025,482.83417)"
         id="path6486-0-3-2-5"
         style="fill:#ffffff;fill-opacity:1;stroke:none;display:inline"
         inkscape:connector-curvature="0" />
      <path
         d="m -115.39601,207.58472 -9.40463,-1.38506 -1.09622,9.44264 -5.67069,-7.62946 -7.45211,5.90182 1.38507,-9.40463 -9.44265,-1.09622 7.62946,-5.67069 -5.90181,-7.45211 9.40462,1.38507 1.09623,-9.44265 5.67068,7.62946 7.45211,-5.90181 -1.38506,9.40462 9.44265,1.09623 -7.62946,5.67068 z"
         transform="matrix(0.0988239,0,0,0.0988239,50.602699,742.93738)"
         id="path6486-0-3-2-54"
         style="fill:#ffffff;fill-opacity:1;stroke:none;display:inline"
         inkscape:connector-curvature="0" />
      <path
         d="m -115.39601,207.58472 -9.40463,-1.38506 -1.09622,9.44264 -5.67069,-7.62946 -7.45211,5.90182 1.38507,-9.40463 -9.44265,-1.09622 7.62946,-5.67069 -5.90181,-7.45211 9.40462,1.38507 1.09623,-9.44265 5.67068,7.62946 7.45211,-5.90181 -1.38506,9.40462 9.44265,1.09623 -7.62946,5.67068 z"
         transform="matrix(0.0988239,0,0,0.0988239,156.6027,779.12488)"
         id="path6486-0-3-2-03"
         style="fill:#ffffff;fill-opacity:1;stroke:none;display:inline"
         inkscape:connector-curvature="0" />
      <path
         d="m -115.39601,207.58472 -9.40463,-1.38506 -1.09622,9.44264 -5.67069,-7.62946 -7.45211,5.90182 1.38507,-9.40463 -9.44265,-1.09622 7.62946,-5.67069 -5.90181,-7.45211 9.40462,1.38507 1.09623,-9.44265 5.67068,7.62946 7.45211,-5.90181 -1.38506,9.40462 9.44265,1.09623 -7.62946,5.67068 z"
         transform="matrix(0.0988239,0,0,0.0988239,142.61835,544.71863)"
         id="path6486-0-3-2-41"
         style="fill:#ffffff;fill-opacity:1;stroke:none;display:inline"
         inkscape:connector-curvature="0" />
      <path
         d="m -115.39601,207.58472 -9.40463,-1.38506 -1.09622,9.44264 -5.67069,-7.62946 -7.45211,5.90182 1.38507,-9.40463 -9.44265,-1.09622 7.62946,-5.67069 -5.90181,-7.45211 9.40462,1.38507 1.09623,-9.44265 5.67068,7.62946 7.45211,-5.90181 -1.38506,9.40462 9.44265,1.09623 -7.62946,5.67068 z"
         transform="matrix(0.0988239,0,0,0.0988239,385.3345,713.46936)"
         id="path6486-0-3-2-22"
         style="fill:#ffffff;fill-opacity:1;stroke:none;display:inline"
         inkscape:connector-curvature="0" />
      <path
         d="m -115.39601,207.58472 -9.40463,-1.38506 -1.09622,9.44264 -5.67069,-7.62946 -7.45211,5.90182 1.38507,-9.40463 -9.44265,-1.09622 7.62946,-5.67069 -5.90181,-7.45211 9.40462,1.38507 1.09623,-9.44265 5.67068,7.62946 7.45211,-5.90181 -1.38506,9.40462 9.44265,1.09623 -7.62946,5.67068 z"
         transform="matrix(0.0988239,0,0,0.0988239,453.19153,683.31378)"
         id="path6486-0-3-2-98"
         style="fill:#ffffff;fill-opacity:1;stroke:none;display:inline"
         inkscape:connector-curvature="0" />
      <path
         d="m -115.39601,207.58472 -9.40463,-1.38506 -1.09622,9.44264 -5.67069,-7.62946 -7.45211,5.90182 1.38507,-9.40463 -9.44265,-1.09622 7.62946,-5.67069 -5.90181,-7.45211 9.40462,1.38507 1.09623,-9.44265 5.67068,7.62946 7.45211,-5.90181 -1.38506,9.40462 9.44265,1.09623 -7.62946,5.67068 z"
         transform="matrix(0.0988239,0,0,0.0988239,818.41109,683.16372)"
         id="path6486-0-3-2-227"
         style="fill:#ffffff;fill-opacity:1;stroke:none;display:inline"
         inkscape:connector-curvature="0" />
      <path
         d="m -115.39601,207.58472 -9.40463,-1.38506 -1.09622,9.44264 -5.67069,-7.62946 -7.45211,5.90182 1.38507,-9.40463 -9.44265,-1.09622 7.62946,-5.67069 -5.90181,-7.45211 9.40462,1.38507 1.09623,-9.44265 5.67068,7.62946 7.45211,-5.90181 -1.38506,9.40462 9.44265,1.09623 -7.62946,5.67068 z"
         transform="matrix(0,-0.0988239,0.0988239,0,415.68208,561.75537)"
         id="path6486-0-5-8"
         style="fill:#ffffff;fill-opacity:1;stroke:none;display:inline"
         inkscape:connector-curvature="0" />
      <path
         d="m -115.39601,207.58472 -9.40463,-1.38506 -1.09622,9.44264 -5.67069,-7.62946 -7.45211,5.90182 1.38507,-9.40463 -9.44265,-1.09622 7.62946,-5.67069 -5.90181,-7.45211 9.40462,1.38507 1.09623,-9.44265 5.67068,7.62946 7.45211,-5.90181 -1.38506,9.40462 9.44265,1.09623 -7.62946,5.67068 z"
         transform="matrix(0,-0.0988239,0.0988239,0,403.22628,544.55075)"
         id="path6486-0-9-5"
         style="fill:#ffffff;fill-opacity:1;stroke:none;display:inline"
         inkscape:connector-curvature="0" />
      <path
         d="m -115.39601,207.58472 -9.40463,-1.38506 -1.09622,9.44264 -5.67069,-7.62946 -7.45211,5.90182 1.38507,-9.40463 -9.44265,-1.09622 7.62946,-5.67069 -5.90181,-7.45211 9.40462,1.38507 1.09623,-9.44265 5.67068,7.62946 7.45211,-5.90181 -1.38506,9.40462 9.44265,1.09623 -7.62946,5.67068 z"
         transform="matrix(0,-0.0988239,0.0988239,0,368.38158,563.34298)"
         id="path6486-0-0-8"
         style="fill:#ffffff;fill-opacity:1;stroke:none;display:inline"
         inkscape:connector-curvature="0" />
      <path
         d="m -115.39601,207.58472 -9.40463,-1.38506 -1.09622,9.44264 -5.67069,-7.62946 -7.45211,5.90182 1.38507,-9.40463 -9.44265,-1.09622 7.62946,-5.67069 -5.90181,-7.45211 9.40462,1.38507 1.09623,-9.44265 5.67068,7.62946 7.45211,-5.90181 -1.38506,9.40462 9.44265,1.09623 -7.62946,5.67068 z"
         transform="matrix(0,-0.0988239,0.0988239,0,424.49038,490.42255)"
         id="path6486-0-3-4-3"
         style="fill:#ffffff;fill-opacity:1;stroke:none;display:inline"
         inkscape:connector-curvature="0" />
      <path
         d="m -115.39601,207.58472 -9.40463,-1.38506 -1.09622,9.44264 -5.67069,-7.62946 -7.45211,5.90182 1.38507,-9.40463 -9.44265,-1.09622 7.62946,-5.67069 -5.90181,-7.45211 9.40462,1.38507 1.09623,-9.44265 5.67068,7.62946 7.45211,-5.90181 -1.38506,9.40462 9.44265,1.09623 -7.62946,5.67068 z"
         transform="matrix(0,-0.0988239,0.0988239,0,318.27678,577.76392)"
         id="path6486-0-3-90-9"
         style="fill:#ffffff;fill-opacity:1;stroke:none;display:inline"
         inkscape:connector-curvature="0" />
      <path
         d="m -115.39601,207.58472 -9.40463,-1.38506 -1.09622,9.44264 -5.67069,-7.62946 -7.45211,5.90182 1.38507,-9.40463 -9.44265,-1.09622 7.62946,-5.67069 -5.90181,-7.45211 9.40462,1.38507 1.09623,-9.44265 5.67068,7.62946 7.45211,-5.90181 -1.38506,9.40462 9.44265,1.09623 -7.62946,5.67068 z"
         transform="matrix(0,-0.0988239,0.0988239,0,309.04338,524.83725)"
         id="path6486-0-3-5-4"
         style="fill:#ffffff;fill-opacity:1;stroke:none;display:inline"
         inkscape:connector-curvature="0" />
      <path
         d="m -115.39601,207.58472 -9.40463,-1.38506 -1.09622,9.44264 -5.67069,-7.62946 -7.45211,5.90182 1.38507,-9.40463 -9.44265,-1.09622 7.62946,-5.67069 -5.90181,-7.45211 9.40462,1.38507 1.09623,-9.44265 5.67068,7.62946 7.45211,-5.90181 -1.38506,9.40462 9.44265,1.09623 -7.62946,5.67068 z"
         transform="matrix(0,-0.0988239,0.0988239,0,438.91948,635.93134)"
         id="path6486-0-3-2-27-4"
         style="fill:#ffffff;fill-opacity:1;stroke:none;display:inline"
         inkscape:connector-curvature="0" />
      <path
         d="m -115.39601,207.58472 -9.40463,-1.38506 -1.09622,9.44264 -5.67069,-7.62946 -7.45211,5.90182 1.38507,-9.40463 -9.44265,-1.09622 7.62946,-5.67069 -5.90181,-7.45211 9.40462,1.38507 1.09623,-9.44265 5.67068,7.62946 7.45211,-5.90181 -1.38506,9.40462 9.44265,1.09623 -7.62946,5.67068 z"
         transform="matrix(0,-0.0988239,0.0988239,0,450.62608,597.51441)"
         id="path6486-0-3-2-227-6"
         style="fill:#ffffff;fill-opacity:1;stroke:none;display:inline"
         inkscape:connector-curvature="0" />
      <path
         d="m -115.39601,207.58472 -9.40463,-1.38506 -1.09622,9.44264 -5.67069,-7.62946 -7.45211,5.90182 1.38507,-9.40463 -9.44265,-1.09622 7.62946,-5.67069 -5.90181,-7.45211 9.40462,1.38507 1.09623,-9.44265 5.67068,7.62946 7.45211,-5.90181 -1.38506,9.40462 9.44265,1.09623 -7.62946,5.67068 z"
         transform="matrix(-0.06881524,0.0709269,-0.0709269,-0.06881524,751.2061,912.15698)"
         id="path6486-0-3-2-985"
         style="fill:#ffffff;fill-opacity:1;stroke:none;display:inline"
         inkscape:connector-curvature="0" />
      <path
         d="m -115.39601,207.58472 -9.40463,-1.38506 -1.09622,9.44264 -5.67069,-7.62946 -7.45211,5.90182 1.38507,-9.40463 -9.44265,-1.09622 7.62946,-5.67069 -5.90181,-7.45211 9.40462,1.38507 1.09623,-9.44265 5.67068,7.62946 7.45211,-5.90181 -1.38506,9.40462 9.44265,1.09623 -7.62946,5.67068 z"
         transform="matrix(-0.06881524,0.0709269,-0.0709269,-0.06881524,631.46971,859.4151)"
         id="path6486-0-3-2-0-6"
         style="fill:#ffffff;fill-opacity:1;stroke:none;display:inline"
         inkscape:connector-curvature="0" />
      <path
         d="m -115.39601,207.58472 -9.40463,-1.38506 -1.09622,9.44264 -5.67069,-7.62946 -7.45211,5.90182 1.38507,-9.40463 -9.44265,-1.09622 7.62946,-5.67069 -5.90181,-7.45211 9.40462,1.38507 1.09623,-9.44265 5.67068,7.62946 7.45211,-5.90181 -1.38506,9.40462 9.44265,1.09623 -7.62946,5.67068 z"
         transform="matrix(-0.06881524,0.0709269,-0.0709269,-0.06881524,710.53126,928.80302)"
         id="path6486-0-3-2-7-6"
         style="fill:#ffffff;fill-opacity:1;stroke:none;display:inline"
         inkscape:connector-curvature="0" />
      <path
         d="m -115.39601,207.58472 -9.40463,-1.38506 -1.09622,9.44264 -5.67069,-7.62946 -7.45211,5.90182 1.38507,-9.40463 -9.44265,-1.09622 7.62946,-5.67069 -5.90181,-7.45211 9.40462,1.38507 1.09623,-9.44265 5.67068,7.62946 7.45211,-5.90181 -1.38506,9.40462 9.44265,1.09623 -7.62946,5.67068 z"
         transform="matrix(0.0709269,0.06881524,-0.06881524,0.0709269,762.04802,813.49774)"
         id="path6486-0-9-5-0"
         style="fill:#ffffff;fill-opacity:1;stroke:none;display:inline"
         inkscape:connector-curvature="0" />
      <path
         d="m -115.39601,207.58472 -9.40463,-1.38506 -1.09622,9.44264 -5.67069,-7.62946 -7.45211,5.90182 1.38507,-9.40463 -9.44265,-1.09622 7.62946,-5.67069 -5.90181,-7.45211 9.40462,1.38507 1.09623,-9.44265 5.67068,7.62946 7.45211,-5.90181 -1.38506,9.40462 9.44265,1.09623 -7.62946,5.67068 z"
         transform="matrix(0.0709269,0.06881524,-0.06881524,0.0709269,709.09481,837.539)"
         id="path6486-0-3-4-3-7"
         style="fill:#ffffff;fill-opacity:1;stroke:none;display:inline"
         inkscape:connector-curvature="0" />
      <path
         d="m -115.39601,207.58472 -9.40463,-1.38506 -1.09622,9.44264 -5.67069,-7.62946 -7.45211,5.90182 1.38507,-9.40463 -9.44265,-1.09622 7.62946,-5.67069 -5.90181,-7.45211 9.40462,1.38507 1.09623,-9.44265 5.67068,7.62946 7.45211,-5.90181 -1.38506,9.40462 9.44265,1.09623 -7.62946,5.67068 z"
         transform="matrix(0.0709269,0.06881524,-0.06881524,0.0709269,815.9167,893.22985)"
         id="path6486-0-3-5-4-2"
         style="fill:#ffffff;fill-opacity:1;stroke:none;display:inline"
         inkscape:connector-curvature="0" />
      <path
         d="m -115.39601,207.58472 -9.40463,-1.38506 -1.09622,9.44264 -5.67069,-7.62946 -7.45211,5.90182 1.38507,-9.40463 -9.44265,-1.09622 7.62946,-5.67069 -5.90181,-7.45211 9.40462,1.38507 1.09623,-9.44265 5.67068,7.62946 7.45211,-5.90181 -1.38506,9.40462 9.44265,1.09623 -7.62946,5.67068 z"
         transform="matrix(-0.07877968,-0.05966511,-0.05966511,0.07877968,747.95195,486.85329)"
         id="path6486-0-3-2-0-7"
         style="fill:#ffffff;fill-opacity:1;stroke:none;display:inline"
         inkscape:connector-curvature="0" />
      <path
         d="m -115.39601,207.58472 -9.40463,-1.38506 -1.09622,9.44264 -5.67069,-7.62946 -7.45211,5.90182 1.38507,-9.40463 -9.44265,-1.09622 7.62946,-5.67069 -5.90181,-7.45211 9.40462,1.38507 1.09623,-9.44265 5.67068,7.62946 7.45211,-5.90181 -1.38506,9.40462 9.44265,1.09623 -7.62946,5.67068 z"
         transform="matrix(-0.07877968,-0.05966511,-0.05966511,0.07877968,645.67024,706.53588)"
         id="path6486-0-3-2-98-2"
         style="fill:#ffffff;fill-opacity:1;stroke:none;display:inline"
         inkscape:connector-curvature="0" />
      <path
         d="m -115.39601,207.58472 -9.40463,-1.38506 -1.09622,9.44264 -5.67069,-7.62946 -7.45211,5.90182 1.38507,-9.40463 -9.44265,-1.09622 7.62946,-5.67069 -5.90181,-7.45211 9.40462,1.38507 1.09623,-9.44265 5.67068,7.62946 7.45211,-5.90181 -1.38506,9.40462 9.44265,1.09623 -7.62946,5.67068 z"
         transform="matrix(0.05966511,-0.07877968,-0.07877968,-0.05966511,748.9628,632.27924)"
         id="path6486-0-5-8-6"
         style="fill:#ffffff;fill-opacity:1;stroke:none;display:inline"
         inkscape:connector-curvature="0" />
      <path
         d="m -115.39601,207.58472 -9.40463,-1.38506 -1.09622,9.44264 -5.67069,-7.62946 -7.45211,5.90182 1.38507,-9.40463 -9.44265,-1.09622 7.62946,-5.67069 -5.90181,-7.45211 9.40462,1.38507 1.09623,-9.44265 5.67068,7.62946 7.45211,-5.90181 -1.38506,9.40462 9.44265,1.09623 -7.62946,5.67068 z"
         transform="matrix(0.05966511,-0.07877968,-0.07877968,-0.05966511,769.27954,626.08441)"
         id="path6486-0-9-5-4"
         style="fill:#ffffff;fill-opacity:1;stroke:none;display:inline"
         inkscape:connector-curvature="0" />
      <path
         d="m -115.39601,207.58472 -9.40463,-1.38506 -1.09622,9.44264 -5.67069,-7.62946 -7.45211,5.90182 1.38507,-9.40463 -9.44265,-1.09622 7.62946,-5.67069 -5.90181,-7.45211 9.40462,1.38507 1.09623,-9.44265 5.67068,7.62946 7.45211,-5.90181 -1.38506,9.40462 9.44265,1.09623 -7.62946,5.67068 z"
         transform="matrix(0.05966511,-0.07877968,-0.07877968,-0.05966511,785.00838,570.09666)"
         id="path6486-0-3-4-3-71"
         style="fill:#ffffff;fill-opacity:1;stroke:none;display:inline"
         inkscape:connector-curvature="0" />
      <path
         d="m -115.39601,207.58472 -9.40463,-1.38506 -1.09622,9.44264 -5.67069,-7.62946 -7.45211,5.90182 1.38507,-9.40463 -9.44265,-1.09622 7.62946,-5.67069 -5.90181,-7.45211 9.40462,1.38507 1.09623,-9.44265 5.67068,7.62946 7.45211,-5.90181 -1.38506,9.40462 9.44265,1.09623 -7.62946,5.67068 z"
         transform="matrix(0.05966511,-0.07877968,-0.07877968,-0.05966511,685.65471,677.38066)"
         id="path6486-0-3-2-27-4-3"
         style="fill:#ffffff;fill-opacity:1;stroke:none;display:inline"
         inkscape:connector-curvature="0" />
      <path
         d="m -115.39601,207.58472 -9.40463,-1.38506 -1.09622,9.44264 -5.67069,-7.62946 -7.45211,5.90182 1.38507,-9.40463 -9.44265,-1.09622 7.62946,-5.67069 -5.90181,-7.45211 9.40462,1.38507 1.09623,-9.44265 5.67068,7.62946 7.45211,-5.90181 -1.38506,9.40462 9.44265,1.09623 -7.62946,5.67068 z"
         transform="matrix(0.05966511,-0.07877968,-0.07877968,-0.05966511,699.51683,639.68786)"
         id="path6486-0-3-2-227-6-2"
         style="fill:#ffffff;fill-opacity:1;stroke:none;display:inline"
         inkscape:connector-curvature="0" />
      <path
         d="m -115.39601,207.58472 -9.40463,-1.38506 -1.09622,9.44264 -5.67069,-7.62946 -7.45211,5.90182 1.38507,-9.40463 -9.44265,-1.09622 7.62946,-5.67069 -5.90181,-7.45211 9.40462,1.38507 1.09623,-9.44265 5.67068,7.62946 7.45211,-5.90181 -1.38506,9.40462 9.44265,1.09623 -7.62946,5.67068 z"
         transform="matrix(0.06599808,-0.07355553,-0.07355553,-0.06599808,533.94107,803.4003)"
         id="path6486-0-6-1"
         style="fill:#ffffff;fill-opacity:1;stroke:none;display:inline"
         inkscape:connector-curvature="0" />
      <path
         d="m -115.39601,207.58472 -9.40463,-1.38506 -1.09622,9.44264 -5.67069,-7.62946 -7.45211,5.90182 1.38507,-9.40463 -9.44265,-1.09622 7.62946,-5.67069 -5.90181,-7.45211 9.40462,1.38507 1.09623,-9.44265 5.67068,7.62946 7.45211,-5.90181 -1.38506,9.40462 9.44265,1.09623 -7.62946,5.67068 z"
         transform="matrix(0.06599808,-0.07355553,-0.07355553,-0.06599808,458.01216,842.13864)"
         id="path6486-0-3-6"
         style="fill:#ffffff;fill-opacity:1;stroke:none;display:inline"
         inkscape:connector-curvature="0" />
      <path
         d="m -115.39601,207.58472 -9.40463,-1.38506 -1.09622,9.44264 -5.67069,-7.62946 -7.45211,5.90182 1.38507,-9.40463 -9.44265,-1.09622 7.62946,-5.67069 -5.90181,-7.45211 9.40462,1.38507 1.09623,-9.44265 5.67068,7.62946 7.45211,-5.90181 -1.38506,9.40462 9.44265,1.09623 -7.62946,5.67068 z"
         transform="matrix(0.06599808,-0.07355553,-0.07355553,-0.06599808,476.84952,789.05969)"
         id="path6486-0-49-3"
         style="fill:#ffffff;fill-opacity:1;stroke:none;display:inline"
         inkscape:connector-curvature="0" />
      <path
         d="m -115.39601,207.58472 -9.40463,-1.38506 -1.09622,9.44264 -5.67069,-7.62946 -7.45211,5.90182 1.38507,-9.40463 -9.44265,-1.09622 7.62946,-5.67069 -5.90181,-7.45211 9.40462,1.38507 1.09623,-9.44265 5.67068,7.62946 7.45211,-5.90181 -1.38506,9.40462 9.44265,1.09623 -7.62946,5.67068 z"
         transform="matrix(0.06599808,-0.07355553,-0.07355553,-0.06599808,546.99068,764.22893)"
         id="path6486-0-3-2-2-8"
         style="fill:#ffffff;fill-opacity:1;stroke:none;display:inline"
         inkscape:connector-curvature="0" />
      <path
         d="m -115.39601,207.58472 -9.40463,-1.38506 -1.09622,9.44264 -5.67069,-7.62946 -7.45211,5.90182 1.38507,-9.40463 -9.44265,-1.09622 7.62946,-5.67069 -5.90181,-7.45211 9.40462,1.38507 1.09623,-9.44265 5.67068,7.62946 7.45211,-5.90181 -1.38506,9.40462 9.44265,1.09623 -7.62946,5.67068 z"
         transform="matrix(0.06599808,-0.07355553,-0.07355553,-0.06599808,423.01217,812.90062)"
         id="path6486-0-3-2-54-3"
         style="fill:#ffffff;fill-opacity:1;stroke:none;display:inline"
         inkscape:connector-curvature="0" />
      <path
         d="m -115.39601,207.58472 -9.40463,-1.38506 -1.09622,9.44264 -5.67069,-7.62946 -7.45211,5.90182 1.38507,-9.40463 -9.44265,-1.09622 7.62946,-5.67069 -5.90181,-7.45211 9.40462,1.38507 1.09623,-9.44265 5.67068,7.62946 7.45211,-5.90181 -1.38506,9.40462 9.44265,1.09623 -7.62946,5.67068 z"
         transform="matrix(0.06599808,-0.07355553,-0.07355553,-0.06599808,589.3787,463.60218)"
         id="path6486-0-3-2-03-2"
         style="fill:#ffffff;fill-opacity:1;stroke:none;display:inline"
         inkscape:connector-curvature="0" />
      <path
         d="m -115.39601,207.58472 -9.40463,-1.38506 -1.09622,9.44264 -5.67069,-7.62946 -7.45211,5.90182 1.38507,-9.40463 -9.44265,-1.09622 7.62946,-5.67069 -5.90181,-7.45211 9.40462,1.38507 1.09623,-9.44265 5.67068,7.62946 7.45211,-5.90181 -1.38506,9.40462 9.44265,1.09623 -7.62946,5.67068 z"
         transform="matrix(-0.05850085,-0.07964806,0.07964806,-0.05850085,240.01558,631.68773)"
         id="path6486-0-5-86"
         style="fill:#ffffff;fill-opacity:1;stroke:none;display:inline"
         inkscape:connector-curvature="0" />
      <path
         d="m -115.39601,207.58472 -9.40463,-1.38506 -1.09622,9.44264 -5.67069,-7.62946 -7.45211,5.90182 1.38507,-9.40463 -9.44265,-1.09622 7.62946,-5.67069 -5.90181,-7.45211 9.40462,1.38507 1.09623,-9.44265 5.67068,7.62946 7.45211,-5.90181 -1.38506,9.40462 9.44265,1.09623 -7.62946,5.67068 z"
         transform="matrix(-0.05850085,-0.07964806,0.07964806,-0.05850085,246.50834,611.46423)"
         id="path6486-0-9-0"
         style="fill:#ffffff;fill-opacity:1;stroke:none;display:inline"
         inkscape:connector-curvature="0" />
      <path
         d="m -115.39601,207.58472 -9.40463,-1.38506 -1.09622,9.44264 -5.67069,-7.62946 -7.45211,5.90182 1.38507,-9.40463 -9.44265,-1.09622 7.62946,-5.67069 -5.90181,-7.45211 9.40462,1.38507 1.09623,-9.44265 5.67068,7.62946 7.45211,-5.90181 -1.38506,9.40462 9.44265,1.09623 -7.62946,5.67068 z"
         transform="matrix(-0.05850085,-0.07964806,0.07964806,-0.05850085,210.73553,594.50526)"
         id="path6486-0-0-1"
         style="fill:#ffffff;fill-opacity:1;stroke:none;display:inline"
         inkscape:connector-curvature="0" />
      <path
         d="m -115.39601,207.58472 -9.40463,-1.38506 -1.09622,9.44264 -5.67069,-7.62946 -7.45211,5.90182 1.38507,-9.40463 -9.44265,-1.09622 7.62946,-5.67069 -5.90181,-7.45211 9.40462,1.38507 1.09623,-9.44265 5.67068,7.62946 7.45211,-5.90181 -1.38506,9.40462 9.44265,1.09623 -7.62946,5.67068 z"
         transform="matrix(-0.05850085,-0.07964806,0.07964806,-0.05850085,169.45226,562.65959)"
         id="path6486-0-3-90-2"
         style="fill:#ffffff;fill-opacity:1;stroke:none;display:inline"
         inkscape:connector-curvature="0" />
      <path
         d="m -115.39601,207.58472 -9.40463,-1.38506 -1.09622,9.44264 -5.67069,-7.62946 -7.45211,5.90182 1.38507,-9.40463 -9.44265,-1.09622 7.62946,-5.67069 -5.90181,-7.45211 9.40462,1.38507 1.09623,-9.44265 5.67068,7.62946 7.45211,-5.90181 -1.38506,9.40462 9.44265,1.09623 -7.62946,5.67068 z"
         transform="matrix(-0.05850085,-0.07964806,0.07964806,-0.05850085,206.64312,523.8868)"
         id="path6486-0-3-5-6"
         style="fill:#ffffff;fill-opacity:1;stroke:none;display:inline"
         inkscape:connector-curvature="0" />
      <path
         d="m -115.39601,207.58472 -9.40463,-1.38506 -1.09622,9.44264 -5.67069,-7.62946 -7.45211,5.90182 1.38507,-9.40463 -9.44265,-1.09622 7.62946,-5.67069 -5.90181,-7.45211 9.40462,1.38507 1.09623,-9.44265 5.67068,7.62946 7.45211,-5.90181 -1.38506,9.40462 9.44265,1.09623 -7.62946,5.67068 z"
         transform="matrix(-0.05850085,-0.07964806,0.07964806,-0.05850085,193.98861,694.32613)"
         id="path6486-0-3-2-27-0"
         style="fill:#ffffff;fill-opacity:1;stroke:none;display:inline"
         inkscape:connector-curvature="0" />
      <path
         d="m -115.39601,207.58472 -9.40463,-1.38506 -1.09622,9.44264 -5.67069,-7.62946 -7.45211,5.90182 1.38507,-9.40463 -9.44265,-1.09622 7.62946,-5.67069 -5.90181,-7.45211 9.40462,1.38507 1.09623,-9.44265 5.67068,7.62946 7.45211,-5.90181 -1.38506,9.40462 9.44265,1.09623 -7.62946,5.67068 z"
         transform="matrix(-0.05850085,-0.07964806,0.07964806,-0.05850085,245.13932,688.75346)"
         id="path6486-0-3-2-227-5"
         style="fill:#ffffff;fill-opacity:1;stroke:none;display:inline"
         inkscape:connector-curvature="0" />
      <path
         d="m -115.39601,207.58472 -9.40463,-1.38506 -1.09622,9.44264 -5.67069,-7.62946 -7.45211,5.90182 1.38507,-9.40463 -9.44265,-1.09622 7.62946,-5.67069 -5.90181,-7.45211 9.40462,1.38507 1.09623,-9.44265 5.67068,7.62946 7.45211,-5.90181 -1.38506,9.40462 9.44265,1.09623 -7.62946,5.67068 z"
         transform="matrix(-0.0014524,0.09881323,0.09881323,0.0014524,352.97562,806.406)"
         id="path6486-0-3-2-98-2-4"
         style="fill:#ffffff;fill-opacity:1;stroke:none;display:inline"
         inkscape:connector-curvature="0" />
      <path
         d="m -115.39601,207.58472 -9.40463,-1.38506 -1.09622,9.44264 -5.67069,-7.62946 -7.45211,5.90182 1.38507,-9.40463 -9.44265,-1.09622 7.62946,-5.67069 -5.90181,-7.45211 9.40462,1.38507 1.09623,-9.44265 5.67068,7.62946 7.45211,-5.90181 -1.38506,9.40462 9.44265,1.09623 -7.62946,5.67068 z"
         transform="matrix(-0.09881323,-0.0014524,-0.0014524,0.09881323,231.98159,767.11412)"
         id="path6486-0-5-8-6-6"
         style="fill:#ffffff;fill-opacity:1;stroke:none;display:inline"
         inkscape:connector-curvature="0" />
      <path
         d="m -115.39601,207.58472 -9.40463,-1.38506 -1.09622,9.44264 -5.67069,-7.62946 -7.45211,5.90182 1.38507,-9.40463 -9.44265,-1.09622 7.62946,-5.67069 -5.90181,-7.45211 9.40462,1.38507 1.09623,-9.44265 5.67068,7.62946 7.45211,-5.90181 -1.38506,9.40462 9.44265,1.09623 -7.62946,5.67068 z"
         transform="matrix(-0.09881323,-0.0014524,-0.0014524,0.09881323,214.96192,754.40684)"
         id="path6486-0-9-5-4-7"
         style="fill:#ffffff;fill-opacity:1;stroke:none;display:inline"
         inkscape:connector-curvature="0" />
      <path
         d="m -115.39601,207.58472 -9.40463,-1.38506 -1.09622,9.44264 -5.67069,-7.62946 -7.45211,5.90182 1.38507,-9.40463 -9.44265,-1.09622 7.62946,-5.67069 -5.90181,-7.45211 9.40462,1.38507 1.09623,-9.44265 5.67068,7.62946 7.45211,-5.90181 -1.38506,9.40462 9.44265,1.09623 -7.62946,5.67068 z"
         transform="matrix(-0.09881323,-0.0014524,-0.0014524,0.09881323,305.80805,791.43917)"
         id="path6486-0-3-2-27-4-3-9"
         style="fill:#ffffff;fill-opacity:1;stroke:none;display:inline"
         inkscape:connector-curvature="0" />
      <path
         d="m -115.39601,207.58472 -9.40463,-1.38506 -1.09622,9.44264 -5.67069,-7.62946 -7.45211,5.90182 1.38507,-9.40463 -9.44265,-1.09622 7.62946,-5.67069 -5.90181,-7.45211 9.40462,1.38507 1.09623,-9.44265 5.67068,7.62946 7.45211,-5.90181 -1.38506,9.40462 9.44265,1.09623 -7.62946,5.67068 z"
         transform="matrix(-0.09881323,-0.0014524,-0.0014524,0.09881323,267.22322,802.57991)"
         id="path6486-0-3-2-227-6-2-3"
         style="fill:#ffffff;fill-opacity:1;stroke:none;display:inline"
         inkscape:connector-curvature="0" />
      <path
         d="m -115.39601,207.58472 -9.40463,-1.38506 -1.09622,9.44264 -5.67069,-7.62946 -7.45211,5.90182 1.38507,-9.40463 -9.44265,-1.09622 7.62946,-5.67069 -5.90181,-7.45211 9.40462,1.38507 1.09623,-9.44265 5.67068,7.62946 7.45211,-5.90181 -1.38506,9.40462 9.44265,1.09623 -7.62946,5.67068 z"
         transform="matrix(-0.09408826,0.03022519,0.03022519,0.09408826,308.05397,697.37739)"
         id="path6486-0-3-9-4"
         style="fill:#ffffff;fill-opacity:1;stroke:none;display:inline"
         inkscape:connector-curvature="0" />
      <path
         d="m -115.39601,207.58472 -9.40463,-1.38506 -1.09622,9.44264 -5.67069,-7.62946 -7.45211,5.90182 1.38507,-9.40463 -9.44265,-1.09622 7.62946,-5.67069 -5.90181,-7.45211 9.40462,1.38507 1.09623,-9.44265 5.67068,7.62946 7.45211,-5.90181 -1.38506,9.40462 9.44265,1.09623 -7.62946,5.67068 z"
         transform="matrix(-0.09408826,0.03022519,0.03022519,0.09408826,265.01606,733.70858)"
         id="path6486-0-49-1-7"
         style="fill:#ffffff;fill-opacity:1;stroke:none;display:inline"
         inkscape:connector-curvature="0" />
      <path
         d="m -115.39601,207.58472 -9.40463,-1.38506 -1.09622,9.44264 -5.67069,-7.62946 -7.45211,5.90182 1.38507,-9.40463 -9.44265,-1.09622 7.62946,-5.67069 -5.90181,-7.45211 9.40462,1.38507 1.09623,-9.44265 5.67068,7.62946 7.45211,-5.90181 -1.38506,9.40462 9.44265,1.09623 -7.62946,5.67068 z"
         transform="matrix(0.09408826,-0.03022519,0.03022519,0.09408826,331.12992,725.1563)"
         id="path6486-0-3-44-8"
         style="fill:#ffffff;fill-opacity:1;stroke:none;display:inline"
         inkscape:connector-curvature="0" />
      <path
         d="m -115.39601,207.58472 -9.40463,-1.38506 -1.09622,9.44264 -5.67069,-7.62946 -7.45211,5.90182 1.38507,-9.40463 -9.44265,-1.09622 7.62946,-5.67069 -5.90181,-7.45211 9.40462,1.38507 1.09623,-9.44265 5.67068,7.62946 7.45211,-5.90181 -1.38506,9.40462 9.44265,1.09623 -7.62946,5.67068 z"
         transform="matrix(0.08857516,0.0438247,-0.0438247,0.08857516,246.08968,724.65273)"
         id="path6486-0-3-5-4-2-8"
         style="fill:#ffffff;fill-opacity:1;stroke:none;display:inline"
         inkscape:connector-curvature="0" />
      <path
         d="m -115.39601,207.58472 -9.40463,-1.38506 -1.09622,9.44264 -5.67069,-7.62946 -7.45211,5.90182 1.38507,-9.40463 -9.44265,-1.09622 7.62946,-5.67069 -5.90181,-7.45211 9.40462,1.38507 1.09623,-9.44265 5.67068,7.62946 7.45211,-5.90181 -1.38506,9.40462 9.44265,1.09623 -7.62946,5.67068 z"
         transform="matrix(0.0988239,0,0,0.0988239,634.75664,549.21164)"
         id="path6486-0-53-1"
         style="fill:#ffffff;fill-opacity:1;stroke:none;display:inline"
         inkscape:connector-curvature="0" />
      <path
         d="m -115.39601,207.58472 -9.40463,-1.38506 -1.09622,9.44264 -5.67069,-7.62946 -7.45211,5.90182 1.38507,-9.40463 -9.44265,-1.09622 7.62946,-5.67069 -5.90181,-7.45211 9.40462,1.38507 1.09623,-9.44265 5.67068,7.62946 7.45211,-5.90181 -1.38506,9.40462 9.44265,1.09623 -7.62946,5.67068 z"
         transform="matrix(-0.0988239,0,0,-0.0988239,617.78664,603.34144)"
         id="path6486-0-3-8-6"
         style="fill:#ffffff;fill-opacity:1;stroke:none;display:inline"
         inkscape:connector-curvature="0" />
      <path
         d="m -115.39601,207.58472 -9.40463,-1.38506 -1.09622,9.44264 -5.67069,-7.62946 -7.45211,5.90182 1.38507,-9.40463 -9.44265,-1.09622 7.62946,-5.67069 -5.90181,-7.45211 9.40462,1.38507 1.09623,-9.44265 5.67068,7.62946 7.45211,-5.90181 -1.38506,9.40462 9.44265,1.09623 -7.62946,5.67068 z"
         transform="matrix(-0.06881524,0.0709269,-0.0709269,-0.06881524,670.47024,519.91012)"
         id="path6486-0-3-2-0-6-3"
         style="fill:#ffffff;fill-opacity:1;stroke:none;display:inline"
         inkscape:connector-curvature="0" />
      <path
         d="m -115.39601,207.58472 -9.40463,-1.38506 -1.09622,9.44264 -5.67069,-7.62946 -7.45211,5.90182 1.38507,-9.40463 -9.44265,-1.09622 7.62946,-5.67069 -5.90181,-7.45211 9.40462,1.38507 1.09623,-9.44265 5.67068,7.62946 7.45211,-5.90181 -1.38506,9.40462 9.44265,1.09623 -7.62946,5.67068 z"
         transform="matrix(0.0988239,0,0,0.0988239,876.52278,612.78747)"
         id="path6486-0-3-87"
         style="fill:#ffffff;fill-opacity:1;stroke:none;display:inline"
         inkscape:connector-curvature="0" />
      <path
         d="m -115.39601,207.58472 -9.40463,-1.38506 -1.09622,9.44264 -5.67069,-7.62946 -7.45211,5.90182 1.38507,-9.40463 -9.44265,-1.09622 7.62946,-5.67069 -5.90181,-7.45211 9.40462,1.38507 1.09623,-9.44265 5.67068,7.62946 7.45211,-5.90181 -1.38506,9.40462 9.44265,1.09623 -7.62946,5.67068 z"
         transform="matrix(0.0988239,0,0,0.0988239,928.61018,634.21457)"
         id="path6486-0-49-6"
         style="fill:#ffffff;fill-opacity:1;stroke:none;display:inline"
         inkscape:connector-curvature="0" />
      <path
         d="m -115.39601,207.58472 -9.40463,-1.38506 -1.09622,9.44264 -5.67069,-7.62946 -7.45211,5.90182 1.38507,-9.40463 -9.44265,-1.09622 7.62946,-5.67069 -5.90181,-7.45211 9.40462,1.38507 1.09623,-9.44265 5.67068,7.62946 7.45211,-5.90181 -1.38506,9.40462 9.44265,1.09623 -7.62946,5.67068 z"
         transform="matrix(0.0988239,0,0,0.0988239,874.91068,658.36437)"
         id="path6486-0-3-2-54-1"
         style="fill:#ffffff;fill-opacity:1;stroke:none;display:inline"
         inkscape:connector-curvature="0" />
      <path
         d="m -115.39601,207.58472 -9.40463,-1.38506 -1.09622,9.44264 -5.67069,-7.62946 -7.45211,5.90182 1.38507,-9.40463 -9.44265,-1.09622 7.62946,-5.67069 -5.90181,-7.45211 9.40462,1.38507 1.09623,-9.44265 5.67068,7.62946 7.45211,-5.90181 -1.38506,9.40462 9.44265,1.09623 -7.62946,5.67068 z"
         transform="matrix(0.05779179,-0.08016403,0.08016403,0.05779179,740.5901,704.52149)"
         id="path6486-0-3-2-27-0-7"
         style="fill:#ffffff;fill-opacity:1;stroke:none;display:inline"
         inkscape:connector-curvature="0" />
      <path
         d="m -115.39601,207.58472 -9.40463,-1.38506 -1.09622,9.44264 -5.67069,-7.62946 -7.45211,5.90182 1.38507,-9.40463 -9.44265,-1.09622 7.62946,-5.67069 -5.90181,-7.45211 9.40462,1.38507 1.09623,-9.44265 5.67068,7.62946 7.45211,-5.90181 -1.38506,9.40462 9.44265,1.09623 -7.62946,5.67068 z"
         transform="matrix(0.05779179,-0.08016403,0.08016403,0.05779179,764.90718,736.48366)"
         id="path6486-0-3-2-227-5-2"
         style="fill:#ffffff;fill-opacity:1;stroke:none;display:inline"
         inkscape:connector-curvature="0" />
      <path
         d="m -115.39601,207.58472 -9.40463,-1.38506 -1.09622,9.44264 -5.67069,-7.62946 -7.45211,5.90182 1.38507,-9.40463 -9.44265,-1.09622 7.62946,-5.67069 -5.90181,-7.45211 9.40462,1.38507 1.09623,-9.44265 5.67068,7.62946 7.45211,-5.90181 -1.38506,9.40462 9.44265,1.09623 -7.62946,5.67068 z"
         transform="matrix(-0.02901265,-0.0944692,-0.0944692,0.02901265,683.01756,763.06173)"
         id="path6486-0-5-8-6-6-3"
         style="fill:#ffffff;fill-opacity:1;stroke:none;display:inline"
         inkscape:connector-curvature="0" />
      <path
         d="m -115.39601,207.58472 -9.40463,-1.38506 -1.09622,9.44264 -5.67069,-7.62946 -7.45211,5.90182 1.38507,-9.40463 -9.44265,-1.09622 7.62946,-5.67069 -5.90181,-7.45211 9.40462,1.38507 1.09623,-9.44265 5.67068,7.62946 7.45211,-5.90181 -1.38506,9.40462 9.44265,1.09623 -7.62946,5.67068 z"
         transform="matrix(-0.02901265,-0.0944692,-0.0944692,0.02901265,689.87359,742.95857)"
         id="path6486-0-9-5-4-7-7"
         style="fill:#ffffff;fill-opacity:1;stroke:none;display:inline"
         inkscape:connector-curvature="0" />
      <path
         d="m -115.39601,207.58472 -9.40463,-1.38506 -1.09622,9.44264 -5.67069,-7.62946 -7.45211,5.90182 1.38507,-9.40463 -9.44265,-1.09622 7.62946,-5.67069 -5.90181,-7.45211 9.40462,1.38507 1.09623,-9.44265 5.67068,7.62946 7.45211,-5.90181 -1.38506,9.40462 9.44265,1.09623 -7.62946,5.67068 z"
         transform="matrix(-0.0144545,0.09776109,-0.09776109,-0.0144545,727.7599,763.42484)"
         id="path6486-0-3-5-4-2-8-8"
         style="fill:#ffffff;fill-opacity:1;stroke:none;display:inline"
         inkscape:connector-curvature="0" />
      <path
         d="m -115.39601,207.58472 -9.40463,-1.38506 -1.09622,9.44264 -5.67069,-7.62946 -7.45211,5.90182 1.38507,-9.40463 -9.44265,-1.09622 7.62946,-5.67069 -5.90181,-7.45211 9.40462,1.38507 1.09623,-9.44265 5.67068,7.62946 7.45211,-5.90181 -1.38506,9.40462 9.44265,1.09623 -7.62946,5.67068 z"
         transform="matrix(0.00235739,0.09879578,-0.09879578,0.00235739,534.14828,698.1993)"
         id="path6486-0-3-2-27-5"
         style="fill:#ffffff;fill-opacity:1;stroke:none;display:inline"
         inkscape:connector-curvature="0" />
      <path
         d="m -115.39601,207.58472 -9.40463,-1.38506 -1.09622,9.44264 -5.67069,-7.62946 -7.45211,5.90182 1.38507,-9.40463 -9.44265,-1.09622 7.62946,-5.67069 -5.90181,-7.45211 9.40462,1.38507 1.09623,-9.44265 5.67068,7.62946 7.45211,-5.90181 -1.38506,9.40462 9.44265,1.09623 -7.62946,5.67068 z"
         transform="matrix(0.08018054,0.05776889,0.05776889,-0.08018054,544.67637,616.77009)"
         id="path6486-0-5-8-6-8"
         style="fill:#ffffff;fill-opacity:1;stroke:none;display:inline"
         inkscape:connector-curvature="0" />
      <path
         d="m -115.39601,207.58472 -9.40463,-1.38506 -1.09622,9.44264 -5.67069,-7.62946 -7.45211,5.90182 1.38507,-9.40463 -9.44265,-1.09622 7.62946,-5.67069 -5.90181,-7.45211 9.40462,1.38507 1.09623,-9.44265 5.67068,7.62946 7.45211,-5.90181 -1.38506,9.40462 9.44265,1.09623 -7.62946,5.67068 z"
         transform="matrix(0.08018054,0.05776889,0.05776889,-0.08018054,551.35408,636.93324)"
         id="path6486-0-9-5-4-5"
         style="fill:#ffffff;fill-opacity:1;stroke:none;display:inline"
         inkscape:connector-curvature="0" />
      <path
         d="m -115.39601,207.58472 -9.40463,-1.38506 -1.09622,9.44264 -5.67069,-7.62946 -7.45211,5.90182 1.38507,-9.40463 -9.44265,-1.09622 7.62946,-5.67069 -5.90181,-7.45211 9.40462,1.38507 1.09623,-9.44265 5.67068,7.62946 7.45211,-5.90181 -1.38506,9.40462 9.44265,1.09623 -7.62946,5.67068 z"
         transform="matrix(0.08018054,0.05776889,0.05776889,-0.08018054,498.07761,554.55585)"
         id="path6486-0-3-2-27-4-3-8"
         style="fill:#ffffff;fill-opacity:1;stroke:none;display:inline"
         inkscape:connector-curvature="0" />
      <path
         d="m -115.39601,207.58472 -9.40463,-1.38506 -1.09622,9.44264 -5.67069,-7.62946 -7.45211,5.90182 1.38507,-9.40463 -9.44265,-1.09622 7.62946,-5.67069 -5.90181,-7.45211 9.40462,1.38507 1.09623,-9.44265 5.67068,7.62946 7.45211,-5.90181 -1.38506,9.40462 9.44265,1.09623 -7.62946,5.67068 z"
         transform="matrix(0.08018054,0.05776889,0.05776889,-0.08018054,536.09035,567.51488)"
         id="path6486-0-3-2-227-6-2-7"
         style="fill:#ffffff;fill-opacity:1;stroke:none;display:inline"
         inkscape:connector-curvature="0" />
      <path
         d="m -115.39601,207.58472 -9.40463,-1.38506 -1.09622,9.44264 -5.67069,-7.62946 -7.45211,5.90182 1.38507,-9.40463 -9.44265,-1.09622 7.62946,-5.67069 -5.90181,-7.45211 9.40462,1.38507 1.09623,-9.44265 5.67068,7.62946 7.45211,-5.90181 -1.38506,9.40462 9.44265,1.09623 -7.62946,5.67068 z"
         transform="matrix(0.00235739,0.09879578,-0.09879578,0.00235739,567.20547,743.82873)"
         id="path6486-0-3-87-3"
         style="fill:#ffffff;fill-opacity:1;stroke:none;display:inline"
         inkscape:connector-curvature="0" />
      <path
         d="m -115.39601,207.58472 -9.40463,-1.38506 -1.09622,9.44264 -5.67069,-7.62946 -7.45211,5.90182 1.38507,-9.40463 -9.44265,-1.09622 7.62946,-5.67069 -5.90181,-7.45211 9.40462,1.38507 1.09623,-9.44265 5.67068,7.62946 7.45211,-5.90181 -1.38506,9.40462 9.44265,1.09623 -7.62946,5.67068 z"
         transform="matrix(0.00235739,0.09879578,-0.09879578,0.00235739,589.01145,796.41244)"
         id="path6486-0-49-6-3"
         style="fill:#ffffff;fill-opacity:1;stroke:none;display:inline"
         inkscape:connector-curvature="0" />
      <path
         d="m -115.39601,207.58472 -9.40463,-1.38506 -1.09622,9.44264 -5.67069,-7.62946 -7.45211,5.90182 1.38507,-9.40463 -9.44265,-1.09622 7.62946,-5.67069 -5.90181,-7.45211 9.40462,1.38507 1.09623,-9.44265 5.67068,7.62946 7.45211,-5.90181 -1.38506,9.40462 9.44265,1.09623 -7.62946,5.67068 z"
         transform="matrix(0.00235739,0.09879578,-0.09879578,0.00235739,521.60308,743.3043)"
         id="path6486-0-3-2-54-1-1"
         style="fill:#ffffff;fill-opacity:1;stroke:none;display:inline"
         inkscape:connector-curvature="0" />
      <path
         d="m -115.39601,207.58472 -9.40463,-1.38506 -1.09622,9.44264 -5.67069,-7.62946 -7.45211,5.90182 1.38507,-9.40463 -9.44265,-1.09622 7.62946,-5.67069 -5.90181,-7.45211 9.40462,1.38507 1.09623,-9.44265 5.67068,7.62946 7.45211,-5.90181 -1.38506,9.40462 9.44265,1.09623 -7.62946,5.67068 z"
         transform="matrix(0.0988239,0,0,0.0988239,456.97634,870.91159)"
         id="path6486-0-3-2-27-08"
         style="fill:#ffffff;fill-opacity:1;stroke:none;display:inline"
         inkscape:connector-curvature="0" />
      <path
         d="m -115.39601,207.58472 -9.40463,-1.38506 -1.09622,9.44264 -5.67069,-7.62946 -7.45211,5.90182 1.38507,-9.40463 -9.44265,-1.09622 7.62946,-5.67069 -5.90181,-7.45211 9.40462,1.38507 1.09623,-9.44265 5.67068,7.62946 7.45211,-5.90181 -1.38506,9.40462 9.44265,1.09623 -7.62946,5.67068 z"
         transform="matrix(0.0988239,0,0,0.0988239,503.38144,838.95227)"
         id="path6486-0-3-87-1"
         style="fill:#ffffff;fill-opacity:1;stroke:none;display:inline"
         inkscape:connector-curvature="0" />
      <path
         d="m -115.39601,207.58472 -9.40463,-1.38506 -1.09622,9.44264 -5.67069,-7.62946 -7.45211,5.90182 1.38507,-9.40463 -9.44265,-1.09622 7.62946,-5.67069 -5.90181,-7.45211 9.40462,1.38507 1.09623,-9.44265 5.67068,7.62946 7.45211,-5.90181 -1.38506,9.40462 9.44265,1.09623 -7.62946,5.67068 z"
         transform="matrix(0.0988239,0,0,0.0988239,555.46884,860.37937)"
         id="path6486-0-49-6-0"
         style="fill:#ffffff;fill-opacity:1;stroke:none;display:inline"
         inkscape:connector-curvature="0" />
      <path
         d="m -115.39601,207.58472 -9.40463,-1.38506 -1.09622,9.44264 -5.67069,-7.62946 -7.45211,5.90182 1.38507,-9.40463 -9.44265,-1.09622 7.62946,-5.67069 -5.90181,-7.45211 9.40462,1.38507 1.09623,-9.44265 5.67068,7.62946 7.45211,-5.90181 -1.38506,9.40462 9.44265,1.09623 -7.62946,5.67068 z"
         transform="matrix(0.0988239,0,0,0.0988239,501.76934,884.52917)"
         id="path6486-0-3-2-54-1-9"
         style="fill:#ffffff;fill-opacity:1;stroke:none;display:inline"
         inkscape:connector-curvature="0" />
      <path
         d="m -115.39601,207.58472 -9.40463,-1.38506 -1.09622,9.44264 -5.67069,-7.62946 -7.45211,5.90182 1.38507,-9.40463 -9.44265,-1.09622 7.62946,-5.67069 -5.90181,-7.45211 9.40462,1.38507 1.09623,-9.44265 5.67068,7.62946 7.45211,-5.90181 -1.38506,9.40462 9.44265,1.09623 -7.62946,5.67068 z"
         transform="matrix(0.0988239,-0.05148559,0,0.0988239,842.57053,857.04045)"
         id="path6486-0-3-2-27-2"
         style="fill:#ffffff;fill-opacity:1;stroke:none;display:inline"
         inkscape:connector-curvature="0" />
      <path
         d="m -115.39601,207.58472 -9.40463,-1.38506 -1.09622,9.44264 -5.67069,-7.62946 -7.45211,5.90182 1.38507,-9.40463 -9.44265,-1.09622 7.62946,-5.67069 -5.90181,-7.45211 9.40462,1.38507 1.09623,-9.44265 5.67068,7.62946 7.45211,-5.90181 -1.38506,9.40462 9.44265,1.09623 -7.62946,5.67068 z"
         transform="matrix(0.0988239,-0.05148559,0,0.0988239,888.97553,800.9049)"
         id="path6486-0-3-87-4"
         style="fill:#ffffff;fill-opacity:1;stroke:none;display:inline"
         inkscape:connector-curvature="0" />
      <path
         d="m -115.39601,207.58472 -9.40463,-1.38506 -1.09622,9.44264 -5.67069,-7.62946 -7.45211,5.90182 1.38507,-9.40463 -9.44265,-1.09622 7.62946,-5.67069 -5.90181,-7.45211 9.40462,1.38507 1.09623,-9.44265 5.67068,7.62946 7.45211,-5.90181 -1.38506,9.40462 9.44265,1.09623 -7.62946,5.67068 z"
         transform="matrix(0.0988239,-0.05148559,0,0.0988239,941.06303,795.19529)"
         id="path6486-0-49-6-9"
         style="fill:#ffffff;fill-opacity:1;stroke:none;display:inline"
         inkscape:connector-curvature="0" />
      <path
         d="m -115.39601,207.58472 -9.40463,-1.38506 -1.09622,9.44264 -5.67069,-7.62946 -7.45211,5.90182 1.38507,-9.40463 -9.44265,-1.09622 7.62946,-5.67069 -5.90181,-7.45211 9.40462,1.38507 1.09623,-9.44265 5.67068,7.62946 7.45211,-5.90181 -1.38506,9.40462 9.44265,1.09623 -7.62946,5.67068 z"
         transform="matrix(0.0988239,-0.05148559,0,0.0988239,887.36343,847.32168)"
         id="path6486-0-3-2-54-1-15"
         style="fill:#ffffff;fill-opacity:1;stroke:none;display:inline"
         inkscape:connector-curvature="0" />
      <path
         d="m -115.39601,207.58472 -9.40463,-1.38506 -1.09622,9.44264 -5.67069,-7.62946 -7.45211,5.90182 1.38507,-9.40463 -9.44265,-1.09622 7.62946,-5.67069 -5.90181,-7.45211 9.40462,1.38507 1.09623,-9.44265 5.67068,7.62946 7.45211,-5.90181 -1.38506,9.40462 9.44265,1.09623 -7.62946,5.67068 z"
         transform="matrix(0.0988239,0,0,0.0988239,877.08849,501.37745)"
         id="path6486-0-5-7"
         style="fill:#ffffff;fill-opacity:1;stroke:none;display:inline"
         inkscape:connector-curvature="0" />
      <path
         d="m -115.39601,207.58472 -9.40463,-1.38506 -1.09622,9.44264 -5.67069,-7.62946 -7.45211,5.90182 1.38507,-9.40463 -9.44265,-1.09622 7.62946,-5.67069 -5.90181,-7.45211 9.40462,1.38507 1.09623,-9.44265 5.67068,7.62946 7.45211,-5.90181 -1.38506,9.40462 9.44265,1.09623 -7.62946,5.67068 z"
         transform="matrix(0.0988239,0,0,0.0988239,888.43954,463.33935)"
         id="path6486-0-9-3"
         style="fill:#ffffff;fill-opacity:1;stroke:none;display:inline"
         inkscape:connector-curvature="0" />
      <path
         d="m -115.39601,207.58472 -9.40463,-1.38506 -1.09622,9.44264 -5.67069,-7.62946 -7.45211,5.90182 1.38507,-9.40463 -9.44265,-1.09622 7.62946,-5.67069 -5.90181,-7.45211 9.40462,1.38507 1.09623,-9.44265 5.67068,7.62946 7.45211,-5.90181 -1.38506,9.40462 9.44265,1.09623 -7.62946,5.67068 z"
         transform="matrix(0.0988239,0,0,0.0988239,924.38899,499.78984)"
         id="path6486-0-0-3"
         style="fill:#ffffff;fill-opacity:1;stroke:none;display:inline"
         inkscape:connector-curvature="0" />
      <path
         d="m -115.39601,207.58472 -9.40463,-1.38506 -1.09622,9.44264 -5.67069,-7.62946 -7.45211,5.90182 1.38507,-9.40463 -9.44265,-1.09622 7.62946,-5.67069 -5.90181,-7.45211 9.40462,1.38507 1.09623,-9.44265 5.67068,7.62946 7.45211,-5.90181 -1.38506,9.40462 9.44265,1.09623 -7.62946,5.67068 z"
         transform="matrix(0.0988239,0,0,0.0988239,920.35593,533.98249)"
         id="path6486-0-3-90-4"
         style="fill:#ffffff;fill-opacity:1;stroke:none;display:inline"
         inkscape:connector-curvature="0" />
      <path
         d="m -115.39601,207.58472 -9.40463,-1.38506 -1.09622,9.44264 -5.67069,-7.62946 -7.45211,5.90182 1.38507,-9.40463 -9.44265,-1.09622 7.62946,-5.67069 -5.90181,-7.45211 9.40462,1.38507 1.09623,-9.44265 5.67068,7.62946 7.45211,-5.90181 -1.38506,9.40462 9.44265,1.09623 -7.62946,5.67068 z"
         transform="matrix(0.0988239,0,0,0.0988239,929.58933,586.90917)"
         id="path6486-0-3-5-2"
         style="fill:#ffffff;fill-opacity:1;stroke:none;display:inline"
         inkscape:connector-curvature="0" />
      <path
         d="m -115.39601,207.58472 -9.40463,-1.38506 -1.09622,9.44264 -5.67069,-7.62946 -7.45211,5.90182 1.38507,-9.40463 -9.44265,-1.09622 7.62946,-5.67069 -5.90181,-7.45211 9.40462,1.38507 1.09623,-9.44265 5.67068,7.62946 7.45211,-5.90181 -1.38506,9.40462 9.44265,1.09623 -7.62946,5.67068 z"
         transform="matrix(0.0988239,0,0,0.0988239,84.496881,798.74002)"
         id="path6486-0-3-2-10"
         style="fill:#ffffff;fill-opacity:1;stroke:none;display:inline"
         inkscape:connector-curvature="0" />
      <path
         d="m -115.39601,207.58472 -9.40463,-1.38506 -1.09622,9.44264 -5.67069,-7.62946 -7.45211,5.90182 1.38507,-9.40463 -9.44265,-1.09622 7.62946,-5.67069 -5.90181,-7.45211 9.40462,1.38507 1.09623,-9.44265 5.67068,7.62946 7.45211,-5.90181 -1.38506,9.40462 9.44265,1.09623 -7.62946,5.67068 z"
         transform="matrix(0.0988239,0,0,0.0988239,207.15924,753.21591)"
         id="path6486-0-3-2-0-3"
         style="fill:#ffffff;fill-opacity:1;stroke:none;display:inline"
         inkscape:connector-curvature="0" />
      <path
         d="m -115.39601,207.58472 -9.40463,-1.38506 -1.09622,9.44264 -5.67069,-7.62946 -7.45211,5.90182 1.38507,-9.40463 -9.44265,-1.09622 7.62946,-5.67069 -5.90181,-7.45211 9.40462,1.38507 1.09623,-9.44265 5.67068,7.62946 7.45211,-5.90181 -1.38506,9.40462 9.44265,1.09623 -7.62946,5.67068 z"
         transform="matrix(0.0988239,0,0,0.0988239,102.09829,758.46939)"
         id="path6486-0-3-2-7-7"
         style="fill:#ffffff;fill-opacity:1;stroke:none;display:inline"
         inkscape:connector-curvature="0" />
      <path
         d="m -115.39601,207.58472 -9.40463,-1.38506 -1.09622,9.44264 -5.67069,-7.62946 -7.45211,5.90182 1.38507,-9.40463 -9.44265,-1.09622 7.62946,-5.67069 -5.90181,-7.45211 9.40462,1.38507 1.09623,-9.44265 5.67068,7.62946 7.45211,-5.90181 -1.38506,9.40462 9.44265,1.09623 -7.62946,5.67068 z"
         transform="matrix(0,-0.0988239,0.0988239,0,106.09643,851.33054)"
         id="path6486-0-9-5-3"
         style="fill:#ffffff;fill-opacity:1;stroke:none;display:inline"
         inkscape:connector-curvature="0" />
      <path
         d="m -115.39601,207.58472 -9.40463,-1.38506 -1.09622,9.44264 -5.67069,-7.62946 -7.45211,5.90182 1.38507,-9.40463 -9.44265,-1.09622 7.62946,-5.67069 -5.90181,-7.45211 9.40462,1.38507 1.09623,-9.44265 5.67068,7.62946 7.45211,-5.90181 -1.38506,9.40462 9.44265,1.09623 -7.62946,5.67068 z"
         transform="matrix(0,-0.0988239,0.0988239,0,127.36053,797.20234)"
         id="path6486-0-3-4-3-9"
         style="fill:#ffffff;fill-opacity:1;stroke:none;display:inline"
         inkscape:connector-curvature="0" />
      <path
         d="m -115.39601,207.58472 -9.40463,-1.38506 -1.09622,9.44264 -5.67069,-7.62946 -7.45211,5.90182 1.38507,-9.40463 -9.44265,-1.09622 7.62946,-5.67069 -5.90181,-7.45211 9.40462,1.38507 1.09623,-9.44265 5.67068,7.62946 7.45211,-5.90181 -1.38506,9.40462 9.44265,1.09623 -7.62946,5.67068 z"
         transform="matrix(0.08018054,0.05776889,0.05776889,-0.08018054,200.94776,861.33564)"
         id="path6486-0-3-2-27-4-3-8-5"
         style="fill:#ffffff;fill-opacity:1;stroke:none;display:inline"
         inkscape:connector-curvature="0" />
      <path
         d="m -115.39601,207.58472 -9.40463,-1.38506 -1.09622,9.44264 -5.67069,-7.62946 -7.45211,5.90182 1.38507,-9.40463 -9.44265,-1.09622 7.62946,-5.67069 -5.90181,-7.45211 9.40462,1.38507 1.09623,-9.44265 5.67068,7.62946 7.45211,-5.90181 -1.38506,9.40462 9.44265,1.09623 -7.62946,5.67068 z"
         transform="matrix(0.08018054,0.05776889,0.05776889,-0.08018054,238.9605,874.29467)"
         id="path6486-0-3-2-227-6-2-7-9"
         style="fill:#ffffff;fill-opacity:1;stroke:none;display:inline"
         inkscape:connector-curvature="0" />
      <path
         d="m -115.39601,207.58472 -9.40463,-1.38506 -1.09622,9.44264 -5.67069,-7.62946 -7.45211,5.90182 1.38507,-9.40463 -9.44265,-1.09622 7.62946,-5.67069 -5.90181,-7.45211 9.40462,1.38507 1.09623,-9.44265 5.67068,7.62946 7.45211,-5.90181 -1.38506,9.40462 9.44265,1.09623 -7.62946,5.67068 z"
         transform="matrix(0.07496521,0.06439239,-0.06439239,0.07496521,61.931076,482.53289)"
         id="path6486-0-3-2-72"
         style="fill:#ffffff;fill-opacity:1;stroke:none;display:inline"
         inkscape:connector-curvature="0" />
      <path
         d="m -115.39601,207.58472 -9.40463,-1.38506 -1.09622,9.44264 -5.67069,-7.62946 -7.45211,5.90182 1.38507,-9.40463 -9.44265,-1.09622 7.62946,-5.67069 -5.90181,-7.45211 9.40462,1.38507 1.09623,-9.44265 5.67068,7.62946 7.45211,-5.90181 -1.38506,9.40462 9.44265,1.09623 -7.62946,5.67068 z"
         transform="matrix(0.07496521,0.06439239,-0.06439239,0.07496521,184.64248,527.92476)"
         id="path6486-0-3-2-0-0"
         style="fill:#ffffff;fill-opacity:1;stroke:none;display:inline"
         inkscape:connector-curvature="0" />
      <path
         d="m -115.39601,207.58472 -9.40463,-1.38506 -1.09622,9.44264 -5.67069,-7.62946 -7.45211,5.90182 1.38507,-9.40463 -9.44265,-1.09622 7.62946,-5.67069 -5.90181,-7.45211 9.40462,1.38507 1.09623,-9.44265 5.67068,7.62946 7.45211,-5.90181 -1.38506,9.40462 9.44265,1.09623 -7.62946,5.67068 z"
         transform="matrix(0.07496521,0.06439239,-0.06439239,0.07496521,101.52286,463.4535)"
         id="path6486-0-3-2-7-2"
         style="fill:#ffffff;fill-opacity:1;stroke:none;display:inline"
         inkscape:connector-curvature="0" />
      <path
         d="m -115.39601,207.58472 -9.40463,-1.38506 -1.09622,9.44264 -5.67069,-7.62946 -7.45211,5.90182 1.38507,-9.40463 -9.44265,-1.09622 7.62946,-5.67069 -5.90181,-7.45211 9.40462,1.38507 1.09623,-9.44265 5.67068,7.62946 7.45211,-5.90181 -1.38506,9.40462 9.44265,1.09623 -7.62946,5.67068 z"
         transform="matrix(0.06439239,-0.07496521,0.07496521,0.06439239,44.048652,536.5007)"
         id="path6486-0-9-5-8"
         style="fill:#ffffff;fill-opacity:1;stroke:none;display:inline"
         inkscape:connector-curvature="0" />
      <path
         d="m -115.39601,207.58472 -9.40463,-1.38506 -1.09622,9.44264 -5.67069,-7.62946 -7.45211,5.90182 1.38507,-9.40463 -9.44265,-1.09622 7.62946,-5.67069 -5.90181,-7.45211 9.40462,1.38507 1.09623,-9.44265 5.67068,7.62946 7.45211,-5.90181 -1.38506,9.40462 9.44265,1.09623 -7.62946,5.67068 z"
         transform="matrix(0.06439239,-0.07496521,0.07496521,0.06439239,95.448284,509.29589)"
         id="path6486-0-3-4-3-6"
         style="fill:#ffffff;fill-opacity:1;stroke:none;display:inline"
         inkscape:connector-curvature="0" />
      <path
         d="m -115.39601,207.58472 -9.40463,-1.38506 -1.09622,9.44264 -5.67069,-7.62946 -7.45211,5.90182 1.38507,-9.40463 -9.44265,-1.09622 7.62946,-5.67069 -5.90181,-7.45211 9.40462,1.38507 1.09623,-9.44265 5.67068,7.62946 7.45211,-5.90181 -1.38506,9.40462 9.44265,1.09623 -7.62946,5.67068 z"
         transform="matrix(0.02318138,0.09606658,0.09606658,-0.02318138,109.48116,605.89421)"
         id="path6486-0-3-2-27-4-3-8-7"
         style="fill:#ffffff;fill-opacity:1;stroke:none;display:inline"
         inkscape:connector-curvature="0" />
      <path
         d="m -115.39601,207.58472 -9.40463,-1.38506 -1.09622,9.44264 -5.67069,-7.62946 -7.45211,5.90182 1.38507,-9.40463 -9.44265,-1.09622 7.62946,-5.67069 -5.90181,-7.45211 9.40462,1.38507 1.09623,-9.44265 5.67068,7.62946 7.45211,-5.90181 -1.38506,9.40462 9.44265,1.09623 -7.62946,5.67068 z"
         transform="matrix(0.02318138,0.09606658,0.09606658,-0.02318138,129.87266,640.49318)"
         id="path6486-0-3-2-227-6-2-7-0"
         style="fill:#ffffff;fill-opacity:1;stroke:none;display:inline"
         inkscape:connector-curvature="0" />
      <path
         d="m -115.39601,207.58472 -9.40463,-1.38506 -1.09622,9.44264 -5.67069,-7.62946 -7.45211,5.90182 1.38507,-9.40463 -9.44265,-1.09622 7.62946,-5.67069 -5.90181,-7.45211 9.40462,1.38507 1.09623,-9.44265 5.67068,7.62946 7.45211,-5.90181 -1.38506,9.40462 9.44265,1.09623 -7.62946,5.67068 z"
         transform="matrix(-0.0988239,0,0,0.0988239,354.02852,822.11638)"
         id="path6486-0-3-9-8"
         style="fill:#ffffff;fill-opacity:1;stroke:none;display:inline"
         inkscape:connector-curvature="0" />
      <path
         d="m -115.39601,207.58472 -9.40463,-1.38506 -1.09622,9.44264 -5.67069,-7.62946 -7.45211,5.90182 1.38507,-9.40463 -9.44265,-1.09622 7.62946,-5.67069 -5.90181,-7.45211 9.40462,1.38507 1.09623,-9.44265 5.67068,7.62946 7.45211,-5.90181 -1.38506,9.40462 9.44265,1.09623 -7.62946,5.67068 z"
         transform="matrix(-0.0988239,0,0,0.0988239,301.94112,843.54356)"
         id="path6486-0-49-1-1"
         style="fill:#ffffff;fill-opacity:1;stroke:none;display:inline"
         inkscape:connector-curvature="0" />
      <path
         d="m -115.39601,207.58472 -9.40463,-1.38506 -1.09622,9.44264 -5.67069,-7.62946 -7.45211,5.90182 1.38507,-9.40463 -9.44265,-1.09622 7.62946,-5.67069 -5.90181,-7.45211 9.40462,1.38507 1.09623,-9.44265 5.67068,7.62946 7.45211,-5.90181 -1.38506,9.40462 9.44265,1.09623 -7.62946,5.67068 z"
         transform="matrix(0.0988239,0,0,0.0988239,367.50252,855.62188)"
         id="path6486-0-3-44-83"
         style="fill:#ffffff;fill-opacity:1;stroke:none;display:inline"
         inkscape:connector-curvature="0" />
      <path
         d="m -115.39601,207.58472 -9.40463,-1.38506 -1.09622,9.44264 -5.67069,-7.62946 -7.45211,5.90182 1.38507,-9.40463 -9.44265,-1.09622 7.62946,-5.67069 -5.90181,-7.45211 9.40462,1.38507 1.09623,-9.44265 5.67068,7.62946 7.45211,-5.90181 -1.38506,9.40462 9.44265,1.09623 -7.62946,5.67068 z"
         transform="matrix(-0.0988239,0,0,-0.0988239,756.19544,963.03831)"
         id="path6486-0-3-9-0"
         style="fill:#ffffff;fill-opacity:1;stroke:none;display:inline"
         inkscape:connector-curvature="0" />
      <path
         d="m -115.39601,207.58472 -9.40463,-1.38506 -1.09622,9.44264 -5.67069,-7.62946 -7.45211,5.90182 1.38507,-9.40463 -9.44265,-1.09622 7.62946,-5.67069 -5.90181,-7.45211 9.40462,1.38507 1.09623,-9.44265 5.67068,7.62946 7.45211,-5.90181 -1.38506,9.40462 9.44265,1.09623 -7.62946,5.67068 z"
         transform="matrix(-0.0988239,0,0,-0.0988239,704.10804,941.61113)"
         id="path6486-0-49-1-3"
         style="fill:#ffffff;fill-opacity:1;stroke:none;display:inline"
         inkscape:connector-curvature="0" />
      <path
         d="m -115.39601,207.58472 -9.40463,-1.38506 -1.09622,9.44264 -5.67069,-7.62946 -7.45211,5.90182 1.38507,-9.40463 -9.44265,-1.09622 7.62946,-5.67069 -5.90181,-7.45211 9.40462,1.38507 1.09623,-9.44265 5.67068,7.62946 7.45211,-5.90181 -1.38506,9.40462 9.44265,1.09623 -7.62946,5.67068 z"
         transform="matrix(0.0988239,0,0,-0.0988239,769.66954,929.53281)"
         id="path6486-0-3-44-6"
         style="fill:#ffffff;fill-opacity:1;stroke:none;display:inline"
         inkscape:connector-curvature="0" />
      <path
         d="m -115.39601,207.58472 -9.40463,-1.38506 -1.09622,9.44264 -5.67069,-7.62946 -7.45211,5.90182 1.38507,-9.40463 -9.44265,-1.09622 7.62946,-5.67069 -5.90181,-7.45211 9.40462,1.38507 1.09623,-9.44265 5.67068,7.62946 7.45211,-5.90181 -1.38506,9.40462 9.44265,1.09623 -7.62946,5.67068 z"
         transform="matrix(-0.0988239,0,0,-0.0988239,252.38189,517.20611)"
         id="path6486-0-3-9-2"
         style="fill:#ffffff;fill-opacity:1;stroke:none;display:inline"
         inkscape:connector-curvature="0" />
      <path
         d="m -115.39601,207.58472 -9.40463,-1.38506 -1.09622,9.44264 -5.67069,-7.62946 -7.45211,5.90182 1.38507,-9.40463 -9.44265,-1.09622 7.62946,-5.67069 -5.90181,-7.45211 9.40462,1.38507 1.09623,-9.44265 5.67068,7.62946 7.45211,-5.90181 -1.38506,9.40462 9.44265,1.09623 -7.62946,5.67068 z"
         transform="matrix(-0.0988239,0,0,-0.0988239,200.29449,495.77893)"
         id="path6486-0-49-1-0"
         style="fill:#ffffff;fill-opacity:1;stroke:none;display:inline"
         inkscape:connector-curvature="0" />
      <path
         d="m -115.39601,207.58472 -9.40463,-1.38506 -1.09622,9.44264 -5.67069,-7.62946 -7.45211,5.90182 1.38507,-9.40463 -9.44265,-1.09622 7.62946,-5.67069 -5.90181,-7.45211 9.40462,1.38507 1.09623,-9.44265 5.67068,7.62946 7.45211,-5.90181 -1.38506,9.40462 9.44265,1.09623 -7.62946,5.67068 z"
         transform="matrix(0.0988239,0,0,-0.0988239,265.85589,483.70061)"
         id="path6486-0-3-44-2"
         style="fill:#ffffff;fill-opacity:1;stroke:none;display:inline"
         inkscape:connector-curvature="0" />
      <path
         d="m -115.39601,207.58472 -9.40463,-1.38506 -1.09622,9.44264 -5.67069,-7.62946 -7.45211,5.90182 1.38507,-9.40463 -9.44265,-1.09622 7.62946,-5.67069 -5.90181,-7.45211 9.40462,1.38507 1.09623,-9.44265 5.67068,7.62946 7.45211,-5.90181 -1.38506,9.40462 9.44265,1.09623 -7.62946,5.67068 z"
         transform="matrix(0.0988239,0,0,-0.0988239,707.3221,515.20611)"
         id="path6486-0-3-9-84"
         style="fill:#ffffff;fill-opacity:1;stroke:none;display:inline"
         inkscape:connector-curvature="0" />
      <path
         d="m -115.39601,207.58472 -9.40463,-1.38506 -1.09622,9.44264 -5.67069,-7.62946 -7.45211,5.90182 1.38507,-9.40463 -9.44265,-1.09622 7.62946,-5.67069 -5.90181,-7.45211 9.40462,1.38507 1.09623,-9.44265 5.67068,7.62946 7.45211,-5.90181 -1.38506,9.40462 9.44265,1.09623 -7.62946,5.67068 z"
         transform="matrix(0.0988239,0,0,-0.0988239,825.4094,493.77893)"
         id="path6486-0-49-1-18"
         style="fill:#ffffff;fill-opacity:1;stroke:none;display:inline"
         inkscape:connector-curvature="0" />
      <path
         d="m -115.39601,207.58472 -9.40463,-1.38506 -1.09622,9.44264 -5.67069,-7.62946 -7.45211,5.90182 1.38507,-9.40463 -9.44265,-1.09622 7.62946,-5.67069 -5.90181,-7.45211 9.40462,1.38507 1.09623,-9.44265 5.67068,7.62946 7.45211,-5.90181 -1.38506,9.40462 9.44265,1.09623 -7.62946,5.67068 z"
         transform="matrix(-0.0988239,0,0,-0.0988239,693.848,481.70061)"
         id="path6486-0-3-44-3"
         style="fill:#ffffff;fill-opacity:1;stroke:none;display:inline"
         inkscape:connector-curvature="0" />
      <path
         d="m -115.39601,207.58472 -9.40463,-1.38506 -1.09622,9.44264 -5.67069,-7.62946 -7.45211,5.90182 1.38507,-9.40463 -9.44265,-1.09622 7.62946,-5.67069 -5.90181,-7.45211 9.40462,1.38507 1.09623,-9.44265 5.67068,7.62946 7.45211,-5.90181 -1.38506,9.40462 9.44265,1.09623 -7.62946,5.67068 z"
         transform="matrix(-0.0988239,0,0,0.0988239,698.743,519.38628)"
         id="path6486-0-3-9-7"
         style="fill:#ffffff;fill-opacity:1;stroke:none;display:inline"
         inkscape:connector-curvature="0" />
      <path
         d="m -115.39601,207.58472 -9.40463,-1.38506 -1.09622,9.44264 -5.67069,-7.62946 -7.45211,5.90182 1.38507,-9.40463 -9.44265,-1.09622 7.62946,-5.67069 -5.90181,-7.45211 9.40462,1.38507 1.09623,-9.44265 5.67068,7.62946 7.45211,-5.90181 -1.38506,9.40462 9.44265,1.09623 -7.62946,5.67068 z"
         transform="matrix(-0.0988239,0,0,0.0988239,646.6557,540.81346)"
         id="path6486-0-49-1-5"
         style="fill:#ffffff;fill-opacity:1;stroke:none;display:inline"
         inkscape:connector-curvature="0" />
      <path
         d="m -115.39601,207.58472 -9.40463,-1.38506 -1.09622,9.44264 -5.67069,-7.62946 -7.45211,5.90182 1.38507,-9.40463 -9.44265,-1.09622 7.62946,-5.67069 -5.90181,-7.45211 9.40462,1.38507 1.09623,-9.44265 5.67068,7.62946 7.45211,-5.90181 -1.38506,9.40462 9.44265,1.09623 -7.62946,5.67068 z"
         transform="matrix(0.0988239,0,0,0.0988239,712.2171,552.89178)"
         id="path6486-0-3-44-81"
         style="fill:#ffffff;fill-opacity:1;stroke:none;display:inline"
         inkscape:connector-curvature="0" />
      <path
         d="m 703.90623,583.59375 -32.6249,4.25006 3.07346,32.75669 -4.25005,-32.6249 -32.75669,3.07347 32.62489,-4.25006 -3.07346,-32.75669 4.25006,32.6249 z"
         transform="matrix(-0.27640974,0.96103988,-0.96103988,-0.27640974,1567.0084,486.07199)"
         id="path7370"
         style="fill:#ffffff;fill-opacity:1;stroke:none"
         inkscape:connector-curvature="0" />
      <path
         d="m 971.16697,540.33787 -56.02531,-36.44755 -38.43974,54.67765 36.44755,-56.02531 -54.67764,-38.43974 56.0253,36.44756 38.43974,-54.67765 -36.44755,56.0253 z"
         transform="matrix(0.66762519,0.17888963,-0.17888963,0.66762519,295.81539,469.02179)"
         id="path7372"
         style="fill:#ffffff;fill-opacity:1;stroke:none"
         inkscape:connector-curvature="0" />
    </g>
  </g>
</svg>
