<svg xmlns="http://www.w3.org/2000/svg" xmlns:xlink="http://www.w3.org/1999/xlink" width="960" height="600"><defs><linearGradient id="a"><stop offset="0" stop-color="#e7b074"/><stop offset="1" stop-color="#fff"/></linearGradient><linearGradient x1="106.656" y1="-167.573" x2="88.403" y2="-8.692" id="b" xlink:href="#a" gradientUnits="userSpaceOnUse" gradientTransform="matrix(1.027 0 0 1.621 -46.096 1103.648)"/></defs><g transform="translate(0 -452.362)"><rect width="960" height="600" y="452.362" fill="#d6e68f" fill-opacity=".587"/><g fill="#fafafa" stroke="#fff"><path d="M-.751 451.628v10.375l1.031.875c.963-4.256 2.194-8.573 1.781-11.25h-2.813zm1.031 11.25c-.516 2.281-.966 4.534-1.031 6.5v10.719c.257-.205.513-.42.781-.688-.069.442-.141.903-.281 1.406-.141.507-.329.959-.5 1.375v.063c.106.437.218.916.281 1.438.065.532.094 1.012.094 1.469-.121-.165-.253-.293-.375-.438v15.531c1.262-.837 2.481-1.672 3.438-2.563.535 1.872 1.5 3.936 2.531 6 1.351-1.911 2.657-3.801 3.469-5.594 1.214 1.538 2.898 3.1 4.656 4.625.517-2.284.966-4.532 1.031-6.5 1.716.963 3.873 1.729 6.094 2.469-.394-2.293-.844-4.541-1.531-6.375 1.956.233 4.257.104 6.594-.063-1.242-1.967-2.538-3.882-3.875-5.313 1.892-.532 3.972-1.486 6.063-2.531-1.916-1.354-3.829-2.656-5.625-3.469 1.553-1.221 3.117-2.911 4.656-4.688-2.269-.513-4.541-.932-6.5-1 .963-1.716 1.729-3.873 2.469-6.094-2.293.394-4.541.844-6.375 1.531.233-1.956.104-4.258-.063-6.594-1.972 1.244-3.879 2.536-5.313 3.875-.533-1.898-1.513-3.965-2.563-6.063-1.352 1.913-2.625 3.831-3.438 5.625-1.221-1.553-2.911-3.117-4.688-4.656zm8.125-.969c2.699-3.819 5.718-7.605 6.063-10.281h-10.438c.343 2.685 2.481 6.495 4.375 10.281zm7.875 2.188c6.899-4.353 14.673-8.243 6.406-12.469h-5.938c-1.495 2.238-.828 7.427-.469 12.469zm6.438 5.063c8.064-1.387 16.745-2.031 10.625-9.156-6.118-7.123-8.039 1.395-10.625 9.156zm4.031 7.094c7.978 1.805 16.239 4.577 13.313-4.344-2.923-8.912-7.96-1.832-13.313 4.344zm.969 8.156c6.677 4.719 13.259 10.389 13.969 1.031.71-9.363-6.652-4.69-13.969-1.031zm-2.188 7.844c4.369 6.921 8.258 14.727 12.5 6.344 4.237-8.374-4.344-6.925-12.5-6.344zm-5.063 6.438c1.387 8.064 2.031 16.776 9.156 10.656 7.123-6.118-1.395-8.07-9.156-10.656zm-7.125 4.031c-1.805 7.976-4.543 16.238 4.375 13.313 8.925-2.928 1.807-7.951-4.375-13.313zm-8.125.969c-2.574 3.643-5.42 7.251-5.969 9.906v1.625c.372 1.332 1.816 2.232 4.938 2.469 9.369.711 4.691-6.679 1.031-14zm.563-29.313c.434.325.967.613 1.594.875-.436.106-.916.187-1.438.25-.521.063-.989.092-1.438.094-.374.277-.804.544-1.281.813-.455.257-.9.453-1.313.625-.24.399-.537.819-.875 1.25-.323.412-.653.745-.969 1.063.099-.665.113-1.246.063-1.781.549-.081 1.136-.262 1.781-.531.345-.573.592-1.113.75-1.625.535.134 1.149.189 1.844.188.532-.394.941-.811 1.281-1.219zm3.313.25c.276.459.653.932 1.125 1.406-.442-.069-.933-.172-1.438-.313-.506-.141-.928-.298-1.344-.469.649-.162 1.183-.375 1.656-.625zm1.188 1.438c.665.099 1.246.113 1.781.063.08.525.249 1.107.5 1.719-.388-.235-.8-.484-1.219-.813-.412-.323-.745-.653-1.063-.969zm2.313 1.813c.573.345 1.113.592 1.625.75-.134.535-.189 1.149-.188 1.844.394.532.811.941 1.219 1.281-.325.434-.613.967-.875 1.594-.106-.436-.187-.916-.25-1.438-.063-.521-.093-.989-.094-1.438-.277-.374-.544-.804-.813-1.281-.261-.464-.451-.893-.625-1.313zm1.781 5.531c.159.639.38 1.188.625 1.656-.459.276-.932.653-1.406 1.125.069-.442.172-.903.313-1.406.141-.507.298-.959.469-1.375zm-14.75 1.781c.264.361.556.763.813 1.219.257.455.453.9.625 1.313.399.24.788.537 1.219.875.412.323.776.653 1.094.969-.654-.098-1.253-.11-1.781-.063-.081-.549-.262-1.136-.531-1.781-.575-.345-1.144-.592-1.656-.75.131-.522.217-1.108.219-1.781zm13.938 1.063c-.098.654-.11 1.253-.063 1.781-.532.078-1.097.245-1.719.5.235-.388.485-.769.813-1.188.323-.412.653-.776.969-1.094zm-1.813 2.313c-.345.575-.592 1.144-.75 1.656-.522-.131-1.108-.217-1.781-.219.361-.264.763-.556 1.219-.813.464-.261.893-.451 1.313-.625zm-8.313 1.031c.442.069.903.141 1.406.281.507.141.959.329 1.375.5-.639.159-1.188.349-1.656.594-.276-.459-.653-.9-1.125-1.375zm5.75.406c-.561.412-.993.823-1.344 1.25-.431-.319-.944-.617-1.563-.875.437-.106.916-.218 1.438-.281.532-.065 1.012-.094 1.469-.094z" stroke-width="1.617"/><path d="M55.416 570.418c24.413 6.075 1.681-73.059-15.786-54.954-17.467 18.105 62.43 37.986 55.484 13.806-6.946-24.18-64.112 35.073-39.699 41.148z" stroke-width="1.8599999999999999"/><path d="M143.524 519.069c-10.825 13.812 30.349 10.603 17.037 22.037-13.312 11.434-3.928-28.785-19.215-20.167-15.287 8.618 23.981 21.41 7.307 26.88-16.674 5.47 7.387-28.096-10.034-25.985-17.421 2.112 13.963 28.957-3.536 27.63-17.498-1.328 17.576-23.131.673-27.847-16.903-4.716 1.818 32.096-13.84 24.173-15.658-7.923 25.09-14.644 11.279-25.469-13.812-10.825-10.603 30.349-22.037 17.037-11.434-13.312 28.785-3.928 20.167-19.215-8.618-15.287-21.41 23.981-26.88 7.307-5.47-16.674 28.096 7.387 25.985-10.034-2.112-17.421-28.957 13.963-27.63-3.536 1.328-17.498 23.131 17.576 27.847.673 4.716-16.903-32.096 1.818-24.173-13.84 7.923-15.658 14.644 25.09 25.469 11.279 10.825-13.812-30.349-10.603-17.037-22.037 13.312-11.434 3.928 28.785 19.215 20.167 15.287-8.618-23.981-21.41-7.307-26.88 16.674-5.47-7.387 28.096 10.034 25.985 17.421-2.112-13.963-28.957 3.536-27.63 17.498 1.328-17.576 23.131-.673 27.847 16.903 4.716-1.818-32.096 13.84-24.173 15.658 7.923-25.09 14.644-11.279 25.469 13.812 10.825 10.603-30.349 22.037-17.037 11.434 13.312-28.785 3.928-20.167 19.215 8.618 15.287 21.41-23.981 26.88-7.307 5.47 16.674-28.096-7.387-25.985 10.034 2.112 17.421 28.957-13.963 27.63 3.536-1.328 17.498-23.131-17.576-27.847-.673-4.716 16.903 32.096-1.818 24.173 13.84-7.923 15.658-14.644-25.09-25.469-11.279z" stroke-width="1.62"/><path d="M50.047 617.788c-10.825 13.812 30.349 10.603 17.037 22.037-13.312 11.434-3.928-28.785-19.215-20.167-15.287 8.618 23.981 21.41 7.307 26.88-16.674 5.47 7.387-28.096-10.034-25.985-17.421 2.112 13.963 28.957-3.536 27.63-17.498-1.328 17.576-23.131.673-27.847-16.903-4.716 1.818 32.096-13.84 24.173-15.658-7.923 25.09-14.644 11.279-25.469-13.812-10.825-10.603 30.349-22.037 17.037-11.434-13.312 28.785-3.928 20.167-19.215-8.618-15.287-21.41 23.981-26.88 7.307-5.47-16.674 28.096 7.387 25.985-10.034-2.112-17.421-28.957 13.963-27.63-3.536 1.328-17.498 23.131 17.576 27.847.673 4.716-16.903-32.096 1.818-24.173-13.84 7.923-15.658 14.644 25.09 25.469 11.279 10.825-13.812-30.349-10.603-17.037-22.037 13.312-11.434 3.928 28.785 19.215 20.167 15.287-8.618-23.981-21.41-7.307-26.88 16.674-5.47-7.387 28.096 10.034 25.985 17.421-2.112-13.963-28.957 3.536-27.63 17.498 1.328-17.576 23.131-.673 27.847 16.903 4.716-1.818-32.096 13.84-24.173 15.658 7.923-25.09 14.644-11.279 25.469 13.812 10.825 10.603-30.349 22.037-17.037 11.434 13.312-28.785 3.928-20.167 19.215 8.618 15.287 21.41-23.981 26.88-7.307 5.47 16.674-28.096-7.387-25.985 10.034 2.112 17.421 28.957-13.963 27.63 3.536-1.328 17.498-23.131-17.576-27.847-.673-4.716 16.903 32.096-1.818 24.173 13.84-7.923 15.658-14.644-25.09-25.469-11.279z" stroke-width="1.62"/><path d="M91.76 699.151c24.413 6.075 1.681-73.059-15.786-54.954-17.467 18.105 62.43 37.986 55.484 13.806-6.946-24.18-64.112 35.073-39.699 41.148z" stroke-width="1.8599999999999999"/><path d="M189.363 596.606c24.413 6.075 1.681-73.059-15.786-54.954-17.467 18.105 62.43 37.986 55.484 13.806-6.946-24.18-64.112 35.073-39.699 41.148z" stroke-width="1.8599999999999999"/><path d="M177.422 644.129c-10.825 13.812 30.349 10.603 17.037 22.037-13.312 11.434-3.928-28.785-19.215-20.167-15.287 8.618 23.981 21.41 7.307 26.88-16.674 5.47 7.387-28.096-10.034-25.985-17.421 2.112 13.963 28.957-3.536 27.63-17.498-1.328 17.576-23.131.673-27.847-16.903-4.716 1.818 32.096-13.84 24.173-15.658-7.923 25.09-14.644 11.279-25.469-13.812-10.825-10.603 30.349-22.037 17.037-11.434-13.312 28.785-3.928 20.167-19.215-8.618-15.287-21.41 23.981-26.88 7.307-5.47-16.674 28.096 7.387 25.985-10.034-2.112-17.421-28.957 13.963-27.63-3.536 1.328-17.498 23.131 17.576 27.847.673 4.716-16.903-32.096 1.818-24.173-13.84 7.923-15.658 14.644 25.09 25.469 11.279 10.825-13.812-30.349-10.603-17.037-22.037 13.312-11.434 3.928 28.785 19.215 20.167 15.287-8.618-23.981-21.41-7.307-26.88 16.674-5.47-7.387 28.096 10.034 25.985 17.421-2.112-13.963-28.957 3.536-27.63 17.498 1.328-17.576 23.131-.673 27.847 16.903 4.716-1.818-32.096 13.84-24.173 15.658 7.923-25.09 14.644-11.279 25.469 13.812 10.825 10.603-30.349 22.037-17.037 11.434 13.312-28.785 3.928-20.167 19.215 8.618 15.287 21.41-23.981 26.88-7.307 5.47 16.674-28.096-7.387-25.985 10.034 2.112 17.421 28.957-13.963 27.63 3.536-1.328 17.498-23.131-17.576-27.847-.673-4.716 16.903 32.096-1.818 24.173 13.84-7.923 15.658-14.644-25.09-25.469-11.279z" stroke-width="1.62"/><path d="M281.98 547.742c-10.825 13.812 30.349 10.603 17.037 22.037-13.312 11.434-3.928-28.785-19.215-20.167-15.287 8.618 23.981 21.41 7.307 26.88-16.674 5.47 7.387-28.096-10.034-25.985-17.421 2.112 13.963 28.957-3.536 27.63-17.498-1.328 17.576-23.131.673-27.847-16.903-4.716 1.818 32.096-13.84 24.173-15.658-7.923 25.09-14.644 11.279-25.469-13.812-10.825-10.603 30.349-22.037 17.037-11.434-13.312 28.785-3.928 20.167-19.215-8.618-15.287-21.41 23.981-26.88 7.307-5.47-16.674 28.096 7.387 25.985-10.034-2.112-17.421-28.957 13.963-27.63-3.536 1.328-17.498 23.131 17.576 27.847.673 4.716-16.903-32.096 1.818-24.173-13.84 7.923-15.658 14.644 25.09 25.469 11.279 10.825-13.812-30.349-10.603-17.037-22.037 13.312-11.434 3.928 28.785 19.215 20.167 15.287-8.618-23.981-21.41-7.307-26.88 16.674-5.47-7.387 28.096 10.034 25.985 17.421-2.112-13.963-28.957 3.536-27.63 17.498 1.328-17.576 23.131-.673 27.847 16.903 4.716-1.818-32.096 13.84-24.173 15.658 7.923-25.09 14.644-11.279 25.469 13.812 10.825 10.603-30.349 22.037-17.037 11.434 13.312-28.785 3.928-20.167 19.215 8.618 15.287 21.41-23.981 26.88-7.307 5.47 16.674-28.096-7.387-25.985 10.034 2.112 17.421 28.957-13.963 27.63 3.536-1.328 17.498-23.131-17.576-27.847-.673-4.716 16.903 32.096-1.818 24.173 13.84-7.923 15.658-14.644-25.09-25.469-11.279z" stroke-width="1.62"/><path d="M324.996 630.948c24.413 6.075 1.681-73.059-15.786-54.954-17.467 18.105 62.43 37.986 55.484 13.806-6.946-24.18-64.112 35.073-39.699 41.148z" stroke-width="1.8599999999999999"/><path d="M413.104 579.599c-10.825 13.812 30.349 10.603 17.037 22.037-13.312 11.434-3.928-28.785-19.215-20.167-15.287 8.618 23.981 21.41 7.307 26.88-16.674 5.47 7.387-28.096-10.034-25.985-17.421 2.112 13.963 28.957-3.536 27.63-17.498-1.328 17.576-23.131.673-27.847-16.903-4.716 1.818 32.096-13.84 24.173-15.658-7.923 25.09-14.644 11.279-25.469-13.812-10.825-10.603 30.349-22.037 17.037-11.434-13.312 28.785-3.928 20.167-19.215-8.618-15.287-21.41 23.981-26.88 7.307-5.47-16.674 28.096 7.387 25.985-10.034-2.112-17.421-28.957 13.963-27.63-3.536 1.328-17.498 23.131 17.576 27.847.673 4.716-16.903-32.096 1.818-24.173-13.84 7.923-15.658 14.644 25.09 25.469 11.279 10.825-13.812-30.349-10.603-17.037-22.037 13.312-11.434 3.928 28.785 19.215 20.167 15.287-8.618-23.981-21.41-7.307-26.88 16.674-5.47-7.387 28.096 10.034 25.985 17.421-2.112-13.963-28.957 3.536-27.63 17.498 1.328-17.576 23.131-.673 27.847 16.903 4.716-1.818-32.096 13.84-24.173 15.658 7.923-25.09 14.644-11.279 25.469 13.812 10.825 10.603-30.349 22.037-17.037 11.434 13.312-28.785 3.928-20.167 19.215 8.618 15.287 21.41-23.981 26.88-7.307 5.47 16.674-28.096-7.387-25.985 10.034 2.112 17.421 28.957-13.963 27.63 3.536-1.328 17.498-23.131-17.576-27.847-.673-4.716 16.903 32.096-1.818 24.173 13.84-7.923 15.658-14.644-25.09-25.469-11.279z" stroke-width="1.62"/><path d="M319.627 678.318c-10.825 13.812 30.349 10.603 17.037 22.037-13.312 11.434-3.928-28.785-19.215-20.167-15.287 8.618 23.981 21.41 7.307 26.88-16.674 5.47 7.387-28.096-10.034-25.985-17.421 2.112 13.963 28.957-3.536 27.63-17.498-1.328 17.576-23.131.673-27.847-16.903-4.716 1.818 32.096-13.84 24.173-15.658-7.923 25.09-14.644 11.279-25.469-13.812-10.825-10.603 30.349-22.037 17.037-11.434-13.312 28.785-3.928 20.167-19.215-8.618-15.287-21.41 23.981-26.88 7.307-5.47-16.674 28.096 7.387 25.985-10.034-2.112-17.421-28.957 13.963-27.63-3.536 1.328-17.498 23.131 17.576 27.847.673 4.716-16.903-32.096 1.818-24.173-13.84 7.923-15.658 14.644 25.09 25.469 11.279 10.825-13.812-30.349-10.603-17.037-22.037 13.312-11.434 3.928 28.785 19.215 20.167 15.287-8.618-23.981-21.41-7.307-26.88 16.674-5.47-7.387 28.096 10.034 25.985 17.421-2.112-13.963-28.957 3.536-27.63 17.498 1.328-17.576 23.131-.673 27.847 16.903 4.716-1.818-32.096 13.84-24.173 15.658 7.923-25.09 14.644-11.279 25.469 13.812 10.825 10.603-30.349 22.037-17.037 11.434 13.312-28.785 3.928-20.167 19.215 8.618 15.287 21.41-23.981 26.88-7.307 5.47 16.674-28.096-7.387-25.985 10.034 2.112 17.421 28.957-13.963 27.63 3.536-1.328 17.498-23.131-17.576-27.847-.673-4.716 16.903 32.096-1.818 24.173 13.84-7.923 15.658-14.644-25.09-25.469-11.279z" stroke-width="1.62"/><path d="M361.34 759.681c24.413 6.075 1.681-73.059-15.786-54.954-17.467 18.105 62.43 37.986 55.484 13.806-6.946-24.18-64.112 35.073-39.699 41.148z" stroke-width="1.8599999999999999"/><path d="M458.943 657.135c24.413 6.075 1.681-73.059-15.786-54.954-17.467 18.105 62.43 37.986 55.484 13.806-6.946-24.18-64.112 35.073-39.699 41.148z" stroke-width="1.8599999999999999"/><path d="M447.001 704.659c-10.825 13.812 30.349 10.603 17.037 22.037-13.312 11.434-3.928-28.785-19.215-20.167-15.287 8.618 23.981 21.41 7.307 26.88-16.674 5.47 7.387-28.096-10.034-25.985-17.421 2.112 13.963 28.957-3.536 27.63-17.498-1.328 17.576-23.131.673-27.847-16.903-4.716 1.818 32.096-13.84 24.173-15.658-7.923 25.09-14.644 11.279-25.469-13.812-10.825-10.603 30.349-22.037 17.037-11.434-13.312 28.785-3.928 20.167-19.215-8.618-15.287-21.41 23.981-26.88 7.307-5.47-16.674 28.096 7.387 25.985-10.034-2.112-17.421-28.957 13.963-27.63-3.536 1.328-17.498 23.131 17.576 27.847.673 4.716-16.903-32.096 1.818-24.173-13.84 7.923-15.658 14.644 25.09 25.469 11.279 10.825-13.812-30.349-10.603-17.037-22.037 13.312-11.434 3.928 28.785 19.215 20.167 15.287-8.618-23.981-21.41-7.307-26.88 16.674-5.47-7.387 28.096 10.034 25.985 17.421-2.112-13.963-28.957 3.536-27.63 17.498 1.328-17.576 23.131-.673 27.847 16.903 4.716-1.818-32.096 13.84-24.173 15.658 7.923-25.09 14.644-11.279 25.469 13.812 10.825 10.603-30.349 22.037-17.037 11.434 13.312-28.785 3.928-20.167 19.215 8.618 15.287 21.41-23.981 26.88-7.307 5.47 16.674-28.096-7.387-25.985 10.034 2.112 17.421 28.957-13.963 27.63 3.536-1.328 17.498-23.131-17.576-27.847-.673-4.716 16.903 32.096-1.818 24.173 13.84-7.923 15.658-14.644-25.09-25.469-11.279z" stroke-width="1.62"/><path d="M223.931 731.313c24.413 6.075 1.681-73.059-15.786-54.954-17.467 18.105 62.43 37.986 55.484 13.806-6.946-24.18-64.112 35.073-39.699 41.148z" stroke-width="1.8599999999999999"/><path d="M218.562 778.683c-10.825 13.812 30.349 10.603 17.037 22.037-13.312 11.434-3.928-28.785-19.215-20.167-15.287 8.618 23.981 21.41 7.307 26.88-16.674 5.47 7.387-28.096-10.034-25.985-17.421 2.112 13.963 28.957-3.536 27.63-17.498-1.328 17.576-23.131.673-27.847-16.903-4.716 1.818 32.096-13.84 24.173-15.658-7.923 25.09-14.644 11.279-25.469-13.812-10.825-10.603 30.349-22.037 17.037-11.434-13.312 28.785-3.928 20.167-19.215-8.618-15.287-21.41 23.981-26.88 7.307-5.47-16.674 28.096 7.387 25.985-10.034-2.112-17.421-28.957 13.963-27.63-3.536 1.328-17.498 23.131 17.576 27.847.673 4.716-16.903-32.096 1.818-24.173-13.84 7.923-15.658 14.644 25.09 25.469 11.279 10.825-13.812-30.349-10.603-17.037-22.037 13.312-11.434 3.928 28.785 19.215 20.167 15.287-8.618-23.981-21.41-7.307-26.88 16.674-5.47-7.387 28.096 10.034 25.985 17.421-2.112-13.963-28.957 3.536-27.63 17.498 1.328-17.576 23.131-.673 27.847 16.903 4.716-1.818-32.096 13.84-24.173 15.658 7.923-25.09 14.644-11.279 25.469 13.812 10.825 10.603-30.349 22.037-17.037 11.434 13.312-28.785 3.928-20.167 19.215 8.618 15.287 21.41-23.981 26.88-7.307 5.47 16.674-28.096-7.387-25.985 10.034 2.112 17.421 28.957-13.963 27.63 3.536-1.328 17.498-23.131-17.576-27.847-.673-4.716 16.903 32.096-1.818 24.173 13.84-7.923 15.658-14.644-25.09-25.469-11.279z" stroke-width="1.62"/><path d="M260.275 860.046c24.413 6.075 1.681-73.059-15.786-54.954-17.467 18.105 62.43 37.986 55.484 13.806-6.946-24.18-64.112 35.073-39.699 41.148z" stroke-width="1.8599999999999999"/><path d="M352.448 809.546c-10.825 13.812 30.349 10.603 17.037 22.037-13.312 11.434-3.928-28.785-19.215-20.167-15.287 8.618 23.981 21.41 7.307 26.88-16.674 5.47 7.387-28.096-10.034-25.985-17.421 2.112 13.963 28.957-3.536 27.63-17.498-1.328 17.576-23.131.673-27.847-16.903-4.716 1.818 32.096-13.84 24.173-15.658-7.923 25.09-14.644 11.279-25.469-13.812-10.825-10.603 30.349-22.037 17.037-11.434-13.312 28.785-3.928 20.167-19.215-8.618-15.287-21.41 23.981-26.88 7.307-5.47-16.674 28.096 7.387 25.985-10.034-2.112-17.421-28.957 13.963-27.63-3.536 1.328-17.498 23.131 17.576 27.847.673 4.716-16.903-32.096 1.818-24.173-13.84 7.923-15.658 14.644 25.09 25.469 11.279 10.825-13.812-30.349-10.603-17.037-22.037 13.312-11.434 3.928 28.785 19.215 20.167 15.287-8.618-23.981-21.41-7.307-26.88 16.674-5.47-7.387 28.096 10.034 25.985 17.421-2.112-13.963-28.957 3.536-27.63 17.498 1.328-17.576 23.131-.673 27.847 16.903 4.716-1.818-32.096 13.84-24.173 15.658 7.923-25.09 14.644-11.279 25.469 13.812 10.825 10.603-30.349 22.037-17.037 11.434 13.312-28.785 3.928-20.167 19.215 8.618 15.287 21.41-23.981 26.88-7.307 5.47 16.674-28.096-7.387-25.985 10.034 2.112 17.421 28.957-13.963 27.63 3.536-1.328 17.498-23.131-17.576-27.847-.673-4.716 16.903 32.096-1.818 24.173 13.84-7.923 15.658-14.644-25.09-25.469-11.279z" stroke-width="1.62"/><path d="M395.464 892.752c24.413 6.075 1.681-73.059-15.786-54.954-17.467 18.105 62.43 37.986 55.484 13.806-6.946-24.18-64.112 35.073-39.699 41.148z" stroke-width="1.8599999999999999"/><path d="M341.624 451.472c-.238.955-.097 2.273.5 4.094 2.881 8.783 7.766 2.015 13.031-4.094h-13.531zm15 0c1.873.397 3.687.697 5.313.75-.961 1.712-1.73 3.879-2.469 6.094 2.3-.396 4.539-.84 6.375-1.531-.233 1.956-.135 4.258.031 6.594 1.975-1.246 3.876-2.534 5.313-3.875.531 1.89 1.518 3.974 2.563 6.063 1.351-1.912 2.657-3.832 3.469-5.625 1.221 1.553 2.912 3.117 4.688 4.656.516-2.281.935-4.534 1-6.5 1.716.963 3.873 1.729 6.094 2.469-.394-2.293-.844-4.541-1.531-6.375 1.956.233 4.257.104 6.594-.063-.58-.919-1.183-1.808-1.781-2.656h-12.531c-.087.205-.158.397-.219.594-.535-.134-1.15-.189-1.844-.188-.532.394-.972.811-1.313 1.219-.442-.325-.988-.613-1.625-.875-.65.162-1.214.374-1.688.625-.269-.449-.637-.911-1.094-1.375h-15.344zm18.125.75c.451-.112.925-.184 1.469-.25.521-.063 1.02-.093 1.469-.094.187-.138.413-.27.625-.406h-6.219c.409.069.821.153 1.281.281.503.14.961.299 1.375.469zm19.313 1.906c4.365 6.918 8.261 14.722 12.5 6.344 4.237-8.374-4.344-6.925-12.5-6.344zm-5.063 6.438c1.387 8.064 2 16.745 9.125 10.625 7.123-6.118-1.364-8.039-9.125-10.625zm-7.094 4.031c-1.805 7.978-4.577 16.239 4.344 13.313 8.912-2.923 1.832-7.96-4.344-13.313zm-8.156.969c-4.721 6.681-10.426 13.258-1.063 13.969 9.369.711 4.723-6.647 1.063-13.969zm-7.875-2.188c-6.916 4.363-14.687 8.263-6.313 12.5 8.374 4.237 6.894-4.344 6.313-12.5zm-6.406-5.063c-8.068 1.388-16.78 2.027-10.656 9.156 6.123 7.128 8.067-1.391 10.656-9.156zm44.594-6.844c2.066 1.029 3.801 1.302 4.906 0h-4.906z" stroke-width="1.617"/><path d="M422.637 530.445c24.413 6.075 1.681-73.059-15.786-54.954-17.467 18.105 62.43 37.986 55.484 13.806-6.946-24.18-64.112 35.073-39.699 41.148z" stroke-width="1.8599999999999999"/><path d="M479.53 451.503c2.294 1.369 5.981 2.442 9.531 3.625-.21-1.219-.426-2.43-.625-3.625h-8.906zm9.531 3.625c.394 2.294.875 4.54 1.563 6.375-1.963-.238-4.276-.105-6.625.063 1.24 1.966 2.509 3.879 3.844 5.313-1.876.536-3.963 1.497-6.031 2.531 1.915 1.354 3.829 2.655 5.625 3.469-1.547 1.217-3.122 2.887-4.656 4.656 2.29.519 4.558.966 6.531 1.031-.964 1.717-1.759 3.871-2.5 6.094 2.31-.397 4.562-.837 6.406-1.531-.233 1.956-.135 4.258.031 6.594 1.975-1.246 3.876-2.534 5.313-3.875.532 1.894 1.516 3.969 2.563 6.063 1.354-1.916 2.656-3.829 3.469-5.625 1.221 1.553 2.912 3.117 4.688 4.656.516-2.281.935-4.534 1-6.5 1.716.963 3.873 1.729 6.094 2.469-.394-2.293-.844-4.541-1.531-6.375 1.956.233 4.257.104 6.594-.063-1.244-1.972-2.536-3.879-3.875-5.313 1.898-.533 3.965-1.513 6.063-2.563-1.913-1.352-3.832-2.625-5.625-3.438 1.548-1.217 3.122-2.886 4.656-4.656-2.29-.519-4.558-.998-6.531-1.063.959-1.715 1.762-3.879 2.5-6.094-2.305.396-4.566.869-6.406 1.563.232-1.952.135-4.262-.031-6.594-1.99 1.255-3.904 2.522-5.344 3.875-.413-1.468-1.075-3.075-1.844-4.688h-1.656c-.976 1.444-1.854 2.862-2.469 4.219-1.112-1.409-2.653-2.818-4.25-4.219h-.531c-.476 2.143-.876 4.244-.938 6.094-1.716-.963-3.873-1.729-6.094-2.469zm23.125-2.813l1.281-.813h-1.344l.063.813zm6.438 5.031c6.602-1.135 13.621-1.748 12.594-5.844h-10.625c-.665 1.824-1.299 3.834-1.969 5.844zm4.031 7.156c7.97 1.805 16.205 4.537 13.281-4.375-2.926-8.92-7.923-1.805-13.281 4.375zm.969 8.094c6.68 4.721 13.258 10.424 13.969 1.063.71-9.357-6.656-4.721-13.969-1.063zm-2.188 7.875c4.365 6.918 8.261 14.722 12.5 6.344 4.237-8.374-4.344-6.925-12.5-6.344zm-5.063 6.438c1.387 8.064 2 16.745 9.125 10.625 7.123-6.118-1.364-8.039-9.125-10.625zm-7.094 4.031c-1.805 7.978-4.577 16.239 4.344 13.313 8.912-2.923 1.832-7.96-4.344-13.313zm-8.156.969c-4.719 6.677-10.42 13.259-1.063 13.969 9.363.71 4.721-6.652 1.063-13.969zm-7.875-2.188c-6.916 4.363-14.687 8.263-6.313 12.5 8.374 4.237 6.894-4.344 6.313-12.5zm-6.438-5.063c-8.06 1.385-16.741 2.036-10.625 9.156 6.117 7.122 8.039-1.396 10.625-9.156zm-4.031-7.125c-7.97-1.805-16.205-4.537-13.281 4.375 2.926 8.92 7.923 1.805 13.281-4.375zm-.969-8.125c-6.677-4.719-13.259-10.389-13.969-1.031-.71 9.363 6.652 4.69 13.969 1.031zm2.188-7.844c-4.364-6.917-8.262-14.719-12.5-6.344-4.237 8.374 4.344 6.925 12.5 6.344zm17.719 1.031c.425.311.927.591 1.531.844-.436.106-.885.218-1.406.281-.532.065-1.043.094-1.5.094.554-.406 1.026-.797 1.375-1.219zm3.281.25c.276.459.653.9 1.125 1.375-.442-.069-.933-.141-1.438-.281-.507-.141-.959-.329-1.375-.5.649-.162 1.214-.344 1.688-.594zm-6.469.75c.522.131 1.108.217 1.781.219-.361.264-.733.556-1.188.813-.455.257-.9.453-1.313.625-.24.399-.537.788-.875 1.219-.323.412-.653.776-.969 1.094.098-.654.11-1.253.063-1.781.549-.081 1.136-.262 1.781-.531.345-.575.561-1.144.719-1.656zm7.656.656c.652.097 1.223.11 1.75.063.078.532.244 1.096.5 1.719-.378-.231-.781-.494-1.188-.813-.412-.323-.745-.653-1.063-.969zm2.25 1.813c.594.362 1.16.618 1.688.781-.131.521-.217 1.109-.219 1.781.406.556.829.993 1.25 1.344-.325.434-.613.967-.875 1.594-.106-.437-.218-.916-.281-1.438-.066-.543-.095-1.035-.094-1.5-.264-.361-.525-.764-.781-1.219-.264-.468-.512-.921-.688-1.344zm-12.5 1.563c-.069.442-.141.903-.281 1.406-.141.507-.329.959-.5 1.375-.159-.639-.38-1.188-.625-1.656.46-.276.931-.653 1.406-1.125zm-.781 2.844c.106.437.218.916.281 1.438.066.543.095 1.035.094 1.5.264.361.525.764.781 1.219.269.477.511.913.688 1.344.382.233.776.49 1.188.813.418.328.773.648 1.094.969.46.069.941.197 1.469.344.507.141.959.298 1.375.469-.65.162-1.214.374-1.688.625-.281-.468-.671-.953-1.156-1.438-.665-.099-1.278-.113-1.813-.063-.08-.522-.219-1.11-.469-1.719-.594-.362-1.159-.618-1.688-.781.131-.522.217-1.108.219-1.781-.416-.57-.818-1.02-1.25-1.375.319-.43.617-.945.875-1.563zm15.125 1.156c.159.639.38 1.188.625 1.656-.46.276-.931.653-1.406 1.125.069-.442.141-.903.281-1.406.141-.507.329-.959.5-1.375zm-.813 2.844c-.099.665-.113 1.246-.063 1.781-.549.081-1.136.262-1.781.531-.345.573-.561 1.113-.719 1.625-.535-.134-1.15-.189-1.844-.188-.532.394-.972.811-1.313 1.219-.428-.315-.951-.62-1.563-.875.436-.106.885-.187 1.406-.25.521-.063 1.02-.093 1.469-.094.374-.277.773-.544 1.25-.813.455-.257.9-.453 1.313-.625.24-.399.537-.819.875-1.25.323-.412.653-.745.969-1.063z" stroke-width="1.617"/><path d="M650.249 451.597c-1.341 5.27-.017 9.391 5.531 10.781 6.792 1.702 9.927-3.207 10.563-10.781h-16.094z" stroke-width="1.863"/><path d="M650.504 509.612c-10.825 13.812 30.349 10.603 17.037 22.037-13.312 11.434-3.928-28.785-19.215-20.167-15.287 8.618 23.981 21.41 7.307 26.88-16.674 5.47 7.387-28.096-10.034-25.985-17.421 2.112 13.963 28.957-3.536 27.63-17.498-1.328 17.576-23.131.673-27.847-16.903-4.716 1.818 32.096-13.84 24.173-15.658-7.923 25.09-14.644 11.279-25.469-13.812-10.825-10.603 30.349-22.037 17.037-11.434-13.312 28.785-3.928 20.167-19.215-8.618-15.287-21.41 23.981-26.88 7.307-5.47-16.674 28.096 7.387 25.985-10.034-2.112-17.421-28.957 13.963-27.63-3.536 1.328-17.498 23.131 17.576 27.847.673 4.716-16.903-32.096 1.818-24.173-13.84 7.923-15.658 14.644 25.09 25.469 11.279 10.825-13.812-30.349-10.603-17.037-22.037 13.312-11.434 3.928 28.785 19.215 20.167 15.287-8.618-23.981-21.41-7.307-26.88 16.674-5.47-7.387 28.096 10.034 25.985 17.421-2.112-13.963-28.957 3.536-27.63 17.498 1.328-17.576 23.131-.673 27.847 16.903 4.716-1.818-32.096 13.84-24.173 15.658 7.923-25.09 14.644-11.279 25.469 13.812 10.825 10.603-30.349 22.037-17.037 11.434 13.312-28.785 3.928-20.167 19.215 8.618 15.287 21.41-23.981 26.88-7.307 5.47 16.674-28.096-7.387-25.985 10.034 2.112 17.421 28.957-13.963 27.63 3.536-1.328 17.498-23.131-17.576-27.847-.673-4.716 16.903 32.096-1.818 24.173 13.84-7.923 15.658-14.644-25.09-25.469-11.279z" stroke-width="1.62"/><path d="M692.216 590.975c24.413 6.075 1.681-73.059-15.786-54.954-17.467 18.105 62.43 37.986 55.484 13.806-6.946-24.18-64.112 35.073-39.699 41.148z" stroke-width="1.8599999999999999"/><path d="M784.28 451.628c3.974 1.877 8.531 3.496 13.219 4.688-.459-1.588-.953-3.148-1.5-4.688h-11.719zm13.219 4.688l.188.563.406-.438-.594-.125zm.594.125c14.641 3.61 30.176 3.254 31.719-4.813h-26.625c-1.745 1.504-3.448 3.124-5.094 4.813zm-.406.438c-12.026 12.509-20.11 28.645-7.969 31.688 12.132 3.04 12.663-14.996 7.969-31.688z" stroke-width="1.863"/><path d="M777.878 535.953c-10.825 13.812 30.349 10.603 17.037 22.037-13.312 11.434-3.928-28.785-19.215-20.167-15.287 8.618 23.981 21.41 7.307 26.88-16.674 5.47 7.387-28.096-10.034-25.985-17.421 2.112 13.963 28.957-3.536 27.63-17.498-1.328 17.576-23.131.673-27.847-16.903-4.716 1.818 32.096-13.84 24.173-15.658-7.923 25.09-14.644 11.279-25.469-13.812-10.825-10.603 30.349-22.037 17.037-11.434-13.312 28.785-3.928 20.167-19.215-8.618-15.287-21.41 23.981-26.88 7.307-5.47-16.674 28.096 7.387 25.985-10.034-2.112-17.421-28.957 13.963-27.63-3.536 1.328-17.498 23.131 17.576 27.847.673 4.716-16.903-32.096 1.818-24.173-13.84 7.923-15.658 14.644 25.09 25.469 11.279 10.825-13.812-30.349-10.603-17.037-22.037 13.312-11.434 3.928 28.785 19.215 20.167 15.287-8.618-23.981-21.41-7.307-26.88 16.674-5.47-7.387 28.096 10.034 25.985 17.421-2.112-13.963-28.957 3.536-27.63 17.498 1.328-17.576 23.131-.673 27.847 16.903 4.716-1.818-32.096 13.84-24.173 15.658 7.923-25.09 14.644-11.279 25.469 13.812 10.825 10.603-30.349 22.037-17.037 11.434 13.312-28.785 3.928-20.167 19.215 8.618 15.287 21.41-23.981 26.88-7.307 5.47 16.674-28.096-7.387-25.985 10.034 2.112 17.421 28.957-13.963 27.63 3.536-1.328 17.498-23.131-17.576-27.847-.673-4.716 16.903 32.096-1.818 24.173 13.84-7.923 15.658-14.644-25.09-25.469-11.279z" stroke-width="1.62"/><path d="M554.808 562.607c24.413 6.075 1.681-73.059-15.786-54.954-17.467 18.105 62.43 37.986 55.484 13.806-6.946-24.18-64.112 35.073-39.699 41.148z" stroke-width="1.8599999999999999"/><path d="M549.439 609.977c-10.825 13.812 30.349 10.603 17.037 22.037-13.312 11.434-3.928-28.785-19.215-20.167-15.287 8.618 23.981 21.41 7.307 26.88-16.674 5.47 7.387-28.096-10.034-25.985-17.421 2.112 13.963 28.957-3.536 27.63-17.498-1.328 17.576-23.131.673-27.847-16.903-4.716 1.818 32.096-13.84 24.173-15.658-7.923 25.09-14.644 11.279-25.469-13.812-10.825-10.603 30.349-22.037 17.037-11.434-13.312 28.785-3.928 20.167-19.215-8.618-15.287-21.41 23.981-26.88 7.307-5.47-16.674 28.096 7.387 25.985-10.034-2.112-17.421-28.957 13.963-27.63-3.536 1.328-17.498 23.131 17.576 27.847.673 4.716-16.903-32.096 1.818-24.173-13.84 7.923-15.658 14.644 25.09 25.469 11.279 10.825-13.812-30.349-10.603-17.037-22.037 13.312-11.434 3.928 28.785 19.215 20.167 15.287-8.618-23.981-21.41-7.307-26.88 16.674-5.47-7.387 28.096 10.034 25.985 17.421-2.112-13.963-28.957 3.536-27.63 17.498 1.328-17.576 23.131-.673 27.847 16.903 4.716-1.818-32.096 13.84-24.173 15.658 7.923-25.09 14.644-11.279 25.469 13.812 10.825 10.603-30.349 22.037-17.037 11.434 13.312-28.785 3.928-20.167 19.215 8.618 15.287 21.41-23.981 26.88-7.307 5.47 16.674-28.096-7.387-25.985 10.034 2.112 17.421 28.957-13.963 27.63 3.536-1.328 17.498-23.131-17.576-27.847-.673-4.716 16.903 32.096-1.818 24.173 13.84-7.923 15.658-14.644-25.09-25.469-11.279z" stroke-width="1.62"/><path d="M712.871 767.52c-10.825 13.812 30.349 10.603 17.037 22.037-13.312 11.434-3.928-28.785-19.215-20.167-15.287 8.618 23.981 21.41 7.307 26.88-16.674 5.47 7.387-28.096-10.034-25.985-17.421 2.112 13.963 28.957-3.536 27.63-17.498-1.328 17.576-23.131.673-27.847-16.903-4.716 1.818 32.096-13.84 24.173-15.658-7.923 25.09-14.644 11.279-25.469-13.812-10.825-10.603 30.349-22.037 17.037-11.434-13.312 28.785-3.928 20.167-19.215-8.618-15.287-21.41 23.981-26.88 7.307-5.47-16.674 28.096 7.387 25.985-10.034-2.112-17.421-28.957 13.963-27.63-3.536 1.328-17.498 23.131 17.576 27.847.673 4.716-16.903-32.096 1.818-24.173-13.84 7.923-15.658 14.644 25.09 25.469 11.279 10.825-13.812-30.349-10.603-17.037-22.037 13.312-11.434 3.928 28.785 19.215 20.167 15.287-8.618-23.981-21.41-7.307-26.88 16.674-5.47-7.387 28.096 10.034 25.985 17.421-2.112-13.963-28.957 3.536-27.63 17.498 1.328-17.576 23.131-.673 27.847 16.903 4.716-1.818-32.096 13.84-24.173 15.658 7.923-25.09 14.644-11.279 25.469 13.812 10.825 10.603-30.349 22.037-17.037 11.434 13.312-28.785 3.928-20.167 19.215 8.618 15.287 21.41-23.981 26.88-7.307 5.47 16.674-28.096-7.387-25.985 10.034 2.112 17.421 28.957-13.963 27.63 3.536-1.328 17.498-23.131-17.576-27.847-.673-4.716 16.903 32.096-1.818 24.173 13.84-7.923 15.658-14.644-25.09-25.469-11.279z" stroke-width="1.62"/><path d="M154.562 451.472c-6.226 9.591-8.039 18.672.75 20.875 9.499 2.38 11.854-8.179 10.188-20.875h-10.938z" stroke-width="1.863"/><path d="M912.458 563.562c-10.825 13.812 30.349 10.603 17.037 22.037-13.312 11.434-3.928-28.785-19.215-20.167-15.287 8.618 23.981 21.41 7.307 26.88-16.674 5.47 7.387-28.096-10.034-25.985-17.421 2.112 13.963 28.957-3.536 27.63-17.498-1.328 17.576-23.131.673-27.847-16.903-4.716 1.818 32.096-13.84 24.173-15.658-7.923 25.09-14.644 11.279-25.469-13.812-10.825-10.603 30.349-22.037 17.037-11.434-13.312 28.785-3.928 20.167-19.215-8.618-15.287-21.41 23.981-26.88 7.307-5.47-16.674 28.096 7.387 25.985-10.034-2.112-17.421-28.957 13.963-27.63-3.536 1.328-17.498 23.131 17.576 27.847.673 4.716-16.903-32.096 1.818-24.173-13.84 7.923-15.658 14.644 25.09 25.469 11.279 10.825-13.812-30.349-10.603-17.037-22.037 13.312-11.434 3.928 28.785 19.215 20.167 15.287-8.618-23.981-21.41-7.307-26.88 16.674-5.47-7.387 28.096 10.034 25.985 17.421-2.112-13.963-28.957 3.536-27.63 17.498 1.328-17.576 23.131-.673 27.847 16.903 4.716-1.818-32.096 13.84-24.173 15.658 7.923-25.09 14.644-11.279 25.469 13.812 10.825 10.603-30.349 22.037-17.037 11.434 13.312-28.785 3.928-20.167 19.215 8.618 15.287 21.41-23.981 26.88-7.307 5.47 16.674-28.096-7.387-25.985 10.034 2.112 17.421 28.957-13.963 27.63 3.536-1.328 17.498-23.131-17.576-27.847-.673-4.716 16.903 32.096-1.818 24.173 13.84-7.923 15.658-14.644-25.09-25.469-11.279z" stroke-width="1.62"/><path d="M270.53 451.472c3.286 5.741 13.774 10.852 24.906 13.688-1.417-4.897-3.264-9.638-5.406-13.688h-19.5zm24.906 13.688l.156.563.406-.406-.563-.156zm.563.156c16.854 4.169 34.906 3.074 31.469-8.969-.688-2.412-1.879-3.984-3.438-4.875h-8.5c-6.032 2.069-13.288 7.435-19.531 13.844zm-.406.406c-12.018 12.507-20.042 28.677-7.906 31.719 12.141 3.043 12.612-15.017 7.906-31.719z" stroke-width="1.863"/><path d="M83.31 749.129c-10.825 13.812 30.349 10.603 17.037 22.037-13.312 11.434-3.928-28.785-19.215-20.167-15.287 8.618 23.981 21.41 7.307 26.88-16.674 5.47 7.387-28.096-10.034-25.985-17.421 2.112 13.963 28.957-3.536 27.63-17.498-1.328 17.576-23.131.673-27.847-16.903-4.716 1.818 32.096-13.84 24.173-15.658-7.923 25.09-14.644 11.279-25.469-13.812-10.825-10.603 30.349-22.037 17.037-11.434-13.312 28.785-3.928 20.167-19.215-8.618-15.287-21.41 23.981-26.88 7.307-5.47-16.674 28.096 7.387 25.985-10.034-2.112-17.421-28.957 13.963-27.63-3.536 1.328-17.498 23.131 17.576 27.847.673 4.716-16.903-32.096 1.818-24.173-13.84 7.923-15.658 14.644 25.09 25.469 11.279 10.825-13.812-30.349-10.603-17.037-22.037 13.312-11.434 3.928 28.785 19.215 20.167 15.287-8.618-23.981-21.41-7.307-26.88 16.674-5.47-7.387 28.096 10.034 25.985 17.421-2.112-13.963-28.957 3.536-27.63 17.498 1.328-17.576 23.131-.673 27.847 16.903 4.716-1.818-32.096 13.84-24.173 15.658 7.923-25.09 14.644-11.279 25.469 13.812 10.825 10.603-30.349 22.037-17.037 11.434 13.312-28.785 3.928-20.167 19.215 8.618 15.287 21.41-23.981 26.88-7.307 5.47 16.674-28.096-7.387-25.985 10.034 2.112 17.421 28.957-13.963 27.63 3.536-1.328 17.498-23.131-17.576-27.847-.673-4.716 16.903 32.096-1.818 24.173 13.84-7.923 15.658-14.644-25.09-25.469-11.279z" stroke-width="1.62"/><path d="M126.326 832.335c24.413 6.075 1.681-73.059-15.786-54.954-17.467 18.105 62.43 37.986 55.484 13.806-6.946-24.18-64.112 35.073-39.699 41.148z" stroke-width="1.8599999999999999"/><path d="M19.562 943.159c-7.326.192-3.008 7.11.438 14 4.719-6.677 10.42-13.259 1.063-13.969-.546-.041-1.046-.043-1.5-.031zm.438 14c-1.354 1.915-2.624 3.829-3.438 5.625-1.214-1.543-2.924-3.095-4.688-4.625-.515 2.279-.967 4.536-1.031 6.5-1.717-.964-3.871-1.759-6.094-2.5.397 2.311.868 4.561 1.563 6.406-1.962-.238-4.276-.136-6.625.031 1.256 1.992 2.553 3.902 3.906 5.344-1.363.383-2.85.987-4.344 1.688v2.063c1.298.863 2.588 1.658 3.813 2.219-1.276 1.01-2.541 2.384-3.813 3.813v1.063c2.025.441 3.999.786 5.75.844-.964 1.716-1.729 3.873-2.469 6.094 2.3-.396 4.539-.84 6.375-1.531-.233 1.956-.135 4.258.031 6.594 1.989-1.255 3.904-2.554 5.344-3.906.532 1.892 1.486 4.003 2.531 6.094 1.354-1.915 2.655-3.829 3.469-5.625 1.217 1.548 2.886 3.122 4.656 4.656.519-2.29.966-4.558 1.031-6.531 1.717.964 3.871 1.759 6.094 2.5-.397-2.31-.837-4.562-1.531-6.406 1.956.233 4.258.135 6.594-.031-1.246-1.975-2.534-3.876-3.875-5.313 1.894-.532 3.97-1.516 6.063-2.563-1.892-1.338-3.785-2.623-5.563-3.438 1.53-1.211 3.046-2.939 4.563-4.688-2.279-.515-4.536-.967-6.5-1.031.964-1.716 1.76-3.873 2.5-6.094-2.304.396-4.567.87-6.406 1.563.238-1.962.136-4.276-.031-6.625-1.99 1.255-3.904 2.554-5.344 3.906-.532-1.892-1.486-4.003-2.531-6.094zm7.875 2.188c6.916-4.363 14.687-8.263 6.313-12.5-8.374-4.237-6.894 4.344-6.313 12.5zm6.438 5.063c8.064-1.387 16.745-2 10.625-9.125-6.118-7.123-8.039 1.364-10.625 9.125zm4 7.125c7.98 1.805 16.271 4.549 13.344-4.375-2.929-8.928-7.98-1.808-13.344 4.375zm1 8.125c6.677 4.719 13.259 10.42 13.969 1.063.71-9.363-6.652-4.721-13.969-1.063zm-2.188 7.875c4.363 6.916 8.263 14.687 12.5 6.313 4.237-8.374-4.344-6.894-12.5-6.313zm-5.063 6.438c1.385 8.06 2.005 16.741 9.125 10.625 7.122-6.117-1.365-8.039-9.125-10.625zm-7.125 4.031c-1.805 7.97-4.537 16.205 4.375 13.281 8.92-2.926 1.805-7.923-4.375-13.281zm-8.125.969c-4.719 6.677-10.42 13.259-1.063 13.969 9.363.71 4.721-6.652 1.063-13.969zm-7.875-2.188c-4.144 2.614-8.583 5.048-9.688 7.5v2.188c.447.922 1.502 1.865 3.375 2.813 8.374 4.237 6.894-4.344 6.313-12.5zm-6.406-5.063c-1.098.189-2.199.384-3.281.563v8.344c1.199-2.308 2.203-5.67 3.281-8.906zm-2.844-23.125l-.438-.719v.75l.438-.031zm5.063-6.438c-1.099-6.395-1.735-13.183-5.5-12.656v10.813c1.734.617 3.621 1.218 5.5 1.844zm7.125-4c1.805-7.98 4.549-16.24-4.375-13.313-8.928 2.929-1.808 7.949 4.375 13.313zm5.531 11.469c.43.319.914.617 1.531.875-.429.103-.896.219-1.406.281-.532.065-1.043.094-1.5.094.561-.412 1.024-.823 1.375-1.25zm3.281.25c.276.46.653.931 1.125 1.406-.442-.069-.933-.141-1.438-.281-.517-.144-.984-.325-1.406-.5.672-.164 1.232-.368 1.719-.625zm-6.469.781c.522.131 1.108.217 1.781.219-.361.263-.733.525-1.188.781-.468.264-.921.512-1.344.688.362-.594.587-1.16.75-1.688zm7.656.656c.652.097 1.223.11 1.75.063.081.549.293 1.136.563 1.781.573.345 1.113.561 1.625.719-.131.521-.217 1.109-.219 1.781-.263-.361-.525-.733-.781-1.188-.257-.455-.453-.9-.625-1.313-.399-.24-.819-.537-1.25-.875-.412-.323-.745-.653-1.063-.969zm-8.438 1.031c-.231.378-.494.781-.813 1.188-.328.418-.648.773-.969 1.094-.069.46-.165.941-.313 1.469-.141.507-.329.959-.5 1.375-.162-.649-.375-1.214-.625-1.688.469-.281.952-.67 1.438-1.156.097-.652.11-1.254.063-1.781.532-.078 1.096-.244 1.719-.5zm12.156 3.344c.402.547.834.997 1.25 1.344-.319.431-.617.944-.875 1.563-.106-.436-.218-.885-.281-1.406-.065-.532-.094-1.043-.094-1.5zm-14.75 1.844c.106.436.218.885.281 1.406.065.532.094 1.043.094 1.5-.406-.553-.798-1.026-1.219-1.375.31-.424.592-.928.844-1.531zm15.125 1.125c.162.649.375 1.214.625 1.688-.46.276-.931.653-1.406 1.125.069-.442.141-.933.281-1.438.141-.507.329-.959.5-1.375zm-14.75 1.813c.263.361.525.733.781 1.188.264.468.512.921.688 1.344-.595-.363-1.159-.587-1.688-.75.131-.522.217-1.108.219-1.781zm13.938 1.063c-.097.652-.11 1.223-.063 1.75-.532.078-1.096.244-1.719.5.231-.378.494-.781.813-1.188.323-.412.653-.745.969-1.063zm-12.469 1.5c.378.231.781.494 1.188.813.418.328.773.648 1.094.969.46.069.941.165 1.469.313.507.141.959.329 1.375.5-.65.162-1.214.374-1.688.625-.281-.469-.67-.952-1.156-1.438-.652-.097-1.254-.11-1.781-.063-.078-.532-.244-1.096-.5-1.719zm10.656.75c-.362.594-.587 1.16-.75 1.688-.522-.131-1.108-.217-1.781-.219-.557.407-1.024.828-1.375 1.25-.43-.319-.945-.617-1.563-.875.436-.106.885-.218 1.406-.281.543-.066 1.066-.095 1.531-.094.361-.264.764-.525 1.219-.781.468-.264.889-.512 1.313-.688z" stroke-width="1.617"/><path d="M679.959 638.159c-10.825 13.812 30.349 10.603 17.037 22.037-13.312 11.434-3.928-28.785-19.215-20.167-15.287 8.618 23.981 21.41 7.307 26.88-16.674 5.47 7.387-28.096-10.034-25.985-17.421 2.112 13.963 28.957-3.536 27.63-17.498-1.328 17.576-23.131.673-27.847-16.903-4.716 1.818 32.096-13.84 24.173-15.658-7.923 25.09-14.644 11.279-25.469-13.812-10.825-10.603 30.349-22.037 17.037-11.434-13.312 28.785-3.928 20.167-19.215-8.618-15.287-21.41 23.981-26.88 7.307-5.47-16.674 28.096 7.387 25.985-10.034-2.112-17.421-28.957 13.963-27.63-3.536 1.328-17.498 23.131 17.576 27.847.673 4.716-16.903-32.096 1.818-24.173-13.84 7.923-15.658 14.644 25.09 25.469 11.279 10.825-13.812-30.349-10.603-17.037-22.037 13.312-11.434 3.928 28.785 19.215 20.167 15.287-8.618-23.981-21.41-7.307-26.88 16.674-5.47-7.387 28.096 10.034 25.985 17.421-2.112-13.963-28.957 3.536-27.63 17.498 1.328-17.576 23.131-.673 27.847 16.903 4.716-1.818-32.096 13.84-24.173 15.658 7.923-25.09 14.644-11.279 25.469 13.812 10.825 10.603-30.349 22.037-17.037 11.434 13.312-28.785 3.928-20.167 19.215 8.618 15.287 21.41-23.981 26.88-7.307 5.47 16.674-28.096-7.387-25.985 10.034 2.112 17.421 28.957-13.963 27.63 3.536-1.328 17.498-23.131-17.576-27.847-.673-4.716 16.903 32.096-1.818 24.173 13.84-7.923 15.658-14.644-25.09-25.469-11.279z" stroke-width="1.62"/><path d="M721.672 719.522c24.413 6.075 1.681-73.059-15.786-54.954-17.467 18.105 62.43 37.986 55.484 13.806-6.946-24.18-64.112 35.073-39.699 41.148z" stroke-width="1.8599999999999999"/><path d="M59.03 1002.472c-1.688.136-3.359.961-5 2.656-8.705 8.993 6.653 18.474 23.469 22.75-3.912-13.523-11.205-25.99-18.469-25.406zm18.469 25.406l.156.563.438-.438-.594-.125zm.594.125c16.837 4.152 34.84 3.06 31.406-8.969-3.434-12.03-19.297-3.448-31.406 8.969zm-.438.438c-7.975 8.3-14.197 18.199-13.938 24.813h15.969c1.553-6.273.526-15.737-2.031-24.813z" stroke-width="1.863"/><path d="M807.334 664.501c-10.825 13.812 30.349 10.603 17.037 22.037-13.312 11.434-3.928-28.785-19.215-20.167-15.287 8.618 23.981 21.41 7.307 26.88-16.674 5.47 7.387-28.096-10.034-25.985-17.421 2.112 13.963 28.957-3.536 27.63-17.498-1.328 17.576-23.131.673-27.847-16.903-4.716 1.818 32.096-13.84 24.173-15.658-7.923 25.09-14.644 11.279-25.469-13.812-10.825-10.603 30.349-22.037 17.037-11.434-13.312 28.785-3.928 20.167-19.215-8.618-15.287-21.41 23.981-26.88 7.307-5.47-16.674 28.096 7.387 25.985-10.034-2.112-17.421-28.957 13.963-27.63-3.536 1.328-17.498 23.131 17.576 27.847.673 4.716-16.903-32.096 1.818-24.173-13.84 7.923-15.658 14.644 25.09 25.469 11.279 10.825-13.812-30.349-10.603-17.037-22.037 13.312-11.434 3.928 28.785 19.215 20.167 15.287-8.618-23.981-21.41-7.307-26.88 16.674-5.47-7.387 28.096 10.034 25.985 17.421-2.112-13.963-28.957 3.536-27.63 17.498 1.328-17.576 23.131-.673 27.847 16.903 4.716-1.818-32.096 13.84-24.173 15.658 7.923-25.09 14.644-11.279 25.469 13.812 10.825 10.603-30.349 22.037-17.037 11.434 13.312-28.785 3.928-20.167 19.215 8.618 15.287 21.41-23.981 26.88-7.307 5.47 16.674-28.096-7.387-25.985 10.034 2.112 17.421 28.957-13.963 27.63 3.536-1.328 17.498-23.131-17.576-27.847-.673-4.716 16.903 32.096-1.818 24.173 13.84-7.923 15.658-14.644-25.09-25.469-11.279z" stroke-width="1.62"/><path d="M162.443 1011.147c-10.825 13.812 30.349 10.603 17.037 22.037-13.312 11.434-3.928-28.785-19.215-20.167-15.287 8.618 23.981 21.41 7.307 26.88-16.674 5.47 7.387-28.096-10.034-25.985-17.421 2.112 13.963 28.957-3.536 27.63-17.498-1.328 17.576-23.131.673-27.847-16.903-4.716 1.818 32.096-13.84 24.173-15.658-7.923 25.09-14.644 11.279-25.469-13.812-10.825-10.603 30.349-22.037 17.037-11.434-13.312 28.785-3.928 20.167-19.215-8.618-15.287-21.41 23.981-26.88 7.307-5.47-16.674 28.096 7.387 25.985-10.034-2.112-17.421-28.957 13.963-27.63-3.536 1.328-17.498 23.131 17.576 27.847.673 4.716-16.903-32.096 1.818-24.173-13.84 7.923-15.658 14.644 25.09 25.469 11.279 10.825-13.812-30.349-10.603-17.037-22.037 13.312-11.434 3.928 28.785 19.215 20.167 15.287-8.618-23.981-21.41-7.307-26.88 16.674-5.47-7.387 28.096 10.034 25.985 17.421-2.112-13.963-28.957 3.536-27.63 17.498 1.328-17.576 23.131-.673 27.847 16.903 4.716-1.818-32.096 13.84-24.173 15.658 7.923-25.09 14.644-11.279 25.469 13.812 10.825 10.603-30.349 22.037-17.037 11.434 13.312-28.785 3.928-20.167 19.215 8.618 15.287 21.41-23.981 26.88-7.307 5.47 16.674-28.096-7.387-25.985 10.034 2.112 17.421 28.957-13.963 27.63 3.536-1.328 17.498-23.131-17.576-27.847-.673-4.716 16.903 32.096-1.818 24.173 13.84-7.923 15.658-14.644-25.09-25.469-11.279z" stroke-width="1.62"/><path d="M194.655 1036.815c-1.688.136-3.359.961-5 2.656-4.581 4.732-2.488 9.611 2.969 13.781h17.344c-4.074-9.57-9.711-16.888-15.313-16.438zm43.125 10.781c-3.795.08-8.541 2.286-13.406 5.656h20.75c-1.206-4.067-3.886-5.73-7.344-5.656z" stroke-width="1.863"/><path d="M289.124 1003.69c-7.326.192-2.977 7.11.469 14 4.719-6.677 10.389-13.259 1.031-13.969-.546-.041-1.046-.043-1.5-.031zm.469 14c-1.354 1.915-2.655 3.829-3.469 5.625-1.217-1.548-2.886-3.122-4.656-4.656-.519 2.29-.966 4.558-1.031 6.531-1.717-.964-3.871-1.76-6.094-2.5.397 2.31.837 4.562 1.531 6.406-1.956-.233-4.258-.135-6.594.031 1.246 1.975 2.534 3.876 3.875 5.313-1.894.532-3.97 1.516-6.063 2.563 1.892 1.338 3.785 2.623 5.563 3.438-1.531 1.211-3.045 2.938-4.563 4.688 2.261.511 4.518.963 6.469 1.031-.963 1.716-1.729 3.873-2.469 6.094 2.293-.394 4.541-.844 6.375-1.531-.095.799-.121 1.639-.125 2.531h17.125c.042-.425.081-.847.094-1.25.799.447 1.705.865 2.656 1.25h3.219c-.349-1.873-.773-3.642-1.344-5.156 1.952.232 4.262.135 6.594-.031-1.255-1.989-2.523-3.904-3.875-5.344 1.892-.532 4.003-1.486 6.094-2.531-1.909-1.349-3.803-2.654-5.594-3.469 1.527-1.212 3.08-2.911 4.594-4.656-2.284-.517-4.532-.966-6.5-1.031.963-1.716 1.729-3.873 2.469-6.094-2.293.394-4.541.844-6.375 1.531.233-1.956.104-4.257-.063-6.594-1.959 1.237-3.884 2.513-5.313 3.844-.536-1.876-1.497-3.963-2.531-6.031zm7.844 2.188c6.921-4.369 14.727-8.258 6.344-12.5-8.374-4.237-6.925 4.344-6.344 12.5zm6.438 5.063c8.064-1.387 16.776-2 10.656-9.125-6.118-7.123-8.07 1.364-10.656 9.125zm4.031 7.125c7.976 1.805 16.238 4.543 13.313-4.375-2.928-8.925-7.951-1.807-13.313 4.375zm1 8.125c6.674 4.718 13.259 10.416 13.969 1.063.71-9.363-6.652-4.721-13.969-1.063zm-2.219 7.875c1.123 1.78 2.238 3.582 3.313 5.188h9.719c2.868-7.075-5.27-5.74-13.031-5.188zm-34.594 4.188c-1.959.337-3.906.65-5.719 1h5.375l.344-1zm-4-7.125c-7.986-1.805-16.273-4.555-13.344 4.375.651 1.985 1.41 3.166 2.25 3.75h2.969c2.42-1.223 5.235-4.793 8.125-8.125zm-1-8.125c-6.677-4.72-13.259-10.42-13.969-1.063-.71 9.363 6.652 4.721 13.969 1.063zm2.188-7.875c-4.363-6.916-8.263-14.687-12.5-6.313-4.237 8.374 4.344 6.894 12.5 6.313zm5.063-6.438c-1.385-8.06-2.036-16.741-9.156-10.625-7.122 6.117 1.396 8.039 9.156 10.625zm7.125-4.031c1.805-7.97 4.537-16.205-4.375-13.281-8.92 2.926-1.805 7.923 4.375 13.281zm5.469 11.5c.434.325.967.613 1.594.875-.437.106-.916.218-1.438.281-.543.066-1.035.095-1.5.094-.361.264-.764.525-1.219.781-.477.269-.913.511-1.344.688-.233.382-.49.776-.813 1.188-.323.412-.653.745-.969 1.063.099-.664.113-1.246.063-1.781.524-.08 1.108-.218 1.719-.469.362-.594.618-1.159.781-1.688.522.131 1.108.217 1.781.219.556-.406.993-.829 1.344-1.25zm3.313.25c.276.46.653.931 1.125 1.406-.442-.069-.903-.141-1.406-.281-.507-.141-.959-.329-1.375-.5.639-.159 1.188-.38 1.656-.625zm1.188 1.438c.654.098 1.253.11 1.781.062.081.549.262 1.136.531 1.781.575.345 1.144.561 1.656.719-.131.522-.217 1.108-.219 1.781-.264-.361-.556-.733-.813-1.188-.257-.455-.453-.9-.625-1.313-.399-.24-.788-.537-1.219-.875-.412-.323-.776-.653-1.094-.969zm-10.219 3.344c-.069.442-.172.933-.313 1.438-.141.507-.298.959-.469 1.375-.162-.649-.375-1.214-.625-1.688.459-.276.932-.653 1.406-1.125zm13.969 1.031c.406.554.797 1.026 1.219 1.375-.311.425-.591.927-.844 1.531-.106-.436-.218-.885-.281-1.406-.065-.532-.094-1.043-.094-1.5zm-14.75 1.844c.106.436.187.885.25 1.406.063.521.093 1.02.094 1.469.277.374.544.773.813 1.25.257.455.453.9.625 1.313.399.24.819.537 1.25.875.412.323.745.653 1.063.969-.665-.099-1.246-.113-1.781-.062-.081-.549-.262-1.136-.531-1.781-.573-.345-1.113-.561-1.625-.719.134-.535.189-1.15.188-1.844-.394-.532-.811-.973-1.219-1.313.319-.431.617-.944.875-1.563zm15.125 1.125c.162.649.344 1.214.594 1.688-.459.276-.9.653-1.375 1.125.069-.443.141-.933.281-1.438.141-.507.329-.959.5-1.375zm-.813 2.875c-.097.652-.11 1.223-.063 1.75-.532.078-1.096.244-1.719.5.231-.378.494-.781.813-1.188.323-.412.653-.745.969-1.063zm-1.813 2.25c-.362.594-.618 1.16-.781 1.688-.522-.131-1.108-.217-1.781-.219-.556.406-.993.829-1.344 1.25-.434-.325-.967-.613-1.594-.875.437-.106.916-.218 1.438-.281.543-.066 1.035-.095 1.5-.094.361-.264.764-.525 1.219-.781.468-.264.921-.512 1.344-.688zm-8.344 1.063c.442.069.903.141 1.406.281.507.141.959.329 1.375.5-.649.162-1.183.375-1.656.625-.276-.46-.653-.931-1.125-1.406z" stroke-width="1.617"/><path d="M487.308 845.109c-10.825 13.812 30.349 10.603 17.037 22.037-13.312 11.434-3.928-28.785-19.215-20.167-15.287 8.618 23.981 21.41 7.307 26.88-16.674 5.47 7.387-28.096-10.034-25.985-17.421 2.112 13.963 28.957-3.536 27.63-17.498-1.328 17.576-23.131.673-27.847-16.903-4.716 1.818 32.096-13.84 24.173-15.658-7.923 25.09-14.644 11.279-25.469-13.812-10.825-10.603 30.349-22.037 17.037-11.434-13.312 28.785-3.928 20.167-19.215-8.618-15.287-21.41 23.981-26.88 7.307-5.47-16.674 28.096 7.387 25.985-10.034-2.112-17.421-28.957 13.963-27.63-3.536 1.328-17.498 23.131 17.576 27.847.673 4.716-16.903-32.096 1.818-24.173-13.84 7.923-15.658 14.644 25.09 25.469 11.279 10.825-13.812-30.349-10.603-17.037-22.037 13.312-11.434 3.928 28.785 19.215 20.167 15.287-8.618-23.981-21.41-7.307-26.88 16.674-5.47-7.387 28.096 10.034 25.985 17.421-2.112-13.963-28.957 3.536-27.63 17.498 1.328-17.576 23.131-.673 27.847 16.903 4.716-1.818-32.096 13.84-24.173 15.658 7.923-25.09 14.644-11.279 25.469 13.812 10.825 10.603-30.349 22.037-17.037 11.434 13.312-28.785 3.928-20.167 19.215 8.618 15.287 21.41-23.981 26.88-7.307 5.47 16.674-28.096-7.387-25.985 10.034 2.112 17.421 28.957-13.963 27.63 3.536-1.328 17.498-23.131-17.576-27.847-.673-4.716 16.903 32.096-1.818 24.173 13.84-7.923 15.658-14.644-25.09-25.469-11.279z" stroke-width="1.62"/><path d="M592.336 693.145c24.413 6.075 1.681-73.059-15.786-54.954-17.467 18.105 62.43 37.986 55.484 13.806-6.946-24.18-64.112 35.073-39.699 41.148z" stroke-width="1.8599999999999999"/><path d="M825.377 615.053c24.413 6.075 1.681-73.059-15.786-54.954-17.467 18.105 62.43 37.986 55.484 13.806-6.946-24.18-64.112 35.073-39.699 41.148z" stroke-width="1.8599999999999999"/><path d="M621.514 874.378c-10.825 13.812 30.349 10.603 17.037 22.037-13.312 11.434-3.928-28.785-19.215-20.167-15.287 8.618 23.981 21.41 7.307 26.88-16.674 5.47 7.387-28.096-10.034-25.985-17.421 2.112 13.963 28.957-3.536 27.63-17.498-1.328 17.576-23.131.673-27.847-16.903-4.716 1.818 32.096-13.84 24.173-15.658-7.923 25.09-14.644 11.279-25.469-13.812-10.825-10.603 30.349-22.037 17.037-11.434-13.312 28.785-3.928 20.167-19.215-8.618-15.287-21.41 23.981-26.88 7.307-5.47-16.674 28.096 7.387 25.985-10.034-2.112-17.421-28.957 13.963-27.63-3.536 1.328-17.498 23.131 17.576 27.847.673 4.716-16.903-32.096 1.818-24.173-13.84 7.923-15.658 14.644 25.09 25.469 11.279 10.825-13.812-30.349-10.603-17.037-22.037 13.312-11.434 3.928 28.785 19.215 20.167 15.287-8.618-23.981-21.41-7.307-26.88 16.674-5.47-7.387 28.096 10.034 25.985 17.421-2.112-13.963-28.957 3.536-27.63 17.498 1.328-17.576 23.131-.673 27.847 16.903 4.716-1.818-32.096 13.84-24.173 15.658 7.923-25.09 14.644-11.279 25.469 13.812 10.825 10.603-30.349 22.037-17.037 11.434 13.312-28.785 3.928-20.167 19.215 8.618 15.287 21.41-23.981 26.88-7.307 5.47 16.674-28.096-7.387-25.985 10.034 2.112 17.421 28.957-13.963 27.63 3.536-1.328 17.498-23.131-17.576-27.847-.673-4.716 16.903 32.096-1.818 24.173 13.84-7.923 15.658-14.644-25.09-25.469-11.279z" stroke-width="1.62"/><path d="M853.843 751.684c24.413 6.075 1.681-73.059-15.786-54.954-17.467 18.105 62.43 37.986 55.484 13.806-6.946-24.18-64.112 35.073-39.699 41.148z" stroke-width="1.8599999999999999"/><path d="M848.474 799.054c-10.825 13.812 30.349 10.603 17.037 22.037-13.312 11.434-3.928-28.785-19.215-20.167-15.287 8.618 23.981 21.41 7.307 26.88-16.674 5.47 7.387-28.096-10.034-25.985-17.421 2.112 13.963 28.957-3.536 27.63-17.498-1.328 17.576-23.131.673-27.847-16.903-4.716 1.818 32.096-13.84 24.173-15.658-7.923 25.09-14.644 11.279-25.469-13.812-10.825-10.603 30.349-22.037 17.037-11.434-13.312 28.785-3.928 20.167-19.215-8.618-15.287-21.41 23.981-26.88 7.307-5.47-16.674 28.096 7.387 25.985-10.034-2.112-17.421-28.957 13.963-27.63-3.536 1.328-17.498 23.131 17.576 27.847.673 4.716-16.903-32.096 1.818-24.173-13.84 7.923-15.658 14.644 25.09 25.469 11.279 10.825-13.812-30.349-10.603-17.037-22.037 13.312-11.434 3.928 28.785 19.215 20.167 15.287-8.618-23.981-21.41-7.307-26.88 16.674-5.47-7.387 28.096 10.034 25.985 17.421-2.112-13.963-28.957 3.536-27.63 17.498 1.328-17.576 23.131-.673 27.847 16.903 4.716-1.818-32.096 13.84-24.173 15.658 7.923-25.09 14.644-11.279 25.469 13.812 10.825 10.603-30.349 22.037-17.037 11.434 13.312-28.785 3.928-20.167 19.215 8.618 15.287 21.41-23.981 26.88-7.307 5.47 16.674-28.096-7.387-25.985 10.034 2.112 17.421 28.957-13.963 27.63 3.536-1.328 17.498-23.131-17.576-27.847-.673-4.716 16.903 32.096-1.818 24.173 13.84-7.923 15.658-14.644-25.09-25.469-11.279z" stroke-width="1.62"/><path d="M491.271 793.51c24.413 6.075 1.681-73.059-15.786-54.954-17.467 18.105 62.43 37.986 55.484 13.806-6.946-24.18-64.112 35.073-39.699 41.148z" stroke-width="1.8599999999999999"/><path d="M583.444 743.011c-10.825 13.812 30.349 10.603 17.037 22.037-13.312 11.434-3.928-28.785-19.215-20.167-15.287 8.618 23.981 21.41 7.307 26.88-16.674 5.47 7.387-28.096-10.034-25.985-17.421 2.112 13.963 28.957-3.536 27.63-17.498-1.328 17.576-23.131.673-27.847-16.903-4.716 1.818 32.096-13.84 24.173-15.658-7.923 25.09-14.644 11.279-25.469-13.812-10.825-10.603 30.349-22.037 17.037-11.434-13.312 28.785-3.928 20.167-19.215-8.618-15.287-21.41 23.981-26.88 7.307-5.47-16.674 28.096 7.387 25.985-10.034-2.112-17.421-28.957 13.963-27.63-3.536 1.328-17.498 23.131 17.576 27.847.673 4.716-16.903-32.096 1.818-24.173-13.84 7.923-15.658 14.644 25.09 25.469 11.279 10.825-13.812-30.349-10.603-17.037-22.037 13.312-11.434 3.928 28.785 19.215 20.167 15.287-8.618-23.981-21.41-7.307-26.88 16.674-5.47-7.387 28.096 10.034 25.985 17.421-2.112-13.963-28.957 3.536-27.63 17.498 1.328-17.576 23.131-.673 27.847 16.903 4.716-1.818-32.096 13.84-24.173 15.658 7.923-25.09 14.644-11.279 25.469 13.812 10.825 10.603-30.349 22.037-17.037 11.434 13.312-28.785 3.928-20.167 19.215 8.618 15.287 21.41-23.981 26.88-7.307 5.47 16.674-28.096-7.387-25.985 10.034 2.112 17.421 28.957-13.963 27.63 3.536-1.328 17.498-23.131-17.576-27.847-.673-4.716 16.903 32.096-1.818 24.173 13.84-7.923 15.658-14.644-25.09-25.469-11.279z" stroke-width="1.62"/><path d="M626.46 826.217c24.413 6.075 1.681-73.059-15.786-54.954-17.467 18.105 62.43 37.986 55.484 13.806-6.946-24.18-64.112 35.073-39.699 41.148z" stroke-width="1.8599999999999999"/><path d="M261.387 912.487c-10.825 13.812 30.349 10.603 17.037 22.037-13.312 11.434-3.928-28.785-19.215-20.167-15.287 8.618 23.981 21.41 7.307 26.88-16.674 5.47 7.387-28.096-10.034-25.985-17.421 2.112 13.963 28.957-3.536 27.63-17.498-1.328 17.576-23.131.673-27.847-16.903-4.716 1.818 32.096-13.84 24.173-15.658-7.923 25.09-14.644 11.279-25.469-13.812-10.825-10.603 30.349-22.037 17.037-11.434-13.312 28.785-3.928 20.167-19.215-8.618-15.287-21.41 23.981-26.88 7.307-5.47-16.674 28.096 7.387 25.985-10.034-2.112-17.421-28.957 13.963-27.63-3.536 1.328-17.498 23.131 17.576 27.847.673 4.716-16.903-32.096 1.818-24.173-13.84 7.923-15.658 14.644 25.09 25.469 11.279 10.825-13.812-30.349-10.603-17.037-22.037 13.312-11.434 3.928 28.785 19.215 20.167 15.287-8.618-23.981-21.41-7.307-26.88 16.674-5.47-7.387 28.096 10.034 25.985 17.421-2.112-13.963-28.957 3.536-27.63 17.498 1.328-17.576 23.131-.673 27.847 16.903 4.716-1.818-32.096 13.84-24.173 15.658 7.923-25.09 14.644-11.279 25.469 13.812 10.825 10.603-30.349 22.037-17.037 11.434 13.312-28.785 3.928-20.167 19.215 8.618 15.287 21.41-23.981 26.88-7.307 5.47 16.674-28.096-7.387-25.985 10.034 2.112 17.421 28.957-13.963 27.63 3.536-1.328 17.498-23.131-17.576-27.847-.673-4.716 16.903 32.096-1.818 24.173 13.84-7.923 15.658-14.644-25.09-25.469-11.279z" stroke-width="1.62"/><path d="M303.099 993.85c24.413 6.075 1.681-73.059-15.786-54.954-17.467 18.105 62.43 37.986 55.484 13.806-6.946-24.18-64.112 35.073-39.699 41.148z" stroke-width="1.8599999999999999"/><path d="M388.761 938.828c-10.825 13.812 30.349 10.603 17.037 22.037-13.312 11.434-3.928-28.785-19.215-20.167-15.287 8.618 23.981 21.41 7.307 26.88-16.674 5.47 7.387-28.096-10.034-25.985-17.421 2.112 13.963 28.957-3.536 27.63-17.498-1.328 17.576-23.131.673-27.847-16.903-4.716 1.818 32.096-13.84 24.173-15.658-7.923 25.09-14.644 11.279-25.469-13.812-10.825-10.603 30.349-22.037 17.037-11.434-13.312 28.785-3.928 20.167-19.215-8.618-15.287-21.41 23.981-26.88 7.307-5.47-16.674 28.096 7.387 25.985-10.034-2.112-17.421-28.957 13.963-27.63-3.536 1.328-17.498 23.131 17.576 27.847.673 4.716-16.903-32.096 1.818-24.173-13.84 7.923-15.658 14.644 25.09 25.469 11.279 10.825-13.812-30.349-10.603-17.037-22.037 13.312-11.434 3.928 28.785 19.215 20.167 15.287-8.618-23.981-21.41-7.307-26.88 16.674-5.47-7.387 28.096 10.034 25.985 17.421-2.112-13.963-28.957 3.536-27.63 17.498 1.328-17.576 23.131-.673 27.847 16.903 4.716-1.818-32.096 13.84-24.173 15.658 7.923-25.09 14.644-11.279 25.469 13.812 10.825 10.603-30.349 22.037-17.037 11.434 13.312-28.785 3.928-20.167 19.215 8.618 15.287 21.41-23.981 26.88-7.307 5.47 16.674-28.096-7.387-25.985 10.034 2.112 17.421 28.957-13.963 27.63 3.536-1.328 17.498-23.131-17.576-27.847-.673-4.716 16.903 32.096-1.818 24.173 13.84-7.923 15.658-14.644-25.09-25.469-11.279z" stroke-width="1.62"/><path d="M536.336 925.647c24.413 6.075 1.681-73.059-15.786-54.954-17.467 18.105 62.43 37.986 55.484 13.806-6.946-24.18-64.112 35.073-39.699 41.148z" stroke-width="1.8599999999999999"/><path d="M530.966 973.017c-10.825 13.812 30.349 10.603 17.037 22.037-13.312 11.434-3.928-28.785-19.215-20.167-15.287 8.618 23.981 21.41 7.307 26.88-16.674 5.47 7.387-28.096-10.034-25.985-17.421 2.112 13.963 28.957-3.536 27.63-17.498-1.328 17.576-23.131.673-27.847-16.903-4.716 1.818 32.096-13.84 24.173-15.658-7.923 25.09-14.644 11.279-25.469-13.812-10.825-10.603 30.349-22.037 17.037-11.434-13.312 28.785-3.928 20.167-19.215-8.618-15.287-21.41 23.981-26.88 7.307-5.47-16.674 28.096 7.387 25.985-10.034-2.112-17.421-28.957 13.963-27.63-3.536 1.328-17.498 23.131 17.576 27.847.673 4.716-16.903-32.096 1.818-24.173-13.84 7.923-15.658 14.644 25.09 25.469 11.279 10.825-13.812-30.349-10.603-17.037-22.037 13.312-11.434 3.928 28.785 19.215 20.167 15.287-8.618-23.981-21.41-7.307-26.88 16.674-5.47-7.387 28.096 10.034 25.985 17.421-2.112-13.963-28.957 3.536-27.63 17.498 1.328-17.576 23.131-.673 27.847 16.903 4.716-1.818-32.096 13.84-24.173 15.658 7.923-25.09 14.644-11.279 25.469 13.812 10.825 10.603-30.349 22.037-17.037 11.434 13.312-28.785 3.928-20.167 19.215 8.618 15.287 21.41-23.981 26.88-7.307 5.47 16.674-28.096-7.387-25.985 10.034 2.112 17.421 28.957-13.963 27.63 3.536-1.328 17.498-23.131-17.576-27.847-.673-4.716 16.903 32.096-1.818 24.173 13.84-7.923 15.658-14.644-25.09-25.469-11.279z" stroke-width="1.62"/><path d="M562.749 996.815c-1.969-.111-3.96.709-5.875 2.688-8.699 8.986 6.667 18.438 23.469 22.719-3.762-12.988-10.619-25.013-17.594-25.406zm17.594 25.406l.156.594.438-.438-.594-.156zm.594.156c16.846 4.16 34.873 3.067 31.438-8.969-3.434-12.031-19.328-3.449-31.438 8.969zm-.438.438c-10.837 11.278-18.445 25.517-10.938 30.438h9.938c5.143-4.501 4.55-17.837 1-30.438z" stroke-width="1.863"/><path d="M670.282 951.835c24.413 6.075 1.681-73.059-15.786-54.954-17.467 18.105 62.43 37.986 55.484 13.806-6.946-24.18-64.112 35.073-39.699 41.148z" stroke-width="1.8599999999999999"/><path d="M658.341 999.358c-10.825 13.812 30.349 10.603 17.037 22.037-13.312 11.434-3.928-28.785-19.215-20.167-15.287 8.618 23.981 21.41 7.307 26.88-16.674 5.47 7.387-28.096-10.034-25.985-17.421 2.112 13.963 28.957-3.536 27.63-17.498-1.328 17.576-23.131.673-27.847-16.903-4.716 1.818 32.096-13.84 24.173-15.658-7.923 25.09-14.644 11.279-25.469-13.812-10.825-10.603 30.349-22.037 17.037-11.434-13.312 28.785-3.928 20.167-19.215-8.618-15.287-21.41 23.981-26.88 7.307-5.47-16.674 28.096 7.387 25.985-10.034-2.112-17.421-28.957 13.963-27.63-3.536 1.328-17.498 23.131 17.576 27.847.673 4.716-16.903-32.096 1.818-24.173-13.84 7.923-15.658 14.644 25.09 25.469 11.279 10.825-13.812-30.349-10.603-17.037-22.037 13.312-11.434 3.928 28.785 19.215 20.167 15.287-8.618-23.981-21.41-7.307-26.88 16.674-5.47-7.387 28.096 10.034 25.985 17.421-2.112-13.963-28.957 3.536-27.63 17.498 1.328-17.576 23.131-.673 27.847 16.903 4.716-1.818-32.096 13.84-24.173 15.658 7.923-25.09 14.644-11.279 25.469 13.812 10.825 10.603-30.349 22.037-17.037 11.434 13.312-28.785 3.928-20.167 19.215 8.618 15.287 21.41-23.981 26.88-7.307 5.47 16.674-28.096-7.387-25.985 10.034 2.112 17.421 28.957-13.963 27.63 3.536-1.328 17.498-23.131-17.576-27.847-.673-4.716 16.903 32.096-1.818 24.173 13.84-7.923 15.658-14.644-25.09-25.469-11.279z" stroke-width="1.62"/><path d="M435.271 1026.012c24.413 6.075 1.681-73.059-15.786-54.954-17.467 18.105 62.43 37.986 55.484 13.806-6.946-24.18-64.112 35.073-39.699 41.148z" stroke-width="1.8599999999999999"/><path d="M425.468 1034.065c-7.321.192-3.007 7.114.438 14 4.721-6.68 10.424-13.258 1.063-13.969-.546-.041-1.046-.043-1.5-.031zm.438 14c-1.242 1.757-2.407 3.522-3.219 5.188h5.469c-.557-1.648-1.366-3.42-2.25-5.188zm-9.813-12.906c-.743.055-1.616.253-2.656.594-8.92 2.926-1.805 7.923 4.375 13.281 1.594-7.04 3.901-14.291-1.719-13.875zm1.719 13.875c-.325 1.436-.622 2.868-.813 4.219h5.125c-1.182-1.407-2.706-2.826-4.313-4.219zm18.313-12.375c-3.82.354-2.806 7.103-2.344 13.594 6.917-4.364 14.719-8.262 6.344-12.5-1.71-.865-3.02-1.185-4-1.094zm-2.344 13.594c-1.541.972-3.047 1.972-4.313 3h4.469c-.024-.979-.084-1.982-.156-3zm-28.219-9.875c-1.045.011-2.37.636-4.031 2.063-7.123 6.118 1.364 8.07 9.125 10.656-1.064-6.187-1.653-12.756-5.094-12.719zm5.094 12.719l.031.156h.438l-.469-.156zm36.156-9.594c-2.758-.033-4.28 4.712-5.906 9.75h9.094c3.066-1.189 4.228-3.123.844-7.063-1.605-1.869-2.916-2.674-4.031-2.688zm-50.063 6.063c-1.197.116-2.389 1.183-3.625 3.625l-.031.062h8.5c-1.631-2.27-3.229-3.843-4.844-3.688z" stroke-width="1.617"/><path d="M.812 817.503c-.633-.019-1.142.144-1.563.406v12.469c6.56-4.064 13.018-7.756 5.125-11.75-1.465-.742-2.643-1.098-3.563-1.125zm10.281 6.875c-3.135-.037-4.717 6.088-6.625 11.813 8.064-1.387 16.776-2 10.656-9.125-1.605-1.869-2.916-2.674-4.031-2.688zm-6.625 11.813c-1.833.315-3.633.675-5.219 1.156v27.313c.963.377 1.973.72 3 1.063-.396-2.305-.869-4.535-1.563-6.375 1.952.233 4.261.103 6.594-.063-1.249-1.978-2.53-3.88-3.875-5.313 1.892-.532 4.003-1.486 6.094-2.531-1.915-1.354-3.829-2.655-5.625-3.469 1.541-1.216 3.128-2.894 4.656-4.656-2.294-.52-4.554-.966-6.531-1.031.964-1.716 1.729-3.873 2.469-6.094zm4.063 7.125c7.966 1.805 16.203 4.532 13.281-4.375-2.926-8.92-7.923-1.805-13.281 4.375zm.969 8.125c6.677 4.719 13.259 10.389 13.969 1.031.71-9.363-6.652-4.69-13.969-1.031zm-2.219 7.844c4.371 6.923 8.257 14.73 12.5 6.344 4.239-8.378-4.34-6.924-12.5-6.344zm-5.031 6.438c1.386 8.064 2.001 16.776 9.125 10.656 7.123-6.118-1.364-8.07-9.125-10.656zm-3 7.625v9.781l.25-.063c6.884-2.258 4.167-5.772-.25-9.719z" stroke-width="1.617"/><path d="M35.877 935.612c24.413 6.075 1.681-73.059-15.786-54.954-17.467 18.105 62.43 37.986 55.484 13.806-6.946-24.18-64.112 35.073-39.699 41.148z" stroke-width="1.8599999999999999"/><path d="M121.539 880.59c-10.825 13.812 30.349 10.603 17.037 22.037-13.312 11.434-3.928-28.785-19.215-20.167-15.287 8.618 23.981 21.41 7.307 26.88-16.674 5.47 7.387-28.096-10.034-25.985-17.421 2.112 13.963 28.957-3.536 27.63-17.498-1.328 17.576-23.131.673-27.847-16.903-4.716 1.818 32.096-13.84 24.173-15.658-7.923 25.09-14.644 11.279-25.469-13.812-10.825-10.603 30.349-22.037 17.037-11.434-13.312 28.785-3.928 20.167-19.215-8.618-15.287-21.41 23.981-26.88 7.307-5.47-16.674 28.096 7.387 25.985-10.034-2.112-17.421-28.957 13.963-27.63-3.536 1.328-17.498 23.131 17.576 27.847.673 4.716-16.903-32.096 1.818-24.173-13.84 7.923-15.658 14.644 25.09 25.469 11.279 10.825-13.812-30.349-10.603-17.037-22.037 13.312-11.434 3.928 28.785 19.215 20.167 15.287-8.618-23.981-21.41-7.307-26.88 16.674-5.47-7.387 28.096 10.034 25.985 17.421-2.112-13.963-28.957 3.536-27.63 17.498 1.328-17.576 23.131-.673 27.847 16.903 4.716-1.818-32.096 13.84-24.173 15.658 7.923-25.09 14.644-11.279 25.469 13.812 10.825 10.603-30.349 22.037-17.037 11.434 13.312-28.785 3.928-20.167 19.215 8.618 15.287 21.41-23.981 26.88-7.307 5.47 16.674-28.096-7.387-25.985 10.034 2.112 17.421 28.957-13.963 27.63 3.536-1.328 17.498-23.131-17.576-27.847-.673-4.716 16.903 32.096-1.818 24.173 13.84-7.923 15.658-14.644-25.09-25.469-11.279z" stroke-width="1.62"/><path d="M168.237 960.707c24.413 6.075 1.681-73.059-15.786-54.954-17.467 18.105 62.43 37.986 55.484 13.806-6.946-24.18-64.112 35.073-39.699 41.148z" stroke-width="1.8599999999999999"/><path d="M753.927 855.193c24.413 6.075 1.681-73.059-15.786-54.954-17.467 18.105 62.43 37.986 55.484 13.806-6.946-24.18-64.112 35.073-39.699 41.148z" stroke-width="1.8599999999999999"/><path d="M757.599 904.668c-10.825 13.812 30.349 10.603 17.037 22.037-13.312 11.434-3.928-28.785-19.215-20.167-15.287 8.618 23.981 21.41 7.307 26.88-16.674 5.47 7.387-28.096-10.034-25.985-17.421 2.112 13.963 28.957-3.536 27.63-17.498-1.328 17.576-23.131.673-27.847-16.903-4.716 1.818 32.096-13.84 24.173-15.658-7.923 25.09-14.644 11.279-25.469-13.812-10.825-10.603 30.349-22.037 17.037-11.434-13.312 28.785-3.928 20.167-19.215-8.618-15.287-21.41 23.981-26.88 7.307-5.47-16.674 28.096 7.387 25.985-10.034-2.112-17.421-28.957 13.963-27.63-3.536 1.328-17.498 23.131 17.576 27.847.673 4.716-16.903-32.096 1.818-24.173-13.84 7.923-15.658 14.644 25.09 25.469 11.279 10.825-13.812-30.349-10.603-17.037-22.037 13.312-11.434 3.928 28.785 19.215 20.167 15.287-8.618-23.981-21.41-7.307-26.88 16.674-5.47-7.387 28.096 10.034 25.985 17.421-2.112-13.963-28.957 3.536-27.63 17.498 1.328-17.576 23.131-.673 27.847 16.903 4.716-1.818-32.096 13.84-24.173 15.658 7.923-25.09 14.644-11.279 25.469 13.812 10.825 10.603-30.349 22.037-17.037 11.434 13.312-28.785 3.928-20.167 19.215 8.618 15.287 21.41-23.981 26.88-7.307 5.47 16.674-28.096-7.387-25.985 10.034 2.112 17.421 28.957-13.963 27.63 3.536-1.328 17.498-23.131-17.576-27.847-.673-4.716 16.903 32.096-1.818 24.173 13.84-7.923 15.658-14.644-25.09-25.469-11.279z" stroke-width="1.62"/><path d="M787.662 990.073c24.413 6.075 1.681-73.059-15.786-54.954-17.467 18.105 62.43 37.986 55.484 13.806-6.946-24.18-64.112 35.073-39.699 41.148z" stroke-width="1.8599999999999999"/><path d="M885.265 887.527c24.413 6.075 1.681-73.059-15.786-54.954-17.467 18.105 62.43 37.986 55.484 13.806-6.946-24.18-64.112 35.073-39.699 41.148z" stroke-width="1.8599999999999999"/><path d="M873.324 935.051c-10.825 13.812 30.349 10.603 17.037 22.037-13.312 11.434-3.928-28.785-19.215-20.167-15.287 8.618 23.981 21.41 7.307 26.88-16.674 5.47 7.387-28.096-10.034-25.985-17.421 2.112 13.963 28.957-3.536 27.63-17.498-1.328 17.576-23.131.673-27.847-16.903-4.716 1.818 32.096-13.84 24.173-15.658-7.923 25.09-14.644 11.279-25.469-13.812-10.825-10.603 30.349-22.037 17.037-11.434-13.312 28.785-3.928 20.167-19.215-8.618-15.287-21.41 23.981-26.88 7.307-5.47-16.674 28.096 7.387 25.985-10.034-2.112-17.421-28.957 13.963-27.63-3.536 1.328-17.498 23.131 17.576 27.847.673 4.716-16.903-32.096 1.818-24.173-13.84 7.923-15.658 14.644 25.09 25.469 11.279 10.825-13.812-30.349-10.603-17.037-22.037 13.312-11.434 3.928 28.785 19.215 20.167 15.287-8.618-23.981-21.41-7.307-26.88 16.674-5.47-7.387 28.096 10.034 25.985 17.421-2.112-13.963-28.957 3.536-27.63 17.498 1.328-17.576 23.131-.673 27.847 16.903 4.716-1.818-32.096 13.84-24.173 15.658 7.923-25.09 14.644-11.279 25.469 13.812 10.825 10.603-30.349 22.037-17.037 11.434 13.312-28.785 3.928-20.167 19.215 8.618 15.287 21.41-23.981 26.88-7.307 5.47 16.674-28.096-7.387-25.985 10.034 2.112 17.421 28.957-13.963 27.63 3.536-1.328 17.498-23.131-17.576-27.847-.673-4.716 16.903 32.096-1.818 24.173 13.84-7.923 15.658-14.644-25.09-25.469-11.279z" stroke-width="1.62"/><path d="M700.78 1015.909c-1.688.136-3.39.992-5.031 2.688-8.699 8.986 6.667 18.438 23.469 22.719-3.914-13.512-11.179-25.99-18.438-25.406zm18.438 25.406l.156.594.438-.438-.594-.156zm.594.156c16.845 4.16 34.873 3.067 31.438-8.969-3.434-12.031-19.328-3.449-31.438 8.969zm-.438.438c-3.471 3.612-6.582 7.527-9 11.344h11.344c-.454-3.681-1.272-7.538-2.344-11.344z" stroke-width="1.863"/><path d="M797.749 1002.19c-7.326.192-2.977 7.141.469 14.031 4.719-6.677 10.389-13.259 1.031-13.969-.546-.041-1.046-.074-1.5-.062zm.469 14.031c-1.354 1.916-2.656 3.829-3.469 5.625-1.221-1.553-2.911-3.117-4.688-4.656-.513 2.269-.932 4.541-1 6.5-1.716-.963-3.873-1.729-6.094-2.469.394 2.293.844 4.541 1.531 6.375-1.956-.233-4.258-.104-6.594.062 1.244 1.972 2.536 3.879 3.875 5.313-1.898.533-3.965 1.514-6.063 2.563 1.913 1.352 3.831 2.626 5.625 3.438-1.553 1.221-3.117 2.911-4.656 4.688 2.282.516 4.565.967 6.531 1.031-.957 1.712-1.763 3.883-2.5 6.094 2.306-.396 4.566-.869 6.406-1.563-.146 1.225-.142 2.611-.094 4.031h3.906c.564-.434 1.088-.867 1.563-1.313.12.427.246.868.406 1.313h5.125c.15-.289.309-.561.438-.844.219.277.472.566.719.844h4.719c.147-.949.253-1.859.281-2.719 1.712.957 3.883 1.732 6.094 2.469-.394-2.294-.875-4.54-1.563-6.375 1.952.233 4.261.103 6.594-.062-1.235-1.956-2.484-3.886-3.813-5.313 1.876-.536 3.963-1.497 6.031-2.531-1.915-1.354-3.829-2.655-5.625-3.469 1.541-1.216 3.128-2.894 4.656-4.656-2.294-.52-4.554-.966-6.531-1.031.963-1.716 1.729-3.873 2.469-6.094-2.293.394-4.541.844-6.375 1.531.233-1.956.104-4.258-.063-6.594-1.967 1.241-3.851 2.539-5.281 3.875-.532-1.894-1.516-3.97-2.563-6.063zm7.844 2.188c6.921-4.369 14.727-8.258 6.344-12.5-8.374-4.237-6.925 4.344-6.344 12.5zm6.438 5.063c8.064-1.387 16.776-2.031 10.656-9.156-6.118-7.123-8.07 1.395-10.656 9.156zm4.063 7.125c7.966 1.805 16.203 4.532 13.281-4.375-2.926-8.92-7.923-1.805-13.281 4.375zm.969 8.125c6.677 4.72 13.259 10.389 13.969 1.031.71-9.363-6.652-4.69-13.969-1.031zm-2.219 7.844c1.492 2.362 2.93 4.795 4.344 6.688h7.969l.188-.344c4.239-8.378-4.34-6.924-12.5-6.344zm-5.031 6.438l.031.25h.719l-.75-.25zm-29.563-2.219c-4.096.704-8.32 1.209-10.719 2.469h9.875c.268-.828.567-1.637.844-2.469zm-4.031-7.125c-7.978-1.805-16.239-4.546-13.313 4.375 2.923 8.912 7.96 1.8 13.313-4.375zm-.969-8.125c-6.68-4.721-13.258-10.424-13.969-1.063-.71 9.357 6.656 4.721 13.969 1.063zm2.188-7.875c-4.365-6.918-8.261-14.722-12.5-6.344-4.237 8.374 4.344 6.925 12.5 6.344zm5.063-6.438c-1.387-8.064-2.031-16.745-9.156-10.625-7.123 6.118 1.395 8.039 9.156 10.625zm7.094-4.031c1.805-7.978 4.577-16.239-4.344-13.313-8.912 2.923-1.832 7.96 4.344 13.313zm5.531 11.5c.43.319.945.617 1.563.875-.436.106-.916.187-1.438.25-.521.063-.989.092-1.438.094-.374.277-.804.544-1.281.813-.464.261-.893.451-1.313.625.345-.574.592-1.113.75-1.625.535.134 1.149.189 1.844.188.533-.395.972-.81 1.313-1.219zm3.313.25c.276.459.622.932 1.094 1.406-.442-.069-.903-.172-1.406-.313-.507-.141-.959-.298-1.375-.469.65-.162 1.214-.374 1.688-.625zm1.156 1.438c.654.098 1.253.11 1.781.062.078.532.245 1.097.5 1.719.595.363 1.159.618 1.688.781-.131.522-.217 1.108-.219 1.781-.264-.361-.556-.763-.813-1.219-.269-.477-.48-.913-.656-1.344-.382-.233-.776-.49-1.188-.813-.412-.323-.776-.653-1.094-.969zm-8.406 1c-.235.388-.484.8-.813 1.219-.323.412-.653.745-.969 1.063.099-.664.113-1.246.063-1.781.532-.078 1.097-.244 1.719-.5zm-1.813 2.344c-.069.443-.172.933-.313 1.438-.141.506-.298.928-.469 1.344-.162-.649-.375-1.183-.625-1.656.459-.276.932-.653 1.406-1.125zm13.969 1.031c.411.561.823.993 1.25 1.344-.319.431-.617.944-.875 1.563-.106-.437-.218-.916-.281-1.438-.065-.532-.094-1.012-.094-1.469zm-14.75 1.813c.106.436.187.916.25 1.438.063.521.092.989.094 1.438.277.374.544.804.813 1.281.257.455.453.9.625 1.313.399.24.819.537 1.25.875.412.323.745.653 1.063.969-.665-.099-1.246-.113-1.781-.062-.081-.549-.262-1.136-.531-1.781-.573-.345-1.113-.592-1.625-.75.134-.535.189-1.149.188-1.844-.394-.532-.811-.941-1.219-1.281.325-.434.613-.967.875-1.594zm15.125 1.156c.159.639.38 1.188.625 1.656-.466.277-.924.646-1.406 1.125.069-.442.141-.903.281-1.406.141-.507.329-.959.5-1.375zm-.813 2.844c-.098.654-.11 1.253-.063 1.781-.549.081-1.136.262-1.781.531-.346.575-.592 1.143-.75 1.656-.522-.131-1.108-.217-1.781-.219.361-.264.763-.556 1.219-.813.455-.257.9-.453 1.313-.625.24-.399.537-.788.875-1.219.323-.412.653-.776.969-1.094zm-10.156 3.344c.442.069.933.141 1.438.281.507.141.928.329 1.344.5-.649.162-1.183.344-1.656.594-.276-.459-.653-.9-1.125-1.375zm5.75.406c-.561.411-.993.823-1.344 1.25-.431-.319-.944-.617-1.563-.875.437-.106.916-.218 1.438-.281.532-.064 1.012-.094 1.469-.094z" stroke-width="1.617"/><path d="M910.687 960.565c-1.688.136-3.359.961-5 2.656-8.699 8.986 6.667 18.438 23.469 22.719-3.914-13.512-11.21-25.958-18.469-25.375zm18.469 25.375l.156.594.438-.438-.594-.156zm.594.156c13.226 3.266 27.152 3.31 30.875-2.656v-7.781c-4.319-9.749-19.311-1.42-30.875 10.438zm-.438.438c-12.018 12.507-20.074 28.677-7.938 31.719 12.141 3.043 12.643-15.017 7.938-31.719z" stroke-width="1.863"/><path d="M842.405 1051.753c-1.223.098-2.451.604-3.656 1.5h8.594c-1.619-1.081-3.282-1.633-4.938-1.5z" stroke-width="1.863"/><path d="M937.437 1032.19c-7.326.192-2.977 7.11.469 14 4.719-6.677 10.389-13.259 1.031-13.969-.546-.041-1.046-.043-1.5-.031zm.469 14c-1.354 1.915-2.655 3.829-3.469 5.625-1.216-1.541-2.894-3.128-4.656-4.656-.483 2.131-.891 4.222-1 6.094h17.156c.039-1.532-.068-3.197-.188-4.875-1.989 1.255-3.905 2.554-5.344 3.906-.532-1.892-1.454-4.003-2.5-6.094zm7.844 2.188c6.917-4.364 14.719-8.231 6.344-12.469-8.368-4.234-6.926 4.318-6.344 12.469zm-15.969-1.219c1.805-7.966 4.532-16.203-4.375-13.281-8.92 2.926-1.805 7.923 4.375 13.281zm-12.469-8.656c-1.014.081-2.254.724-3.813 2.063-7.128 6.123 1.391 8.067 9.156 10.656-1.083-6.3-1.722-13.009-5.344-12.719zm5.344 12.719c.117.681.243 1.368.375 2.031h4.844c-1.552-.76-3.356-1.41-5.219-2.031zm36.063-9.563c-3.065.028-4.601 5.96-6.469 11.594h1.063c2.617-.43 5.238-.82 7.313-1.406v-9.531c-.692-.449-1.332-.661-1.906-.656zm-50.125 6.031c-1.156.176-2.307 1.267-3.5 3.625-.364.719-.629 1.357-.813 1.938h10.563c-2.114-3.276-4.182-5.878-6.25-5.563z" stroke-width="1.617"/><path d="M21.749 749.565c-6.182.131-14.913 5.839-22.5 13.219v1.906c16.376 3.712 33.205 2.352 29.875-9.313-1.187-4.16-3.881-5.887-7.375-5.813zm-22.5 24.156v16c1.084-4.22.97-9.927 0-16z" stroke-width="1.863"/><path d="M878.749 451.597c-2.767 7.921 10.866 15.684 25.625 19.438-2.162-7.473-5.347-14.634-9-19.438h-16.625zm25.625 19.438l.156.563.438-.438-.594-.125zm.594.125c16.837 4.151 34.84 3.06 31.406-8.969-3.434-12.031-19.297-3.449-31.406 8.969zm-.438.438c-12.017 12.506-20.073 28.646-7.938 31.688 12.141 3.043 12.643-14.986 7.938-31.688z" stroke-width="1.863"/><path d="M941.655 600.19c-1.969-.111-3.929.709-5.844 2.688-8.699 8.986 6.667 18.438 23.469 22.719-3.762-12.988-10.65-25.013-17.625-25.406zm17.625 25.406l.156.594.438-.438-.594-.156zm.594.156l.75.188v-.938l-.75.75zm-.438.438c-12.018 12.507-20.074 28.677-7.938 31.719 4.578 1.147 7.51-.726 9.125-4.375v-22.594c-.346-1.586-.742-3.169-1.188-4.75z" stroke-width="1.863"/><path d="M940.249 668.472c-7.326.192-3.008 7.11.438 14 4.719-6.677 10.42-13.259 1.063-13.969-.546-.041-1.046-.043-1.5-.031zm.438 14c-1.354 1.915-2.655 3.829-3.469 5.625-1.217-1.547-2.887-3.122-4.656-4.656-.519 2.29-.966 4.558-1.031 6.531-1.717-.964-3.871-1.759-6.094-2.5.397 2.31.837 4.562 1.531 6.406-1.956-.233-4.258-.135-6.594.031 1.246 1.975 2.534 3.876 3.875 5.313-1.894.532-3.97 1.516-6.063 2.563 1.892 1.338 3.785 2.623 5.563 3.438-1.535 1.215-3.072 2.932-4.594 4.688 2.29.519 4.558.966 6.531 1.031-.964 1.716-1.76 3.873-2.5 6.094 2.304-.396 4.567-.839 6.406-1.531-.233 1.956-.135 4.258.031 6.594 1.99-1.255 3.904-2.554 5.344-3.906.532 1.892 1.486 4.003 2.531 6.094 1.354-1.915 2.624-3.829 3.438-5.625 1.22 1.551 2.914 3.119 4.688 4.656.518-2.289.966-4.559 1.031-6.531 1.717.964 3.871 1.759 6.094 2.5-.397-2.311-.868-4.561-1.563-6.406 1.962.238 4.276.136 6.625-.031-1.256-1.992-2.553-3.902-3.906-5.344 1.892-.532 4.003-1.486 6.094-2.531-1.892-1.338-3.785-2.623-5.563-3.438 1.53-1.211 3.046-2.939 4.563-4.688-2.283-.517-4.533-.967-6.5-1.031.964-1.716 1.729-3.873 2.469-6.094-2.304.396-4.536.839-6.375 1.531.233-1.956.135-4.258-.031-6.594-1.989 1.255-3.904 2.554-5.344 3.906-.532-1.892-1.486-4.003-2.531-6.094zm7.875 2.188c6.916-4.363 14.687-8.263 6.313-12.5-8.374-4.237-6.894 4.344-6.313 12.5zm6.406 5.063c2.016-.347 4.052-.668 5.906-1.031v-10.688c-2.667.826-4.149 6.446-5.906 11.719zm4.031 7.125c.628.142 1.249.29 1.875.438v-2.594c-.619.726-1.244 1.429-1.875 2.156zm1 8.125l.875.625v-1.063l-.875.438zm-2.188 7.875c1.049 1.663 2.057 3.349 3.063 4.875v-5.125c-1.017.08-2.032.177-3.063.25zm-5.063 6.438c1.317 7.664 1.943 15.88 8.125 11.406v-8.531c-2.251-1.031-5.232-1.911-8.125-2.875zm-7.125 4.031c-1.805 7.971-4.538 16.205 4.375 13.281 8.915-2.925 1.802-7.926-4.375-13.281zm-8.125.969c-4.719 6.677-10.42 13.259-1.063 13.969 9.363.71 4.721-6.652 1.063-13.969zm-7.875-2.188c-6.916 4.363-14.687 8.263-6.313 12.5 8.374 4.237 6.894-4.344 6.313-12.5zm-6.438-5.063c-8.064 1.387-16.745 2-10.625 9.125 6.118 7.123 8.039-1.364 10.625-9.125zm-4.031-7.125c-7.97-1.805-16.236-4.537-13.313 4.375 2.926 8.92 7.954 1.805 13.313-4.375zm-.969-8.125c-6.677-4.719-13.259-10.42-13.969-1.063-.71 9.363 6.652 4.721 13.969 1.063zm2.188-7.875c-4.363-6.916-8.263-14.687-12.5-6.313-4.237 8.374 4.344 6.894 12.5 6.313zm5.063-6.438c-1.385-8.06-2.005-16.741-9.125-10.625-7.122 6.117 1.365 8.039 9.125 10.625zm7.125-4.031c1.805-7.97 4.537-16.205-4.375-13.281-8.92 2.926-1.805 7.923 4.375 13.281zm5.5 11.5c.43.319.945.617 1.563.875-.436.106-.885.218-1.406.281-.543.066-1.066.095-1.531.094-.361.264-.764.525-1.219.781-.468.264-.889.512-1.313.688.362-.594.587-1.16.75-1.688.522.131 1.108.217 1.781.219.557-.407 1.024-.828 1.375-1.25zm3.313.25c.281.469.67.952 1.156 1.438.654.098 1.253.11 1.781.063.078.532.244 1.096.5 1.719-.378-.231-.781-.494-1.188-.813-.418-.328-.773-.648-1.094-.969-.46-.069-.941-.165-1.469-.313-.507-.141-.959-.329-1.375-.5.65-.162 1.214-.374 1.688-.625zm-7.25 2.469c-.231.378-.494.781-.813 1.188-.328.418-.648.773-.969 1.094-.069.46-.165.941-.313 1.469-.141.507-.329.959-.5 1.375-.162-.649-.375-1.214-.625-1.688.469-.281.952-.67 1.438-1.156.097-.652.11-1.254.063-1.781.532-.078 1.096-.244 1.719-.5zm10.688.781c.595.363 1.159.587 1.688.75-.131.522-.217 1.108-.219 1.781-.263-.361-.525-.733-.781-1.188-.264-.468-.512-.921-.688-1.344zm1.469 2.563c.406.553.798 1.026 1.219 1.375-.31.424-.592.928-.844 1.531-.106-.436-.218-.885-.281-1.406-.065-.532-.094-1.043-.094-1.5zm-14.75 1.844c.106.436.218.885.281 1.406.065.532.094 1.043.094 1.5-.402-.547-.834-.997-1.25-1.344.319-.431.617-.944.875-1.563zm15.125 1.125c.162.649.375 1.214.625 1.688-.46.276-.931.653-1.406 1.125.069-.442.141-.933.281-1.438.141-.507.329-.959.5-1.375zm-14.75 1.813c.263.361.525.733.781 1.188.257.455.453.9.625 1.313.399.24.819.537 1.25.875.412.323.745.653 1.063.969-.652-.097-1.223-.11-1.75-.063-.081-.549-.293-1.136-.563-1.781-.573-.345-1.113-.561-1.625-.719.131-.521.217-1.109.219-1.781zm13.938 1.063c-.097.652-.11 1.223-.063 1.75-.532.078-1.096.244-1.719.5.231-.378.494-.781.813-1.188.323-.412.653-.745.969-1.063zm-1.813 2.25c-.362.594-.587 1.16-.75 1.688-.522-.131-1.108-.217-1.781-.219.361-.263.733-.525 1.188-.781.468-.264.921-.512 1.344-.688zm-8.344 1.063c.442.069.933.141 1.438.281.517.144.984.325 1.406.5-.672.164-1.232.368-1.719.625-.276-.46-.653-.931-1.125-1.406zm5.781.406c-.547.402-.997.834-1.344 1.25-.434-.325-.935-.613-1.563-.875.429-.103.896-.219 1.406-.281.532-.065 1.043-.094 1.5-.094z" stroke-width="1.617"/><path d="M960.124 792.503c-.743.055-1.616.252-2.656.594-8.339 2.736-2.668 7.32 3.156 12.281v-12.875c-.164-.002-.32-.013-.5 0zm-10.531 5.25c-1.045.011-2.37.636-4.031 2.063-7.123 6.118 1.395 8.039 9.156 10.625-1.063-6.184-1.686-12.725-5.125-12.688zm5.125 12.688c.394 2.293.844 4.541 1.531 6.375-1.956-.233-4.257-.104-6.594.063 1.244 1.972 2.536 3.879 3.875 5.313-1.898.533-3.965 1.513-6.063 2.563 1.913 1.352 3.831 2.625 5.625 3.438-1.553 1.221-3.117 2.911-4.656 4.688 2.257.511 4.518.959 6.469 1.031-.954 1.709-1.703 3.89-2.438 6.094 2.294-.394 4.54-.875 6.375-1.563-.232 1.952-.103 4.262.063 6.594.585-.369 1.156-.748 1.719-1.125v-15.875c-.228-.255-.455-.462-.688-.656.252-.337.473-.735.688-1.188v-1.094c-.126-.382-.275-.723-.438-1.031.151-.091.285-.201.438-.313v-10.938c-1.685-.918-3.764-1.661-5.906-2.375zm4.188 34.594c-6.918 4.365-14.722 8.261-6.344 12.5 8.379 4.24 6.924-4.34 6.344-12.5zm-6.438-5.031c-8.064 1.386-16.744 2.001-10.625 9.125 6.118 7.123 8.039-1.364 10.625-9.125zm-4.031-7.125c-7.978-1.805-16.239-4.577-13.313 4.344 2.923 8.912 7.96 1.832 13.313-4.344zm-.969-8.125c-6.68-4.721-13.258-10.424-13.969-1.063-.71 9.357 6.656 4.721 13.969 1.063zm2.188-7.875c-4.365-6.918-8.261-14.722-12.5-6.344-4.237 8.374 4.344 6.925 12.5 6.344z" stroke-width="1.617"/></g><path d="M222.493 452.362h737.507v600h-478.963c-110.1-238.957-127.186-291.651-258.544-600z" fill="#d6e68f" fill-opacity=".36"/><rect width="960" height="250" y="804.362" fill="url(#b)"/></g></svg>