<svg xmlns="http://www.w3.org/2000/svg" xmlns:xlink="http://www.w3.org/1999/xlink" width="100" height="100" viewBox="0 0 100 100">
    <g class="button">
            <g class="background" fill="#dd1379" transform="translate(-516, -320)">
                <path d="M565.744 384.235c-3.342 0-6.053-2.705-6.053-6.041l-39.678 6.041 24.883-41.618h41.696l24.883 41.618-39.678-6.041c0 3.337-2.711 6.041-6.053 6.041z" fill="#fff" stroke="#dd1379" stroke-width="5" stroke-linejoin="round"/>
                <path d="M565.744 384.235c-4.108-19.198-23.26-4.637-43.099-1.617l22.251-40.001c6.949 0 17.34-5.255 20.848 0v41.618z"  stroke="#fff"/>
                <path d="M565.744 384.235c4.108-19.198 23.26-4.637 43.099-1.617l-22.251-40.001c-6.949 0-17.34-5.255-20.848 0v41.618z"  stroke="#fff"/>
                <path d="M565.744 381.606c-3.989-18.641-22.586-4.503-41.85-1.569l21.606-38.843c6.748 0 16.838-5.102 20.244 0v40.413z"  stroke="#fff"/>
                <path d="M565.744 381.606c3.989-18.641 22.586-4.503 41.851-1.569l-21.606-38.843c-6.748 0-16.838-5.102-20.244 0v40.413z"  stroke="#fff"/>
                <path d="M565.745 378.776c-3.811-17.811-21.58-4.302-39.987-1.499l20.644-37.112c6.447 0 16.088-4.875 19.342 0v38.611z"  stroke="#fff"/>
                <path d="M565.745 378.776c3.811-17.811 21.58-4.302 39.986-1.499l-20.644-37.112c-6.447 0-16.088-4.875-19.342 0v38.611z"  stroke="#fff"/>
            </g>
   </g>
</svg>
