<svg xmlns:osb="http://www.openswatchbook.org/uri/2009/osb" xmlns="http://www.w3.org/2000/svg" xmlns:xlink="http://www.w3.org/1999/xlink" width="100" height="100" viewBox="0 0 100 100">
    <defs>
        <linearGradient xlink:href="#j" id="x" x1="4882.778" y1="103.387" x2="4939.873" y2="103.387" gradientUnits="userSpaceOnUse" gradientTransform="translate(-3818.102 232.392)"/>
        <linearGradient id="j">
            <stop offset="0" stop-color="#c5c7c9"/>
            <stop offset="1" stop-color="#c5c7c9" stop-opacity="0"/>
        </linearGradient>
    </defs>
    <g transform="translate(-20,-334)">
        <path transform="matrix(1.177 0 0 1.177 -1297.166 297.632)" d="M1203.366 73.402a42.048 42.048 0 1 1-84.095 0 42.048 42.048 0 1 1 84.095 0z" class="background" fill="#fff" stroke="#0f0" stroke-width=".849"/>
        <path d="M78.375 375.67c0-2.751-2.227-4.987-4.987-4.987-2.751 0-4.987 2.236-4.987 4.987v2.493c0-2.751-2.227-4.987-4.987-4.987-2.751 0-4.987 2.236-4.987 4.987v2.493c0-2.751-2.227-4.987-4.987-4.987-2.751 0-4.987 2.236-4.987 4.987v29.919c0 6.582 5.385 11.968 11.968 11.968h17.553c6.532-.632 6.939-5.477 10.372-10.904 5.169-8.178 8.419-11.677 15.375-18.159 1.114-.914 1.828-2.302 1.828-3.856 0-2.751-2.236-4.987-4.987-4.987-1.521 0-2.884.681-3.798 1.754l-8.419 8.402v-34.083c0-2.751-2.227-4.987-4.987-4.987-2.751 0-4.987 2.236-4.987 4.987v14.96z" fill="#f8f8f8"/>
        <path d="M78.375 375.67c0-2.751-2.227-4.987-4.987-4.987-2.751 0-4.987 2.236-4.987 4.987v2.493c0-2.751-2.227-4.987-4.987-4.987-2.751 0-4.987 2.236-4.987 4.987v2.493c0-2.751-2.227-4.987-4.987-4.987-2.751 0-4.987 2.236-4.987 4.987v29.919c0 6.582 5.385 11.968 11.968 11.968h17.553c6.532-.632 6.939-5.477 10.372-10.904 5.169-8.178 8.419-11.677 15.375-18.159 1.114-.914 1.828-2.302 1.828-3.856 0-2.751-2.236-4.987-4.987-4.987-1.521 0-2.884.681-3.798 1.754l-8.419 8.402v-34.083c0-2.751-2.227-4.987-4.987-4.987-2.751 0-4.987 2.236-4.987 4.987v14.96z" fill="url(#x)"/>
        <g stroke="#000" stroke-width="2.132" fill="none">
            <path d="M78.003 375.564c0-2.751-2.227-4.986-4.986-4.986-2.751 0-4.986 2.235-4.986 4.986v2.493c0-2.751-2.227-4.986-4.986-4.986-2.751 0-4.986 2.235-4.986 4.986v2.493c0-2.751-2.227-4.986-4.986-4.986-2.751 0-4.986 2.235-4.986 4.986v29.916c0 6.582 5.385 11.966 11.966 11.966h17.551c6.532-.632 6.939-5.476 10.371-10.903 5.169-8.177 8.418-11.676 15.373-18.157 1.114-.914 1.828-2.302 1.828-3.856 0-2.751-2.235-4.986-4.986-4.986-1.521 0-2.884.681-3.798 1.753l-8.418 8.401v-34.079c0-2.751-2.227-4.986-4.986-4.986-2.751 0-4.986 2.235-4.986 4.986v14.958zM78.003 375.564v12.964M58.059 380.55v7.978M68.031 378.057v7.978M87.975 390.696v7.978"/>
        </g>
        <path d="M97.739 372.006c1.114-2.327 1.737-4.928 1.737-7.679 0-9.814-7.97-17.784-17.785-17.784-6.981 0-13.023 4.03-15.94 9.881" stroke="#0f0" stroke-width="5" stroke-linecap="round" fill="none"/>
        <path d="M65.751 356.424h-12.351" stroke="#0f0" stroke-width="5" stroke-linecap="round" stroke-miterlimit="2" fill="none"/>
        <path transform="matrix(-.212 0 0 .151 938.095 340.623)" d="M4263.303 106.265l-82.059 45.255 1.837-93.693z" fill="#0f0" stroke="#0f0" stroke-width="27.98" stroke-linecap="round" stroke-linejoin="round" stroke-miterlimit="2"/>
        <path transform="matrix(1.177 0 0 1.177 -1297.166 297.632)" d="M1203.366 73.402a42.048 42.048 0 1 1-84.095 0 42.048 42.048 0 1 1 84.095 0z" class="overlay" fill="none"/>
    </g>
</svg>
