<svg xmlns:osb="http://www.openswatchbook.org/uri/2009/osb" xmlns="http://www.w3.org/2000/svg" xmlns:xlink="http://www.w3.org/1999/xlink" width="100" height="100" viewBox="0 0 100 100">
    <defs>
        <linearGradient xlink:href="#j" id="x" x1="4882.778" y1="103.387" x2="4939.873" y2="103.387" gradientUnits="userSpaceOnUse" gradientTransform="translate(-3818.102 232.392)"/>
        <linearGradient id="j">
            <stop offset="0" stop-color="#c5c7c9"/>
            <stop offset="1" stop-color="#c5c7c9" stop-opacity="0"/>
        </linearGradient>
    </defs>
    <g transform="translate(-840, -334)">
        <path transform="matrix(1.177 0 0 1.177 -477.093 297.632)" d="M1203.366 73.402a42.048 42.048 0 1 1-84.095 0 42.048 42.048 0 1 1 84.095 0z" class="background" fill="#fff" stroke="#0f0" stroke-width=".849"/>
        <path d="M881.651 375.675c0-2.751 2.236-4.986 4.987-4.986s4.987 2.235 4.987 4.986v2.493c0-2.751 2.236-4.986 4.987-4.986s4.987 2.235 4.987 4.986v2.493c0-2.751 2.236-4.986 4.987-4.986s4.987 2.235 4.987 4.986v29.917c0 6.582-5.386 11.967-11.968 11.967h-17.553c-6.524-.632-6.939-5.476-10.372-10.903-5.169-8.177-8.411-11.676-15.375-18.158-1.114-.914-1.828-2.302-1.828-3.848 0-2.759 2.236-4.986 4.995-4.986 1.513 0 2.876.673 3.79 1.753l8.419 8.393v-34.072c0-2.759 2.236-4.986 4.987-4.986s4.987 2.227 4.987 4.986v14.95z" fill="#f8f8f8"/>
        <path d="M881.651 375.675c0-2.751 2.236-4.986 4.987-4.986s4.987 2.235 4.987 4.986v2.493c0-2.751 2.236-4.986 4.987-4.986s4.987 2.235 4.987 4.986v2.493c0-2.751 2.236-4.986 4.987-4.986s4.987 2.235 4.987 4.986v29.917c0 6.582-5.386 11.967-11.968 11.967h-17.553c-6.524-.632-6.939-5.476-10.372-10.903-5.169-8.177-8.411-11.676-15.375-18.158-1.114-.914-1.828-2.302-1.828-3.848 0-2.759 2.236-4.986 4.995-4.986 1.513 0 2.876.673 3.79 1.753l8.419 8.393v-34.072c0-2.759 2.236-4.986 4.987-4.986s4.987 2.227 4.987 4.986v14.95z" fill="url(#x)"/>
        <path d="M881.651 375.675c0-2.751 2.236-4.986 4.987-4.986s4.987 2.235 4.987 4.986v2.493c0-2.751 2.236-4.986 4.987-4.986s4.987 2.235 4.987 4.986v2.493c0-2.751 2.236-4.986 4.987-4.986s4.987 2.235 4.987 4.986v29.917c0 6.582-5.385 11.967-11.968 11.967h-17.553c-6.524-.632-6.939-5.476-10.372-10.903-5.169-8.177-8.411-11.676-15.375-18.158-1.114-.914-1.828-2.302-1.828-3.848 0-2.759 2.236-4.986 4.995-4.986 1.512 0 2.876.673 3.79 1.753l8.419 8.393v-34.072c0-2.759 2.236-4.986 4.987-4.986s4.987 2.227 4.987 4.986v14.95z" stroke="#000" stroke-width="1.772" fill="none"/>
        <path d="M881.651 375.675v12.964M901.597 380.661v7.978M891.624 378.168v7.978M871.678 390.807v7.978" stroke="#000" stroke-width="1.772" stroke-linecap="round" fill="none"/>
        <path d="M862.287 372.008c-1.114-2.327-1.737-4.928-1.737-7.679 0-9.815 7.97-17.785 17.785-17.785 6.981 0 13.023 4.031 15.94 9.882" stroke="#0f0" stroke-width="5" stroke-linecap="round" fill="none"/>
        <path d="M894.276 356.425h12.351" stroke="#0f0" stroke-width="5" stroke-linecap="round" stroke-miterlimit="2" fill="none"/>
        <path transform="matrix(.212 0 0 .151 21.931 340.625)" d="M4263.303 106.265l-82.059 45.255 1.837-93.693z" fill="#0f0" stroke="#0f0" stroke-width="27.98" stroke-linecap="round" stroke-linejoin="round" stroke-miterlimit="2"/>
        <path transform="matrix(1.177 0 0 1.177 -477.093 297.632)" d="M1203.366 73.402a42.048 42.048 0 1 1-84.095 0 42.048 42.048 0 1 1 84.095 0z" class="overlay" fill="none"/>
    </g>
</svg>