<svg xmlns:osb="http://www.openswatchbook.org/uri/2009/osb" xmlns="http://www.w3.org/2000/svg" xmlns:xlink="http://www.w3.org/1999/xlink" width="100" height="100" viewBox="0 0 100 100">
    <defs>
        <linearGradient xlink:href="#p" id="T" gradientUnits="userSpaceOnUse" gradientTransform="matrix(.955 0 0 .955 -3857.687 432.583)" x1="4882.778" y1="103.387" x2="4939.873" y2="103.387"/>
        <linearGradient id="p">
            <stop offset="0" stop-color="#c5c7c9"/>
            <stop offset="1" stop-color="#c5c7c9" stop-opacity="0"/>
        </linearGradient>
        <linearGradient id="w">
            <stop offset="0" stop-color="#f6ffff"/>
            <stop offset="1" stop-color="#f6ffff" stop-opacity="0"/>
        </linearGradient>
        <linearGradient xlink:href="#w" id="S" gradientUnits="userSpaceOnUse" gradientTransform="matrix(-.94 .035 -.035 -.94 1521.968 1339.115)" x1="727.818" y1="928.981" x2="762.261" y2="928.981"/>
    </defs>
    <g transform="scale(0.95) translate(-765,-470)">
    <g transform="translate(3 1.656)">
        <rect transform="matrix(.845 .534 -.48 .877 0 0)" ry="4.112" y=".726" x="957.352" height="8.223" width="70.203" stroke="#000" stroke-width=".956"/>
        <path d="M806.809 866.933a24.395 24.395 0 1 1-48.79 0 24.395 24.395 0 1 1 48.79 0z" transform="matrix(.955 0 0 .955 41.032 -322.59)" fill="#b6ffff" stroke="#000" stroke-width="4" stroke-linecap="round"/>
        <path d="M786.668 890.954a24.395 24.395 0 0 1-28.297-28.154" transform="matrix(0 .955 .955 0 -37.764 -243.798)" stroke="#000" stroke-width="4" stroke-linecap="round" fill="none"/>
        <path d="M806.809 866.933a24.395 24.395 0 1 1-48.79 0 24.395 24.395 0 1 1 48.79 0z" transform="matrix(.955 0 0 .955 44.852 -326.409)" opacity=".5" fill="#b6ffff" stroke="#000" stroke-width="4" stroke-linecap="round"/>
        <path d="M802.588 880.649a24.395 24.395 0 1 1-34.673-33.335" transform="matrix(.955 0 0 .955 42.942 -324.503)" stroke="#000" stroke-width="4" stroke-linecap="round" fill="none"/>
        <path d="M806.809 866.933a24.395 24.395 0 1 1-48.79 0 24.395 24.395 0 1 1 48.79 0z" transform="matrix(.955 0 0 .955 44.852 -326.409)" stroke="#000" stroke-width="4" stroke-linecap="round" fill="none"/>
        <path d="M773.136 502.984c-.408-10.826 8.037-19.932 18.862-20.341 4.683-.177 9.274 1.329 12.942 4.244-12.657-.289-21.498-.343-31.804 16.096z" fill="url(#S)"/>
    </g>
    <path d="M830.497 518.442c0-2.626 2.135-4.761 4.761-4.761 2.627 0 4.761 2.134 4.761 4.761v2.38c0-2.626 2.135-4.761 4.761-4.761 2.627 0 4.761 2.134 4.761 4.761v2.38c0-2.626 2.135-4.761 4.761-4.761 2.627 0 4.761 2.134 4.761 4.761v28.565c0 6.284-5.142 11.426-11.427 11.426h-16.76c-6.229-.603-6.626-5.229-9.903-10.41-4.936-7.808-8.031-11.148-14.681-17.338-1.063-.873-1.746-2.198-1.746-3.674 0-2.634 2.135-4.761 4.769-4.761 1.444 0 2.746.643 3.619 1.674l8.039 8.014v-32.533c0-2.634 2.135-4.761 4.761-4.761 2.627 0 4.761 2.127 4.761 4.761v14.275z" fill="#f8f8f8"/>
    <path d="M830.497 518.442c0-2.626 2.135-4.761 4.761-4.761 2.627 0 4.761 2.134 4.761 4.761v2.38c0-2.626 2.135-4.761 4.761-4.761 2.627 0 4.761 2.134 4.761 4.761v2.38c0-2.626 2.135-4.761 4.761-4.761 2.627 0 4.761 2.134 4.761 4.761v28.565c0 6.284-5.142 11.426-11.427 11.426h-16.76c-6.229-.603-6.626-5.229-9.903-10.41-4.936-7.808-8.031-11.148-14.681-17.338-1.063-.873-1.746-2.198-1.746-3.674 0-2.634 2.135-4.761 4.769-4.761 1.444 0 2.746.643 3.619 1.674l8.039 8.014v-32.533c0-2.634 2.135-4.761 4.761-4.761 2.627 0 4.761 2.127 4.761 4.761v14.275z" fill="url(#T)"/>
    <path d="M830.497 518.442v12.378M849.542 523.203v7.617M840.02 520.822v7.617M820.974 532.891v7.617" stroke="#000" stroke-width="1.692" stroke-linecap="round" fill="none"/>
    <path d="M830.497 518.442c0-2.626 2.135-4.761 4.761-4.761 2.627 0 4.761 2.134 4.761 4.761v2.38c0-2.626 2.135-4.761 4.761-4.761 2.627 0 4.761 2.134 4.761 4.761v2.38c0-2.626 2.135-4.761 4.761-4.761 2.627 0 4.761 2.134 4.761 4.761v28.565c0 6.284-5.142 11.426-11.427 11.426h-16.76c-6.229-.603-6.626-5.229-9.903-10.41-4.936-7.808-8.031-11.148-14.681-17.338-1.063-.873-1.746-2.198-1.746-3.674 0-2.634 2.135-4.761 4.769-4.761 1.444 0 2.746.643 3.619 1.674l8.039 8.014v-32.533c0-2.634 2.135-4.761 4.761-4.761 2.627 0 4.761 2.127 4.761 4.761v14.275z" stroke="#000" stroke-width="1.692" fill="none"/>
</g>
</svg>
