<?xml version="1.0" encoding="UTF-8" standalone="no"?>
<!-- Created with Inkscape (http://www.inkscape.org/) -->

<svg
   xmlns:dc="http://purl.org/dc/elements/1.1/"
   xmlns:cc="http://creativecommons.org/ns#"
   xmlns:rdf="http://www.w3.org/1999/02/22-rdf-syntax-ns#"
   xmlns:svg="http://www.w3.org/2000/svg"
   xmlns="http://www.w3.org/2000/svg"
   xmlns:xlink="http://www.w3.org/1999/xlink"
   xmlns:sodipodi="http://sodipodi.sourceforge.net/DTD/sodipodi-0.dtd"
   xmlns:inkscape="http://www.inkscape.org/namespaces/inkscape"
   version="1.1"
   width="100"
   height="100"
   id="svg4185"
   inkscape:version="0.48.3.1 r9886"
   sodipodi:docname="searchvideos.svg">
  <defs
     id="defs4187">
    <linearGradient
       id="linearGradient4731-8-4-5-5-81">
      <stop
         id="stop4733-6-8-8-5-40"
         style="stop-color:#009b00;stop-opacity:1"
         offset="0" />
      <stop
         id="stop4735-5-6-4-1-7"
         style="stop-color:#c5c7c9;stop-opacity:0"
         offset="1" />
    </linearGradient>
    <filter
       color-interpolation-filters="sRGB"
       id="filter4596-1-2-1-38-7">
      <feGaussianBlur
         id="feGaussianBlur4598-8-3-6-7-0"
         stdDeviation="2.1023861" />
    </filter>
    <linearGradient
       x1="5135.4976"
       y1="-2410.6077"
       x2="5451.7153"
       y2="-2410.6077"
       id="linearGradient5547-4-4"
       xlink:href="#linearGradient5072-27-8"
       gradientUnits="userSpaceOnUse" />
    <linearGradient
       id="linearGradient5072-27-8">
      <stop
         id="stop5074-7-8"
         style="stop-color:#009b00;stop-opacity:0.27777779"
         offset="0" />
      <stop
         id="stop5076-9-1"
         style="stop-color:#ffffff;stop-opacity:1"
         offset="1" />
    </linearGradient>
    <linearGradient
       x1="5135.4976"
       y1="-2410.6077"
       x2="5451.7153"
       y2="-2410.6077"
       id="linearGradient5302-3-3"
       xlink:href="#linearGradient5072-27-8"
       gradientUnits="userSpaceOnUse" />
    <linearGradient
       id="linearGradient4282">
      <stop
         id="stop4284"
         style="stop-color:#009b00;stop-opacity:0.27777779"
         offset="0" />
      <stop
         id="stop4286"
         style="stop-color:#ffffff;stop-opacity:1"
         offset="1" />
    </linearGradient>
    <linearGradient
       x1="5135.4976"
       y1="-2410.6077"
       x2="5451.7153"
       y2="-2410.6077"
       id="linearGradient5304-1-6"
       xlink:href="#linearGradient5072-27-8"
       gradientUnits="userSpaceOnUse" />
    <linearGradient
       id="linearGradient4289">
      <stop
         id="stop4291"
         style="stop-color:#009b00;stop-opacity:0.27777779"
         offset="0" />
      <stop
         id="stop4293"
         style="stop-color:#ffffff;stop-opacity:1"
         offset="1" />
    </linearGradient>
    <linearGradient
       x1="5135.4976"
       y1="-2410.6077"
       x2="5451.7153"
       y2="-2410.6077"
       id="linearGradient5306-9-7"
       xlink:href="#linearGradient5072-27-8"
       gradientUnits="userSpaceOnUse" />
    <linearGradient
       id="linearGradient4296">
      <stop
         id="stop4298"
         style="stop-color:#009b00;stop-opacity:0.27777779"
         offset="0" />
      <stop
         id="stop4300"
         style="stop-color:#ffffff;stop-opacity:1"
         offset="1" />
    </linearGradient>
    <filter
       color-interpolation-filters="sRGB"
       id="filter4596-1-2-1-3-2">
      <feGaussianBlur
         id="feGaussianBlur4598-8-3-6-0-7"
         stdDeviation="2.1023861" />
    </filter>
    <linearGradient
       x1="727.81799"
       y1="928.98138"
       x2="762.26111"
       y2="928.98138"
       id="linearGradient7834"
       xlink:href="#linearGradient5294-5-5"
       gradientUnits="userSpaceOnUse"
       gradientTransform="matrix(0.60562787,0.02283951,0.02283951,-0.60562787,-617.4891,1388.238)" />
    <linearGradient
       id="linearGradient5294-5-5">
      <stop
         id="stop5296-5-8"
         style="stop-color:#f6ffff;stop-opacity:1"
         offset="0" />
      <stop
         id="stop5298-1-4"
         style="stop-color:#f6ffff;stop-opacity:0"
         offset="1" />
    </linearGradient>
    <linearGradient
       x1="727.81799"
       y1="928.98138"
       x2="762.26111"
       y2="928.98138"
       id="linearGradient4449"
       xlink:href="#linearGradient5294-5-5"
       gradientUnits="userSpaceOnUse"
       gradientTransform="matrix(0.60562787,0.02283951,0.02283951,-0.60562787,-617.4891,1388.238)" />
  </defs>
  <g
     transform="matrix(0.89381481,0,0,0.89300481,-47.042755,-366.72163)">
    <g
       transform="translate(265.27193,-384.47464)"
       class="button SearchYouTubeButton-2"
       style="display:inline">
      <path
         d="m 1203.3657,73.402351 a 42.047722,42.047722 0 1 1 -84.0954,0 42.047722,42.047722 0 1 1 84.0954,0 z"
         transform="matrix(1.1772338,0,0,1.1772338,-1523.8433,764.71081)"
         style="fill:#ffffff;fill-opacity:1;stroke:#000000;stroke-width:0.84944892;stroke-miterlimit:4;stroke-opacity:1;stroke-dasharray:none;display:inline;filter:url(#filter4596-1-2-1-3-2)"
         inkscape:connector-curvature="0" />
      <path
         d="m 1203.3657,73.402351 a 42.047722,42.047722 0 1 1 -84.0954,0 42.047722,42.047722 0 1 1 84.0954,0 z"
         transform="matrix(1.1772338,0,0,1.1772338,-1523.8433,764.71081)"
         id="path5955-9"
         style="fill:#ffffff;fill-opacity:1;stroke:#009b00;stroke-width:0.84944892;stroke-miterlimit:4;stroke-opacity:1;stroke-dasharray:none;display:inline"
         inkscape:connector-curvature="0" />
      <path
         d="m -195.38016,826.9568 c 17.85954,-28.034 50.18635,35.78454 75.9716,0 l 0,38.10224 c -30.73883,23.3443 -50.19887,-26.01484 -75.9716,0 z"
         id="path5957-5"
         style="fill:#009b00;fill-opacity:1;stroke:none;display:inline"
         inkscape:connector-curvature="0" />
      <path
         d="m -192.85416,829.5889 c 7.37864,-10.4913 20.52114,-1.7844 24.89256,0.625 l 0,24.62504 c -6.68004,-2.7824 -15.51345,-5.733 -24.89256,2.6249 z"
         id="path5959-1"
         style="fill:#ffffff;fill-opacity:1;stroke:none;display:inline"
         inkscape:connector-curvature="0" />
      <path
         d="m -166.14296,831.4639 c 6.72983,4.1857 12.28883,8.0661 21.54056,9.8111 l 0.0908,24.50404 c -10.29325,-2.844 -11.77312,-4.9203 -21.63131,-9.8152 z"
         id="path5961-9"
         style="fill:#ffffff;fill-opacity:1;stroke:none;display:inline"
         inkscape:connector-curvature="0" />
      <path
         d="m -142.68257,841.6598 c 13.85696,0.6313 16.72354,-3.3502 20.64953,-6.8059 l 1e-5,26.53324 c -3.44697,3.7089 -12.42482,7.273 -20.62945,4.9094 z"
         id="path5963-0"
         style="fill:#ffffff;fill-opacity:1;stroke:none;display:inline"
         inkscape:connector-curvature="0" />
      <path
         d="m -194.20825,828.54725 c 18.01828,-25.21249 45.88762,32.99749 74.13003,2.00898"
         id="path5965-2"
         style="fill:none;stroke:#ffffff;stroke-width:1.5;stroke-linecap:round;stroke-linejoin:miter;stroke-miterlimit:4;stroke-opacity:1;stroke-dasharray:1.5, 3;stroke-dashoffset:0;display:inline"
         inkscape:connector-curvature="0" />
      <path
         d="m -194.30128,861.52114 c 25.21316,-23.59782 42.5042,23.5346 74.54437,1.417"
         id="path5967-8"
         style="fill:none;stroke:#ffffff;stroke-width:1.5;stroke-linecap:round;stroke-linejoin:miter;stroke-miterlimit:4;stroke-opacity:1;stroke-dasharray:1.5, 3;stroke-dashoffset:0;display:inline"
         inkscape:connector-curvature="0" />
      <path
         d="m -147.11981,833.65233 c -8.29126,0 -15.03125,6.70874 -15.03125,15 0,3.27674 1.06215,6.31287 2.84375,8.78125 -0.58565,-0.25203 -1.27374,-0.22392 -1.875,0.15625 l -27.5625,17.4375 c -1.01264,0.64028 -1.35615,1.98011 -0.78125,3.03125 0.5749,1.05114 1.86236,1.39028 2.875,0.75 l 27.53125,-17.40625 c 0.84695,-0.53552 1.23301,-1.59021 1,-2.53125 0.29684,0.31945 0.61411,0.61364 0.9375,0.90625 0.0271,0.0245 0.0352,0.0694 0.0625,0.0937 0.38944,0.43823 0.82004,0.83572 1.25,1.21875 2.74992,3.09341 6.72292,5.0625 11.1875,5.0625 8.29126,0 15.03125,-6.73999 15.03125,-15.03125 0,-4.42444 -1.92361,-8.37742 -4.96875,-11.125 -0.45362,-0.51723 -0.94811,-0.98696 -1.46875,-1.4375 -2.74476,-2.99798 -6.64622,-4.90625 -11.03125,-4.90625 z"
         id="path5969-3"
         style="fill:none;stroke:#ffffff;stroke-width:5;stroke-miterlimit:4;stroke-opacity:1;stroke-dasharray:none;display:inline"
         inkscape:connector-curvature="0" />
      <rect
         width="36.925724"
         height="4.3252144"
         rx="2.407706"
         ry="2.410383"
         x="551.56531"
         y="639.77704"
         transform="matrix(-0.84521847,0.53442094,0.47985138,0.87734979,0,0)"
         id="rect5971-1"
         style="fill:#009b00;fill-opacity:1;stroke:#009b00;stroke-width:2.0020082;stroke-miterlimit:4;stroke-opacity:1;stroke-dasharray:none;display:inline" />
      <path
         d="m 806.80882,866.9328 a 24.395185,24.395185 0 1 1 -48.79037,0 24.395185,24.395185 0 1 1 48.79037,0 z"
         transform="matrix(-0.6153942,0,0,0.6153942,336.98121,317.26097)"
         id="path5973-4"
         style="fill:#00fa00;fill-opacity:0.32644629;stroke:#009b00;stroke-width:4;stroke-linecap:round;stroke-linejoin:miter;stroke-miterlimit:4;stroke-opacity:1;stroke-dasharray:none"
         inkscape:connector-curvature="0" />
      <path
         d="m 786.66826,890.95411 a 24.395184,24.395184 0 0 1 -28.29712,-28.1545"
         transform="matrix(0,0.6153942,-0.6153942,0,387.76556,368.04276)"
         id="path5975-3"
         style="fill:none;stroke:#009b00;stroke-width:4;stroke-linecap:round;stroke-linejoin:miter;stroke-miterlimit:4;stroke-opacity:1;stroke-dasharray:none;display:inline"
         inkscape:connector-curvature="0" />
      <path
         d="m 806.80882,866.9328 a 24.395185,24.395185 0 1 1 -48.79037,0 24.395185,24.395185 0 1 1 48.79037,0 z"
         transform="matrix(-0.6153942,0,0,0.6153942,334.51962,314.79938)"
         id="path5977-1"
         style="opacity:0.5;fill:#b6ffff;fill-opacity:1;stroke:#000000;stroke-width:4;stroke-linecap:round;stroke-linejoin:miter;stroke-miterlimit:4;stroke-opacity:1;stroke-dasharray:none;display:inline"
         inkscape:connector-curvature="0" />
      <path
         d="M 802.58789,880.64864 A 24.395184,24.395184 0 1 1 767.91522,847.3134"
         transform="matrix(-0.6153942,0,0,0.6153942,335.75039,316.02765)"
         id="path5979-0"
         style="fill:none;stroke:#009b00;stroke-width:4;stroke-linecap:round;stroke-linejoin:miter;stroke-miterlimit:4;stroke-opacity:1;stroke-dasharray:none;display:inline"
         inkscape:connector-curvature="0" />
      <path
         d="m 806.80882,866.9328 a 24.395185,24.395185 0 1 1 -48.79037,0 24.395185,24.395185 0 1 1 48.79037,0 z"
         transform="matrix(-0.6153942,0,0,0.6153942,334.51962,314.79938)"
         id="path5981-4"
         style="fill:none;stroke:#009b00;stroke-width:4;stroke-linecap:round;stroke-linejoin:miter;stroke-miterlimit:4;stroke-opacity:1;stroke-dasharray:none;display:inline"
         inkscape:connector-curvature="0" />
      <path
         d="m -134.86327,849.34722 c 0.26309,-6.97709 -5.17964,-12.84648 -12.15674,-13.10962 -3.01795,-0.11382 -5.97689,0.8565 -8.34136,2.73537 8.15754,-0.18641 13.85554,-0.22124 20.4981,10.37425 z"
         id="path5983-0"
         style="fill:url(#linearGradient4449);fill-opacity:1;stroke:none"
         inkscape:connector-curvature="0" />
    </g>
  </g>
</svg>
