<?xml version="1.0" encoding="UTF-8" standalone="no"?>
<!-- Created with Inkscape (http://www.inkscape.org/) -->

<svg
   xmlns:dc="http://purl.org/dc/elements/1.1/"
   xmlns:cc="http://creativecommons.org/ns#"
   xmlns:rdf="http://www.w3.org/1999/02/22-rdf-syntax-ns#"
   xmlns:svg="http://www.w3.org/2000/svg"
   xmlns="http://www.w3.org/2000/svg"
   version="1.1"
   width="183.60001"
   height="115.0125"
   id="svg2"
   xml:space="preserve"><metadata
     id="metadata8"><rdf:RDF><cc:Work
         rdf:about=""><dc:format>image/svg+xml</dc:format><dc:type
           rdf:resource="http://purl.org/dc/dcmitype/StillImage" /><dc:title></dc:title></cc:Work></rdf:RDF></metadata><defs
     id="defs6"><clipPath
       id="clipPath18"><path
         d="m 0,0 1468.8,0 0,920 L 0,920 0,0 z"
         id="path20" /></clipPath></defs><g
     transform="matrix(1.25,0,0,-1.25,0,115.0125)"
     id="g10"><path
       d="m 56.1387,54.3574 c 6.5937,0 11.2859,-1.3754 11.2859,-5.2586 0,-1.2945 -0.5262,-2.8722 -1.659,-4.7734 0.041,0.2019 0.041,0.4047 0.041,0.566 0,3.6004 -5.8253,4.3285 -9.6281,4.3285 -2.993,0 -5.1363,-0.5261 -5.1363,-2.9933 0,-5.9051 17.3531,0.4449 17.3531,-12.9032 0,-6.1894 -5.3394,-9.3046 -12.9043,-9.3046 -5.2984,0 -10.9219,1.6582 -10.9219,5.4207 0,1.1726 0.5266,2.5476 1.8204,4.1671 0,-3.682 5.7043,-4.4503 9.1015,-4.4503 3.9238,0 5.7043,1.2941 5.7043,3.6808 0,6.6746 -17.3535,0.3242 -17.3535,12.6207 0,6.8363 5.5422,8.8996 12.2969,8.8996"
       id="path22"
       style="fill:#656263;fill-opacity:1;fill-rule:nonzero;stroke:none" /><path
       d="m 79.4016,48.9367 0,-10.5976 1.9824,0 c 3.4781,0 5.9461,0.6062 5.9461,5.3797 0,4.4093 -2.468,5.2179 -5.9461,5.2179 l -1.9824,0 z m -6.9582,4.9348 8.9406,0 c 6.8355,0 12.9031,-1.6985 12.9031,-9.7887 l 0,-0.7281 c 0,-7.8879 -6.0676,-9.9512 -12.9031,-9.9512 l -1.9824,0 0,-9.3437 c 0,0 -6.9582,0 -6.9582,3.1148 l 0,26.6969"
       id="path24"
       style="fill:#656263;fill-opacity:1;fill-rule:nonzero;stroke:none" /><path
       d="m 105.253,37.4484 0,-8.0898 14.441,0 c 0,-0.2832 -0.081,-4.8945 -3.762,-4.8945 l -12.418,0 c 0,0 -5.2191,0 -5.2191,3.1148 l 0,26.2926 21.3991,0 c 0,0 0,-4.9348 -3.762,-4.9348 l -10.679,0 0,-6.5527 7.604,0 c 4.005,0 5.219,0.6465 5.219,0.6465 0,-2.791 -0.566,-5.5821 -4.571,-5.5821 l -8.252,0"
       id="path26"
       style="fill:#656263;fill-opacity:1;fill-rule:nonzero;stroke:none" /><path
       d="m 134.623,54.3574 c 6.594,0 11.286,-1.3754 11.286,-5.2586 0,-1.2945 -0.526,-2.8722 -1.659,-4.7734 0.041,0.2019 0.041,0.4047 0.041,0.566 0,3.6004 -5.825,4.3285 -9.628,4.3285 -2.993,0 -5.137,-0.5261 -5.137,-2.9933 0,-5.9051 17.354,0.4449 17.354,-12.9032 0,-6.1894 -5.34,-9.3046 -12.904,-9.3046 -5.299,0 -10.922,1.6582 -10.922,5.4207 0,1.1726 0.526,2.5476 1.82,4.1671 0,-3.682 5.704,-4.4503 9.102,-4.4503 3.923,0 5.704,1.2941 5.704,3.6808 0,6.6746 -17.354,0.3242 -17.354,12.6207 0,6.8363 5.542,8.8996 12.297,8.8996"
       id="path28"
       style="fill:#656263;fill-opacity:1;fill-rule:nonzero;stroke:none" /><path
       d="m 58.6648,42.5508 c -0.0085,0.0012 -0.0171,0.0031 -0.0253,0.0031 l -8e-4,0 c 0.009,0 0.0176,-0.0019 0.0261,-0.0031"
       id="path30"
       style="fill:#f9a72b;fill-opacity:1;fill-rule:nonzero;stroke:none" /><path
       d="m 59.0266,52.2793 c 0.0093,-4e-4 0.0183,-0.0023 0.0261,-0.0035 0,0 8e-4,0 8e-4,0.0012 -0.0086,3e-4 -0.0176,0.0019 -0.0269,0.0023"
       id="path32"
       style="fill:#f9a72b;fill-opacity:1;fill-rule:nonzero;stroke:none" /><path
       d="m 59.0313,64.4641 c 0.007,-0.0071 0.0109,-0.0149 0.0167,-0.0203 l 8e-4,0 c -0.0058,0.0066 -0.0105,0.0132 -0.0175,0.0203"
       id="path34"
       style="fill:#f9a72b;fill-opacity:1;fill-rule:nonzero;stroke:none" /><path
       d="M 59.0508,57.0684 C 59.043,57.0625 59.0359,57.057 59.0305,57.0523 l 0,-0.0011 c 0.0066,0.0054 0.0125,0.0113 0.0203,0.0172"
       id="path36"
       style="fill:#f9a72b;fill-opacity:1;fill-rule:nonzero;stroke:none" /><path
       d="m 54.2129,49.9301 c -0.0109,0.0015 -0.0203,0.0035 -0.0313,0.0039 l 0,-4e-4 c 0.011,-0.0016 0.0204,-0.002 0.0313,-0.0035"
       id="path38"
       style="fill:#f9a72b;fill-opacity:1;fill-rule:nonzero;stroke:none" /><path
       d="m 54.6426,61.4684 c 0.0097,-0.0016 0.0207,-0.0036 0.0304,-0.0039 l 0,3e-4 c -0.0097,0.0016 -0.0207,0.002 -0.0304,0.0036"
       id="path40"
       style="fill:#f9a72b;fill-opacity:1;fill-rule:nonzero;stroke:none" /><path
       d="m 54.6711,67.1477 c -0.0102,-0.0063 -0.018,-0.0129 -0.0258,-0.0188 l 0,-4e-4 c 0.009,0.0063 0.0156,0.0121 0.0258,0.0192"
       id="path42"
       style="fill:#f9a72b;fill-opacity:1;fill-rule:nonzero;stroke:none" /><path
       d="m 52.2637,10.6262 c 21.8093,2.0527 40.8672,1.5176 50.0813,-0.99339 l 3.246,0.30586 C 98.373,14.9023 76.8855,17.0012 51.8855,14.6484 26.8828,12.2949 6.16797,6.22383 0,0 L 3.24688,0.305859 C 11.8301,4.49141 30.4539,8.57344 52.2637,10.6262"
       id="path44"
       style="fill:#80cc28;fill-opacity:1;fill-rule:nonzero;stroke:none" /><path
       d="m 55.8176,75.6148 c 0.0054,-0.0078 0.0117,-0.0179 0.0176,-0.025 l 0,0 c -0.0059,0.0082 -0.0122,0.0172 -0.0176,0.025"
       id="path46"
       style="fill:#f9a72b;fill-opacity:1;fill-rule:nonzero;stroke:none" /><path
       d="m 52.7996,74.8906 c -8e-4,-0.0101 -0.0035,-0.0211 -0.0047,-0.0297 0.0012,-0.0011 0.0012,-0.0011 0.0012,-0.0011 8e-4,0.0097 0.0027,0.0207 0.0035,0.0308"
       id="path48"
       style="fill:#f9a72b;fill-opacity:1;fill-rule:nonzero;stroke:none" /><path
       d="m 53.0867,80.3848 c -4.584,0.2406 -8.3648,3.8355 -9.9773,8.8461 l -0.6824,0.0359 c 0.9753,-8.2809 5.0957,-14.5086 10.3503,-14.784 5.2532,-0.2754 10.0008,5.4875 11.8379,13.6207 l -0.6828,0.0363 c -2.1265,-4.8152 -6.2625,-7.9949 -10.8457,-7.755"
       id="path50"
       style="fill:#f9a72b;fill-opacity:1;fill-rule:nonzero;stroke:none" /><path
       d="m 50.1895,88.8594 c 0.0964,1.8324 1.6589,3.2379 3.4902,3.1418 1.8308,-0.0957 3.2375,-1.6571 3.1418,-3.4895 -0.0969,-1.8308 -1.6574,-3.2367 -3.4895,-3.1414 -1.83,0.0965 -3.2382,1.6582 -3.1425,3.4891"
       id="path52"
       style="fill:#f9a72b;fill-opacity:1;fill-rule:nonzero;stroke:none" /><path
       d="M 23.6641,51.8047 C 23.4102,46.9672 19.6145,42.9758 14.3254,41.2734 l -0.0383,-0.7195 c 8.7422,1.0313 15.3152,5.3797 15.6067,10.9246 0.291,5.5453 -5.793,10.557 -14.3793,12.4961 l -0.0379,-0.7195 c 5.0832,-2.2461 8.4414,-6.6129 8.1875,-11.4504"
       id="path54"
       style="fill:#3871c1;fill-opacity:1;fill-rule:nonzero;stroke:none" /><path
       d="m 11.5859,52.4387 c 0.0957,1.8308 1.6582,3.2371 3.4895,3.1402 1.8316,-0.0949 3.2383,-1.657 3.1414,-3.4879 -0.0957,-1.8316 -1.657,-3.2383 -3.4895,-3.1422 -1.8308,0.0957 -3.2378,1.6582 -3.1414,3.4899"
       id="path56"
       style="fill:#3871c1;fill-opacity:1;fill-rule:nonzero;stroke:none" /><path
       d="M 31.625,72.3977 C 28.0254,69.1563 22.5195,69.018 17.5762,71.5539 l -0.5364,-0.482 c 6.9106,-5.4528 14.6332,-7.0254 18.7598,-3.3098 4.1274,3.7145 3.3692,11.5606 -1.3308,19.0027 l -0.5364,-0.482 c 2.0063,-5.182 1.2934,-10.6441 -2.3074,-13.8851"
       id="path58"
       style="fill:#3871c1;fill-opacity:1;fill-rule:nonzero;stroke:none" /><path
       d="m 22.1555,78.9848 c 0.0965,1.83 1.659,3.2375 3.4898,3.1418 1.8313,-0.0961 3.2375,-1.6586 3.1418,-3.4895 -0.0969,-1.8312 -1.657,-3.2383 -3.4891,-3.1418 -1.8312,0.0961 -3.2375,1.657 -3.1425,3.4895"
       id="path60"
       style="fill:#3871c1;fill-opacity:1;fill-rule:nonzero;stroke:none" /><path
       d="M 73.5938,70.1984 C 70.3523,73.798 70.2141,79.3047 72.75,84.248 l -0.4832,0.5356 c -5.4516,-6.9102 -7.0234,-14.6328 -3.309,-18.7598 3.7152,-4.1258 11.561,-3.3695 19.0031,1.3313 l -0.4824,0.5371 C 82.2969,65.8859 76.834,66.5988 73.5938,70.1984"
       id="path62"
       style="fill:#3871c1;fill-opacity:1;fill-rule:nonzero;stroke:none" /><path
       d="m 77.3074,75.7363 c 0.0969,1.8305 1.6582,3.2367 3.4895,3.141 1.8308,-0.096 3.2375,-1.6574 3.1418,-3.4886 -0.0957,-1.8309 -1.6582,-3.2379 -3.4895,-3.1422 -1.8301,0.0953 -3.2375,1.6578 -3.1418,3.4898"
       id="path64"
       style="fill:#3871c1;fill-opacity:1;fill-rule:nonzero;stroke:none" /><path
       d="M 30.1262,30.1984 C 26.884,33.798 21.423,34.5109 16.241,32.507 l -0.4832,0.5352 c 7.4426,4.7 15.2883,5.457 19.0039,1.3301 3.7149,-4.125 2.1414,-11.8496 -3.3105,-18.7602 l -0.4824,0.5356 c 2.5363,4.9453 2.3984,10.4511 -0.8426,14.0507"
       id="path66"
       style="fill:#3871c1;fill-opacity:1;fill-rule:nonzero;stroke:none" /><path
       d="m 20.0188,24.6367 c -0.0958,-1.8301 1.3113,-3.3926 3.1421,-3.4883 1.8313,-0.0964 3.3926,1.3106 3.4895,3.1418 0.0957,1.8321 -1.3106,3.3934 -3.1414,3.4891 -1.8313,0.0969 -3.3938,-1.3094 -3.4902,-3.1426"
       id="path68"
       style="fill:#3871c1;fill-opacity:1;fill-rule:nonzero;stroke:none" /></g></svg>