<?xml version="1.0" encoding="UTF-8" standalone="no"?>
<!-- Created with Inkscape (http://www.inkscape.org/) -->

<svg
   xmlns:dc="http://purl.org/dc/elements/1.1/"
   xmlns:cc="http://creativecommons.org/ns#"
   xmlns:rdf="http://www.w3.org/1999/02/22-rdf-syntax-ns#"
   xmlns:svg="http://www.w3.org/2000/svg"
   xmlns="http://www.w3.org/2000/svg"
   version="1.1"
   width="480.53751"
   height="119.4"
   id="svg2"
   xml:space="preserve"><metadata
     id="metadata8"><rdf:RDF><cc:Work
         rdf:about=""><dc:format>image/svg+xml</dc:format><dc:type
           rdf:resource="http://purl.org/dc/dcmitype/StillImage" /><dc:title></dc:title></cc:Work></rdf:RDF></metadata><defs
     id="defs6" /><g
     transform="matrix(1.25,0,0,-1.25,0,119.4)"
     id="g10"><path
       d="m 49.0117,57.218 c 3.3184,0 5.6785,-0.6926 5.6785,-2.6465 0,-0.6516 -0.2644,-1.4453 -0.8339,-2.4024 0.0207,0.1016 0.0207,0.2039 0.0207,0.2852 0,1.8113 -2.9317,2.1777 -4.845,2.1777 -1.5066,0 -2.5847,-0.2648 -2.5847,-1.5058 0,-2.9719 8.7324,0.2234 8.7324,-6.4934 0,-3.114 -2.6875,-4.6816 -6.4934,-4.6816 -2.6668,0 -5.4961,0.834 -5.4961,2.7277 0,0.5899 0.2649,1.282 0.9161,2.0965 0,-1.8524 2.8703,-2.2391 4.58,-2.2391 1.9739,0 2.8696,0.6512 2.8696,1.8524 0,3.3586 -8.7317,0.1621 -8.7317,6.3508 0,3.4394 2.7879,4.4785 6.1875,4.4785"
       id="path14"
       style="fill:#4f4c4c;fill-opacity:1;fill-rule:nonzero;stroke:none" /><path
       d="m 70.0371,46.7754 c 0,-3.2363 -3.0527,-4.8445 -6.4933,-4.8445 -3.4801,0 -6.534,1.6082 -6.534,4.8445 l 0,10.4016 c 0,0 3.5019,0 3.5019,-1.5676 l 0,-8.5293 c 0,-1.6895 1.241,-2.5848 3.0321,-2.5848 1.7511,0 2.9921,0.8953 2.9921,2.5848 l 0,10.0969 c 0,0 3.5012,0 3.5012,-1.5676 l 0,-8.834"
       id="path16"
       style="fill:#4f4c4c;fill-opacity:1;fill-rule:nonzero;stroke:none" /><path
       d="m 75.9805,54.4895 0,-5.3332 0.9968,0 c 1.7512,0 2.9922,0.3058 2.9922,2.7082 0,2.2187 -1.241,2.625 -2.9922,2.625 l -0.9968,0 z m -3.5008,2.4832 4.4976,0 c 3.4407,0 6.4934,-0.8543 6.4934,-4.9258 l 0,-0.366 c 0,-3.9688 -3.0527,-5.0079 -6.4934,-5.0079 l -0.9968,0 0,-4.7011 c 0,0 -3.5008,0 -3.5008,1.5672 l 0,13.4336"
       id="path18"
       style="fill:#4f4c4c;fill-opacity:1;fill-rule:nonzero;stroke:none" /><path
       d="m 88.9863,54.4895 0,-5.3332 0.9973,0 c 1.7508,0 2.9922,0.3058 2.9922,2.7082 0,2.2187 -1.2414,2.625 -2.9922,2.625 l -0.9973,0 z m -3.5008,2.4832 4.4981,0 c 3.4402,0 6.493,-0.8543 6.493,-4.9258 l 0,-0.366 c 0,-3.9688 -3.0528,-5.0079 -6.493,-5.0079 l -0.9973,0 0,-4.7011 c 0,0 -3.5008,0 -3.5008,1.5672 l 0,13.4336"
       id="path20"
       style="fill:#4f4c4c;fill-opacity:1;fill-rule:nonzero;stroke:none" /><path
       d="m 107.813,51.884 c 0,1.8125 -0.488,2.8504 -3.012,2.8504 -2.524,0 -3.012,-1.0379 -3.012,-2.8504 l 0,-4.6203 c 0,-1.8114 0.488,-2.8699 3.012,-2.8699 2.524,0 3.012,1.0585 3.012,2.8699 l 0,4.6203 z m 3.501,-4.8848 c 0,-3.1758 -2.076,-5.0683 -6.493,-5.0683 -4.477,0 -6.5339,1.8925 -6.5339,5.0683 l 0,5.1492 c 0,3.1555 2.0569,5.0696 6.5339,5.0696 4.417,0 6.493,-1.9141 6.493,-5.0696 l 0,-5.1492"
       id="path22"
       style="fill:#4f4c4c;fill-opacity:1;fill-rule:nonzero;stroke:none" /><path
       d="m 117.258,54.4895 0,-3.6836 1.77,0 c 1.487,0 2.016,0.6511 2.016,1.9941 0,1.323 -0.713,1.6895 -2.178,1.6895 l -1.608,0 z m 3.602,-5.9024 c 2.566,-1.6894 3.278,-4.1125 4.785,-6.2492 0,0 -1.243,-0.3262 -1.731,-0.3262 -0.855,0 -2.036,0.2649 -2.768,1.4453 -0.834,1.3235 -1.874,3.8879 -3.888,4.7637 l 0,-6.2488 c 0,0 -3.501,0.0605 -3.501,1.5672 l 0,13.4336 5.109,0 c 3.297,0 5.679,-0.9356 5.679,-3.8672 l 0,-0.6102 c 0,-2.1379 -1.323,-3.8683 -3.685,-3.9082"
       id="path24"
       style="fill:#4f4c4c;fill-opacity:1;fill-rule:nonzero;stroke:none" /><path
       d="m 133.419,54.4895 0,-12.5176 c 0,0 -3.501,0 -3.501,1.5672 l 0,10.9504 -1.954,0 c -2.016,0 -2.32,1.405 -2.32,2.8093 0,0 0.976,-0.3261 2.645,-0.3261 l 6.84,0 c 1.669,0 2.626,0.3261 2.626,0.3261 0,-1.4043 -0.265,-2.8093 -2.301,-2.8093 l -2.035,0"
       id="path26"
       style="fill:#4f4c4c;fill-opacity:1;fill-rule:nonzero;stroke:none" /><path
       d="m 147.097,54.4895 0,-5.3332 0.997,0 c 1.751,0 2.992,0.3058 2.992,2.7082 0,2.2187 -1.241,2.625 -2.992,2.625 l -0.997,0 z m -3.501,2.4832 4.498,0 c 3.44,0 6.493,-0.8543 6.493,-4.9258 l 0,-0.366 c 0,-3.9688 -3.053,-5.0079 -6.493,-5.0079 l -0.997,0 0,-4.7011 c 0,0 -3.501,0 -3.501,1.5672 l 0,13.4336"
       id="path28"
       style="fill:#4f4c4c;fill-opacity:1;fill-rule:nonzero;stroke:none" /><path
       d="m 161.589,50.3781 -0.529,-1.9133 3.134,0 -0.529,1.9133 c -0.306,1.0996 -1.038,3.0731 -1.038,3.0731 0,0 -0.733,-1.9735 -1.038,-3.0731 z m 5.373,0.5293 1.792,-5.414 c 0.447,-1.3848 0.773,-2.4434 1.241,-3.1153 0,0 -1.038,-0.3457 -1.608,-0.3457 -2.158,0 -2.646,1.5067 -3.175,3.0535 l -0.306,0.8957 -4.559,0 -0.306,-0.8957 c -0.528,-1.5468 -1.018,-3.0535 -3.175,-3.0535 -0.55,0 -1.588,0.3457 -1.588,0.3457 0.468,0.6719 0.774,1.7305 1.222,3.1153 l 1.791,5.414 c 1.344,4.0508 3.786,6.2899 4.336,6.6153 0.569,-0.3254 2.992,-2.5852 4.335,-6.6153"
       id="path30"
       style="fill:#4f4c4c;fill-opacity:1;fill-rule:nonzero;stroke:none" /><path
       d="m 176.387,54.4895 0,-12.5176 c 0,0 -3.501,0 -3.501,1.5672 l 0,10.9504 -1.954,0 c -2.016,0 -2.321,1.405 -2.321,2.8093 0,0 0.977,-0.3261 2.646,-0.3261 l 6.84,0 c 1.669,0 2.626,0.3261 2.626,0.3261 0,-1.4043 -0.265,-2.8093 -2.301,-2.8093 l -2.035,0"
       id="path32"
       style="fill:#4f4c4c;fill-opacity:1;fill-rule:nonzero;stroke:none" /><path
       d="m 182.086,57.177 c 0,0 3.501,0 3.501,-1.5676 l 0,-13.6375 c 0,0 -3.501,0 -3.501,1.5672 l 0,13.6379"
       id="path34"
       style="fill:#4f4c4c;fill-opacity:1;fill-rule:nonzero;stroke:none" /><path
       d="m 191.733,48.709 0,-4.0711 7.267,0 c 0,-0.1426 -0.04,-2.4629 -1.893,-2.4629 l -6.249,0 c 0,0 -2.626,0 -2.626,1.5672 l 0,13.2305 10.768,0 c 0,0 0,-2.4832 -1.893,-2.4832 l -5.374,0 0,-3.2969 3.828,0 c 2.014,0 2.625,0.325 2.625,0.325 0,-1.4043 -0.285,-2.8086 -2.3,-2.8086 l -4.153,0"
       id="path36"
       style="fill:#4f4c4c;fill-opacity:1;fill-rule:nonzero;stroke:none" /><path
       d="m 210.622,47.2844 c 0,0 -0.284,1.3633 -0.284,2.666 l 0,7.0223 c 0,0 3.501,0 3.501,-1.5672 l 0,-13.4336 c -3.745,0 -4.417,1.5867 -4.417,1.5867 l -5.211,8.3254 c 0,0 0.224,-1.2617 0.224,-2.3809 l 0,-7.5312 c 0,0 -3.501,0 -3.501,1.5672 l 0,13.4336 c 1.995,0 3.582,-0.0399 4.396,-1.2821 l 5.292,-8.4062"
       id="path38"
       style="fill:#4f4c4c;fill-opacity:1;fill-rule:nonzero;stroke:none" /><path
       d="m 222.978,54.4895 0,-12.5176 c 0,0 -3.501,0 -3.501,1.5672 l 0,10.9504 -1.955,0 c -2.015,0 -2.32,1.405 -2.32,2.8093 0,0 0.977,-0.3261 2.646,-0.3261 l 6.84,0 c 1.668,0 2.625,0.3261 2.625,0.3261 0,-1.4043 -0.264,-2.8093 -2.3,-2.8093 l -2.035,0"
       id="path40"
       style="fill:#4f4c4c;fill-opacity:1;fill-rule:nonzero;stroke:none" /><path
       d="m 234.254,57.218 c 3.318,0 5.679,-0.6926 5.679,-2.6465 0,-0.6516 -0.265,-1.4453 -0.834,-2.4024 0.02,0.1016 0.02,0.2039 0.02,0.2852 0,1.8113 -2.931,2.1777 -4.845,2.1777 -1.506,0 -2.585,-0.2648 -2.585,-1.5058 0,-2.9719 8.733,0.2234 8.733,-6.4934 0,-3.114 -2.688,-4.6816 -6.493,-4.6816 -2.667,0 -5.496,0.834 -5.496,2.7277 0,0.5899 0.264,1.282 0.916,2.0965 0,-1.8524 2.87,-2.2391 4.58,-2.2391 1.973,0 2.869,0.6512 2.869,1.8524 0,3.3586 -8.732,0.1621 -8.732,6.3508 0,3.4394 2.788,4.4785 6.188,4.4785"
       id="path42"
       style="fill:#4f4c4c;fill-opacity:1;fill-rule:nonzero;stroke:none" /><path
       d="m 49.9277,35.3723 0,-12.5176 c 0,0 -3.5007,0 -3.5007,1.5672 l 0,10.9504 -1.9543,0 c -2.0157,0 -2.3204,1.405 -2.3204,2.8093 0,0 0.9766,-0.3261 2.6457,-0.3261 l 6.8399,0 c 1.6687,0 2.6258,0.3261 2.6258,0.3261 0,-1.4043 -0.2649,-2.8093 -2.3008,-2.8093 l -2.0352,0"
       id="path44"
       style="fill:#4f4c4c;fill-opacity:1;fill-rule:nonzero;stroke:none" /><path
       d="m 65.0105,29.1848 -5.8828,0 0,-6.3301 c 0,0 -3.5007,0 -3.5007,1.5672 l 0,13.6379 c 0,0 3.5007,0 3.5007,-1.5676 l 0,-4.8035 5.8828,0 0,6.3711 c 0,0 3.5012,0 3.5012,-1.5676 l 0,-13.6375 c 0,0 -3.5012,0 -3.5012,1.5672 l 0,4.7629"
       id="path46"
       style="fill:#4f4c4c;fill-opacity:1;fill-rule:nonzero;stroke:none" /><path
       d="m 74.6582,35.3723 0,-3.6836 1.7703,0 c 1.4863,0 2.0156,0.6511 2.0156,1.9941 0,1.3231 -0.7128,1.6895 -2.1773,1.6895 l -1.6086,0 z m 3.6023,-5.9024 c 2.5657,-1.6894 3.2778,-4.1125 4.7844,-6.2492 0,0 -1.2422,-0.3262 -1.7304,-0.3262 -0.8555,0 -2.0364,0.2649 -2.7684,1.4453 -0.8344,1.3235 -1.8731,3.8879 -3.8879,4.7637 l 0,-6.2488 c 0,0 -3.5012,0.0605 -3.5012,1.5672 l 0,13.4336 5.1098,0 c 3.2969,0 5.6785,-0.9356 5.6785,-3.8672 l 0,-0.6102 c 0,-2.1379 -1.323,-3.8683 -3.6848,-3.9082"
       id="path48"
       style="fill:#4f4c4c;fill-opacity:1;fill-rule:nonzero;stroke:none" /><path
       d="m 93.6484,32.7668 c 0,1.8125 -0.4882,2.8504 -3.0129,2.8504 -2.5234,0 -3.0117,-1.0379 -3.0117,-2.8504 l 0,-4.6203 c 0,-1.8113 0.4883,-2.8699 3.0117,-2.8699 2.5247,0 3.0129,1.0586 3.0129,2.8699 l 0,4.6203 z m 3.5008,-4.8848 c 0,-3.1757 -2.0762,-5.0683 -6.4929,-5.0683 -4.4778,0 -6.534,1.8926 -6.534,5.0683 l 0,5.1493 c 0,3.1554 2.0562,5.0695 6.534,5.0695 4.4167,0 6.4929,-1.9141 6.4929,-5.0695 l 0,-5.1493"
       id="path50"
       style="fill:#4f4c4c;fill-opacity:1;fill-rule:nonzero;stroke:none" /><path
       d="m 112.415,27.6582 c 0,-3.2363 -3.053,-4.8445 -6.493,-4.8445 -3.481,0 -6.5341,1.6082 -6.5341,4.8445 l 0,10.4016 c 0,0 3.5021,0 3.5021,-1.5676 l 0,-8.5293 c 0,-1.6895 1.241,-2.5848 3.032,-2.5848 1.751,0 2.992,0.8953 2.992,2.5848 l 0,10.0969 c 0,0 3.501,0 3.501,-1.5676 l 0,-8.834"
       id="path52"
       style="fill:#4f4c4c;fill-opacity:1;fill-rule:nonzero;stroke:none" /><path
       d="m 114.653,32.8488 c 0,3.8875 3.054,5.252 6.535,5.252 2.911,0 5.923,-0.916 5.923,-2.9922 0,-0.5293 -0.244,-1.2219 -0.794,-1.9953 -0.895,2.0762 -3.256,2.4015 -5.129,2.4015 -1.792,0 -3.033,-0.6914 -3.033,-2.9511 l 0,-4.1934 c 0,-2.2793 1.241,-2.9922 3.033,-2.9922 1.75,0 2.992,0.3867 2.992,2.7891 l 0,0.1824 -1.934,0 c -1.323,0 -2.056,0.5293 -2.056,2.7082 0,0 0.571,-0.2246 2.402,-0.2246 l 5.089,0 0,-2.9719 c 0,-3.8066 -3.053,-5.0476 -6.493,-5.0476 -3.481,0 -6.535,1.3633 -6.535,5.2519 l 0,4.7832"
       id="path54"
       style="fill:#4f4c4c;fill-opacity:1;fill-rule:nonzero;stroke:none" /><path
       d="m 139.507,29.1848 -5.883,0 0,-6.3301 c 0,0 -3.501,0 -3.501,1.5672 l 0,13.6379 c 0,0 3.501,0 3.501,-1.5676 l 0,-4.8035 5.883,0 0,6.3711 c 0,0 3.501,0 3.501,-1.5676 l 0,-13.6375 c 0,0 -3.501,0 -3.501,1.5672 l 0,4.7629"
       id="path56"
       style="fill:#4f4c4c;fill-opacity:1;fill-rule:nonzero;stroke:none" /><path
       d="m 154.854,29.5918 0,-4.0711 7.266,0 c 0,-0.1426 -0.041,-2.4629 -1.892,-2.4629 l -6.249,0 c 0,0 -2.626,0 -2.626,1.5672 l 0,13.2305 10.767,0 c 0,0 0,-2.4832 -1.892,-2.4832 l -5.374,0 0,-3.2969 3.827,0 c 2.014,0 2.625,0.325 2.625,0.325 0,-1.4043 -0.285,-2.8086 -2.3,-2.8086 l -4.152,0"
       id="path58"
       style="fill:#4f4c4c;fill-opacity:1;fill-rule:nonzero;stroke:none" /><path
       d="m 170.934,29.4289 c 0,0 0.082,-0.3254 0.082,-0.7324 0,-0.6926 -0.225,-1.5879 -1.303,-1.5879 l -6.412,0 c 0,0 -0.062,0.2852 -0.062,0.6512 0,0.6925 0.204,1.6691 1.324,1.6691 l 6.371,0"
       id="path60"
       style="fill:#4f4c4c;fill-opacity:1;fill-rule:nonzero;stroke:none" /><path
       d="m 179.034,38.1008 c 3.319,0 5.679,-0.6926 5.679,-2.6465 0,-0.6516 -0.265,-1.4453 -0.834,-2.4023 0.02,0.1015 0.02,0.2039 0.02,0.2851 0,1.8113 -2.931,2.1777 -4.844,2.1777 -1.507,0 -2.585,-0.2648 -2.585,-1.5058 0,-2.9719 8.732,0.2234 8.732,-6.4934 0,-3.114 -2.687,-4.6816 -6.493,-4.6816 -2.667,0 -5.496,0.834 -5.496,2.7277 0,0.5899 0.265,1.2821 0.916,2.0965 0,-1.8523 2.87,-2.2391 4.58,-2.2391 1.974,0 2.87,0.6512 2.87,1.8524 0,3.3586 -8.732,0.1621 -8.732,6.3508 0,3.4394 2.788,4.4785 6.187,4.4785"
       id="path62"
       style="fill:#4f4c4c;fill-opacity:1;fill-rule:nonzero;stroke:none" /><path
       d="m 190.737,29.5918 0,-4.0711 7.267,0 c 0,-0.1426 -0.04,-2.4629 -1.893,-2.4629 l -6.249,0 c 0,0 -2.626,0 -2.626,1.5672 l 0,13.2305 10.768,0 c 0,0 0,-2.4832 -1.893,-2.4832 l -5.374,0 0,-3.2969 3.827,0 c 2.015,0 2.625,0.325 2.625,0.325 0,-1.4043 -0.284,-2.8086 -2.299,-2.8086 l -4.153,0"
       id="path64"
       style="fill:#4f4c4c;fill-opacity:1;fill-rule:nonzero;stroke:none" /><path
       d="m 203.438,35.3723 0,-3.6836 1.771,0 c 1.486,0 2.016,0.6511 2.016,1.9941 0,1.3231 -0.713,1.6895 -2.178,1.6895 l -1.609,0 z m 3.603,-5.9024 c 2.565,-1.6894 3.277,-4.1125 4.784,-6.2492 0,0 -1.242,-0.3262 -1.73,-0.3262 -0.856,0 -2.035,0.2649 -2.769,1.4453 -0.834,1.3235 -1.872,3.8879 -3.888,4.7637 l 0,-6.2488 c 0,0 -3.5,0.0605 -3.5,1.5672 l 0,13.4336 5.109,0 c 3.297,0 5.679,-0.9356 5.679,-3.8672 l 0,-0.6102 c 0,-2.1379 -1.324,-3.8683 -3.685,-3.9082"
       id="path66"
       style="fill:#4f4c4c;fill-opacity:1;fill-rule:nonzero;stroke:none" /><path
       d="m 215.02,28.9406 -1.914,5.577 c -0.468,1.3644 -0.752,2.4426 -1.221,3.1144 0,0 1.038,0.3457 1.588,0.3457 2.137,0 2.585,-1.5265 3.114,-3.0527 l 1.811,-5.2922 c 0.509,-1.4863 1.08,-2.6465 1.08,-2.6465 0,0 0.63,1.3633 1.079,2.6465 l 1.832,5.2922 c 0.529,1.5262 0.976,3.0527 3.093,3.0527 0.57,0 1.609,-0.3457 1.609,-0.3457 -0.448,-0.6718 -0.775,-1.75 -1.201,-3.1144 l -1.954,-5.577 c -1.446,-4.132 -3.909,-6.1066 -4.458,-6.4726 -0.509,0.366 -2.993,2.3406 -4.458,6.4726"
       id="path68"
       style="fill:#4f4c4c;fill-opacity:1;fill-rule:nonzero;stroke:none" /><path
       d="m 228.515,38.0598 c 0,0 3.501,0 3.501,-1.5676 l 0,-13.6375 c 0,0 -3.501,0 -3.501,1.5672 l 0,13.6379"
       id="path70"
       style="fill:#4f4c4c;fill-opacity:1;fill-rule:nonzero;stroke:none" /><path
       d="m 237.959,32.5637 0,-4.1934 c 0,-2.2793 1.241,-2.9922 3.032,-2.9922 1.873,0 4.051,0.2235 5.171,2.4227 2.015,-3.3789 -1.323,-4.9871 -5.171,-4.9871 -3.48,0 -6.534,1.3633 -6.534,5.2519 l 0,4.7832 c 0,3.8875 3.054,5.252 6.534,5.252 3.848,0 7.512,-1.4055 5.171,-4.9875 -0.896,2.0762 -3.298,2.4015 -5.171,2.4015 -1.791,0 -3.032,-0.6914 -3.032,-2.9511"
       id="path72"
       style="fill:#4f4c4c;fill-opacity:1;fill-rule:nonzero;stroke:none" /><path
       d="m 252.776,29.5918 0,-4.0711 7.267,0 c 0,-0.1426 -0.04,-2.4629 -1.893,-2.4629 l -6.249,0 c 0,0 -2.626,0 -2.626,1.5672 l 0,13.2305 10.768,0 c 0,0 0,-2.4832 -1.893,-2.4832 l -5.374,0 0,-3.2969 3.828,0 c 2.014,0 2.625,0.325 2.625,0.325 0,-1.4043 -0.285,-2.8086 -2.3,-2.8086 l -4.153,0"
       id="path74"
       style="fill:#4f4c4c;fill-opacity:1;fill-rule:nonzero;stroke:none" /><path
       d="m 273.253,38.1008 c 3.318,0 5.679,-0.6926 5.679,-2.6465 0,-0.6516 -0.265,-1.4453 -0.834,-2.4023 0.02,0.1015 0.02,0.2039 0.02,0.2851 0,1.8113 -2.931,2.1777 -4.845,2.1777 -1.506,0 -2.585,-0.2648 -2.585,-1.5058 0,-2.9719 8.733,0.2234 8.733,-6.4934 0,-3.114 -2.688,-4.6816 -6.493,-4.6816 -2.667,0 -5.496,0.834 -5.496,2.7277 0,0.5899 0.264,1.2821 0.916,2.0965 0,-1.8523 2.87,-2.2391 4.58,-2.2391 1.973,0 2.87,0.6512 2.87,1.8524 0,3.3586 -8.733,0.1621 -8.733,6.3508 0,3.4394 2.789,4.4785 6.188,4.4785"
       id="path76"
       style="fill:#4f4c4c;fill-opacity:1;fill-rule:nonzero;stroke:none" /><path
       d="m 290.777,32.7668 c 0,1.8125 -0.488,2.8504 -3.012,2.8504 -2.524,0 -3.012,-1.0379 -3.012,-2.8504 l 0,-4.6203 c 0,-1.8113 0.488,-2.8699 3.012,-2.8699 2.524,0 3.012,1.0586 3.012,2.8699 l 0,4.6203 z m 3.501,-4.8848 c 0,-3.1757 -2.076,-5.0683 -6.493,-5.0683 -4.477,0 -6.534,1.8926 -6.534,5.0683 l 0,5.1493 c 0,3.1554 2.057,5.0695 6.534,5.0695 4.417,0 6.493,-1.9141 6.493,-5.0695 l 0,-5.1493"
       id="path78"
       style="fill:#4f4c4c;fill-opacity:1;fill-rule:nonzero;stroke:none" /><path
       d="m 299.347,23.0578 c 0,0 -2.626,0 -2.626,1.5672 l 0,13.4348 c 0,0 3.501,0 3.501,-1.5676 l 0,-10.9715 4.173,0 c 1.974,0 2.626,0.366 2.626,0.366 0,-1.4043 -0.143,-2.8289 -1.894,-2.8289 l -5.78,0"
       id="path80"
       style="fill:#4f4c4c;fill-opacity:1;fill-rule:nonzero;stroke:none" /><path
       d="m 321.288,27.6582 c 0,-3.2363 -3.053,-4.8445 -6.493,-4.8445 -3.481,0 -6.534,1.6082 -6.534,4.8445 l 0,10.4016 c 0,0 3.502,0 3.502,-1.5676 l 0,-8.5293 c 0,-1.6895 1.241,-2.5848 3.032,-2.5848 1.751,0 2.992,0.8953 2.992,2.5848 l 0,10.0969 c 0,0 3.501,0 3.501,-1.5676 l 0,-8.834"
       id="path82"
       style="fill:#4f4c4c;fill-opacity:1;fill-rule:nonzero;stroke:none" /><path
       d="m 330.02,35.3723 0,-12.5176 c 0,0 -3.501,0 -3.501,1.5672 l 0,10.9504 -1.955,0 c -2.015,0 -2.32,1.405 -2.32,2.8093 0,0 0.977,-0.3261 2.646,-0.3261 l 6.839,0 c 1.669,0 2.626,0.3261 2.626,0.3261 0,-1.4043 -0.264,-2.8093 -2.3,-2.8093 l -2.035,0"
       id="path84"
       style="fill:#4f4c4c;fill-opacity:1;fill-rule:nonzero;stroke:none" /><path
       d="m 335.719,38.0598 c 0,0 3.501,0 3.501,-1.5676 l 0,-13.6375 c 0,0 -3.501,0 -3.501,1.5672 l 0,13.6379"
       id="path86"
       style="fill:#4f4c4c;fill-opacity:1;fill-rule:nonzero;stroke:none" /><path
       d="m 351.188,32.7668 c 0,1.8125 -0.489,2.8504 -3.013,2.8504 -2.524,0 -3.012,-1.0379 -3.012,-2.8504 l 0,-4.6203 c 0,-1.8113 0.488,-2.8699 3.012,-2.8699 2.524,0 3.013,1.0586 3.013,2.8699 l 0,4.6203 z m 3.5,-4.8848 c 0,-3.1757 -2.076,-5.0683 -6.493,-5.0683 -4.477,0 -6.534,1.8926 -6.534,5.0683 l 0,5.1493 c 0,3.1554 2.057,5.0695 6.534,5.0695 4.417,0 6.493,-1.9141 6.493,-5.0695 l 0,-5.1493"
       id="path88"
       style="fill:#4f4c4c;fill-opacity:1;fill-rule:nonzero;stroke:none" /><path
       d="m 366.819,28.1672 c 0,0 -0.284,1.3633 -0.284,2.666 l 0,7.0223 c 0,0 3.501,0 3.501,-1.5672 l 0,-13.4336 c -3.745,0 -4.417,1.5867 -4.417,1.5867 l -5.211,8.3254 c 0,0 0.224,-1.2617 0.224,-2.3809 l 0,-7.5312 c 0,0 -3.501,0 -3.501,1.5672 l 0,13.4336 c 1.995,0 3.582,-0.0399 4.396,-1.2821 l 5.292,-8.4062"
       id="path90"
       style="fill:#4f4c4c;fill-opacity:1;fill-rule:nonzero;stroke:none" /><path
       d="m 378.259,38.1008 c 3.318,0 5.679,-0.6926 5.679,-2.6465 0,-0.6516 -0.265,-1.4453 -0.834,-2.4023 0.02,0.1015 0.02,0.2039 0.02,0.2851 0,1.8113 -2.932,2.1777 -4.845,2.1777 -1.507,0 -2.585,-0.2648 -2.585,-1.5058 0,-2.9719 8.733,0.2234 8.733,-6.4934 0,-3.114 -2.688,-4.6816 -6.493,-4.6816 -2.667,0 -5.496,0.834 -5.496,2.7277 0,0.5899 0.264,1.2821 0.916,2.0965 0,-1.8523 2.87,-2.2391 4.58,-2.2391 1.973,0 2.87,0.6512 2.87,1.8524 0,3.3586 -8.733,0.1621 -8.733,6.3508 0,3.4394 2.788,4.4785 6.188,4.4785"
       id="path92"
       style="fill:#4f4c4c;fill-opacity:1;fill-rule:nonzero;stroke:none" /><path
       d="m 60.9055,44.1758 c -0.0102,0.0012 -0.0176,0.0031 -0.0266,0.0039 l -0.0012,-8e-4 c 0.0102,-0.0012 0.0176,-0.0019 0.0278,-0.0031"
       id="path94"
       style="fill:#f9a72b;fill-opacity:1;fill-rule:nonzero;stroke:none" /><path
       d="m 61.2805,54.2766 c 0.0093,-0.0012 0.0183,-0.0039 0.0261,-0.0039 l 8e-4,0 c -0.0086,7e-4 -0.0176,0.0027 -0.0269,0.0039"
       id="path96"
       style="fill:#f9a72b;fill-opacity:1;fill-rule:nonzero;stroke:none" /><path
       d="m 61.2852,66.925 c 0.007,-0.007 0.0117,-0.0148 0.0175,-0.0207 l 8e-4,0 c -0.0055,0.007 -0.0113,0.0137 -0.0183,0.0207"
       id="path98"
       style="fill:#f9a72b;fill-opacity:1;fill-rule:nonzero;stroke:none" /><path
       d="m 61.3059,59.2473 c -0.0079,-0.0059 -0.0161,-0.0118 -0.0215,-0.0157 0,-0.0011 0,-0.0011 0,-0.0019 0.0066,0.0058 0.0136,0.0117 0.0215,0.0176"
       id="path100"
       style="fill:#f9a72b;fill-opacity:1;fill-rule:nonzero;stroke:none" /><path
       d="m 56.282,51.8371 c -0.0093,8e-4 -0.0203,0.0027 -0.0308,0.0039 l 0,-0.0012 c 0.0105,-0.0019 0.0215,-0.0019 0.0308,-0.0027"
       id="path102"
       style="fill:#f9a72b;fill-opacity:1;fill-rule:nonzero;stroke:none" /><path
       d="m 56.7285,63.8145 c 0.011,0 0.0203,-0.0028 0.0313,-0.0028 l 0,0 c -0.011,0.002 -0.0203,0.0028 -0.0313,0.0028"
       id="path104"
       style="fill:#f9a72b;fill-opacity:1;fill-rule:nonzero;stroke:none" /><path
       d="m 56.7578,69.7109 c -0.009,-0.0058 -0.0176,-0.0125 -0.0265,-0.0183 0,-0.0012 0,-0.0012 0,-0.0012 0.0097,0.007 0.0175,0.0129 0.0265,0.0195"
       id="path106"
       style="fill:#f9a72b;fill-opacity:1;fill-rule:nonzero;stroke:none" /><path
       d="m 54.259,11.0324 c 22.6426,2.1297 42.4285,1.5742 51.993,-1.0312 l 3.371,0.3164 c -7.494,5.1531 -29.8015,7.332 -55.7558,4.8906 C 27.9094,12.7637 6.40234,6.46211 0,0 L 3.37109,0.317578 C 12.2813,4.66328 31.616,8.90039 54.259,11.0324"
       id="path108"
       style="fill:#80cc28;fill-opacity:1;fill-rule:nonzero;stroke:none" /><path
       d="m 57.948,78.5012 c 0.0071,-0.0071 0.0122,-0.0188 0.0176,-0.0254 l 0.0012,0 c -0.0059,0.0086 -0.0117,0.0183 -0.0188,0.0254"
       id="path110"
       style="fill:#f9a72b;fill-opacity:1;fill-rule:nonzero;stroke:none" /><path
       d="m 54.8152,77.75 c -0.0015,-0.0105 -0.0039,-0.0223 -0.0047,-0.0312 8e-4,0 8e-4,0 8e-4,0 0.0024,0.0089 0.0032,0.0207 0.0039,0.0312"
       id="path112"
       style="fill:#f9a72b;fill-opacity:1;fill-rule:nonzero;stroke:none" /><path
       d="m 55.1133,83.4543 c -4.7586,0.25 -8.6848,3.9812 -10.3582,9.1836 l -0.7082,0.0359 c 1.0129,-8.5957 5.2898,-15.0605 10.7453,-15.3465 5.4539,-0.2851 10.3824,5.6961 12.2898,14.1395 l -0.7082,0.0383 c -2.209,-4.9981 -6.5015,-8.3 -11.2605,-8.0508"
       id="path114"
       style="fill:#f9a72b;fill-opacity:1;fill-rule:nonzero;stroke:none" /><path
       d="m 52.1063,92.2531 c 0.1,1.9012 1.723,3.3602 3.6222,3.2606 1.9024,-0.0996 3.3621,-1.7203 3.2617,-3.6219 -0.0996,-1.9004 -1.7199,-3.3605 -3.6218,-3.2617 -1.8996,0.1004 -3.3618,1.7215 -3.2621,3.623"
       id="path116"
       style="fill:#f9a72b;fill-opacity:1;fill-rule:nonzero;stroke:none" /><path
       d="M 24.5676,53.7824 C 24.3047,48.7609 20.3633,44.6164 14.8723,42.8488 L 14.832,42.1016 c 9.0762,1.0714 15.9004,5.5859 16.2024,11.3418 0.3023,5.7578 -6.0141,10.9609 -14.927,12.9746 l -0.0398,-0.7481 c 5.2769,-2.332 8.7637,-6.8652 8.5,-11.8875"
       id="path118"
       style="fill:#3871c1;fill-opacity:1;fill-rule:nonzero;stroke:none" /><path
       d="m 12.0281,54.4406 c 0.0996,1.9012 1.7219,3.3602 3.6235,3.2606 1.9011,-0.0996 3.3613,-1.7207 3.2605,-3.6211 -0.0984,-1.9024 -1.7207,-3.3621 -3.623,-3.2625 -1.9004,0.0996 -3.3606,1.7215 -3.261,3.623"
       id="path120"
       style="fill:#3871c1;fill-opacity:1;fill-rule:nonzero;stroke:none" /><path
       d="m 32.8328,75.1613 c -3.7371,-3.3644 -9.4539,-3.5078 -14.5855,-0.875 l -0.5571,-0.5 c 7.1743,-5.6613 15.1914,-7.2949 19.477,-3.4367 4.284,3.8555 3.4976,12.002 -1.3828,19.7285 l -0.5559,-0.5008 c 2.0813,-5.38 1.343,-11.0507 -2.3957,-14.416"
       id="path122"
       style="fill:#3871c1;fill-opacity:1;fill-rule:nonzero;stroke:none" /><path
       d="m 23.002,82 c 0.0996,1.9004 1.7214,3.3613 3.6218,3.2617 1.9016,-0.0996 3.3617,-1.7215 3.2629,-3.6219 -0.1008,-1.9015 -1.7219,-3.3625 -3.623,-3.2617 C 24.3633,78.4777 22.9023,80.0977 23.002,82"
       id="path124"
       style="fill:#3871c1;fill-opacity:1;fill-rule:nonzero;stroke:none" /><path
       d="m 76.4031,72.8781 c -3.364,3.7383 -3.5086,9.4551 -0.875,14.5879 l -0.5015,0.5547 c -5.6594,-7.1738 -7.2922,-15.1906 -3.436,-19.4758 3.8574,-4.284 12.0032,-3.498 19.7285,1.3821 l -0.5007,0.5574 C 85.4395,68.4016 79.7676,69.1418 76.4031,72.8781"
       id="path126"
       style="fill:#3871c1;fill-opacity:1;fill-rule:nonzero;stroke:none" /><path
       d="m 80.2598,78.6281 c 0.0996,1.9012 1.7215,3.3614 3.6218,3.2617 1.9004,-0.1007 3.3618,-1.7218 3.2622,-3.623 -0.1,-1.9004 -1.7219,-3.3605 -3.6235,-3.2617 -1.8992,0.0996 -3.3601,1.7215 -3.2605,3.623"
       id="path128"
       style="fill:#3871c1;fill-opacity:1;fill-rule:nonzero;stroke:none" /><path
       d="m 31.2766,31.3516 c -3.3664,3.7375 -9.0364,4.4777 -14.4161,2.3964 l -0.5011,0.5559 c 7.7265,4.8789 15.8719,5.6649 19.7297,1.3809 3.8574,-4.2832 2.2246,-12.302 -3.4368,-19.4766 l -0.5,0.5555 c 2.6321,5.134 2.4883,10.8508 -0.8757,14.5879"
       id="path130"
       style="fill:#3871c1;fill-opacity:1;fill-rule:nonzero;stroke:none" /><path
       d="m 20.7832,25.5773 c -0.0984,-1.8996 1.3613,-3.5214 3.2629,-3.621 1.9004,-0.0997 3.5223,1.3613 3.6219,3.2617 0.0996,1.9004 -1.3606,3.5234 -3.2617,3.6218 -1.9012,0.1008 -3.5235,-1.3593 -3.6231,-3.2625"
       id="path132"
       style="fill:#3871c1;fill-opacity:1;fill-rule:nonzero;stroke:none" /></g></svg>