<svg xmlns:osb="http://www.openswatchbook.org/uri/2009/osb" xmlns="http://www.w3.org/2000/svg" xmlns:xlink="http://www.w3.org/1999/xlink" width="100" height="100" viewBox="0 0 100 100">
    <defs>
        <linearGradient id="k">
            <stop offset="0" stop-color="#00f"/>
            <stop offset="1" stop-opacity="0"/>
        </linearGradient>
        <linearGradient xlink:href="#k" id="z" gradientUnits="userSpaceOnUse" gradientTransform="matrix(1 0 0 .655 -10.386 259.621)" x1="663.081" y1="779.103" x2="713.735" y2="806.687"/>

    </defs>
    <g transform="translate(-20, -20)" class="button">
        <path transform="matrix(1.177 0 0 1.177 -1297.167 -16.46)" d="M1203.366 73.402a42.048 42.048 0 1 1-84.095 0 42.048 42.048 0 1 1 84.095 0z" class="background" fill="#fff" stroke="#00f" stroke-width=".849"/>
        <g stroke="#00f" stroke-linecap="round" stroke-linejoin="round" transform="translate(-604.382 -692.04)">
            <rect width="58" height="38" x="645.348" y="750.14" ry=".185" fill="url(#z)"/>
            <path d="M674.022 732.067l38.978 18.009h-77.956z" fill="#00f"/>
            <rect width="22.82" height="30.164" x="662.938" y="757.977" ry=".185" fill="#fff"/>
            <path d="M677.14 763.882l8.547-5.902c.038-.026.071.082.071.185v29.795c0 .102-.032.185-.071.185h-8.597z" fill="#00f"/>
        </g>
        <path transform="matrix(1.177 0 0 1.177 -1297.167 -16.46)" d="M1203.366 73.402a42.048 42.048 0 1 1-84.095 0 42.048 42.048 0 1 1 84.095 0z" class="overlay" fill="none"/>
    </g>
</svg>
