<svg xmlns:osb="http://www.openswatchbook.org/uri/2009/osb" xmlns="http://www.w3.org/2000/svg" xmlns:xlink="http://www.w3.org/1999/xlink" width="100" height="100" viewBox="0 0 100 100">
    <g transform="translate(50, 50) scale(1.666) translate(-1153 -232)" stroke="#000" stroke-linecap="round" stroke-linejoin="round" class="button">
        <path transform="matrix(.507 0 0 .507 577.312 162.896)" d="M1190.814 135.74a57.18 57.18 0 1 1-114.36 0 57.18 57.18 0 1 1 114.36 0z" fill="#fff" class="background"/>
        <path transform="matrix(.42 0 0 .42 676.368 174.766)" d="M1190.814 135.74a57.18 57.18 0 1 1-114.36 0 57.18 57.18 0 1 1 114.36 0z" fill="#fff" />
        <rect ry="6.649" y="217.763" x="1138.175" height="28" width="10.5"/>
        <rect ry="6.649" y="217.763" x="1156.175" height="28" width="10.5"/>
        <path transform="matrix(.507 0 0 .507 577.312 162.896)" d="M1190.814 135.74a57.18 57.18 0 1 1-114.36 0 57.18 57.18 0 1 1 114.36 0z" stroke="none" fill="none" class="overlay"/>
    </g>
</svg>
