<?xml version="1.0" encoding="UTF-8" standalone="no"?>
<!-- Created with Inkscape (http://www.inkscape.org/) -->

<svg
   xmlns:dc="http://purl.org/dc/elements/1.1/"
   xmlns:cc="http://creativecommons.org/ns#"
   xmlns:rdf="http://www.w3.org/1999/02/22-rdf-syntax-ns#"
   xmlns:svg="http://www.w3.org/2000/svg"
   xmlns="http://www.w3.org/2000/svg"
   version="1.1"
   width="100"
   height="100"
   id="svg3498">
  <defs
     id="defs3500" />
  <metadata
     id="metadata3503">
    <rdf:RDF>
      <cc:Work
         rdf:about="">
        <dc:format>image/svg+xml</dc:format>
        <dc:type
           rdf:resource="http://purl.org/dc/dcmitype/StillImage" />
        <dc:title></dc:title>
      </cc:Work>
    </rdf:RDF>
  </metadata>
  <g
     transform="translate(0,-952.36218)"
     id="layer1">
    <g
       transform="matrix(0.23787966,0,0,0.23787966,-238.75365,881.91861)"
       id="SettingIcon"
       style="opacity:0.98999999;display:inline">
      <path
         d="m 575.74136,721.06805 c -20.29532,17.68289 -17.01063,-16.79414 -42.1299,-7.11907 -25.11927,9.67507 0.44441,33.04071 -26.46905,33.54101 -26.91346,0.5003 -2.23583,-23.79929 -27.69732,-32.53411 -25.46149,-8.73482 -20.89772,25.59632 -41.83621,8.67993 -20.93849,-16.91638 13.58514,-19.66847 -0.30486,-42.72606 -13.89,-23.05759 -32.46158,6.17512 -37.62775,-20.24259 -5.16617,-26.41771 23.04947,-6.33457 27.23025,-32.92603 4.18077,-26.59146 -28.83631,-16.13548 -15.81285,-39.69337 13.02346,-23.55789 21.72871,9.96335 42.02403,-7.71953 20.29532,-17.68289 -11.7182,-30.89612 13.40106,-40.57119 25.11927,-9.67507 10.24084,21.59931 37.15429,21.09902 26.91346,-0.5003 10.88298,-31.20012 36.34447,-22.4653 25.46149,8.73482 -6.03884,23.12872 14.89965,40.04511 20.93849,16.91638 28.39189,-16.90523 42.28189,6.15236 13.89,23.05759 -19.49287,13.83593 -14.3267,40.25364 5.16617,26.4177 32.61593,5.29979 28.43515,31.89125 -4.18078,26.59146 -23.82597,-1.93083 -36.84943,21.62705 -13.02346,23.55789 21.5786,25.025 1.28328,42.70788 z"
         transform="translate(660.1794,-222.79771)"
         id="path3497"
         style="fill:#323232;fill-opacity:0.78431373;fill-rule:nonzero;stroke:none" />
      <path
         d="m 591.38232,693.23345 c -16.46876,29.1299 -23.56718,-12.71926 -53.02167,3.16167 -31.98108,17.24318 0.1698,44.59771 -36.16212,44.92626 -33.46162,0.3026 -0.76838,-26.7694 -29.24892,-44.33727 -30.92357,-19.07484 -38.53785,22.44591 -56.98834,-8.85418 -16.99287,-28.82732 22.79878,-14.05014 23.77274,-47.49895 1.05751,-36.31801 -38.70765,-22.1518 -20.82623,-53.78044 16.46876,-29.12991 23.56718,12.71926 53.02167,-3.16167 31.98108,-17.24318 -0.1698,-44.59772 36.16212,-44.92627 33.46162,-0.30259 0.76838,26.7694 29.24892,44.33728 30.92357,19.07483 38.53785,-22.44591 56.98834,8.85418 16.99287,28.82731 -22.79878,14.05014 -23.77274,47.49895 -1.05751,36.31801 38.70765,22.1518 20.82623,53.78044 z"
         transform="matrix(0.67095769,-0.11882302,0.11882302,0.67095769,887.68168,114.48904)"
         id="path3497-1"
         style="fill:#323200;fill-opacity:0.78431373;fill-rule:nonzero;stroke:none;display:inline" />
      <path
         d="m 575.74136,721.06805 c -21.74013,18.94172 -18.04683,-15.12801 -45.38077,-5.94773 -27.33395,9.18028 -3.82407,34.11365 -32.59049,32.13488 -28.76641,-1.97877 -2.06391,-23.45815 -27.88337,-36.29473 -25.81946,-12.83658 -26.82602,21.41796 -45.76774,-0.32217 -18.94172,-21.74013 15.12801,-18.04682 5.94773,-45.38077 -9.18028,-27.33395 -34.11365,-3.82407 -32.13488,-32.59049 1.97878,-28.76641 23.45816,-2.06391 36.29473,-27.88336 12.83659,-25.81946 -21.41796,-26.82603 0.32217,-45.76775 21.74013,-18.94172 18.04683,15.12801 45.38077,5.94773 27.33395,-9.18028 3.82407,-34.11365 32.59049,-32.13487 28.76641,1.97877 2.06391,23.45815 27.88337,36.29473 25.81946,12.83658 26.82602,-21.41797 45.76774,0.32216 18.94172,21.74013 -15.12801,18.04683 -5.94773,45.38077 9.18028,27.33395 34.11365,3.82407 32.13488,32.59049 -1.97878,28.76641 -23.45816,2.06391 -36.29473,27.88337 -12.83659,25.81946 21.41796,26.82602 -0.32217,45.76774 z"
         transform="matrix(0.77643913,0.20804624,-0.20804624,0.77643913,997.57638,13.412136)"
         id="path3497-7"
         style="fill:#320000;fill-opacity:0.78431373;fill-rule:nonzero;stroke:none;display:inline" />
      <path
         d="m 1429.1909,322.27289 a 62.116413,62.116413 0 1 1 -124.2329,0 62.116413,62.116413 0 1 1 124.2329,0 z"
         transform="matrix(0.91417913,0,0,0.91417913,-84.178565,124.74978)"
         id="path4303"
         style="fill:#323232;fill-opacity:0.78431373;fill-rule:nonzero;stroke:#fffafa;stroke-width:10.93877506;stroke-miterlimit:4;stroke-opacity:1;stroke-dasharray:none" />
      <path
         d="m 1177.645,618.4809 a 39.015266,39.015266 0 1 1 -78.0305,0 39.015266,39.015266 0 1 1 78.0305,0 z"
         transform="matrix(1.065977,0,0,1.065977,42.879297,-43.827098)"
         id="path4305"
         style="fill:#320000;fill-opacity:0.78431373;fill-rule:nonzero;stroke:#fffafa;stroke-width:7.50485229;stroke-linecap:butt;stroke-linejoin:miter;stroke-miterlimit:4;stroke-opacity:1;stroke-dasharray:none" />
      <path
         d="m 1112.2305,621.05396 a 47.189934,47.189934 0 1 1 -94.3799,0 47.189934,47.189934 0 1 1 94.3799,0 z"
         transform="matrix(0.64487737,0,0,0.64487737,615.84382,83.403635)"
         id="path4307"
         style="fill:#323200;fill-opacity:0.78431373;fill-rule:nonzero;stroke:#fffafa;stroke-width:8.76414299;stroke-linecap:butt;stroke-linejoin:miter;stroke-miterlimit:4;stroke-opacity:1;stroke-dasharray:none" />
    </g>
  </g>
</svg>
