<?xml version="1.0" encoding="UTF-8" standalone="no"?>
<!-- Created with Inkscape (http://www.inkscape.org/) -->

<svg
   xmlns="http://www.w3.org/2000/svg"
   version="1.1"
   width="100"
   height="100"
   viewBox="0 0 100 100">
  <defs>
    <filter
       x="0"
       y="0"
       width="1"
       height="1"
       color-interpolation-filters="sRGB"
       id="filter4362">
      <feColorMatrix
         values="0"
         type="saturate"
         id="feColorMatrix4364" />
    </filter>
  </defs>
  <g
     transform="translate(0,52)"
     class="button">
    <path
       d="m 99.142857,49.285713 a 49.714287,49.42857 0 1 1 -99.42857401,0 49.714287,49.42857 0 1 1 99.42857401,0 z"
       transform="matrix(0.97620756,0,0,0.98185043,1.7474565,-50.391199)"
       class="background"
       fill="#ffffff"
       fill-opacity="1"
       stroke="#ff8080"
       style="opacity:0.87654323;stroke-width:1.02142441;stroke-linecap:butt;stroke-linejoin:round;stroke-miterlimit:4;stroke-opacity:1;stroke-dasharray:none;stroke-dashoffset:0" />
    <path
       d="M 62.857142,63.000001 C 60.44943,64.946661 34.713557,48.423039 31.621459,48.582703 28.52936,48.742367 4.6322554,67.828845 2.0368473,66.140526 -0.55856084,64.452208 7.2035157,34.869858 6.0961553,31.978436 4.9887949,29.087015 -20.548136,12.257564 -19.744475,9.2674648 -18.940813,6.2773658 11.592287,4.5180904 13.999999,2.5714298 16.407711,0.62476918 24.522124,-28.862882 27.614223,-29.022546 30.706321,-29.18221 41.814738,-0.68715179 44.410146,1.001167 47.005554,2.6894858 77.557469,1.2945665 78.664829,4.1859878 79.772189,7.077409 56.104468,26.447599 55.300807,29.437698 c -0.803661,2.990099 9.964046,31.615642 7.556335,33.562303 z"
       transform="matrix(0.7468271,0.02934373,-0.03037924,0.72137088,27.992367,-20.264011)"
       id="path3567"
       style="opacity:0.87654323;fill:#d4bc00;fill-opacity:1;stroke:#aa8800;stroke-width:5.44517231;stroke-linecap:butt;stroke-linejoin:round;stroke-miterlimit:4;stroke-opacity:1;stroke-dasharray:none;stroke-dashoffset:0;filter:url(#filter4362)" />
    <path
       d="M 17.557939,22.442061 80.692061,-29.442061"
       id="path4358"
       style="fill:#d40000;stroke:#d40000;stroke-width:8.52960968;stroke-linecap:round;stroke-linejoin:miter;stroke-miterlimit:4;stroke-opacity:1;stroke-dasharray:none" />
    <path
       d="m 99.142857,49.285713 a 49.714287,49.42857 0 1 1 -99.42857401,0 49.714287,49.42857 0 1 1 99.42857401,0 z"
       transform="matrix(0.97620756,0,0,0.98185043,1.7474565,-50.391199)"
       class="overlay"
       fill="none"
       fill-opacity="1"
       stroke="none"
       style="opacity:0.87654323;stroke-width:1.02142441;stroke-linecap:butt;stroke-linejoin:round;stroke-miterlimit:4;stroke-opacity:1;stroke-dasharray:none;stroke-dashoffset:0" />
  </g>
</svg>
