<?xml version="1.0" encoding="UTF-8" standalone="no"?>
<!-- Created with Inkscape (http://www.inkscape.org/) -->

<svg
   xmlns:dc="http://purl.org/dc/elements/1.1/"
   xmlns:cc="http://creativecommons.org/ns#"
   xmlns:rdf="http://www.w3.org/1999/02/22-rdf-syntax-ns#"
   xmlns:svg="http://www.w3.org/2000/svg"
   xmlns="http://www.w3.org/2000/svg"
   version="1.1"
   width="400"
   height="400"
   viewBox="0 0 400 400"
   id="svg2">
  <defs
     id="defs4">
    <linearGradient
       id="linearGradient3791">
      <stop
         id="stop3793"
         style="stop-color:#008000;stop-opacity:1"
         offset="0" />
      <stop
         id="stop3795"
         style="stop-color:#000000;stop-opacity:0"
         offset="1" />
    </linearGradient>
  </defs>
  <metadata
     id="metadata7">
    <rdf:RDF>
      <cc:Work
         rdf:about="">
        <dc:format>image/svg+xml</dc:format>
        <dc:type
           rdf:resource="http://purl.org/dc/dcmitype/StillImage" />
        <dc:title></dc:title>
      </cc:Work>
    </rdf:RDF>
  </metadata>
  <g
     transform="translate(0,-652.36218)"
     id="layer1">
    <rect
       width="117.85851"
       height="137.07878"
       x="57.578285"
       y="782.74152"
       id="rect2985"
       style="fill:#008000;fill-opacity:1;fill-rule:evenodd;stroke:none" />
    <path
       d="m 179.80716,165.64461 a 56.063465,42.426407 0 1 1 -112.126935,0 l 56.063465,0 z"
       transform="matrix(1.0704034,0,0,-1.3887545,-15.94812,1007.9714)"
       id="path3789"
       style="fill:#008000;fill-opacity:1;stroke:none" />
    <rect
       width="28.113039"
       height="50.502743"
       x="70.553535"
       y="923.42773"
       id="rect3805"
       style="fill:#008000;fill-opacity:1;stroke:none" />
    <rect
       width="28.113039"
       height="50.502743"
       x="137.59232"
       y="923.42773"
       id="rect3805-7"
       style="fill:#008000;fill-opacity:1;stroke:none" />
    <path
       d="m 95.99949,137.09376 a 5.0507627,6.5659914 0 1 1 -0.035,0.77166"
       transform="matrix(1.0704034,0,0,1.1903611,-15.94812,589.17194)"
       id="path3825"
       style="fill:#000000;fill-opacity:1;stroke:none" />
    <path
       d="m 95.99949,137.09376 a 5.0507627,6.5659914 0 1 1 -0.035,0.77166"
       transform="matrix(1.0704034,0,0,1.1903611,29.73531,590.37438)"
       id="path3825-7"
       style="fill:#000000;fill-opacity:1;stroke:none" />
    <rect
       width="25.995512"
       height="107.98274"
       ry="14.454385"
       x="26.868015"
       y="787.2821"
       id="rect3845"
       style="fill:#008000;fill-opacity:1;stroke:none" />
    <path
       d="m 283.21601,215.51571 a 51.785713,92.85714 0 1 1 -0.35887,10.91286"
       transform="matrix(1.0704034,0,0,1.1903611,-53.412239,587.30137)"
       id="path3865"
       style="fill:#000000;fill-opacity:1;stroke:none" />
    <path
       d="m 282.99822,264.94269 a 20.357143,46.07143 0 1 1 -0.14107,5.41446"
       transform="matrix(1.6149681,0,0,1.4579357,-185.27364,496.68012)"
       id="path3870"
       style="fill:#ffffff;fill-opacity:1;stroke:none" />
    <path
       d="m 297.89428,282.43742 a 5.3571429,3.5714285 0 1 1 -0.0371,0.41973"
       transform="matrix(1.0704034,0,0,1.1903611,-15.94812,579.64905)"
       id="path3872"
       style="fill:#ffffff;fill-opacity:1;stroke:none" />
    <path
       d="m 218.01307,344.43451 a 22.5,13.928572 0 0 1 44.61057,-0.36455 l -22.26649,2.00148 z"
       transform="matrix(1.0704034,0,0,1.1903611,20.751426,566.04491)"
       id="path3874"
       style="fill:#ff6600;fill-opacity:1;stroke:none" />
    <path
       d="m 218.01307,344.43451 a 22.5,13.928572 0 0 1 44.61057,-0.36455 l -22.26649,2.00148 z"
       transform="matrix(1.0704034,0,0,1.1903611,76.224547,564.55776)"
       id="path3874-2"
       style="fill:#ff6600;fill-opacity:1;stroke:none" />
    <path
       d="m 381.82925,183.642 a 6.7857141,12.678572 0 1 1 -0.0309,0.11293 l 6.05876,5.70935 z"
       transform="matrix(1.0704034,0,0,1.1903611,-117.63645,557.96748)"
       id="path3900"
       style="fill:#ffffff;fill-opacity:1;stroke:none" />
    <path
       d="m 381.82925,183.642 a 6.7857141,12.678572 0 1 1 -0.0309,0.11293 l 6.05876,5.70935 z"
       transform="matrix(1.0704034,0,0,1.1903611,-100.81583,557.75491)"
       id="path3900-6"
       style="fill:#ffffff;fill-opacity:1;stroke:none" />
    <path
       d="m 384.48933,242.54248 -14.15193,-7.23421 -14.15193,-7.23421 13.34097,-8.63882 13.34097,-8.63883 0.81096,15.87303 z"
       transform="matrix(0.00418177,-1.2434568,0.60207433,0.00250404,168.10251,1280.9854)"
       id="path3921"
       style="fill:#ff6600;fill-opacity:1;stroke:none" />
    <path
       d="m 424.0301,194.24897 a 4.1071429,7.8571429 0 1 1 -0.40902,4.82634 l 4.05748,-1.21816 z"
       transform="matrix(1.0704034,0,0,0.71702058,-145.54339,639.39882)"
       id="path3923"
       style="fill:#000000;fill-opacity:1;stroke:none" />
    <path
       d="m 424.0301,194.24897 a 4.1071429,7.8571429 0 1 1 -0.40902,4.82634 l 4.05748,-1.21816 z"
       transform="matrix(1.0704034,0,0,0.71702058,-162.19989,638.8674)"
       id="path3923-0"
       style="fill:#000000;fill-opacity:1;stroke:none" />
    <path
       d="m 449.52175,221.72778 a 20.357143,47.5 0 1 1 26.85257,58.5524 l -7.44576,-44.20875 z"
       transform="matrix(1.0704034,0,0,1.1903611,-143.63195,589.85214)"
       id="path3943"
       style="fill:#000000;fill-opacity:1;stroke:none" />
    <path
       d="m 449.52175,221.72778 a 20.357143,47.5 0 1 1 26.85257,58.5524 l -7.44576,-44.20875 z"
       transform="matrix(-0.96780565,-0.50853929,-0.45729167,1.0762654,799.97861,844.09231)"
       id="path3943-4"
       style="fill:#000000;fill-opacity:1;stroke:none" />
    <rect
       width="26.396502"
       height="106.61686"
       ry="14.271548"
       x="-100.96519"
       y="809.56482"
       transform="matrix(0.91785865,-0.39690742,0.33006788,0.9439572,0,0)"
       id="rect3845-1"
       style="fill:#008000;fill-opacity:1;stroke:none" />
  </g>
</svg>
